M48
; DRILL file KiCad 10.0.4 date 2026-08-14T16:35:35
; FORMAT={-:-/ absolute / metric / decimal}
; #@! TF.CreationDate,2026-08-14T16:35:35-05:00
; #@! TF.GenerationSoftware,Kicad,Pcbnew,10.0.4
; #@! TF.FileFunction,NonPlated,1,4,NPTH
FMAT,2
METRIC
; #@! TA.AperFunction,NonPlated,NPTH,ComponentDrill
T1C2.500
; #@! TA.AperFunction,NonPlated,NPTH,ComponentDrill
T2C3.200
%
G90
G05
T1
X40.06Y-25.475
X40.06Y-44.525
X95.94Y-25.475
X95.94Y-44.525
T2
X7.5Y-100.5
X10.5Y-9.5
X18.46Y-102.39
X29.89Y-102.39
X44.5Y-102.5
X55.93Y-102.5
X70.5Y-102.5
X81.93Y-102.5
X89.394Y-103.983
X96.5Y-102.5
X107.93Y-102.5
X122.5Y-102.5
X133.93Y-102.5
X141.5Y-104.0
X148.5Y-102.5
X157.5Y-53.5
X159.93Y-102.5
X172.57Y-102.5
X184.0Y-102.5
X194.5Y-82.0
X195.0Y-102.5
X206.43Y-102.5
X211.0Y-8.0
X214.5Y-100.5
M30
