M48
; DRILL file KiCad 10.0.4 date 2026-08-09T09:16:00
; FORMAT={-:-/ absolute / metric / decimal}
; #@! TF.CreationDate,2026-08-09T09:16:00-05:00
; #@! TF.GenerationSoftware,Kicad,Pcbnew,10.0.4
; #@! TF.FileFunction,NonPlated,1,4,NPTH
FMAT,2
METRIC
; #@! TA.AperFunction,NonPlated,NPTH,ComponentDrill
T1C2.500
; #@! TA.AperFunction,NonPlated,NPTH,ComponentDrill
T2C3.200
%
G90
G05
T1
X40.06Y-25.475
X40.06Y-44.525
X95.94Y-25.475
X95.94Y-44.525
T2
X8.0Y-102.0
X10.5Y-9.5
X17.46Y-99.89
X31.43Y-99.89
X43.46Y-99.89
X57.43Y-99.89
X69.46Y-99.89
X83.43Y-99.89
X95.46Y-99.89
X109.43Y-99.89
X121.46Y-99.89
X135.43Y-99.89
X147.46Y-99.89
X157.5Y-53.5
X161.43Y-99.89
X173.46Y-99.89
X187.43Y-99.89
X194.5Y-82.0
X199.46Y-99.89
X211.0Y-8.0
X213.43Y-99.89
M30
