%TF.GenerationSoftware,KiCad,Pcbnew,10.0.4*%
%TF.CreationDate,2026-08-14T16:35:29-05:00*%
%TF.ProjectId,Cluster_Servo_Board,436c7573-7465-4725-9f53-6572766f5f42,rev?*%
%TF.SameCoordinates,Original*%
%TF.FileFunction,Copper,L1,Top*%
%TF.FilePolarity,Positive*%
%FSLAX46Y46*%
G04 Gerber Fmt 4.6, Leading zero omitted, Abs format (unit mm)*
G04 Created by KiCad (PCBNEW 10.0.4) date 2026-08-14 16:35:29*
%MOMM*%
%LPD*%
G01*
G04 APERTURE LIST*
%TA.AperFunction,ComponentPad*%
%ADD10C,1.500000*%
%TD*%
%TA.AperFunction,ComponentPad*%
%ADD11R,1.500000X1.500000*%
%TD*%
%TA.AperFunction,ComponentPad*%
%ADD12R,2.200000X2.200000*%
%TD*%
%TA.AperFunction,ComponentPad*%
%ADD13C,2.200000*%
%TD*%
%TA.AperFunction,ComponentPad*%
%ADD14R,2.500000X2.500000*%
%TD*%
%TA.AperFunction,ComponentPad*%
%ADD15C,2.500000*%
%TD*%
%TA.AperFunction,ComponentPad*%
%ADD16R,5.500000X5.500000*%
%TD*%
%TA.AperFunction,ComponentPad*%
%ADD17C,5.500000*%
%TD*%
%TA.AperFunction,ComponentPad*%
%ADD18C,2.100000*%
%TD*%
%TA.AperFunction,ComponentPad*%
%ADD19R,2.100000X2.100000*%
%TD*%
%TA.AperFunction,ViaPad*%
%ADD20C,0.800000*%
%TD*%
%TA.AperFunction,Conductor*%
%ADD21C,0.400000*%
%TD*%
G04 APERTURE END LIST*
D10*
%TO.P,J5,8*%
%TO.N,LED_OUT4*%
X106660000Y-93610000D03*
%TO.P,J5,7*%
%TO.N,LED_IN4*%
X105390000Y-96150000D03*
%TO.P,J5,6*%
%TO.N,PWM7*%
X104120000Y-93610000D03*
%TO.P,J5,5*%
%TO.N,PWM6*%
X102850000Y-96150000D03*
%TO.P,J5,4*%
%TO.N,GND*%
X101580000Y-93610000D03*
%TO.P,J5,3*%
X100310000Y-96150000D03*
%TO.P,J5,2*%
%TO.N,+5V_SERVO*%
X99040000Y-93610000D03*
D11*
%TO.P,J5,1*%
X97770000Y-96150000D03*
%TD*%
D12*
%TO.P,JP7,1*%
%TO.N,LED_OUT7*%
X186460000Y-68000000D03*
D13*
%TO.P,JP7,2*%
%TO.N,LED_IN8*%
X189000000Y-68000000D03*
%TO.P,JP7,3*%
%TO.N,LED_IN7*%
X191540000Y-68000000D03*
%TD*%
D12*
%TO.P,C6,1*%
%TO.N,+5V_SERVO*%
X44960000Y-86500000D03*
D13*
%TO.P,C6,2*%
%TO.N,GND*%
X47500000Y-86500000D03*
%TD*%
D12*
%TO.P,C9,1*%
%TO.N,+5V_SERVO*%
X121960000Y-87000000D03*
D13*
%TO.P,C9,2*%
%TO.N,GND*%
X124500000Y-87000000D03*
%TD*%
D12*
%TO.P,JP4,1*%
%TO.N,LED_OUT4*%
X108460000Y-68000000D03*
D13*
%TO.P,JP4,2*%
%TO.N,LED_IN5*%
X111000000Y-68000000D03*
%TO.P,JP4,3*%
%TO.N,LED_IN4*%
X113540000Y-68000000D03*
%TD*%
D12*
%TO.P,C11,1*%
%TO.N,+5V_SERVO*%
X174460000Y-86500000D03*
D13*
%TO.P,C11,2*%
%TO.N,GND*%
X177000000Y-86500000D03*
%TD*%
D12*
%TO.P,C5,1*%
%TO.N,+5V_SERVO*%
X19500000Y-87000000D03*
D13*
%TO.P,C5,2*%
%TO.N,GND*%
X22040000Y-87000000D03*
%TD*%
D11*
%TO.P,J3,1*%
%TO.N,+5V_SERVO*%
X45770000Y-96150000D03*
D10*
%TO.P,J3,2*%
X47040000Y-93610000D03*
%TO.P,J3,3*%
%TO.N,GND*%
X48310000Y-96150000D03*
%TO.P,J3,4*%
X49580000Y-93610000D03*
%TO.P,J3,5*%
%TO.N,PWM2*%
X50850000Y-96150000D03*
%TO.P,J3,6*%
%TO.N,PWM3*%
X52120000Y-93610000D03*
%TO.P,J3,7*%
%TO.N,LED_IN2*%
X53390000Y-96150000D03*
%TO.P,J3,8*%
%TO.N,LED_OUT2*%
X54660000Y-93610000D03*
%TD*%
D12*
%TO.P,JP5,1*%
%TO.N,LED_OUT5*%
X134460000Y-68000000D03*
D13*
%TO.P,JP5,2*%
%TO.N,LED_IN6*%
X137000000Y-68000000D03*
%TO.P,JP5,3*%
%TO.N,LED_IN5*%
X139540000Y-68000000D03*
%TD*%
D12*
%TO.P,C13,1*%
%TO.N,+5V_SERVO*%
X136730000Y-24000000D03*
D13*
%TO.P,C13,2*%
%TO.N,GND*%
X139270000Y-24000000D03*
%TD*%
D14*
%TO.P,C1,1*%
%TO.N,+5V_SERVO*%
X20000000Y-55000000D03*
D15*
%TO.P,C1,2*%
%TO.N,GND*%
X25000000Y-55000000D03*
%TD*%
D11*
%TO.P,J7,1*%
%TO.N,+5V_SERVO*%
X149770000Y-96150000D03*
D10*
%TO.P,J7,2*%
X151040000Y-93610000D03*
%TO.P,J7,3*%
%TO.N,GND*%
X152310000Y-96150000D03*
%TO.P,J7,4*%
X153580000Y-93610000D03*
%TO.P,J7,5*%
%TO.N,PWM10*%
X154850000Y-96150000D03*
%TO.P,J7,6*%
%TO.N,PWM11*%
X156120000Y-93610000D03*
%TO.P,J7,7*%
%TO.N,LED_IN6*%
X157390000Y-96150000D03*
%TO.P,J7,8*%
%TO.N,LED_OUT6*%
X158660000Y-93610000D03*
%TD*%
D16*
%TO.P,J11,1*%
%TO.N,+5V_SERVO*%
X198190000Y-20000000D03*
D17*
%TO.P,J11,2*%
%TO.N,GND*%
X205810000Y-20000000D03*
%TD*%
D12*
%TO.P,C8,1*%
%TO.N,+5V_SERVO*%
X97000000Y-86000000D03*
D13*
%TO.P,C8,2*%
%TO.N,GND*%
X99540000Y-86000000D03*
%TD*%
D11*
%TO.P,J4,1*%
%TO.N,+5V_SERVO*%
X71770000Y-96150000D03*
D10*
%TO.P,J4,2*%
X73040000Y-93610000D03*
%TO.P,J4,3*%
%TO.N,GND*%
X74310000Y-96150000D03*
%TO.P,J4,4*%
X75580000Y-93610000D03*
%TO.P,J4,5*%
%TO.N,PWM4*%
X76850000Y-96150000D03*
%TO.P,J4,6*%
%TO.N,PWM5*%
X78120000Y-93610000D03*
%TO.P,J4,7*%
%TO.N,LED_IN3*%
X79390000Y-96150000D03*
%TO.P,J4,8*%
%TO.N,LED_OUT3*%
X80660000Y-93610000D03*
%TD*%
D12*
%TO.P,JP3,1*%
%TO.N,LED_OUT3*%
X82460000Y-68000000D03*
D13*
%TO.P,JP3,2*%
%TO.N,LED_IN4*%
X85000000Y-68000000D03*
%TO.P,JP3,3*%
%TO.N,LED_IN3*%
X87540000Y-68000000D03*
%TD*%
D14*
%TO.P,C2,1*%
%TO.N,+5V_SERVO*%
X74500000Y-55000000D03*
D15*
%TO.P,C2,2*%
%TO.N,GND*%
X79500000Y-55000000D03*
%TD*%
D11*
%TO.P,J8,1*%
%TO.N,+5V_SERVO*%
X173840000Y-96150000D03*
D10*
%TO.P,J8,2*%
X175110000Y-93610000D03*
%TO.P,J8,3*%
%TO.N,GND*%
X176380000Y-96150000D03*
%TO.P,J8,4*%
X177650000Y-93610000D03*
%TO.P,J8,5*%
%TO.N,PWM12*%
X178920000Y-96150000D03*
%TO.P,J8,6*%
%TO.N,PWM13*%
X180190000Y-93610000D03*
%TO.P,J8,7*%
%TO.N,LED_IN7*%
X181460000Y-96150000D03*
%TO.P,J8,8*%
%TO.N,LED_OUT7*%
X182730000Y-93610000D03*
%TD*%
D12*
%TO.P,J1,1*%
%TO.N,GND*%
X19250000Y-20000000D03*
D13*
%TO.P,J1,2*%
X21750000Y-20000000D03*
%TO.P,J1,3*%
%TO.N,+3V3_LOGIC*%
X24250000Y-20000000D03*
%TO.P,J1,4*%
%TO.N,I2C_SDA*%
X26750000Y-20000000D03*
%TO.P,J1,5*%
%TO.N,I2C_SCL*%
X29250000Y-20000000D03*
%TO.P,J1,6*%
%TO.N,LED_DATA_3V3*%
X31750000Y-20000000D03*
%TO.P,J1,7*%
%TO.N,PCA_OE_N*%
X34250000Y-20000000D03*
%TO.P,J1,8*%
%TO.N,SPARE*%
X36750000Y-20000000D03*
%TD*%
D12*
%TO.P,C14,1*%
%TO.N,+5V_SERVO*%
X143730000Y-32000000D03*
D13*
%TO.P,C14,2*%
%TO.N,GND*%
X146270000Y-32000000D03*
%TD*%
D12*
%TO.P,C12,1*%
%TO.N,+5V_SERVO*%
X202500000Y-87500000D03*
D13*
%TO.P,C12,2*%
%TO.N,GND*%
X205040000Y-87500000D03*
%TD*%
D14*
%TO.P,C3,1*%
%TO.N,+5V_SERVO*%
X134500000Y-53000000D03*
D15*
%TO.P,C3,2*%
%TO.N,GND*%
X139500000Y-53000000D03*
%TD*%
D18*
%TO.P,U1,G0*%
%TO.N,GND*%
X45140000Y-46430000D03*
%TO.P,U1,G1*%
X47680000Y-46430000D03*
%TO.P,U1,G2*%
X50220000Y-46430000D03*
%TO.P,U1,G3*%
X52760000Y-46430000D03*
%TO.P,U1,G4*%
X57840000Y-46430000D03*
%TO.P,U1,G5*%
X60380000Y-46430000D03*
%TO.P,U1,G6*%
X62920000Y-46430000D03*
%TO.P,U1,G7*%
X65460000Y-46430000D03*
%TO.P,U1,G8*%
X70540000Y-46430000D03*
%TO.P,U1,G9*%
X73080000Y-46430000D03*
%TO.P,U1,G10*%
X75620000Y-46430000D03*
%TO.P,U1,G11*%
X78160000Y-46430000D03*
%TO.P,U1,G12*%
X83240000Y-46430000D03*
%TO.P,U1,G13*%
X85780000Y-46430000D03*
%TO.P,U1,G14*%
X88320000Y-46430000D03*
%TO.P,U1,G15*%
X90860000Y-46430000D03*
D19*
%TO.P,U1,L1*%
X39000000Y-28650000D03*
D18*
%TO.P,U1,L2*%
%TO.N,PCA_OE_N*%
X39000000Y-31190000D03*
%TO.P,U1,L3*%
%TO.N,I2C_SCL*%
X39000000Y-33730000D03*
%TO.P,U1,L4*%
%TO.N,I2C_SDA*%
X39000000Y-36270000D03*
%TO.P,U1,L5*%
%TO.N,+3V3_LOGIC*%
X39000000Y-38810000D03*
%TO.P,U1,L6*%
%TO.N,+5V_SERVO*%
X39000000Y-41350000D03*
%TO.P,U1,R1*%
%TO.N,GND*%
X97000000Y-28650000D03*
%TO.P,U1,R2*%
%TO.N,PCA_OE_N*%
X97000000Y-31190000D03*
%TO.P,U1,R3*%
%TO.N,I2C_SCL*%
X97000000Y-33730000D03*
%TO.P,U1,R4*%
%TO.N,I2C_SDA*%
X97000000Y-36270000D03*
%TO.P,U1,R5*%
%TO.N,+3V3_LOGIC*%
X97000000Y-38810000D03*
%TO.P,U1,R6*%
%TO.N,+5V_SERVO*%
X97000000Y-41350000D03*
%TO.P,U1,S0*%
%TO.N,PWM0*%
X45140000Y-41350000D03*
%TO.P,U1,S1*%
%TO.N,PWM1*%
X47680000Y-41350000D03*
%TO.P,U1,S2*%
%TO.N,PWM2*%
X50220000Y-41350000D03*
%TO.P,U1,S3*%
%TO.N,PWM3*%
X52760000Y-41350000D03*
%TO.P,U1,S4*%
%TO.N,PWM4*%
X57840000Y-41350000D03*
%TO.P,U1,S5*%
%TO.N,PWM5*%
X60380000Y-41350000D03*
%TO.P,U1,S6*%
%TO.N,PWM6*%
X62920000Y-41350000D03*
%TO.P,U1,S7*%
%TO.N,PWM7*%
X65460000Y-41350000D03*
%TO.P,U1,S8*%
%TO.N,PWM8*%
X70540000Y-41350000D03*
%TO.P,U1,S9*%
%TO.N,PWM9*%
X73080000Y-41350000D03*
%TO.P,U1,S10*%
%TO.N,PWM10*%
X75620000Y-41350000D03*
%TO.P,U1,S11*%
%TO.N,PWM11*%
X78160000Y-41350000D03*
%TO.P,U1,S12*%
%TO.N,PWM12*%
X83240000Y-41350000D03*
%TO.P,U1,S13*%
%TO.N,PWM13*%
X85780000Y-41350000D03*
%TO.P,U1,S14*%
%TO.N,PWM14*%
X88320000Y-41350000D03*
%TO.P,U1,S15*%
%TO.N,PWM15*%
X90860000Y-41350000D03*
%TO.P,U1,V0*%
%TO.N,+5V_SERVO*%
X45140000Y-43890000D03*
%TO.P,U1,V1*%
X47680000Y-43890000D03*
%TO.P,U1,V2*%
X50220000Y-43890000D03*
%TO.P,U1,V3*%
X52760000Y-43890000D03*
%TO.P,U1,V4*%
X57840000Y-43890000D03*
%TO.P,U1,V5*%
X60380000Y-43890000D03*
%TO.P,U1,V6*%
X62920000Y-43890000D03*
%TO.P,U1,V7*%
X65460000Y-43890000D03*
%TO.P,U1,V8*%
X70540000Y-43890000D03*
%TO.P,U1,V9*%
X73080000Y-43890000D03*
%TO.P,U1,V10*%
X75620000Y-43890000D03*
%TO.P,U1,V11*%
X78160000Y-43890000D03*
%TO.P,U1,V12*%
X83240000Y-43890000D03*
%TO.P,U1,V13*%
X85780000Y-43890000D03*
%TO.P,U1,V14*%
X88320000Y-43890000D03*
%TO.P,U1,V15*%
X90860000Y-43890000D03*
%TD*%
D12*
%TO.P,C10,1*%
%TO.N,+5V_SERVO*%
X151460000Y-87000000D03*
D13*
%TO.P,C10,2*%
%TO.N,GND*%
X154000000Y-87000000D03*
%TD*%
D14*
%TO.P,C4,1*%
%TO.N,+5V_SERVO*%
X186500000Y-53000000D03*
D15*
%TO.P,C4,2*%
%TO.N,GND*%
X191500000Y-53000000D03*
%TD*%
D11*
%TO.P,J6,1*%
%TO.N,+5V_SERVO*%
X123770000Y-96150000D03*
D10*
%TO.P,J6,2*%
X125040000Y-93610000D03*
%TO.P,J6,3*%
%TO.N,GND*%
X126310000Y-96150000D03*
%TO.P,J6,4*%
X127580000Y-93610000D03*
%TO.P,J6,5*%
%TO.N,PWM8*%
X128850000Y-96150000D03*
%TO.P,J6,6*%
%TO.N,PWM9*%
X130120000Y-93610000D03*
%TO.P,J6,7*%
%TO.N,LED_IN5*%
X131390000Y-96150000D03*
%TO.P,J6,8*%
%TO.N,LED_OUT5*%
X132660000Y-93610000D03*
%TD*%
D12*
%TO.P,C7,1*%
%TO.N,+5V_SERVO*%
X71460000Y-86500000D03*
D13*
%TO.P,C7,2*%
%TO.N,GND*%
X74000000Y-86500000D03*
%TD*%
D16*
%TO.P,J10,1*%
%TO.N,+5V_SERVO*%
X171190000Y-20000000D03*
D17*
%TO.P,J10,2*%
%TO.N,GND*%
X178810000Y-20000000D03*
%TD*%
D12*
%TO.P,JP2,1*%
%TO.N,LED_OUT2*%
X56460000Y-68000000D03*
D13*
%TO.P,JP2,2*%
%TO.N,LED_IN3*%
X59000000Y-68000000D03*
%TO.P,JP2,3*%
%TO.N,LED_IN2*%
X61540000Y-68000000D03*
%TD*%
D11*
%TO.P,J9,1*%
%TO.N,+5V_SERVO*%
X196270000Y-96150000D03*
D10*
%TO.P,J9,2*%
X197540000Y-93610000D03*
%TO.P,J9,3*%
%TO.N,GND*%
X198810000Y-96150000D03*
%TO.P,J9,4*%
X200080000Y-93610000D03*
%TO.P,J9,5*%
%TO.N,PWM14*%
X201350000Y-96150000D03*
%TO.P,J9,6*%
%TO.N,PWM15*%
X202620000Y-93610000D03*
%TO.P,J9,7*%
%TO.N,LED_IN8*%
X203890000Y-96150000D03*
%TO.P,J9,8*%
%TO.N,LED_OUT8*%
X205160000Y-93610000D03*
%TD*%
D12*
%TO.P,JP6,1*%
%TO.N,LED_OUT6*%
X160460000Y-68000000D03*
D13*
%TO.P,JP6,2*%
%TO.N,LED_IN7*%
X163000000Y-68000000D03*
%TO.P,JP6,3*%
%TO.N,LED_IN6*%
X165540000Y-68000000D03*
%TD*%
D11*
%TO.P,J2,1*%
%TO.N,+5V_SERVO*%
X19730000Y-96040000D03*
D10*
%TO.P,J2,2*%
X21000000Y-93500000D03*
%TO.P,J2,3*%
%TO.N,GND*%
X22270000Y-96040000D03*
%TO.P,J2,4*%
X23540000Y-93500000D03*
%TO.P,J2,5*%
%TO.N,PWM0*%
X24810000Y-96040000D03*
%TO.P,J2,6*%
%TO.N,PWM1*%
X26080000Y-93500000D03*
%TO.P,J2,7*%
%TO.N,LED_IN1*%
X27350000Y-96040000D03*
%TO.P,J2,8*%
%TO.N,LED_OUT1*%
X28620000Y-93500000D03*
%TD*%
D12*
%TO.P,JP1,1*%
%TO.N,LED_OUT1*%
X30460000Y-68000000D03*
D13*
%TO.P,JP1,2*%
%TO.N,LED_IN2*%
X33000000Y-68000000D03*
%TO.P,JP1,3*%
%TO.N,LED_IN1*%
X35540000Y-68000000D03*
%TD*%
D20*
%TO.N,LED_IN7*%
X185000000Y-74500000D03*
%TO.N,LED_OUT4*%
X114500000Y-74000000D03*
%TO.N,LED_IN5*%
X118500000Y-73000000D03*
%TO.N,PWM2*%
X51100000Y-72500000D03*
%TO.N,PWM3*%
X52000000Y-89500000D03*
%TO.N,LED_IN2*%
X49500000Y-73000000D03*
%TO.N,LED_OUT5*%
X140100000Y-73600000D03*
%TO.N,PWM11*%
X145500000Y-91000000D03*
%TO.N,LED_OUT6*%
X167000000Y-74500000D03*
%TO.N,PWM5*%
X68500000Y-60000000D03*
%TO.N,PWM12*%
X182000000Y-64000000D03*
%TO.N,PWM13*%
X94900000Y-42700000D03*
X163830759Y-74930759D03*
X168450000Y-79550000D03*
%TO.N,PWM7*%
X67500000Y-56600000D03*
%TO.N,PWM8*%
X83600000Y-50000000D03*
%TO.N,PWM9*%
X78500000Y-38500000D03*
X81500000Y-40000000D03*
%TO.N,PWM14*%
X183000000Y-84000000D03*
X139269238Y-90350000D03*
X93286585Y-39800000D03*
X159500000Y-86577301D03*
X133500000Y-84500000D03*
X170500000Y-81500000D03*
%TO.N,PWM15*%
X176000000Y-61000000D03*
%TD*%
%TO.N,LED_IN8*%
D21*
X189000000Y-67500000D02*
X189000000Y-68000000D01*
X191500000Y-65000000D02*
X189000000Y-67500000D01*
X208500000Y-69500000D02*
X204000000Y-65000000D01*
X204000000Y-65000000D02*
X191500000Y-65000000D01*
X208500000Y-94000000D02*
X208500000Y-69500000D01*
X206350000Y-96150000D02*
X208500000Y-94000000D01*
X203890000Y-96150000D02*
X206350000Y-96150000D01*
%TO.N,LED_OUT7*%
X186500000Y-91900000D02*
X186500000Y-68000000D01*
X184790000Y-93610000D02*
X186500000Y-91900000D01*
X182730000Y-93610000D02*
X184790000Y-93610000D01*
%TO.N,LED_IN7*%
X181460000Y-93140000D02*
X181460000Y-96150000D01*
X185000000Y-89600000D02*
X181460000Y-93140000D01*
X185000000Y-74500000D02*
X185000000Y-89600000D01*
%TO.N,PWM12*%
X92500000Y-19500000D02*
X83240000Y-28760000D01*
X83240000Y-28760000D02*
X83240000Y-41350000D01*
X107000000Y-19500000D02*
X92500000Y-19500000D01*
X158500000Y-40500000D02*
X128000000Y-40500000D01*
X182000000Y-64000000D02*
X158500000Y-40500000D01*
X128000000Y-40500000D02*
X107000000Y-19500000D01*
%TO.N,PWM13*%
X171500000Y-90500000D02*
X179010000Y-90500000D01*
X168500000Y-87500000D02*
X171500000Y-90500000D01*
X168500000Y-79600000D02*
X168500000Y-87500000D01*
X179010000Y-90500000D02*
X180190000Y-91680000D01*
X168450000Y-79550000D02*
X168500000Y-79600000D01*
X180190000Y-91680000D02*
X180190000Y-93610000D01*
%TO.N,LED_IN7*%
X180300000Y-68000000D02*
X169000000Y-68000000D01*
X169000000Y-68000000D02*
X167000000Y-66000000D01*
X185000000Y-72700000D02*
X180300000Y-68000000D01*
X165000000Y-66000000D02*
X163000000Y-68000000D01*
X185000000Y-74500000D02*
X185000000Y-72700000D01*
X167000000Y-66000000D02*
X165000000Y-66000000D01*
%TO.N,LED_OUT4*%
X114500000Y-85900000D02*
X106900000Y-93500000D01*
X114500000Y-74000000D02*
X114500000Y-85900000D01*
%TO.N,LED_IN5*%
X132899145Y-87600000D02*
X135000000Y-87600000D01*
X118500000Y-73000000D02*
X118500000Y-73200855D01*
X139000000Y-83600000D02*
X139000000Y-68500000D01*
X118500000Y-73200855D02*
X132899145Y-87600000D01*
X139000000Y-68500000D02*
X139500000Y-68000000D01*
X131390000Y-96150000D02*
X131390000Y-91210000D01*
X131390000Y-91210000D02*
X139000000Y-83600000D01*
%TO.N,LED_IN4*%
X86500000Y-70000000D02*
X85000000Y-68500000D01*
X113100000Y-68000000D02*
X113100000Y-67560000D01*
X106500000Y-64500000D02*
X104500000Y-66500000D01*
X85000000Y-68500000D02*
X85000000Y-68000000D01*
X105390000Y-93110000D02*
X113500000Y-85000000D01*
X110040000Y-64500000D02*
X106500000Y-64500000D01*
X89000000Y-70000000D02*
X86500000Y-70000000D01*
X113100000Y-67560000D02*
X110040000Y-64500000D01*
X105390000Y-96150000D02*
X105390000Y-93110000D01*
X92500000Y-66500000D02*
X89000000Y-70000000D01*
X113500000Y-85000000D02*
X113500000Y-68000000D01*
X104500000Y-66500000D02*
X92500000Y-66500000D01*
%TO.N,PWM2*%
X50700000Y-40800000D02*
X50700000Y-41400000D01*
X53500000Y-39500000D02*
X52000000Y-39500000D01*
X51100000Y-72500000D02*
X51100000Y-72350000D01*
X52000000Y-39500000D02*
X50700000Y-40800000D01*
X54500000Y-40500000D02*
X53500000Y-39500000D01*
X54500000Y-68950000D02*
X54500000Y-40500000D01*
X51100000Y-72350000D02*
X54500000Y-68950000D01*
%TO.N,PWM3*%
X52000000Y-93490000D02*
X52120000Y-93610000D01*
X52000000Y-89500000D02*
X52000000Y-93490000D01*
%TO.N,LED_IN2*%
X49500000Y-73000000D02*
X54500000Y-78000000D01*
X54500000Y-78000000D02*
X54500000Y-75000000D01*
X54500000Y-91500000D02*
X54500000Y-78000000D01*
X54500000Y-75000000D02*
X61500000Y-68000000D01*
X53390000Y-92610000D02*
X54500000Y-91500000D01*
X53390000Y-96150000D02*
X53390000Y-92610000D01*
%TO.N,LED_OUT5*%
X140050000Y-86450000D02*
X140050000Y-73650000D01*
X133000000Y-93500000D02*
X140050000Y-86450000D01*
X132900000Y-93500000D02*
X133000000Y-93500000D01*
X140050000Y-73650000D02*
X140100000Y-73600000D01*
%TO.N,LED_IN6*%
X165500000Y-78000000D02*
X165455025Y-78000000D01*
X141000000Y-63500000D02*
X137400000Y-67100000D01*
X165500000Y-83100000D02*
X165500000Y-68000000D01*
X157390000Y-91210000D02*
X165500000Y-83100000D01*
X150955025Y-63500000D02*
X141000000Y-63500000D01*
X137400000Y-67100000D02*
X137400000Y-68000000D01*
X157390000Y-96150000D02*
X157390000Y-91210000D01*
X165455025Y-78000000D02*
X150955025Y-63500000D01*
%TO.N,PWM11*%
X153510000Y-91000000D02*
X145500000Y-91000000D01*
X156120000Y-93610000D02*
X153510000Y-91000000D01*
%TO.N,LED_OUT6*%
X167000000Y-83000000D02*
X160500000Y-89500000D01*
X167000000Y-74500000D02*
X167000000Y-83000000D01*
X160500000Y-91900000D02*
X158900000Y-93500000D01*
X160500000Y-89500000D02*
X160500000Y-91900000D01*
%TO.N,PWM5*%
X62000000Y-39500000D02*
X60800000Y-40700000D01*
X68500000Y-41990405D02*
X66009595Y-39500000D01*
X68500000Y-60000000D02*
X68500000Y-41990405D01*
X60800000Y-40700000D02*
X60800000Y-41400000D01*
X66009595Y-39500000D02*
X62000000Y-39500000D01*
%TO.N,LED_IN3*%
X79390000Y-96150000D02*
X79500000Y-96040000D01*
X79500000Y-93072943D02*
X79500000Y-66500000D01*
X79100000Y-66000000D02*
X61300000Y-66000000D01*
X85500000Y-66000000D02*
X87500000Y-68000000D01*
X79460000Y-93112943D02*
X79500000Y-93072943D01*
X79500000Y-96040000D02*
X79500000Y-94147057D01*
X79460000Y-94107057D02*
X79460000Y-93112943D01*
X79500000Y-66400000D02*
X79100000Y-66000000D01*
X61300000Y-66000000D02*
X59300000Y-68000000D01*
X79500000Y-94147057D02*
X79460000Y-94107057D01*
X80000000Y-66000000D02*
X85500000Y-66000000D01*
X79500000Y-66500000D02*
X79500000Y-66400000D01*
X79500000Y-66500000D02*
X80000000Y-66000000D01*
%TO.N,LED_OUT3*%
X82500000Y-91900000D02*
X82500000Y-68000000D01*
X80900000Y-93500000D02*
X82500000Y-91900000D01*
%TO.N,PWM13*%
X94000000Y-47000000D02*
X94000000Y-43600000D01*
X95500000Y-48500000D02*
X94000000Y-47000000D01*
X101000000Y-48500000D02*
X95500000Y-48500000D01*
X103000000Y-46500000D02*
X101000000Y-48500000D01*
X94000000Y-43600000D02*
X94900000Y-42700000D01*
X152950000Y-64050000D02*
X152950000Y-59450000D01*
X140000000Y-46500000D02*
X103000000Y-46500000D01*
X152950000Y-59450000D02*
X140000000Y-46500000D01*
X163830759Y-74930759D02*
X152950000Y-64050000D01*
%TO.N,+3V3_LOGIC*%
X96200000Y-38000000D02*
X97000000Y-38800000D01*
X24200000Y-20000000D02*
X24200000Y-24000000D01*
X24200000Y-24000000D02*
X38200000Y-38000000D01*
%TO.N,I2C_SDA*%
X26800000Y-24100000D02*
X26800000Y-20000000D01*
X39000000Y-36300000D02*
X26800000Y-24100000D01*
%TO.N,I2C_SCL*%
X39000000Y-33700000D02*
X29200000Y-23900000D01*
X29200000Y-23900000D02*
X29200000Y-20000000D01*
%TO.N,PCA_OE_N*%
X38740000Y-31190000D02*
X39000000Y-31190000D01*
X34250000Y-20000000D02*
X34250000Y-26700000D01*
X34250000Y-26700000D02*
X38740000Y-31190000D01*
%TO.N,PWM7*%
X67500000Y-43400000D02*
X65500000Y-41400000D01*
X67500000Y-56600000D02*
X67500000Y-43400000D01*
%TO.N,PWM0*%
X27500000Y-99000000D02*
X30000000Y-99000000D01*
X24810000Y-96040000D02*
X24810000Y-96310000D01*
X41000000Y-88000000D02*
X41000000Y-68750000D01*
X30000000Y-99000000D02*
X41000000Y-88000000D01*
X43000000Y-43500000D02*
X45100000Y-41400000D01*
X24810000Y-96310000D02*
X27500000Y-99000000D01*
X43000000Y-66750000D02*
X43000000Y-43500000D01*
X41000000Y-68750000D02*
X43000000Y-66750000D01*
%TO.N,PWM1*%
X25960000Y-68540000D02*
X29000000Y-65500000D01*
X25960000Y-93620000D02*
X26080000Y-93500000D01*
X42000000Y-42000000D02*
X44500000Y-39500000D01*
X25960000Y-93380000D02*
X25960000Y-68540000D01*
X39463604Y-65500000D02*
X42000000Y-62963604D01*
X45900000Y-39500000D02*
X47200000Y-40800000D01*
X47200000Y-40800000D02*
X47200000Y-41400000D01*
X29000000Y-65500000D02*
X39463604Y-65500000D01*
X42000000Y-62963604D02*
X42000000Y-42000000D01*
X44500000Y-39500000D02*
X45900000Y-39500000D01*
X26080000Y-93500000D02*
X25960000Y-93380000D01*
%TO.N,PWM8*%
X81000000Y-41924264D02*
X78875736Y-39800000D01*
X81000000Y-47250000D02*
X81000000Y-41924264D01*
X78668629Y-39800000D02*
X78368629Y-39500000D01*
X82800000Y-49200000D02*
X82800000Y-49050000D01*
X72700000Y-39500000D02*
X70800000Y-41400000D01*
X83600000Y-50000000D02*
X82800000Y-49200000D01*
X82800000Y-49050000D02*
X81000000Y-47250000D01*
X78875736Y-39800000D02*
X78668629Y-39800000D01*
X78368629Y-39500000D02*
X72700000Y-39500000D01*
%TO.N,PWM9*%
X80000000Y-40000000D02*
X81500000Y-40000000D01*
X78500000Y-38500000D02*
X80000000Y-40000000D01*
%TO.N,PWM14*%
X96000000Y-51500000D02*
X112000000Y-51500000D01*
X159500000Y-86577301D02*
X155422699Y-82500000D01*
X93286585Y-39800000D02*
X93286585Y-42584503D01*
X120000000Y-59500000D02*
X120000000Y-73000000D01*
X147119238Y-82500000D02*
X139269238Y-90350000D01*
X112000000Y-51500000D02*
X120000000Y-59500000D01*
X93286585Y-42584503D02*
X93182977Y-42688111D01*
X155422699Y-82500000D02*
X147119238Y-82500000D01*
X120000000Y-73000000D02*
X131500000Y-84500000D01*
X93182977Y-42688111D02*
X93182977Y-48682977D01*
X93182977Y-48682977D02*
X96000000Y-51500000D01*
X183000000Y-84000000D02*
X180500000Y-81500000D01*
X131500000Y-84500000D02*
X133500000Y-84500000D01*
X180500000Y-81500000D02*
X170500000Y-81500000D01*
%TO.N,PWM15*%
X122000000Y-44000000D02*
X159000000Y-44000000D01*
X90860000Y-41350000D02*
X90860000Y-25640000D01*
X159000000Y-44000000D02*
X176000000Y-61000000D01*
X90860000Y-25640000D02*
X94500000Y-22000000D01*
X100000000Y-22000000D02*
X122000000Y-44000000D01*
X94500000Y-22000000D02*
X100000000Y-22000000D01*
%TO.N,LED_IN1*%
X35500000Y-68040000D02*
X35500000Y-91000000D01*
X35540000Y-68000000D02*
X35500000Y-68040000D01*
X30460000Y-96040000D02*
X27350000Y-96040000D01*
X35500000Y-91000000D02*
X30460000Y-96040000D01*
%TO.N,LED_OUT1*%
X30500000Y-91500000D02*
X30500000Y-68000000D01*
X28620000Y-93380000D02*
X30500000Y-91500000D01*
X28620000Y-93500000D02*
X28620000Y-93380000D01*
%TD*%
M02*
