M48
; DRILL file KiCad 10.0.4 date 2026-08-14T16:35:35
; FORMAT={-:-/ absolute / metric / decimal}
; #@! TF.CreationDate,2026-08-14T16:35:35-05:00
; #@! TF.GenerationSoftware,Kicad,Pcbnew,10.0.4
; #@! TF.FileFunction,Plated,1,4,PTH
FMAT,2
METRIC
; #@! TA.AperFunction,Plated,PTH,ViaDrill
T1C0.400
; #@! TA.AperFunction,Plated,PTH,ViaDrill
T2C0.500
; #@! TA.AperFunction,Plated,PTH,ComponentDrill
T3C0.760
; #@! TA.AperFunction,Plated,PTH,ComponentDrill
T4C1.000
; #@! TA.AperFunction,Plated,PTH,ComponentDrill
T5C2.200
%
G90
G05
T1
X49.5Y-73.0
X51.1Y-72.5
X52.0Y-89.5
X67.5Y-56.6
X68.5Y-60.0
X83.6Y-50.0
X93.287Y-39.8
X94.9Y-42.7
X114.5Y-74.0
X118.5Y-73.0
X133.5Y-84.5
X139.269Y-90.35
X140.1Y-73.6
X145.5Y-91.0
X159.5Y-86.577
X163.831Y-74.931
X167.0Y-74.5
X168.45Y-79.55
X170.5Y-81.5
X176.0Y-61.0
X182.0Y-64.0
X183.0Y-84.0
X185.0Y-74.5
T2
X78.5Y-38.5
X81.5Y-40.0
T3
X19.73Y-96.04
X21.0Y-93.5
X22.27Y-96.04
X23.54Y-93.5
X24.81Y-96.04
X26.08Y-93.5
X27.35Y-96.04
X28.62Y-93.5
X45.77Y-96.15
X47.04Y-93.61
X48.31Y-96.15
X49.58Y-93.61
X50.85Y-96.15
X52.12Y-93.61
X53.39Y-96.15
X54.66Y-93.61
X71.77Y-96.15
X73.04Y-93.61
X74.31Y-96.15
X75.58Y-93.61
X76.85Y-96.15
X78.12Y-93.61
X79.39Y-96.15
X80.66Y-93.61
X97.77Y-96.15
X99.04Y-93.61
X100.31Y-96.15
X101.58Y-93.61
X102.85Y-96.15
X104.12Y-93.61
X105.39Y-96.15
X106.66Y-93.61
X123.77Y-96.15
X125.04Y-93.61
X126.31Y-96.15
X127.58Y-93.61
X128.85Y-96.15
X130.12Y-93.61
X131.39Y-96.15
X132.66Y-93.61
X149.77Y-96.15
X151.04Y-93.61
X152.31Y-96.15
X153.58Y-93.61
X154.85Y-96.15
X156.12Y-93.61
X157.39Y-96.15
X158.66Y-93.61
X173.84Y-96.15
X175.11Y-93.61
X176.38Y-96.15
X177.65Y-93.61
X178.92Y-96.15
X180.19Y-93.61
X181.46Y-96.15
X182.73Y-93.61
X196.27Y-96.15
X197.54Y-93.61
X198.81Y-96.15
X200.08Y-93.61
X201.35Y-96.15
X202.62Y-93.61
X203.89Y-96.15
X205.16Y-93.61
T4
X19.25Y-20.0
X19.5Y-87.0
X20.0Y-55.0
X21.75Y-20.0
X22.04Y-87.0
X24.25Y-20.0
X25.0Y-55.0
X26.75Y-20.0
X29.25Y-20.0
X30.46Y-68.0
X31.75Y-20.0
X33.0Y-68.0
X34.25Y-20.0
X35.54Y-68.0
X36.75Y-20.0
X39.0Y-28.65
X39.0Y-31.19
X39.0Y-33.73
X39.0Y-36.27
X39.0Y-38.81
X39.0Y-41.35
X44.96Y-86.5
X45.14Y-41.35
X45.14Y-43.89
X45.14Y-46.43
X47.5Y-86.5
X47.68Y-41.35
X47.68Y-43.89
X47.68Y-46.43
X50.22Y-41.35
X50.22Y-43.89
X50.22Y-46.43
X52.76Y-41.35
X52.76Y-43.89
X52.76Y-46.43
X56.46Y-68.0
X57.84Y-41.35
X57.84Y-43.89
X57.84Y-46.43
X59.0Y-68.0
X60.38Y-41.35
X60.38Y-43.89
X60.38Y-46.43
X61.54Y-68.0
X62.92Y-41.35
X62.92Y-43.89
X62.92Y-46.43
X65.46Y-41.35
X65.46Y-43.89
X65.46Y-46.43
X70.54Y-41.35
X70.54Y-43.89
X70.54Y-46.43
X71.46Y-86.5
X73.08Y-41.35
X73.08Y-43.89
X73.08Y-46.43
X74.0Y-86.5
X74.5Y-55.0
X75.62Y-41.35
X75.62Y-43.89
X75.62Y-46.43
X78.16Y-41.35
X78.16Y-43.89
X78.16Y-46.43
X79.5Y-55.0
X82.46Y-68.0
X83.24Y-41.35
X83.24Y-43.89
X83.24Y-46.43
X85.0Y-68.0
X85.78Y-41.35
X85.78Y-43.89
X85.78Y-46.43
X87.54Y-68.0
X88.32Y-41.35
X88.32Y-43.89
X88.32Y-46.43
X90.86Y-41.35
X90.86Y-43.89
X90.86Y-46.43
X97.0Y-28.65
X97.0Y-31.19
X97.0Y-33.73
X97.0Y-36.27
X97.0Y-38.81
X97.0Y-41.35
X97.0Y-86.0
X99.54Y-86.0
X108.46Y-68.0
X111.0Y-68.0
X113.54Y-68.0
X121.96Y-87.0
X124.5Y-87.0
X134.46Y-68.0
X134.5Y-53.0
X136.73Y-24.0
X137.0Y-68.0
X139.27Y-24.0
X139.5Y-53.0
X139.54Y-68.0
X143.73Y-32.0
X146.27Y-32.0
X151.46Y-87.0
X154.0Y-87.0
X160.46Y-68.0
X163.0Y-68.0
X165.54Y-68.0
X174.46Y-86.5
X177.0Y-86.5
X186.46Y-68.0
X186.5Y-53.0
X189.0Y-68.0
X191.5Y-53.0
X191.54Y-68.0
X202.5Y-87.5
X205.04Y-87.5
T5
X171.19Y-20.0
X178.81Y-20.0
X198.19Y-20.0
X205.81Y-20.0
M30
