M48
; DRILL file KiCad 10.0.4 date 2026-08-09T09:16:00
; FORMAT={-:-/ absolute / metric / decimal}
; #@! TF.CreationDate,2026-08-09T09:16:00-05:00
; #@! TF.GenerationSoftware,Kicad,Pcbnew,10.0.4
; #@! TF.FileFunction,Plated,1,4,PTH
FMAT,2
METRIC
; #@! TA.AperFunction,Plated,PTH,ViaDrill
T1C0.400
; #@! TA.AperFunction,Plated,PTH,ViaDrill
T2C0.500
; #@! TA.AperFunction,Plated,PTH,ComponentDrill
T3C1.000
; #@! TA.AperFunction,Plated,PTH,ComponentDrill
T4C2.200
%
G90
G05
T1
X30.5Y-87.5
X35.5Y-78.5
X41.0Y-75.0
X50.0Y-73.5
X51.2Y-71.7
X54.2Y-88.5
X67.5Y-56.6
X68.5Y-60.0
X83.6Y-50.0
X93.287Y-39.8
X94.9Y-42.7
X114.5Y-74.0
X118.5Y-73.0
X121.6Y-79.5
X133.5Y-84.5
X140.1Y-73.6
X152.5Y-88.5
X153.0Y-97.0
X157.3Y-88.5
X163.831Y-74.931
X167.0Y-74.5
X168.45Y-79.55
X176.0Y-61.0
X176.0Y-88.5
X181.08Y-64.42
X183.4Y-88.0
X185.0Y-74.5
T2
X79.0Y-39.0
X81.5Y-40.0
T3
X18.73Y-72.0
X19.25Y-20.0
X20.0Y-91.0
X21.27Y-72.0
X21.27Y-93.54
X21.75Y-20.0
X22.54Y-91.0
X23.81Y-93.54
X24.25Y-20.0
X25.08Y-91.0
X26.35Y-93.54
X26.75Y-20.0
X27.62Y-91.0
X28.89Y-93.54
X29.25Y-20.0
X30.46Y-68.0
X30.5Y-53.0
X31.75Y-20.0
X33.0Y-68.0
X34.25Y-20.0
X35.5Y-53.0
X35.54Y-68.0
X36.75Y-20.0
X39.0Y-28.65
X39.0Y-31.19
X39.0Y-33.73
X39.0Y-36.27
X39.0Y-38.81
X39.0Y-41.35
X44.73Y-72.0
X45.14Y-41.35
X45.14Y-43.89
X45.14Y-46.43
X46.0Y-91.0
X47.27Y-72.0
X47.27Y-93.54
X47.68Y-41.35
X47.68Y-43.89
X47.68Y-46.43
X48.54Y-91.0
X49.81Y-93.54
X50.22Y-41.35
X50.22Y-43.89
X50.22Y-46.43
X51.08Y-91.0
X52.35Y-93.54
X52.76Y-41.35
X52.76Y-43.89
X52.76Y-46.43
X53.62Y-91.0
X54.89Y-93.54
X56.46Y-68.0
X57.84Y-41.35
X57.84Y-43.89
X57.84Y-46.43
X59.0Y-68.0
X60.38Y-41.35
X60.38Y-43.89
X60.38Y-46.43
X61.54Y-68.0
X62.92Y-41.35
X62.92Y-43.89
X62.92Y-46.43
X65.46Y-41.35
X65.46Y-43.89
X65.46Y-46.43
X70.54Y-41.35
X70.54Y-43.89
X70.54Y-46.43
X70.73Y-72.0
X72.0Y-91.0
X73.08Y-41.35
X73.08Y-43.89
X73.08Y-46.43
X73.27Y-72.0
X73.27Y-93.54
X74.5Y-55.0
X74.54Y-91.0
X75.62Y-41.35
X75.62Y-43.89
X75.62Y-46.43
X75.81Y-93.54
X77.08Y-91.0
X78.16Y-41.35
X78.16Y-43.89
X78.16Y-46.43
X78.35Y-93.54
X79.5Y-55.0
X79.62Y-91.0
X80.89Y-93.54
X82.46Y-68.0
X83.24Y-41.35
X83.24Y-43.89
X83.24Y-46.43
X85.0Y-68.0
X85.78Y-41.35
X85.78Y-43.89
X85.78Y-46.43
X87.54Y-68.0
X88.32Y-41.35
X88.32Y-43.89
X88.32Y-46.43
X90.86Y-41.35
X90.86Y-43.89
X90.86Y-46.43
X96.73Y-72.0
X97.0Y-28.65
X97.0Y-31.19
X97.0Y-33.73
X97.0Y-36.27
X97.0Y-38.81
X97.0Y-41.35
X98.0Y-91.0
X99.27Y-72.0
X99.27Y-93.54
X100.54Y-91.0
X101.81Y-93.54
X103.08Y-91.0
X104.35Y-93.54
X105.62Y-91.0
X106.89Y-93.54
X108.46Y-68.0
X111.0Y-68.0
X113.54Y-68.0
X118.19Y-20.38
X118.19Y-22.92
X118.19Y-25.46
X118.19Y-35.62
X122.73Y-72.0
X124.0Y-91.0
X125.27Y-72.0
X125.27Y-93.54
X125.81Y-20.38
X126.54Y-91.0
X127.81Y-93.54
X129.08Y-91.0
X130.35Y-93.54
X131.62Y-91.0
X132.89Y-93.54
X134.46Y-68.0
X134.5Y-53.0
X136.73Y-24.0
X137.0Y-68.0
X139.27Y-24.0
X139.5Y-53.0
X139.54Y-68.0
X143.73Y-32.0
X146.27Y-32.0
X149.96Y-72.0
X150.0Y-91.0
X151.27Y-93.54
X152.5Y-72.0
X152.54Y-91.0
X153.81Y-93.54
X155.08Y-91.0
X156.35Y-93.54
X157.62Y-91.0
X158.89Y-93.54
X160.46Y-68.0
X163.0Y-68.0
X165.54Y-68.0
X174.73Y-72.0
X176.0Y-91.0
X177.27Y-72.0
X177.27Y-93.54
X178.54Y-91.0
X179.81Y-93.54
X181.08Y-91.0
X182.35Y-93.54
X183.62Y-91.0
X184.89Y-93.54
X186.46Y-68.0
X186.5Y-53.0
X189.0Y-68.0
X191.5Y-53.0
X191.54Y-68.0
X201.96Y-72.0
X202.0Y-91.0
X203.27Y-93.54
X204.5Y-72.0
X204.54Y-91.0
X205.81Y-93.54
X207.08Y-91.0
X208.35Y-93.54
X209.62Y-91.0
X210.89Y-93.54
T4
X171.19Y-20.0
X178.81Y-20.0
X198.19Y-20.0
X205.81Y-20.0
M30
