%TF.GenerationSoftware,KiCad,Pcbnew,10.0.4*%
%TF.CreationDate,2026-08-01T13:40:54-05:00*%
%TF.ProjectId,Derek_CAN_v4,44657265-6b5f-4434-914e-5f76342e6b69,rev?*%
%TF.SameCoordinates,Original*%
%TF.FileFunction,Copper,L1,Top*%
%TF.FilePolarity,Positive*%
%FSLAX46Y46*%
G04 Gerber Fmt 4.6, Leading zero omitted, Abs format (unit mm)*
G04 Created by KiCad (PCBNEW 10.0.4) date 2026-08-01 13:40:54*
%MOMM*%
%LPD*%
G01*
G04 APERTURE LIST*
%TA.AperFunction,ComponentPad*%
%ADD10C,1.250000*%
%TD*%
%TA.AperFunction,ComponentPad*%
%ADD11O,2.200000X2.800000*%
%TD*%
%TA.AperFunction,ComponentPad*%
%ADD12R,2.000000X2.000000*%
%TD*%
%TA.AperFunction,ComponentPad*%
%ADD13O,2.000000X2.000000*%
%TD*%
%TA.AperFunction,ComponentPad*%
%ADD14C,2.000000*%
%TD*%
%TA.AperFunction,ComponentPad*%
%ADD15R,2.200000X2.200000*%
%TD*%
%TA.AperFunction,ComponentPad*%
%ADD16C,2.200000*%
%TD*%
%TA.AperFunction,ViaPad*%
%ADD17C,0.500000*%
%TD*%
%TA.AperFunction,Conductor*%
%ADD18C,0.200000*%
%TD*%
%TA.AperFunction,Conductor*%
%ADD19C,2.000000*%
%TD*%
%TA.AperFunction,Conductor*%
%ADD20C,0.500000*%
%TD*%
%TA.AperFunction,Conductor*%
%ADD21C,1.000000*%
%TD*%
G04 APERTURE END LIST*
D10*
%TO.P,J1,1,P1*%
%TO.N,5V*%
X28430000Y-25960000D03*
%TO.P,J1,2,P2*%
X29450000Y-28500000D03*
%TO.P,J1,3,P3*%
%TO.N,GND*%
X30470000Y-25960000D03*
%TO.P,J1,4,P4*%
X31490000Y-28500000D03*
%TO.P,J1,5,P5*%
%TO.N,PAN_PWM*%
X32510000Y-25960000D03*
%TO.P,J1,6,P6*%
%TO.N,LIFT_PWM*%
X33530000Y-28500000D03*
%TO.P,J1,7,P7*%
%TO.N,LED_FROM_CLUSTER*%
X34550000Y-25960000D03*
%TO.P,J1,8,P8*%
%TO.N,LED_RETURN_CLUSTER*%
X35570000Y-28500000D03*
D11*
%TO.P,J1,S1,SHIELD*%
%TO.N,GND*%
X24900000Y-33300000D03*
%TO.P,J1,S2,SHIELD*%
X39100000Y-33300000D03*
%TO.P,J1,M1,SHIELD*%
X26300000Y-37300000D03*
%TO.P,J1,M2,SHIELD*%
X37700000Y-37300000D03*
%TD*%
D12*
%TO.P,J2,1,GND*%
%TO.N,GND*%
X68500000Y-23460000D03*
D13*
%TO.P,J2,2,+5V*%
%TO.N,5V*%
X68500000Y-26000000D03*
%TO.P,J2,3,SIGNAL*%
%TO.N,PAN_PWM*%
X68500000Y-28540000D03*
%TD*%
D12*
%TO.P,J3,1,GND*%
%TO.N,GND*%
X68500000Y-32460000D03*
D13*
%TO.P,J3,2,+5V*%
%TO.N,5V*%
X68500000Y-35000000D03*
%TO.P,J3,3,SIGNAL*%
%TO.N,LIFT_PWM*%
X68500000Y-37540000D03*
%TD*%
D12*
%TO.P,J4,1,DATA*%
%TO.N,LED_TO_FIRST*%
X47500000Y-39500000D03*
D13*
%TO.P,J4,2,+5V*%
%TO.N,5V*%
X50000000Y-39500000D03*
%TO.P,J4,3,GND*%
%TO.N,GND*%
X52500000Y-39500000D03*
%TD*%
D12*
%TO.P,J5,1,DATA*%
%TO.N,LED_RETURN_CLUSTER*%
X58500000Y-39500000D03*
D13*
%TO.P,J5,2,+5V*%
%TO.N,5V*%
X61000000Y-39500000D03*
%TO.P,J5,3,GND*%
%TO.N,GND*%
X63500000Y-39500000D03*
%TD*%
D14*
%TO.P,R1,1*%
%TO.N,LED_FROM_CLUSTER*%
X44420000Y-26000000D03*
%TO.P,R1,2*%
%TO.N,LED_TO_FIRST*%
X54580000Y-26000000D03*
%TD*%
D15*
%TO.P,C1,1,+*%
%TO.N,5V*%
X46500000Y-32000000D03*
D16*
%TO.P,C1,2,-*%
%TO.N,GND*%
X51500000Y-32000000D03*
%TD*%
D12*
%TO.P,C2,1*%
%TO.N,5V*%
X58000000Y-32750000D03*
D14*
%TO.P,C2,2*%
%TO.N,GND*%
X58000000Y-30250000D03*
%TD*%
D17*
%TO.N,5V*%
X44600000Y-33900000D03*
%TO.N,LIFT_PWM*%
X55200000Y-30500000D03*
X54000000Y-30500000D03*
X38800000Y-30900000D03*
X38000000Y-31700000D03*
%TO.N,LED_TO_FIRST*%
X54600000Y-28100000D03*
X49800000Y-37200000D03*
%TD*%
%TO.N,LED_RETURN_CLUSTER*%
D18*
X49800000Y-38000000D02*
X57000000Y-38000000D01*
X57000000Y-38000000D02*
X58500000Y-39500000D01*
X45000000Y-33200000D02*
X49800000Y-38000000D01*
X45000000Y-31700000D02*
X45000000Y-33200000D01*
X44800000Y-31500000D02*
X45000000Y-31700000D01*
X38800000Y-31500000D02*
X44800000Y-31500000D01*
X38700000Y-31600000D02*
X38800000Y-31500000D01*
X35600000Y-28500000D02*
X38700000Y-31600000D01*
%TO.N,5V*%
D19*
X30000000Y-22500000D02*
X43000000Y-22500000D01*
X28430000Y-24070000D02*
X30000000Y-22500000D01*
X28430000Y-25960000D02*
X28430000Y-24070000D01*
%TO.N,PAN_PWM*%
D18*
X67500000Y-27500000D02*
X68500000Y-28500000D01*
X34000000Y-27500000D02*
X67500000Y-27500000D01*
X32500000Y-26000000D02*
X34000000Y-27500000D01*
%TO.N,5V*%
D20*
X28400000Y-26000000D02*
X28430000Y-25960000D01*
D21*
X28400000Y-27500000D02*
X28400000Y-26000000D01*
X29400000Y-28500000D02*
X28400000Y-27500000D01*
D20*
X29450000Y-28500000D02*
X29400000Y-28500000D01*
X29450000Y-28500000D02*
X29400000Y-28500000D01*
%TO.N,LIFT_PWM*%
D18*
X60200000Y-37500000D02*
X68500000Y-37500000D01*
X56600000Y-33900000D02*
X60200000Y-37500000D01*
X56600000Y-31900000D02*
X56600000Y-33900000D01*
X55200000Y-30500000D02*
X56600000Y-31900000D01*
X45300000Y-30500000D02*
X54000000Y-30500000D01*
X44800000Y-31000000D02*
X45300000Y-30500000D01*
X38900000Y-31000000D02*
X44800000Y-31000000D01*
X38800000Y-30900000D02*
X38900000Y-31000000D01*
X37400000Y-32300000D02*
X38000000Y-31700000D01*
X37300000Y-32300000D02*
X37400000Y-32300000D01*
X33500000Y-28500000D02*
X37300000Y-32300000D01*
%TO.N,LED_TO_FIRST*%
X54600000Y-32400000D02*
X54600000Y-28100000D01*
X49800000Y-37200000D02*
X54600000Y-32400000D01*
%TO.N,LED_FROM_CLUSTER*%
X34600000Y-26000000D02*
X44400000Y-26000000D01*
%TO.N,5V*%
D20*
X29400000Y-28500000D02*
X32900000Y-32000000D01*
X43200000Y-35300000D02*
X44600000Y-33900000D01*
X32900000Y-32000000D02*
X35000000Y-32000000D01*
X35000000Y-32000000D02*
X38300000Y-35300000D01*
X38300000Y-35300000D02*
X43200000Y-35300000D01*
%TD*%
%TA.AperFunction,Conductor*%
%TO.N,5V*%
G36*
X58028325Y-21519685D02*
G01*
X58074080Y-21572489D01*
X58084734Y-21621465D01*
X58085021Y-21621447D01*
X58085146Y-21623357D01*
X58085286Y-21624000D01*
X58085286Y-21625504D01*
X58103683Y-21765237D01*
X58118048Y-21874344D01*
X58150529Y-21995564D01*
X58183011Y-22116789D01*
X58279059Y-22348669D01*
X58279064Y-22348680D01*
X58354523Y-22479377D01*
X58404558Y-22566040D01*
X58404560Y-22566043D01*
X58404561Y-22566044D01*
X58557351Y-22765165D01*
X58557357Y-22765172D01*
X58734827Y-22942642D01*
X58734833Y-22942647D01*
X58933960Y-23095442D01*
X59073661Y-23176099D01*
X59151319Y-23220935D01*
X59151324Y-23220937D01*
X59151327Y-23220939D01*
X59383215Y-23316990D01*
X59625656Y-23381952D01*
X59874503Y-23414714D01*
X59874510Y-23414714D01*
X60125490Y-23414714D01*
X60125497Y-23414714D01*
X60374344Y-23381952D01*
X60616785Y-23316990D01*
X60848673Y-23220939D01*
X61066040Y-23095442D01*
X61265167Y-22942647D01*
X61442647Y-22765167D01*
X61595442Y-22566040D01*
X61697074Y-22390008D01*
X61720431Y-22349554D01*
X61720432Y-22349552D01*
X61720931Y-22348687D01*
X61720935Y-22348680D01*
X61720939Y-22348673D01*
X61816990Y-22116785D01*
X61881952Y-21874344D01*
X61914714Y-21625497D01*
X61914714Y-21624000D01*
X61914839Y-21623571D01*
X61914979Y-21621447D01*
X61915454Y-21621478D01*
X61934399Y-21556961D01*
X61987203Y-21511206D01*
X62038714Y-21500000D01*
X70876000Y-21500000D01*
X70943039Y-21519685D01*
X70988794Y-21572489D01*
X71000000Y-21624000D01*
X71000000Y-41376000D01*
X70980315Y-41443039D01*
X70927511Y-41488794D01*
X70876000Y-41500000D01*
X70538714Y-41500000D01*
X70471675Y-41480315D01*
X70425920Y-41427511D01*
X70415265Y-41378534D01*
X70414979Y-41378553D01*
X70414853Y-41376642D01*
X70414714Y-41376000D01*
X70414714Y-41374509D01*
X70414713Y-41374495D01*
X70410821Y-41344936D01*
X70381952Y-41125656D01*
X70316990Y-40883215D01*
X70220939Y-40651327D01*
X70220937Y-40651324D01*
X70220935Y-40651319D01*
X70159473Y-40544865D01*
X70095442Y-40433960D01*
X69942647Y-40234833D01*
X69942642Y-40234827D01*
X69765172Y-40057357D01*
X69765165Y-40057351D01*
X69566044Y-39904561D01*
X69566043Y-39904560D01*
X69566040Y-39904558D01*
X69479377Y-39854523D01*
X69348680Y-39779064D01*
X69348669Y-39779059D01*
X69116789Y-39683011D01*
X68995564Y-39650529D01*
X68874344Y-39618048D01*
X68874343Y-39618047D01*
X68874340Y-39618047D01*
X68625504Y-39585286D01*
X68625497Y-39585286D01*
X68374503Y-39585286D01*
X68374495Y-39585286D01*
X68125659Y-39618047D01*
X67883210Y-39683011D01*
X67651330Y-39779059D01*
X67651319Y-39779064D01*
X67433955Y-39904561D01*
X67234834Y-40057351D01*
X67234827Y-40057357D01*
X67057357Y-40234827D01*
X67057351Y-40234834D01*
X66904561Y-40433955D01*
X66779064Y-40651319D01*
X66779059Y-40651330D01*
X66683011Y-40883210D01*
X66618047Y-41125659D01*
X66585286Y-41374495D01*
X66585286Y-41376000D01*
X66585160Y-41376428D01*
X66585021Y-41378553D01*
X66584545Y-41378521D01*
X66565601Y-41443039D01*
X66512797Y-41488794D01*
X66461286Y-41500000D01*
X43038714Y-41500000D01*
X42971675Y-41480315D01*
X42925920Y-41427511D01*
X42915265Y-41378534D01*
X42914979Y-41378553D01*
X42914853Y-41376642D01*
X42914714Y-41376000D01*
X42914714Y-41374509D01*
X42914713Y-41374495D01*
X42910821Y-41344936D01*
X42881952Y-41125656D01*
X42816990Y-40883215D01*
X42720939Y-40651327D01*
X42720937Y-40651324D01*
X42720935Y-40651319D01*
X42659473Y-40544865D01*
X42595442Y-40433960D01*
X42442647Y-40234833D01*
X42442642Y-40234827D01*
X42265172Y-40057357D01*
X42265165Y-40057351D01*
X42066044Y-39904561D01*
X42066043Y-39904560D01*
X42066040Y-39904558D01*
X41979377Y-39854523D01*
X41848680Y-39779064D01*
X41848664Y-39779056D01*
X41616785Y-39683010D01*
X41591902Y-39676342D01*
X41532243Y-39639975D01*
X41501716Y-39577127D01*
X41500000Y-39556568D01*
X41500000Y-32024500D01*
X41519685Y-31957461D01*
X41572489Y-31911706D01*
X41624000Y-31900500D01*
X44475500Y-31900500D01*
X44542539Y-31920185D01*
X44588294Y-31972989D01*
X44599500Y-32024500D01*
X44599500Y-33147273D01*
X44599500Y-33252727D01*
X44611603Y-33297896D01*
X44626793Y-33354589D01*
X44633390Y-33366015D01*
X44679520Y-33445913D01*
X44679522Y-33445915D01*
X49398757Y-38165150D01*
X49432242Y-38226473D01*
X49427258Y-38296165D01*
X49385386Y-38352098D01*
X49367371Y-38363316D01*
X49318650Y-38388140D01*
X49153105Y-38508417D01*
X49153104Y-38508417D01*
X49012180Y-38649342D01*
X48950857Y-38682827D01*
X48881165Y-38677843D01*
X48825232Y-38635971D01*
X48800815Y-38570507D01*
X48800499Y-38561661D01*
X48800499Y-38455143D01*
X48800499Y-38455136D01*
X48800497Y-38455117D01*
X48797586Y-38430012D01*
X48797585Y-38430010D01*
X48797585Y-38430009D01*
X48752206Y-38327235D01*
X48672765Y-38247794D01*
X48672763Y-38247793D01*
X48569992Y-38202415D01*
X48544865Y-38199500D01*
X46455143Y-38199500D01*
X46455117Y-38199502D01*
X46430012Y-38202413D01*
X46430008Y-38202415D01*
X46327235Y-38247793D01*
X46247794Y-38327234D01*
X46202415Y-38430006D01*
X46202415Y-38430008D01*
X46199500Y-38455131D01*
X46199500Y-40544856D01*
X46199502Y-40544882D01*
X46202413Y-40569987D01*
X46202415Y-40569991D01*
X46247793Y-40672764D01*
X46247794Y-40672765D01*
X46327235Y-40752206D01*
X46430009Y-40797585D01*
X46455135Y-40800500D01*
X48544864Y-40800499D01*
X48544879Y-40800497D01*
X48544882Y-40800497D01*
X48569987Y-40797586D01*
X48569988Y-40797585D01*
X48569991Y-40797585D01*
X48672765Y-40752206D01*
X48752206Y-40672765D01*
X48797585Y-40569991D01*
X48800500Y-40544865D01*
X48800499Y-40438336D01*
X48820183Y-40371300D01*
X48872987Y-40325545D01*
X48942145Y-40315601D01*
X49005701Y-40344625D01*
X49012180Y-40350658D01*
X49153104Y-40491582D01*
X49318650Y-40611859D01*
X49500968Y-40704754D01*
X49695578Y-40767988D01*
X49750000Y-40776607D01*
X49750000Y-39933012D01*
X49807007Y-39965925D01*
X49934174Y-40000000D01*
X50065826Y-40000000D01*
X50192993Y-39965925D01*
X50250000Y-39933012D01*
X50250000Y-40776606D01*
X50304421Y-40767988D01*
X50499031Y-40704754D01*
X50681349Y-40611859D01*
X50846894Y-40491582D01*
X50846895Y-40491582D01*
X50991582Y-40346895D01*
X50991582Y-40346894D01*
X51111859Y-40181349D01*
X51139233Y-40127624D01*
X51187207Y-40076827D01*
X51255028Y-40060031D01*
X51321163Y-40082567D01*
X51360203Y-40127621D01*
X51387713Y-40181611D01*
X51508028Y-40347213D01*
X51652786Y-40491971D01*
X51807749Y-40604556D01*
X51818390Y-40612287D01*
X51934607Y-40671503D01*
X52000776Y-40705218D01*
X52000778Y-40705218D01*
X52000781Y-40705220D01*
X52105137Y-40739127D01*
X52195465Y-40768477D01*
X52296557Y-40784488D01*
X52397648Y-40800500D01*
X52397649Y-40800500D01*
X52602351Y-40800500D01*
X52602352Y-40800500D01*
X52804534Y-40768477D01*
X52999219Y-40705220D01*
X53181610Y-40612287D01*
X53274590Y-40544732D01*
X53347213Y-40491971D01*
X53347215Y-40491968D01*
X53347219Y-40491966D01*
X53491966Y-40347219D01*
X53491968Y-40347215D01*
X53491971Y-40347213D01*
X53544732Y-40274590D01*
X53612287Y-40181610D01*
X53705220Y-39999219D01*
X53768477Y-39804534D01*
X53800500Y-39602352D01*
X53800500Y-39397648D01*
X53768477Y-39195466D01*
X53767673Y-39192993D01*
X53705218Y-39000776D01*
X53662750Y-38917429D01*
X53612287Y-38818390D01*
X53574146Y-38765893D01*
X53491971Y-38652786D01*
X53451366Y-38612181D01*
X53417881Y-38550858D01*
X53422865Y-38481166D01*
X53464737Y-38425233D01*
X53530201Y-38400816D01*
X53539047Y-38400500D01*
X56782745Y-38400500D01*
X56849784Y-38420185D01*
X56870426Y-38436819D01*
X57163181Y-38729574D01*
X57196666Y-38790897D01*
X57199500Y-38817255D01*
X57199500Y-40544856D01*
X57199502Y-40544882D01*
X57202413Y-40569987D01*
X57202415Y-40569991D01*
X57247793Y-40672764D01*
X57247794Y-40672765D01*
X57327235Y-40752206D01*
X57430009Y-40797585D01*
X57455135Y-40800500D01*
X59544864Y-40800499D01*
X59544879Y-40800497D01*
X59544882Y-40800497D01*
X59569987Y-40797586D01*
X59569988Y-40797585D01*
X59569991Y-40797585D01*
X59672765Y-40752206D01*
X59752206Y-40672765D01*
X59797585Y-40569991D01*
X59800500Y-40544865D01*
X59800499Y-40438336D01*
X59820183Y-40371300D01*
X59872987Y-40325545D01*
X59942145Y-40315601D01*
X60005701Y-40344625D01*
X60012180Y-40350658D01*
X60153104Y-40491582D01*
X60318650Y-40611859D01*
X60500968Y-40704754D01*
X60695578Y-40767988D01*
X60750000Y-40776607D01*
X60750000Y-39933012D01*
X60807007Y-39965925D01*
X60934174Y-40000000D01*
X61065826Y-40000000D01*
X61192993Y-39965925D01*
X61250000Y-39933012D01*
X61250000Y-40776606D01*
X61304421Y-40767988D01*
X61499031Y-40704754D01*
X61681349Y-40611859D01*
X61846894Y-40491582D01*
X61846895Y-40491582D01*
X61991582Y-40346895D01*
X61991582Y-40346894D01*
X62111859Y-40181349D01*
X62139233Y-40127624D01*
X62187207Y-40076827D01*
X62255028Y-40060031D01*
X62321163Y-40082567D01*
X62360203Y-40127621D01*
X62387713Y-40181611D01*
X62508028Y-40347213D01*
X62652786Y-40491971D01*
X62807749Y-40604556D01*
X62818390Y-40612287D01*
X62934607Y-40671503D01*
X63000776Y-40705218D01*
X63000778Y-40705218D01*
X63000781Y-40705220D01*
X63105137Y-40739127D01*
X63195465Y-40768477D01*
X63296557Y-40784488D01*
X63397648Y-40800500D01*
X63397649Y-40800500D01*
X63602351Y-40800500D01*
X63602352Y-40800500D01*
X63804534Y-40768477D01*
X63999219Y-40705220D01*
X64181610Y-40612287D01*
X64274590Y-40544732D01*
X64347213Y-40491971D01*
X64347215Y-40491968D01*
X64347219Y-40491966D01*
X64491966Y-40347219D01*
X64491968Y-40347215D01*
X64491971Y-40347213D01*
X64544732Y-40274590D01*
X64612287Y-40181610D01*
X64705220Y-39999219D01*
X64768477Y-39804534D01*
X64800500Y-39602352D01*
X64800500Y-39397648D01*
X64768477Y-39195466D01*
X64767673Y-39192993D01*
X64705218Y-39000776D01*
X64662750Y-38917429D01*
X64612287Y-38818390D01*
X64574146Y-38765893D01*
X64491971Y-38652786D01*
X64347213Y-38508028D01*
X64181613Y-38387715D01*
X64181612Y-38387714D01*
X64181610Y-38387713D01*
X64111712Y-38352098D01*
X63999223Y-38294781D01*
X63804534Y-38231522D01*
X63620756Y-38202415D01*
X63602352Y-38199500D01*
X63397648Y-38199500D01*
X63379244Y-38202415D01*
X63195465Y-38231522D01*
X63000776Y-38294781D01*
X62818386Y-38387715D01*
X62652786Y-38508028D01*
X62508028Y-38652786D01*
X62387714Y-38818386D01*
X62360203Y-38872379D01*
X62312227Y-38923174D01*
X62244406Y-38939968D01*
X62178272Y-38917429D01*
X62139234Y-38872376D01*
X62111861Y-38818652D01*
X61991582Y-38653105D01*
X61991582Y-38653104D01*
X61846895Y-38508417D01*
X61681349Y-38388140D01*
X61499029Y-38295244D01*
X61304413Y-38232009D01*
X61250000Y-38223390D01*
X61250000Y-39066988D01*
X61192993Y-39034075D01*
X61065826Y-39000000D01*
X60934174Y-39000000D01*
X60807007Y-39034075D01*
X60750000Y-39066988D01*
X60750000Y-38223390D01*
X60695586Y-38232009D01*
X60500970Y-38295244D01*
X60318650Y-38388140D01*
X60153105Y-38508417D01*
X60153104Y-38508417D01*
X60012180Y-38649342D01*
X59950857Y-38682827D01*
X59881165Y-38677843D01*
X59825232Y-38635971D01*
X59800815Y-38570507D01*
X59800499Y-38561661D01*
X59800499Y-38455143D01*
X59800499Y-38455136D01*
X59800497Y-38455117D01*
X59797586Y-38430012D01*
X59797585Y-38430010D01*
X59797585Y-38430009D01*
X59752206Y-38327235D01*
X59672765Y-38247794D01*
X59672763Y-38247793D01*
X59569992Y-38202415D01*
X59544868Y-38199500D01*
X59544865Y-38199500D01*
X57817255Y-38199500D01*
X57750216Y-38179815D01*
X57729574Y-38163181D01*
X57245915Y-37679522D01*
X57245913Y-37679520D01*
X57181535Y-37642351D01*
X57154589Y-37626793D01*
X57103657Y-37613146D01*
X57052727Y-37599500D01*
X57052726Y-37599500D01*
X50419786Y-37599500D01*
X50352747Y-37579815D01*
X50306992Y-37527011D01*
X50297048Y-37457853D01*
X50299856Y-37443990D01*
X50304082Y-37427902D01*
X50312984Y-37412485D01*
X50350500Y-37272475D01*
X50350500Y-37251235D01*
X50354570Y-37235745D01*
X50364673Y-37218986D01*
X50370185Y-37200216D01*
X50386819Y-37179574D01*
X52632219Y-34934174D01*
X54920480Y-32645913D01*
X54973207Y-32554588D01*
X55000500Y-32452727D01*
X55000500Y-32347273D01*
X55000500Y-31174500D01*
X55003050Y-31165814D01*
X55001762Y-31156853D01*
X55012740Y-31132812D01*
X55020185Y-31107461D01*
X55027025Y-31101533D01*
X55030787Y-31093297D01*
X55053021Y-31079007D01*
X55072989Y-31061706D01*
X55083503Y-31059418D01*
X55089565Y-31055523D01*
X55124500Y-31050500D01*
X55127525Y-31050500D01*
X55132745Y-31050500D01*
X55199784Y-31070185D01*
X55220426Y-31086819D01*
X56163181Y-32029574D01*
X56196666Y-32090897D01*
X56199500Y-32117255D01*
X56199500Y-33952726D01*
X56226793Y-34054589D01*
X56238423Y-34074732D01*
X56279520Y-34145913D01*
X59954087Y-37820480D01*
X60045412Y-37873207D01*
X60147273Y-37900500D01*
X60252727Y-37900500D01*
X67159616Y-37900500D01*
X67226655Y-37920185D01*
X67272410Y-37972989D01*
X67277547Y-37986181D01*
X67294781Y-38039223D01*
X67357942Y-38163181D01*
X67376448Y-38199502D01*
X67387715Y-38221613D01*
X67508028Y-38387213D01*
X67652786Y-38531971D01*
X67763188Y-38612181D01*
X67818390Y-38652287D01*
X67934607Y-38711503D01*
X68000776Y-38745218D01*
X68000778Y-38745218D01*
X68000781Y-38745220D01*
X68064406Y-38765893D01*
X68195465Y-38808477D01*
X68250887Y-38817255D01*
X68397648Y-38840500D01*
X68397649Y-38840500D01*
X68602351Y-38840500D01*
X68602352Y-38840500D01*
X68804534Y-38808477D01*
X68999219Y-38745220D01*
X69181610Y-38652287D01*
X69275700Y-38583927D01*
X69347213Y-38531971D01*
X69347215Y-38531968D01*
X69347219Y-38531966D01*
X69491966Y-38387219D01*
X69491968Y-38387215D01*
X69491971Y-38387213D01*
X69558789Y-38295244D01*
X69612287Y-38221610D01*
X69705220Y-38039219D01*
X69768477Y-37844534D01*
X69800500Y-37642352D01*
X69800500Y-37437648D01*
X69768477Y-37235466D01*
X69763122Y-37218986D01*
X69705218Y-37040776D01*
X69671503Y-36974607D01*
X69612287Y-36858390D01*
X69598824Y-36839860D01*
X69491971Y-36692786D01*
X69347213Y-36548028D01*
X69181611Y-36427713D01*
X69088369Y-36380203D01*
X69037574Y-36332229D01*
X69020779Y-36264407D01*
X69043317Y-36198273D01*
X69088371Y-36159234D01*
X69181347Y-36111861D01*
X69346894Y-35991582D01*
X69346895Y-35991582D01*
X69491582Y-35846895D01*
X69491582Y-35846894D01*
X69611859Y-35681349D01*
X69704755Y-35499029D01*
X69767990Y-35304413D01*
X69776609Y-35250000D01*
X68933012Y-35250000D01*
X68965925Y-35192993D01*
X69000000Y-35065826D01*
X69000000Y-34934174D01*
X68965925Y-34807007D01*
X68933012Y-34750000D01*
X69776609Y-34750000D01*
X69767990Y-34695586D01*
X69704755Y-34500970D01*
X69611859Y-34318650D01*
X69491582Y-34153105D01*
X69491582Y-34153104D01*
X69346895Y-34008417D01*
X69346889Y-34008412D01*
X69314413Y-33984817D01*
X69271747Y-33929487D01*
X69265768Y-33859874D01*
X69298373Y-33798079D01*
X69359212Y-33763722D01*
X69387297Y-33760499D01*
X69544864Y-33760499D01*
X69544879Y-33760497D01*
X69544882Y-33760497D01*
X69569987Y-33757586D01*
X69569988Y-33757585D01*
X69569991Y-33757585D01*
X69672765Y-33712206D01*
X69752206Y-33632765D01*
X69797585Y-33529991D01*
X69800500Y-33504865D01*
X69800499Y-31415136D01*
X69800497Y-31415117D01*
X69797586Y-31390012D01*
X69797585Y-31390010D01*
X69797585Y-31390009D01*
X69752206Y-31287235D01*
X69672765Y-31207794D01*
X69672763Y-31207793D01*
X69569992Y-31162415D01*
X69544865Y-31159500D01*
X67455143Y-31159500D01*
X67455117Y-31159502D01*
X67430012Y-31162413D01*
X67430008Y-31162415D01*
X67327235Y-31207793D01*
X67247794Y-31287234D01*
X67202415Y-31390006D01*
X67202415Y-31390008D01*
X67199500Y-31415131D01*
X67199500Y-33504856D01*
X67199502Y-33504882D01*
X67202413Y-33529987D01*
X67202415Y-33529991D01*
X67247793Y-33632764D01*
X67247794Y-33632765D01*
X67327235Y-33712206D01*
X67430009Y-33757585D01*
X67455135Y-33760500D01*
X67612702Y-33760499D01*
X67679739Y-33780183D01*
X67725494Y-33832987D01*
X67735438Y-33902145D01*
X67706413Y-33965701D01*
X67685588Y-33984815D01*
X67653110Y-34008412D01*
X67653104Y-34008417D01*
X67508417Y-34153104D01*
X67508417Y-34153105D01*
X67388140Y-34318650D01*
X67295244Y-34500970D01*
X67232009Y-34695586D01*
X67223391Y-34750000D01*
X68066988Y-34750000D01*
X68034075Y-34807007D01*
X68000000Y-34934174D01*
X68000000Y-35065826D01*
X68034075Y-35192993D01*
X68066988Y-35250000D01*
X67223391Y-35250000D01*
X67232009Y-35304413D01*
X67295244Y-35499029D01*
X67388140Y-35681349D01*
X67508417Y-35846894D01*
X67508417Y-35846895D01*
X67653104Y-35991582D01*
X67818652Y-36111861D01*
X67911628Y-36159234D01*
X67962425Y-36207208D01*
X67979220Y-36275029D01*
X67956683Y-36341164D01*
X67911630Y-36380203D01*
X67818388Y-36427713D01*
X67652786Y-36548028D01*
X67508028Y-36692786D01*
X67387715Y-36858386D01*
X67299358Y-37031795D01*
X67251383Y-37082591D01*
X67188873Y-37099500D01*
X60417255Y-37099500D01*
X60350216Y-37079815D01*
X60329574Y-37063181D01*
X57528073Y-34261680D01*
X57494588Y-34200357D01*
X57499572Y-34130665D01*
X57541444Y-34074732D01*
X57606908Y-34050315D01*
X57615754Y-34049999D01*
X57750000Y-34049999D01*
X57750000Y-33125277D01*
X57826306Y-33169333D01*
X57940756Y-33200000D01*
X58059244Y-33200000D01*
X58173694Y-33169333D01*
X58250000Y-33125277D01*
X58250000Y-34049999D01*
X59044786Y-34049999D01*
X59044808Y-34049997D01*
X59069869Y-34047091D01*
X59069873Y-34047090D01*
X59172474Y-34001788D01*
X59172479Y-34001785D01*
X59251785Y-33922479D01*
X59251788Y-33922474D01*
X59297089Y-33819877D01*
X59297089Y-33819875D01*
X59299999Y-33794794D01*
X59300000Y-33794791D01*
X59300000Y-33000000D01*
X58375278Y-33000000D01*
X58419333Y-32923694D01*
X58450000Y-32809244D01*
X58450000Y-32690756D01*
X58419333Y-32576306D01*
X58375278Y-32500000D01*
X59299999Y-32500000D01*
X59299999Y-31705214D01*
X59299997Y-31705191D01*
X59297091Y-31680130D01*
X59297090Y-31680126D01*
X59251788Y-31577525D01*
X59251785Y-31577520D01*
X59172479Y-31498214D01*
X59172474Y-31498211D01*
X59069876Y-31452910D01*
X59044794Y-31450000D01*
X58938547Y-31450000D01*
X58871508Y-31430315D01*
X58825753Y-31377511D01*
X58815809Y-31308353D01*
X58844834Y-31244797D01*
X58850866Y-31238319D01*
X58914685Y-31174500D01*
X58991966Y-31097219D01*
X58991968Y-31097215D01*
X58991971Y-31097213D01*
X59053167Y-31012982D01*
X59112287Y-30931610D01*
X59205220Y-30749219D01*
X59268477Y-30554534D01*
X59300500Y-30352352D01*
X59300500Y-30147648D01*
X59268477Y-29945466D01*
X59205220Y-29750781D01*
X59205218Y-29750778D01*
X59205218Y-29750776D01*
X59171503Y-29684607D01*
X59112287Y-29568390D01*
X59085824Y-29531966D01*
X58991971Y-29402786D01*
X58847213Y-29258028D01*
X58681613Y-29137715D01*
X58681612Y-29137714D01*
X58681610Y-29137713D01*
X58624653Y-29108691D01*
X58499223Y-29044781D01*
X58304534Y-28981522D01*
X58129995Y-28953878D01*
X58102352Y-28949500D01*
X57897648Y-28949500D01*
X57873329Y-28953351D01*
X57695465Y-28981522D01*
X57500776Y-29044781D01*
X57318386Y-29137715D01*
X57152786Y-29258028D01*
X57008028Y-29402786D01*
X56887715Y-29568386D01*
X56794781Y-29750776D01*
X56731522Y-29945465D01*
X56699500Y-30147648D01*
X56699500Y-30352351D01*
X56731522Y-30554534D01*
X56794781Y-30749223D01*
X56843793Y-30845413D01*
X56877571Y-30911706D01*
X56887715Y-30931613D01*
X57008028Y-31097213D01*
X57149134Y-31238319D01*
X57182619Y-31299642D01*
X57177635Y-31369334D01*
X57135763Y-31425267D01*
X57070299Y-31449684D01*
X57061454Y-31450000D01*
X56955214Y-31450000D01*
X56955191Y-31450002D01*
X56930130Y-31452908D01*
X56930126Y-31452909D01*
X56861580Y-31483175D01*
X56792301Y-31492246D01*
X56729117Y-31462421D01*
X56723814Y-31457421D01*
X55786819Y-30520426D01*
X55753334Y-30459103D01*
X55750500Y-30432745D01*
X55750500Y-30427527D01*
X55750500Y-30427525D01*
X55712984Y-30287515D01*
X55693685Y-30254089D01*
X55640511Y-30161988D01*
X55640506Y-30161982D01*
X55538017Y-30059493D01*
X55538011Y-30059488D01*
X55412488Y-29987017D01*
X55412489Y-29987017D01*
X55399498Y-29983536D01*
X55272475Y-29949500D01*
X55127525Y-29949500D01*
X55124500Y-29949500D01*
X55057461Y-29929815D01*
X55011706Y-29877011D01*
X55000500Y-29825500D01*
X55000500Y-28529386D01*
X55020185Y-28462347D01*
X55036819Y-28441705D01*
X55040509Y-28438015D01*
X55112984Y-28312485D01*
X55150500Y-28172475D01*
X55150500Y-28027525D01*
X55150500Y-28024500D01*
X55170185Y-27957461D01*
X55222989Y-27911706D01*
X55274500Y-27900500D01*
X67169688Y-27900500D01*
X67236727Y-27920185D01*
X67282482Y-27972989D01*
X67292426Y-28042147D01*
X67287619Y-28062818D01*
X67231523Y-28235461D01*
X67231523Y-28235464D01*
X67199500Y-28437648D01*
X67199500Y-28642351D01*
X67231522Y-28844534D01*
X67294781Y-29039223D01*
X67387715Y-29221613D01*
X67508028Y-29387213D01*
X67652786Y-29531971D01*
X67807749Y-29644556D01*
X67818390Y-29652287D01*
X67934607Y-29711503D01*
X68000776Y-29745218D01*
X68000778Y-29745218D01*
X68000781Y-29745220D01*
X68105137Y-29779127D01*
X68195465Y-29808477D01*
X68296557Y-29824488D01*
X68397648Y-29840500D01*
X68397649Y-29840500D01*
X68602351Y-29840500D01*
X68602352Y-29840500D01*
X68804534Y-29808477D01*
X68999219Y-29745220D01*
X69181610Y-29652287D01*
X69274590Y-29584732D01*
X69347213Y-29531971D01*
X69347215Y-29531968D01*
X69347219Y-29531966D01*
X69491966Y-29387219D01*
X69491968Y-29387215D01*
X69491971Y-29387213D01*
X69544732Y-29314590D01*
X69612287Y-29221610D01*
X69705220Y-29039219D01*
X69768477Y-28844534D01*
X69800500Y-28642352D01*
X69800500Y-28437648D01*
X69768477Y-28235466D01*
X69768476Y-28235464D01*
X69712380Y-28062818D01*
X69705220Y-28040781D01*
X69705218Y-28040778D01*
X69705218Y-28040776D01*
X69647258Y-27927025D01*
X69612287Y-27858390D01*
X69584744Y-27820480D01*
X69491971Y-27692786D01*
X69347213Y-27548028D01*
X69181611Y-27427713D01*
X69088369Y-27380203D01*
X69037574Y-27332229D01*
X69020779Y-27264407D01*
X69043317Y-27198273D01*
X69088371Y-27159234D01*
X69181347Y-27111861D01*
X69346894Y-26991582D01*
X69346895Y-26991582D01*
X69491582Y-26846895D01*
X69491582Y-26846894D01*
X69611859Y-26681349D01*
X69704755Y-26499029D01*
X69767990Y-26304413D01*
X69776609Y-26250000D01*
X68933012Y-26250000D01*
X68965925Y-26192993D01*
X69000000Y-26065826D01*
X69000000Y-25934174D01*
X68965925Y-25807007D01*
X68933012Y-25750000D01*
X69776609Y-25750000D01*
X69767990Y-25695586D01*
X69704755Y-25500970D01*
X69611859Y-25318650D01*
X69491582Y-25153105D01*
X69491582Y-25153104D01*
X69346895Y-25008417D01*
X69346889Y-25008412D01*
X69314413Y-24984817D01*
X69271747Y-24929487D01*
X69265768Y-24859874D01*
X69298373Y-24798079D01*
X69359212Y-24763722D01*
X69387297Y-24760499D01*
X69544864Y-24760499D01*
X69544879Y-24760497D01*
X69544882Y-24760497D01*
X69569987Y-24757586D01*
X69569988Y-24757585D01*
X69569991Y-24757585D01*
X69672765Y-24712206D01*
X69752206Y-24632765D01*
X69797585Y-24529991D01*
X69800500Y-24504865D01*
X69800499Y-22415136D01*
X69799824Y-22409314D01*
X69797586Y-22390012D01*
X69797585Y-22390010D01*
X69797585Y-22390009D01*
X69752206Y-22287235D01*
X69672765Y-22207794D01*
X69669404Y-22206310D01*
X69569992Y-22162415D01*
X69544865Y-22159500D01*
X67455143Y-22159500D01*
X67455117Y-22159502D01*
X67430012Y-22162413D01*
X67430008Y-22162415D01*
X67327235Y-22207793D01*
X67247794Y-22287234D01*
X67202415Y-22390006D01*
X67202415Y-22390008D01*
X67199500Y-22415131D01*
X67199500Y-24504856D01*
X67199502Y-24504882D01*
X67202413Y-24529987D01*
X67202415Y-24529991D01*
X67247793Y-24632764D01*
X67247794Y-24632765D01*
X67327235Y-24712206D01*
X67430009Y-24757585D01*
X67455135Y-24760500D01*
X67612702Y-24760499D01*
X67679739Y-24780183D01*
X67725494Y-24832987D01*
X67735438Y-24902145D01*
X67706413Y-24965701D01*
X67685588Y-24984815D01*
X67653110Y-25008412D01*
X67653104Y-25008417D01*
X67508417Y-25153104D01*
X67508417Y-25153105D01*
X67388140Y-25318650D01*
X67295244Y-25500970D01*
X67232009Y-25695586D01*
X67223391Y-25750000D01*
X68066988Y-25750000D01*
X68034075Y-25807007D01*
X68000000Y-25934174D01*
X68000000Y-26065826D01*
X68034075Y-26192993D01*
X68066988Y-26250000D01*
X67223391Y-26250000D01*
X67232009Y-26304413D01*
X67295244Y-26499029D01*
X67388140Y-26681349D01*
X67508417Y-26846894D01*
X67508417Y-26846895D01*
X67549341Y-26887819D01*
X67582826Y-26949142D01*
X67577842Y-27018834D01*
X67535970Y-27074767D01*
X67470506Y-27099184D01*
X67461660Y-27099500D01*
X55619047Y-27099500D01*
X55552008Y-27079815D01*
X55506253Y-27027011D01*
X55496309Y-26957853D01*
X55525334Y-26894297D01*
X55531366Y-26887819D01*
X55571966Y-26847219D01*
X55571968Y-26847215D01*
X55571971Y-26847213D01*
X55624732Y-26774590D01*
X55692287Y-26681610D01*
X55785220Y-26499219D01*
X55848477Y-26304534D01*
X55880500Y-26102352D01*
X55880500Y-25897648D01*
X55857762Y-25754087D01*
X55848477Y-25695465D01*
X55796038Y-25534075D01*
X55785220Y-25500781D01*
X55785218Y-25500778D01*
X55785218Y-25500776D01*
X55692419Y-25318650D01*
X55692287Y-25318390D01*
X55684556Y-25307749D01*
X55571971Y-25152786D01*
X55427213Y-25008028D01*
X55261613Y-24887715D01*
X55261612Y-24887714D01*
X55261610Y-24887713D01*
X55204653Y-24858691D01*
X55079223Y-24794781D01*
X54884534Y-24731522D01*
X54709995Y-24703878D01*
X54682352Y-24699500D01*
X54477648Y-24699500D01*
X54453329Y-24703351D01*
X54275465Y-24731522D01*
X54080776Y-24794781D01*
X53898386Y-24887715D01*
X53732786Y-25008028D01*
X53588028Y-25152786D01*
X53467715Y-25318386D01*
X53374781Y-25500776D01*
X53311522Y-25695465D01*
X53279500Y-25897648D01*
X53279500Y-26102351D01*
X53311522Y-26304534D01*
X53374781Y-26499223D01*
X53467715Y-26681613D01*
X53588028Y-26847213D01*
X53628634Y-26887819D01*
X53662119Y-26949142D01*
X53657135Y-27018834D01*
X53615263Y-27074767D01*
X53549799Y-27099184D01*
X53540953Y-27099500D01*
X45459047Y-27099500D01*
X45392008Y-27079815D01*
X45346253Y-27027011D01*
X45336309Y-26957853D01*
X45365334Y-26894297D01*
X45371366Y-26887819D01*
X45411966Y-26847219D01*
X45411968Y-26847215D01*
X45411971Y-26847213D01*
X45464732Y-26774590D01*
X45532287Y-26681610D01*
X45625220Y-26499219D01*
X45688477Y-26304534D01*
X45720500Y-26102352D01*
X45720500Y-25897648D01*
X45697762Y-25754087D01*
X45688477Y-25695465D01*
X45636038Y-25534075D01*
X45625220Y-25500781D01*
X45625218Y-25500778D01*
X45625218Y-25500776D01*
X45532419Y-25318650D01*
X45532287Y-25318390D01*
X45524556Y-25307749D01*
X45411971Y-25152786D01*
X45267213Y-25008028D01*
X45101613Y-24887715D01*
X45101612Y-24887714D01*
X45101610Y-24887713D01*
X45044653Y-24858691D01*
X44919223Y-24794781D01*
X44724534Y-24731522D01*
X44549995Y-24703878D01*
X44522352Y-24699500D01*
X44317648Y-24699500D01*
X44293329Y-24703351D01*
X44115465Y-24731522D01*
X43920776Y-24794781D01*
X43738386Y-24887715D01*
X43572786Y-25008028D01*
X43428028Y-25152786D01*
X43307715Y-25318386D01*
X43214779Y-25500780D01*
X43210543Y-25513820D01*
X43171105Y-25571495D01*
X43106746Y-25598692D01*
X43092613Y-25599500D01*
X41624000Y-25599500D01*
X41556961Y-25579815D01*
X41511206Y-25527011D01*
X41500000Y-25475500D01*
X41500000Y-21624000D01*
X41519685Y-21556961D01*
X41572489Y-21511206D01*
X41624000Y-21500000D01*
X57961286Y-21500000D01*
X58028325Y-21519685D01*
G37*
%TD.AperFunction*%
%TA.AperFunction,Conductor*%
G36*
X50391394Y-30920185D02*
G01*
X50437149Y-30972989D01*
X50447093Y-31042147D01*
X50424673Y-31097385D01*
X50302187Y-31265974D01*
X50202104Y-31462393D01*
X50202103Y-31462396D01*
X50133985Y-31672047D01*
X50099500Y-31889778D01*
X50099500Y-32110221D01*
X50133985Y-32327952D01*
X50202103Y-32537603D01*
X50202104Y-32537606D01*
X50302187Y-32734025D01*
X50431752Y-32912358D01*
X50431756Y-32912363D01*
X50587636Y-33068243D01*
X50587641Y-33068247D01*
X50645234Y-33110090D01*
X50765978Y-33197815D01*
X50873746Y-33252726D01*
X50962393Y-33297895D01*
X50962396Y-33297896D01*
X51067221Y-33331955D01*
X51172049Y-33366015D01*
X51389778Y-33400500D01*
X51389779Y-33400500D01*
X51610221Y-33400500D01*
X51610222Y-33400500D01*
X51827951Y-33366015D01*
X52037606Y-33297895D01*
X52234022Y-33197815D01*
X52412365Y-33068242D01*
X52568242Y-32912365D01*
X52697815Y-32734022D01*
X52797895Y-32537606D01*
X52866015Y-32327951D01*
X52900500Y-32110222D01*
X52900500Y-31889778D01*
X52866015Y-31672049D01*
X52810114Y-31500000D01*
X52797896Y-31462396D01*
X52797895Y-31462393D01*
X52746887Y-31362287D01*
X52697815Y-31265978D01*
X52655542Y-31207794D01*
X52575327Y-31097385D01*
X52551847Y-31031578D01*
X52567673Y-30963525D01*
X52617779Y-30914830D01*
X52675645Y-30900500D01*
X53570614Y-30900500D01*
X53637653Y-30920185D01*
X53658295Y-30936819D01*
X53661985Y-30940509D01*
X53661986Y-30940510D01*
X53661988Y-30940511D01*
X53787511Y-31012982D01*
X53787512Y-31012982D01*
X53787515Y-31012984D01*
X53927525Y-31050500D01*
X53927528Y-31050500D01*
X54075500Y-31050500D01*
X54142539Y-31070185D01*
X54188294Y-31122989D01*
X54199500Y-31174500D01*
X54199500Y-32182745D01*
X54179815Y-32249784D01*
X54163181Y-32270426D01*
X49820426Y-36613181D01*
X49759103Y-36646666D01*
X49732745Y-36649500D01*
X49727525Y-36649500D01*
X49598993Y-36683940D01*
X49587511Y-36687017D01*
X49461988Y-36759488D01*
X49381615Y-36839861D01*
X49320291Y-36873345D01*
X49250600Y-36868361D01*
X49206253Y-36839860D01*
X45978073Y-33611680D01*
X45944588Y-33550357D01*
X45949572Y-33480665D01*
X45991444Y-33424732D01*
X46056908Y-33400315D01*
X46065754Y-33399999D01*
X46250000Y-33399999D01*
X46250000Y-32433012D01*
X46307007Y-32465925D01*
X46434174Y-32500000D01*
X46565826Y-32500000D01*
X46692993Y-32465925D01*
X46750000Y-32433012D01*
X46750000Y-33399999D01*
X47644786Y-33399999D01*
X47644808Y-33399997D01*
X47669869Y-33397091D01*
X47669873Y-33397090D01*
X47772474Y-33351788D01*
X47772479Y-33351785D01*
X47851785Y-33272479D01*
X47851788Y-33272474D01*
X47897089Y-33169877D01*
X47897089Y-33169875D01*
X47899999Y-33144794D01*
X47900000Y-33144791D01*
X47900000Y-32250000D01*
X46933012Y-32250000D01*
X46965925Y-32192993D01*
X47000000Y-32065826D01*
X47000000Y-31934174D01*
X46965925Y-31807007D01*
X46933012Y-31750000D01*
X47899999Y-31750000D01*
X47899999Y-31024500D01*
X47919684Y-30957461D01*
X47972488Y-30911706D01*
X48023999Y-30900500D01*
X50324355Y-30900500D01*
X50391394Y-30920185D01*
G37*
%TD.AperFunction*%
%TD*%
M02*
