%TF.GenerationSoftware,KiCad,Pcbnew,10.0.4*%
%TF.CreationDate,2026-08-01T13:40:54-05:00*%
%TF.ProjectId,Derek_CAN_v4,44657265-6b5f-4434-914e-5f76342e6b69,rev?*%
%TF.SameCoordinates,Original*%
%TF.FileFunction,Copper,L2,Bot*%
%TF.FilePolarity,Positive*%
%FSLAX46Y46*%
G04 Gerber Fmt 4.6, Leading zero omitted, Abs format (unit mm)*
G04 Created by KiCad (PCBNEW 10.0.4) date 2026-08-01 13:40:54*
%MOMM*%
%LPD*%
G01*
G04 APERTURE LIST*
%TA.AperFunction,ComponentPad*%
%ADD10C,1.250000*%
%TD*%
%TA.AperFunction,ComponentPad*%
%ADD11O,2.200000X2.800000*%
%TD*%
%TA.AperFunction,ComponentPad*%
%ADD12R,2.000000X2.000000*%
%TD*%
%TA.AperFunction,ComponentPad*%
%ADD13O,2.000000X2.000000*%
%TD*%
%TA.AperFunction,ComponentPad*%
%ADD14C,2.000000*%
%TD*%
%TA.AperFunction,ComponentPad*%
%ADD15R,2.200000X2.200000*%
%TD*%
%TA.AperFunction,ComponentPad*%
%ADD16C,2.200000*%
%TD*%
%TA.AperFunction,ViaPad*%
%ADD17C,0.500000*%
%TD*%
%TA.AperFunction,Conductor*%
%ADD18C,0.200000*%
%TD*%
%TA.AperFunction,Conductor*%
%ADD19C,1.500000*%
%TD*%
G04 APERTURE END LIST*
D10*
%TO.P,J1,1,P1*%
%TO.N,5V*%
X28430000Y-25960000D03*
%TO.P,J1,2,P2*%
X29450000Y-28500000D03*
%TO.P,J1,3,P3*%
%TO.N,GND*%
X30470000Y-25960000D03*
%TO.P,J1,4,P4*%
X31490000Y-28500000D03*
%TO.P,J1,5,P5*%
%TO.N,PAN_PWM*%
X32510000Y-25960000D03*
%TO.P,J1,6,P6*%
%TO.N,LIFT_PWM*%
X33530000Y-28500000D03*
%TO.P,J1,7,P7*%
%TO.N,LED_FROM_CLUSTER*%
X34550000Y-25960000D03*
%TO.P,J1,8,P8*%
%TO.N,LED_RETURN_CLUSTER*%
X35570000Y-28500000D03*
D11*
%TO.P,J1,S1,SHIELD*%
%TO.N,GND*%
X24900000Y-33300000D03*
%TO.P,J1,S2,SHIELD*%
X39100000Y-33300000D03*
%TO.P,J1,M1,SHIELD*%
X26300000Y-37300000D03*
%TO.P,J1,M2,SHIELD*%
X37700000Y-37300000D03*
%TD*%
D12*
%TO.P,J2,1,GND*%
%TO.N,GND*%
X68500000Y-23460000D03*
D13*
%TO.P,J2,2,+5V*%
%TO.N,5V*%
X68500000Y-26000000D03*
%TO.P,J2,3,SIGNAL*%
%TO.N,PAN_PWM*%
X68500000Y-28540000D03*
%TD*%
D12*
%TO.P,J3,1,GND*%
%TO.N,GND*%
X68500000Y-32460000D03*
D13*
%TO.P,J3,2,+5V*%
%TO.N,5V*%
X68500000Y-35000000D03*
%TO.P,J3,3,SIGNAL*%
%TO.N,LIFT_PWM*%
X68500000Y-37540000D03*
%TD*%
D12*
%TO.P,J4,1,DATA*%
%TO.N,LED_TO_FIRST*%
X47500000Y-39500000D03*
D13*
%TO.P,J4,2,+5V*%
%TO.N,5V*%
X50000000Y-39500000D03*
%TO.P,J4,3,GND*%
%TO.N,GND*%
X52500000Y-39500000D03*
%TD*%
D12*
%TO.P,J5,1,DATA*%
%TO.N,LED_RETURN_CLUSTER*%
X58500000Y-39500000D03*
D13*
%TO.P,J5,2,+5V*%
%TO.N,5V*%
X61000000Y-39500000D03*
%TO.P,J5,3,GND*%
%TO.N,GND*%
X63500000Y-39500000D03*
%TD*%
D14*
%TO.P,R1,1*%
%TO.N,LED_FROM_CLUSTER*%
X44420000Y-26000000D03*
%TO.P,R1,2*%
%TO.N,LED_TO_FIRST*%
X54580000Y-26000000D03*
%TD*%
D15*
%TO.P,C1,1,+*%
%TO.N,5V*%
X46500000Y-32000000D03*
D16*
%TO.P,C1,2,-*%
%TO.N,GND*%
X51500000Y-32000000D03*
%TD*%
D12*
%TO.P,C2,1*%
%TO.N,5V*%
X58000000Y-32750000D03*
D14*
%TO.P,C2,2*%
%TO.N,GND*%
X58000000Y-30250000D03*
%TD*%
D17*
%TO.N,5V*%
X44600000Y-33900000D03*
%TO.N,LIFT_PWM*%
X55200000Y-30500000D03*
X54000000Y-30500000D03*
X38800000Y-30900000D03*
X38000000Y-31700000D03*
%TO.N,LED_TO_FIRST*%
X54600000Y-28100000D03*
X49800000Y-37200000D03*
%TD*%
%TO.N,LIFT_PWM*%
D18*
X54000000Y-30500000D02*
X55200000Y-30500000D01*
X38000000Y-31700000D02*
X38800000Y-30900000D01*
%TO.N,LED_TO_FIRST*%
X54600000Y-28100000D02*
X54600000Y-26000000D01*
X47500000Y-39500000D02*
X49800000Y-37200000D01*
%TO.N,5V*%
D19*
X44600000Y-33900000D02*
X46500000Y-32000000D01*
%TD*%
%TA.AperFunction,Conductor*%
%TO.N,GND*%
G36*
X59267481Y-19520185D02*
G01*
X59313236Y-19572989D01*
X59323180Y-19642147D01*
X59294155Y-19705703D01*
X59247895Y-19739061D01*
X59151330Y-19779059D01*
X59151319Y-19779064D01*
X58933955Y-19904561D01*
X58734834Y-20057351D01*
X58734827Y-20057357D01*
X58557357Y-20234827D01*
X58557351Y-20234834D01*
X58404561Y-20433955D01*
X58279064Y-20651319D01*
X58279059Y-20651330D01*
X58183011Y-20883210D01*
X58118047Y-21125659D01*
X58085286Y-21374495D01*
X58085286Y-21625504D01*
X58099671Y-21734763D01*
X58118048Y-21874344D01*
X58150529Y-21995564D01*
X58183011Y-22116789D01*
X58279059Y-22348669D01*
X58279064Y-22348680D01*
X58302996Y-22390130D01*
X58404558Y-22566040D01*
X58404560Y-22566043D01*
X58404561Y-22566044D01*
X58557351Y-22765165D01*
X58557357Y-22765172D01*
X58734827Y-22942642D01*
X58734834Y-22942648D01*
X58851814Y-23032409D01*
X58933960Y-23095442D01*
X59073661Y-23176099D01*
X59151319Y-23220935D01*
X59151324Y-23220937D01*
X59151327Y-23220939D01*
X59383215Y-23316990D01*
X59625656Y-23381952D01*
X59874503Y-23414714D01*
X59874510Y-23414714D01*
X60125490Y-23414714D01*
X60125497Y-23414714D01*
X60374344Y-23381952D01*
X60616785Y-23316990D01*
X60848673Y-23220939D01*
X61066040Y-23095442D01*
X61265167Y-22942647D01*
X61442647Y-22765167D01*
X61595442Y-22566040D01*
X61697007Y-22390124D01*
X61720390Y-22349625D01*
X61720935Y-22348680D01*
X61720935Y-22348679D01*
X61720939Y-22348673D01*
X61816990Y-22116785D01*
X61881952Y-21874344D01*
X61914714Y-21625497D01*
X61914714Y-21374503D01*
X61881952Y-21125656D01*
X61816990Y-20883215D01*
X61720939Y-20651327D01*
X61720937Y-20651324D01*
X61720935Y-20651319D01*
X61666682Y-20557351D01*
X61595442Y-20433960D01*
X61442647Y-20234833D01*
X61442642Y-20234827D01*
X61265172Y-20057357D01*
X61265165Y-20057351D01*
X61066044Y-19904561D01*
X61066043Y-19904560D01*
X61066040Y-19904558D01*
X60979377Y-19854523D01*
X60848680Y-19779064D01*
X60848669Y-19779059D01*
X60752105Y-19739061D01*
X60697702Y-19695220D01*
X60675637Y-19628926D01*
X60692916Y-19561227D01*
X60744053Y-19513616D01*
X60799558Y-19500500D01*
X71375500Y-19500500D01*
X71442539Y-19520185D01*
X71488294Y-19572989D01*
X71499500Y-19624500D01*
X71499500Y-43375500D01*
X71479815Y-43442539D01*
X71427011Y-43488294D01*
X71375500Y-43499500D01*
X69299558Y-43499500D01*
X69232519Y-43479815D01*
X69186764Y-43427011D01*
X69176820Y-43357853D01*
X69205845Y-43294297D01*
X69252105Y-43260939D01*
X69281614Y-43248715D01*
X69348673Y-43220939D01*
X69566040Y-43095442D01*
X69765167Y-42942647D01*
X69942647Y-42765167D01*
X70095442Y-42566040D01*
X70220939Y-42348673D01*
X70316990Y-42116785D01*
X70381952Y-41874344D01*
X70414714Y-41625497D01*
X70414714Y-41374503D01*
X70381952Y-41125656D01*
X70316990Y-40883215D01*
X70220939Y-40651327D01*
X70220937Y-40651324D01*
X70220935Y-40651319D01*
X70159473Y-40544865D01*
X70095442Y-40433960D01*
X69942647Y-40234833D01*
X69942642Y-40234827D01*
X69765172Y-40057357D01*
X69765165Y-40057351D01*
X69566044Y-39904561D01*
X69566043Y-39904560D01*
X69566040Y-39904558D01*
X69479377Y-39854523D01*
X69348680Y-39779064D01*
X69348669Y-39779059D01*
X69116789Y-39683011D01*
X68874340Y-39618047D01*
X68625504Y-39585286D01*
X68625497Y-39585286D01*
X68374503Y-39585286D01*
X68374495Y-39585286D01*
X68125659Y-39618047D01*
X67883210Y-39683011D01*
X67651330Y-39779059D01*
X67651319Y-39779064D01*
X67433955Y-39904561D01*
X67234834Y-40057351D01*
X67234827Y-40057357D01*
X67057357Y-40234827D01*
X67057351Y-40234834D01*
X66904561Y-40433955D01*
X66779064Y-40651319D01*
X66779059Y-40651330D01*
X66683011Y-40883210D01*
X66618047Y-41125659D01*
X66585286Y-41374495D01*
X66585286Y-41625504D01*
X66603683Y-41765237D01*
X66618048Y-41874344D01*
X66650529Y-41995564D01*
X66683011Y-42116789D01*
X66779059Y-42348669D01*
X66779064Y-42348680D01*
X66814072Y-42409314D01*
X66904558Y-42566040D01*
X66904560Y-42566043D01*
X66904561Y-42566044D01*
X67057351Y-42765165D01*
X67057357Y-42765172D01*
X67234827Y-42942642D01*
X67234833Y-42942647D01*
X67433960Y-43095442D01*
X67573661Y-43176099D01*
X67651319Y-43220935D01*
X67651324Y-43220937D01*
X67651327Y-43220939D01*
X67695396Y-43239193D01*
X67747895Y-43260939D01*
X67802298Y-43304780D01*
X67824363Y-43371074D01*
X67807084Y-43438773D01*
X67755947Y-43486384D01*
X67700442Y-43499500D01*
X41799558Y-43499500D01*
X41732519Y-43479815D01*
X41686764Y-43427011D01*
X41676820Y-43357853D01*
X41705845Y-43294297D01*
X41752105Y-43260939D01*
X41781614Y-43248715D01*
X41848673Y-43220939D01*
X42066040Y-43095442D01*
X42265167Y-42942647D01*
X42442647Y-42765167D01*
X42595442Y-42566040D01*
X42720939Y-42348673D01*
X42816990Y-42116785D01*
X42881952Y-41874344D01*
X42914714Y-41625497D01*
X42914714Y-41374503D01*
X42881952Y-41125656D01*
X42816990Y-40883215D01*
X42720939Y-40651327D01*
X42720937Y-40651324D01*
X42720935Y-40651319D01*
X42659473Y-40544865D01*
X42595442Y-40433960D01*
X42442647Y-40234833D01*
X42442642Y-40234827D01*
X42265172Y-40057357D01*
X42265165Y-40057351D01*
X42066044Y-39904561D01*
X42066043Y-39904560D01*
X42066040Y-39904558D01*
X41979377Y-39854523D01*
X41848680Y-39779064D01*
X41848669Y-39779059D01*
X41616789Y-39683011D01*
X41374340Y-39618047D01*
X41125504Y-39585286D01*
X41125497Y-39585286D01*
X40874503Y-39585286D01*
X40874495Y-39585286D01*
X40625659Y-39618047D01*
X40383210Y-39683011D01*
X40151330Y-39779059D01*
X40151319Y-39779064D01*
X39933955Y-39904561D01*
X39734834Y-40057351D01*
X39734827Y-40057357D01*
X39557357Y-40234827D01*
X39557351Y-40234834D01*
X39404561Y-40433955D01*
X39279064Y-40651319D01*
X39279059Y-40651330D01*
X39183011Y-40883210D01*
X39118047Y-41125659D01*
X39085286Y-41374495D01*
X39085286Y-41625504D01*
X39103683Y-41765237D01*
X39118048Y-41874344D01*
X39150529Y-41995564D01*
X39183011Y-42116789D01*
X39279059Y-42348669D01*
X39279064Y-42348680D01*
X39314072Y-42409314D01*
X39404558Y-42566040D01*
X39404560Y-42566043D01*
X39404561Y-42566044D01*
X39557351Y-42765165D01*
X39557357Y-42765172D01*
X39734827Y-42942642D01*
X39734833Y-42942647D01*
X39933960Y-43095442D01*
X40073661Y-43176099D01*
X40151319Y-43220935D01*
X40151324Y-43220937D01*
X40151327Y-43220939D01*
X40195396Y-43239193D01*
X40247895Y-43260939D01*
X40302298Y-43304780D01*
X40324363Y-43371074D01*
X40307084Y-43438773D01*
X40255947Y-43486384D01*
X40200442Y-43499500D01*
X22624500Y-43499500D01*
X22557461Y-43479815D01*
X22511706Y-43427011D01*
X22500500Y-43375500D01*
X22500500Y-36889818D01*
X24900000Y-36889818D01*
X24900000Y-37050000D01*
X25699999Y-37050000D01*
X25674979Y-37110402D01*
X25650000Y-37235981D01*
X25650000Y-37364019D01*
X25674979Y-37489598D01*
X25699999Y-37550000D01*
X24900000Y-37550000D01*
X24900000Y-37710181D01*
X24934473Y-37927835D01*
X25002567Y-38137410D01*
X25102613Y-38333760D01*
X25232142Y-38512041D01*
X25387958Y-38667857D01*
X25566239Y-38797386D01*
X25762589Y-38897432D01*
X25972163Y-38965526D01*
X26049999Y-38977854D01*
X26050000Y-38977854D01*
X26050000Y-37900001D01*
X26110402Y-37925021D01*
X26235981Y-37950000D01*
X26364019Y-37950000D01*
X26489598Y-37925021D01*
X26550000Y-37900001D01*
X26550000Y-38977854D01*
X26627834Y-38965526D01*
X26627837Y-38965526D01*
X26837410Y-38897432D01*
X27033760Y-38797386D01*
X27212041Y-38667857D01*
X27367857Y-38512041D01*
X27497386Y-38333760D01*
X27597432Y-38137410D01*
X27665526Y-37927835D01*
X27700000Y-37710181D01*
X27700000Y-37550000D01*
X26900001Y-37550000D01*
X26925021Y-37489598D01*
X26950000Y-37364019D01*
X26950000Y-37235981D01*
X26925021Y-37110402D01*
X26900001Y-37050000D01*
X27700000Y-37050000D01*
X27700000Y-36889818D01*
X36300000Y-36889818D01*
X36300000Y-37050000D01*
X37099999Y-37050000D01*
X37074979Y-37110402D01*
X37050000Y-37235981D01*
X37050000Y-37364019D01*
X37074979Y-37489598D01*
X37099999Y-37550000D01*
X36300000Y-37550000D01*
X36300000Y-37710181D01*
X36334473Y-37927835D01*
X36402567Y-38137410D01*
X36502613Y-38333760D01*
X36632142Y-38512041D01*
X36787958Y-38667857D01*
X36966239Y-38797386D01*
X37162589Y-38897432D01*
X37372163Y-38965526D01*
X37449999Y-38977854D01*
X37450000Y-38977854D01*
X37450000Y-37900001D01*
X37510402Y-37925021D01*
X37635981Y-37950000D01*
X37764019Y-37950000D01*
X37889598Y-37925021D01*
X37950000Y-37900001D01*
X37950000Y-38977854D01*
X38027834Y-38965526D01*
X38027837Y-38965526D01*
X38237410Y-38897432D01*
X38433760Y-38797386D01*
X38612041Y-38667857D01*
X38767857Y-38512041D01*
X38767862Y-38512035D01*
X38809206Y-38455131D01*
X46199500Y-38455131D01*
X46199500Y-40544856D01*
X46199502Y-40544882D01*
X46202413Y-40569987D01*
X46202415Y-40569991D01*
X46247793Y-40672764D01*
X46247794Y-40672765D01*
X46327235Y-40752206D01*
X46430009Y-40797585D01*
X46455135Y-40800500D01*
X48544864Y-40800499D01*
X48544879Y-40800497D01*
X48544882Y-40800497D01*
X48569987Y-40797586D01*
X48569988Y-40797585D01*
X48569991Y-40797585D01*
X48672765Y-40752206D01*
X48752206Y-40672765D01*
X48797585Y-40569991D01*
X48800500Y-40544865D01*
X48800499Y-40439044D01*
X48820183Y-40372007D01*
X48872987Y-40326252D01*
X48942145Y-40316308D01*
X49005701Y-40345332D01*
X49012180Y-40351365D01*
X49152786Y-40491971D01*
X49307749Y-40604556D01*
X49318390Y-40612287D01*
X49434607Y-40671503D01*
X49500776Y-40705218D01*
X49500778Y-40705218D01*
X49500781Y-40705220D01*
X49605137Y-40739127D01*
X49695465Y-40768477D01*
X49796557Y-40784488D01*
X49897648Y-40800500D01*
X49897649Y-40800500D01*
X50102351Y-40800500D01*
X50102352Y-40800500D01*
X50304534Y-40768477D01*
X50499219Y-40705220D01*
X50681610Y-40612287D01*
X50774590Y-40544732D01*
X50847213Y-40491971D01*
X50847215Y-40491968D01*
X50847219Y-40491966D01*
X50991966Y-40347219D01*
X50991968Y-40347215D01*
X50991971Y-40347213D01*
X51112284Y-40181614D01*
X51112283Y-40181614D01*
X51112287Y-40181610D01*
X51139795Y-40127621D01*
X51187769Y-40076826D01*
X51255590Y-40060031D01*
X51321725Y-40082568D01*
X51360765Y-40127622D01*
X51388140Y-40181349D01*
X51508417Y-40346894D01*
X51508417Y-40346895D01*
X51653104Y-40491582D01*
X51818650Y-40611859D01*
X52000968Y-40704754D01*
X52195578Y-40767988D01*
X52250000Y-40776607D01*
X52250000Y-39933012D01*
X52307007Y-39965925D01*
X52434174Y-40000000D01*
X52565826Y-40000000D01*
X52692993Y-39965925D01*
X52750000Y-39933012D01*
X52750000Y-40776606D01*
X52804421Y-40767988D01*
X52999031Y-40704754D01*
X53181349Y-40611859D01*
X53346894Y-40491582D01*
X53346895Y-40491582D01*
X53491582Y-40346895D01*
X53491582Y-40346894D01*
X53611859Y-40181349D01*
X53704755Y-39999029D01*
X53767990Y-39804413D01*
X53776609Y-39750000D01*
X52933012Y-39750000D01*
X52965925Y-39692993D01*
X53000000Y-39565826D01*
X53000000Y-39434174D01*
X52965925Y-39307007D01*
X52933012Y-39250000D01*
X53776609Y-39250000D01*
X53767990Y-39195586D01*
X53704755Y-39000970D01*
X53611859Y-38818650D01*
X53491582Y-38653105D01*
X53491582Y-38653104D01*
X53346895Y-38508417D01*
X53273554Y-38455131D01*
X57199500Y-38455131D01*
X57199500Y-40544856D01*
X57199502Y-40544882D01*
X57202413Y-40569987D01*
X57202415Y-40569991D01*
X57247793Y-40672764D01*
X57247794Y-40672765D01*
X57327235Y-40752206D01*
X57430009Y-40797585D01*
X57455135Y-40800500D01*
X59544864Y-40800499D01*
X59544879Y-40800497D01*
X59544882Y-40800497D01*
X59569987Y-40797586D01*
X59569988Y-40797585D01*
X59569991Y-40797585D01*
X59672765Y-40752206D01*
X59752206Y-40672765D01*
X59797585Y-40569991D01*
X59800500Y-40544865D01*
X59800499Y-40439044D01*
X59820183Y-40372007D01*
X59872987Y-40326252D01*
X59942145Y-40316308D01*
X60005701Y-40345332D01*
X60012180Y-40351365D01*
X60152786Y-40491971D01*
X60307749Y-40604556D01*
X60318390Y-40612287D01*
X60434607Y-40671503D01*
X60500776Y-40705218D01*
X60500778Y-40705218D01*
X60500781Y-40705220D01*
X60605137Y-40739127D01*
X60695465Y-40768477D01*
X60796557Y-40784488D01*
X60897648Y-40800500D01*
X60897649Y-40800500D01*
X61102351Y-40800500D01*
X61102352Y-40800500D01*
X61304534Y-40768477D01*
X61499219Y-40705220D01*
X61681610Y-40612287D01*
X61774590Y-40544732D01*
X61847213Y-40491971D01*
X61847215Y-40491968D01*
X61847219Y-40491966D01*
X61991966Y-40347219D01*
X61991968Y-40347215D01*
X61991971Y-40347213D01*
X62112284Y-40181614D01*
X62112283Y-40181614D01*
X62112287Y-40181610D01*
X62139795Y-40127621D01*
X62187769Y-40076826D01*
X62255590Y-40060031D01*
X62321725Y-40082568D01*
X62360765Y-40127622D01*
X62388140Y-40181349D01*
X62508417Y-40346894D01*
X62508417Y-40346895D01*
X62653104Y-40491582D01*
X62818650Y-40611859D01*
X63000968Y-40704754D01*
X63195578Y-40767988D01*
X63250000Y-40776607D01*
X63250000Y-39933012D01*
X63307007Y-39965925D01*
X63434174Y-40000000D01*
X63565826Y-40000000D01*
X63692993Y-39965925D01*
X63750000Y-39933012D01*
X63750000Y-40776606D01*
X63804421Y-40767988D01*
X63999031Y-40704754D01*
X64181349Y-40611859D01*
X64346894Y-40491582D01*
X64346895Y-40491582D01*
X64491582Y-40346895D01*
X64491582Y-40346894D01*
X64611859Y-40181349D01*
X64704755Y-39999029D01*
X64767990Y-39804413D01*
X64776609Y-39750000D01*
X63933012Y-39750000D01*
X63965925Y-39692993D01*
X64000000Y-39565826D01*
X64000000Y-39434174D01*
X63965925Y-39307007D01*
X63933012Y-39250000D01*
X64776609Y-39250000D01*
X64767990Y-39195586D01*
X64704755Y-39000970D01*
X64611859Y-38818650D01*
X64491582Y-38653105D01*
X64491582Y-38653104D01*
X64346895Y-38508417D01*
X64181349Y-38388140D01*
X63999029Y-38295244D01*
X63804413Y-38232009D01*
X63750000Y-38223390D01*
X63750000Y-39066988D01*
X63692993Y-39034075D01*
X63565826Y-39000000D01*
X63434174Y-39000000D01*
X63307007Y-39034075D01*
X63250000Y-39066988D01*
X63250000Y-38223390D01*
X63195586Y-38232009D01*
X63000970Y-38295244D01*
X62818650Y-38388140D01*
X62653105Y-38508417D01*
X62653104Y-38508417D01*
X62508417Y-38653104D01*
X62508417Y-38653105D01*
X62388140Y-38818650D01*
X62360765Y-38872377D01*
X62312790Y-38923173D01*
X62244969Y-38939968D01*
X62178834Y-38917430D01*
X62139795Y-38872377D01*
X62134922Y-38862815D01*
X62112287Y-38818390D01*
X62074146Y-38765893D01*
X61991971Y-38652786D01*
X61847213Y-38508028D01*
X61681613Y-38387715D01*
X61681612Y-38387714D01*
X61681610Y-38387713D01*
X61624653Y-38358691D01*
X61499223Y-38294781D01*
X61304534Y-38231522D01*
X61120756Y-38202415D01*
X61102352Y-38199500D01*
X60897648Y-38199500D01*
X60879244Y-38202415D01*
X60695465Y-38231522D01*
X60500776Y-38294781D01*
X60318386Y-38387715D01*
X60152786Y-38508028D01*
X60152782Y-38508032D01*
X60012180Y-38648635D01*
X59950857Y-38682120D01*
X59881165Y-38677136D01*
X59825232Y-38635264D01*
X59800815Y-38569800D01*
X59800499Y-38560954D01*
X59800499Y-38455143D01*
X59800499Y-38455136D01*
X59800497Y-38455117D01*
X59797586Y-38430012D01*
X59797585Y-38430010D01*
X59797585Y-38430009D01*
X59752206Y-38327235D01*
X59672765Y-38247794D01*
X59667508Y-38245473D01*
X59569992Y-38202415D01*
X59544865Y-38199500D01*
X57455143Y-38199500D01*
X57455117Y-38199502D01*
X57430012Y-38202413D01*
X57430008Y-38202415D01*
X57327235Y-38247793D01*
X57247794Y-38327234D01*
X57202415Y-38430006D01*
X57202415Y-38430008D01*
X57199500Y-38455131D01*
X53273554Y-38455131D01*
X53181349Y-38388140D01*
X52999029Y-38295244D01*
X52804413Y-38232009D01*
X52750000Y-38223390D01*
X52750000Y-39066988D01*
X52692993Y-39034075D01*
X52565826Y-39000000D01*
X52434174Y-39000000D01*
X52307007Y-39034075D01*
X52250000Y-39066988D01*
X52250000Y-38223390D01*
X52195586Y-38232009D01*
X52000970Y-38295244D01*
X51818650Y-38388140D01*
X51653105Y-38508417D01*
X51653104Y-38508417D01*
X51508417Y-38653104D01*
X51508417Y-38653105D01*
X51388140Y-38818650D01*
X51360765Y-38872377D01*
X51312790Y-38923173D01*
X51244969Y-38939968D01*
X51178834Y-38917430D01*
X51139795Y-38872377D01*
X51134922Y-38862815D01*
X51112287Y-38818390D01*
X51074146Y-38765893D01*
X50991971Y-38652786D01*
X50847213Y-38508028D01*
X50681613Y-38387715D01*
X50681612Y-38387714D01*
X50681610Y-38387713D01*
X50624653Y-38358691D01*
X50499223Y-38294781D01*
X50304534Y-38231522D01*
X50120756Y-38202415D01*
X50102352Y-38199500D01*
X49897648Y-38199500D01*
X49879244Y-38202415D01*
X49695464Y-38231523D01*
X49695461Y-38231523D01*
X49652530Y-38245473D01*
X49582689Y-38247468D01*
X49522856Y-38211388D01*
X49492028Y-38148687D01*
X49499993Y-38079272D01*
X49526529Y-38039863D01*
X49779574Y-37786819D01*
X49840897Y-37753334D01*
X49867255Y-37750500D01*
X49872472Y-37750500D01*
X49872475Y-37750500D01*
X50012485Y-37712984D01*
X50138015Y-37640509D01*
X50240509Y-37538015D01*
X50312984Y-37412485D01*
X50350500Y-37272475D01*
X50350500Y-37127525D01*
X50312984Y-36987515D01*
X50256578Y-36889818D01*
X50240511Y-36861988D01*
X50240506Y-36861982D01*
X50138017Y-36759493D01*
X50138011Y-36759488D01*
X50012488Y-36687017D01*
X50012489Y-36687017D01*
X50001006Y-36683940D01*
X49872475Y-36649500D01*
X49727525Y-36649500D01*
X49598993Y-36683940D01*
X49587511Y-36687017D01*
X49461988Y-36759488D01*
X49461982Y-36759493D01*
X49359493Y-36861982D01*
X49359488Y-36861988D01*
X49287017Y-36987511D01*
X49287016Y-36987515D01*
X49249500Y-37127525D01*
X49249500Y-37127527D01*
X49249500Y-37132744D01*
X49229815Y-37199783D01*
X49213181Y-37220425D01*
X48270425Y-38163181D01*
X48209102Y-38196666D01*
X48182744Y-38199500D01*
X46455143Y-38199500D01*
X46455117Y-38199502D01*
X46430012Y-38202413D01*
X46430008Y-38202415D01*
X46327235Y-38247793D01*
X46247794Y-38327234D01*
X46202415Y-38430006D01*
X46202415Y-38430008D01*
X46199500Y-38455131D01*
X38809206Y-38455131D01*
X38864759Y-38378669D01*
X38864759Y-38378668D01*
X38897386Y-38333760D01*
X38997432Y-38137410D01*
X39065526Y-37927835D01*
X39100000Y-37710181D01*
X39100000Y-37550000D01*
X38300001Y-37550000D01*
X38325021Y-37489598D01*
X38350000Y-37364019D01*
X38350000Y-37235981D01*
X38325021Y-37110402D01*
X38300001Y-37050000D01*
X39100000Y-37050000D01*
X39100000Y-36889818D01*
X39065526Y-36672164D01*
X38997432Y-36462589D01*
X38897386Y-36266239D01*
X38767857Y-36087958D01*
X38612041Y-35932142D01*
X38433760Y-35802613D01*
X38237410Y-35702567D01*
X38027836Y-35634473D01*
X37950000Y-35622144D01*
X37950000Y-36699998D01*
X37889598Y-36674979D01*
X37764019Y-36650000D01*
X37635981Y-36650000D01*
X37510402Y-36674979D01*
X37450000Y-36699998D01*
X37450000Y-35622144D01*
X37372164Y-35634473D01*
X37372161Y-35634473D01*
X37162589Y-35702567D01*
X36966239Y-35802613D01*
X36787958Y-35932142D01*
X36632142Y-36087958D01*
X36502613Y-36266239D01*
X36402567Y-36462589D01*
X36334473Y-36672164D01*
X36300000Y-36889818D01*
X27700000Y-36889818D01*
X27665526Y-36672164D01*
X27597432Y-36462589D01*
X27497386Y-36266239D01*
X27367857Y-36087958D01*
X27212041Y-35932142D01*
X27033760Y-35802613D01*
X26837410Y-35702567D01*
X26627836Y-35634473D01*
X26550000Y-35622144D01*
X26550000Y-36699998D01*
X26489598Y-36674979D01*
X26364019Y-36650000D01*
X26235981Y-36650000D01*
X26110402Y-36674979D01*
X26050000Y-36699998D01*
X26050000Y-35622144D01*
X25972164Y-35634473D01*
X25972161Y-35634473D01*
X25762589Y-35702567D01*
X25566239Y-35802613D01*
X25387958Y-35932142D01*
X25232142Y-36087958D01*
X25102613Y-36266239D01*
X25002567Y-36462589D01*
X24934473Y-36672164D01*
X24900000Y-36889818D01*
X22500500Y-36889818D01*
X22500500Y-32889818D01*
X23500000Y-32889818D01*
X23500000Y-33050000D01*
X24299999Y-33050000D01*
X24274979Y-33110402D01*
X24250000Y-33235981D01*
X24250000Y-33364019D01*
X24274979Y-33489598D01*
X24299999Y-33550000D01*
X23500000Y-33550000D01*
X23500000Y-33710181D01*
X23534473Y-33927835D01*
X23602567Y-34137410D01*
X23702613Y-34333760D01*
X23832142Y-34512041D01*
X23987958Y-34667857D01*
X24166239Y-34797386D01*
X24362589Y-34897432D01*
X24572163Y-34965526D01*
X24649999Y-34977854D01*
X24650000Y-34977854D01*
X24650000Y-33900001D01*
X24710402Y-33925021D01*
X24835981Y-33950000D01*
X24964019Y-33950000D01*
X25089598Y-33925021D01*
X25150000Y-33900001D01*
X25150000Y-34977854D01*
X25227834Y-34965526D01*
X25227837Y-34965526D01*
X25437410Y-34897432D01*
X25633760Y-34797386D01*
X25812041Y-34667857D01*
X25967857Y-34512041D01*
X26097386Y-34333760D01*
X26197432Y-34137410D01*
X26265526Y-33927835D01*
X26300000Y-33710181D01*
X26300000Y-33550000D01*
X25500001Y-33550000D01*
X25525021Y-33489598D01*
X25550000Y-33364019D01*
X25550000Y-33235981D01*
X25525021Y-33110402D01*
X25500001Y-33050000D01*
X26300000Y-33050000D01*
X26300000Y-32889818D01*
X26265526Y-32672164D01*
X26197432Y-32462589D01*
X26097386Y-32266239D01*
X25967857Y-32087958D01*
X25812041Y-31932142D01*
X25633760Y-31802613D01*
X25491020Y-31729883D01*
X25437410Y-31702567D01*
X25227836Y-31634473D01*
X25183972Y-31627525D01*
X37449500Y-31627525D01*
X37449500Y-31772475D01*
X37487016Y-31912485D01*
X37487017Y-31912488D01*
X37559488Y-32038011D01*
X37559490Y-32038013D01*
X37559491Y-32038015D01*
X37661985Y-32140509D01*
X37661986Y-32140510D01*
X37661988Y-32140511D01*
X37794553Y-32217048D01*
X37792912Y-32219889D01*
X37835388Y-32254075D01*
X37857494Y-32320356D01*
X37844061Y-32381152D01*
X37802568Y-32462586D01*
X37734473Y-32672164D01*
X37700000Y-32889818D01*
X37700000Y-33050000D01*
X38499999Y-33050000D01*
X38474979Y-33110402D01*
X38450000Y-33235981D01*
X38450000Y-33364019D01*
X38474979Y-33489598D01*
X38499999Y-33550000D01*
X37700000Y-33550000D01*
X37700000Y-33710181D01*
X37734473Y-33927835D01*
X37802567Y-34137410D01*
X37902613Y-34333760D01*
X38032142Y-34512041D01*
X38187958Y-34667857D01*
X38366239Y-34797386D01*
X38562589Y-34897432D01*
X38772163Y-34965526D01*
X38849999Y-34977854D01*
X38850000Y-34977854D01*
X38850000Y-33900001D01*
X38910402Y-33925021D01*
X39035981Y-33950000D01*
X39164019Y-33950000D01*
X39289598Y-33925021D01*
X39350000Y-33900001D01*
X39350000Y-34977854D01*
X39427834Y-34965526D01*
X39427837Y-34965526D01*
X39637410Y-34897432D01*
X39833760Y-34797386D01*
X40012041Y-34667857D01*
X40167857Y-34512041D01*
X40297386Y-34333760D01*
X40397432Y-34137410D01*
X40465526Y-33927835D01*
X40486323Y-33796530D01*
X43549500Y-33796530D01*
X43549500Y-34003469D01*
X43589868Y-34206412D01*
X43589870Y-34206420D01*
X43669057Y-34397595D01*
X43669062Y-34397604D01*
X43784023Y-34569654D01*
X43784026Y-34569658D01*
X43930341Y-34715973D01*
X43930345Y-34715976D01*
X44102395Y-34830937D01*
X44102401Y-34830940D01*
X44102402Y-34830941D01*
X44293580Y-34910130D01*
X44496530Y-34950499D01*
X44496534Y-34950500D01*
X44496535Y-34950500D01*
X44703466Y-34950500D01*
X44703467Y-34950499D01*
X44906420Y-34910130D01*
X44936554Y-34897648D01*
X67199500Y-34897648D01*
X67199500Y-35102351D01*
X67231522Y-35304534D01*
X67294781Y-35499223D01*
X67358691Y-35624653D01*
X67363695Y-35634473D01*
X67387715Y-35681613D01*
X67508028Y-35847213D01*
X67652786Y-35991971D01*
X67807749Y-36104556D01*
X67818390Y-36112287D01*
X67909840Y-36158883D01*
X67911080Y-36159515D01*
X67961876Y-36207490D01*
X67978671Y-36275311D01*
X67956134Y-36341446D01*
X67911080Y-36380485D01*
X67818386Y-36427715D01*
X67652786Y-36548028D01*
X67508028Y-36692786D01*
X67387715Y-36858386D01*
X67294781Y-37040776D01*
X67231522Y-37235465D01*
X67199500Y-37437648D01*
X67199500Y-37642351D01*
X67231522Y-37844534D01*
X67294781Y-38039223D01*
X67344811Y-38137410D01*
X67376448Y-38199502D01*
X67387715Y-38221613D01*
X67508028Y-38387213D01*
X67652786Y-38531971D01*
X67794960Y-38635264D01*
X67818390Y-38652287D01*
X67934607Y-38711503D01*
X68000776Y-38745218D01*
X68000778Y-38745218D01*
X68000781Y-38745220D01*
X68064406Y-38765893D01*
X68195465Y-38808477D01*
X68296557Y-38824488D01*
X68397648Y-38840500D01*
X68397649Y-38840500D01*
X68602351Y-38840500D01*
X68602352Y-38840500D01*
X68804534Y-38808477D01*
X68999219Y-38745220D01*
X69181610Y-38652287D01*
X69295145Y-38569800D01*
X69347213Y-38531971D01*
X69347215Y-38531968D01*
X69347219Y-38531966D01*
X69491966Y-38387219D01*
X69491968Y-38387215D01*
X69491971Y-38387213D01*
X69558789Y-38295244D01*
X69612287Y-38221610D01*
X69705220Y-38039219D01*
X69768477Y-37844534D01*
X69800500Y-37642352D01*
X69800500Y-37437648D01*
X69768477Y-37235466D01*
X69751789Y-37184107D01*
X69705218Y-37040776D01*
X69628300Y-36889818D01*
X69612287Y-36858390D01*
X69604556Y-36847749D01*
X69491971Y-36692786D01*
X69347213Y-36548028D01*
X69181614Y-36427715D01*
X69175006Y-36424348D01*
X69088917Y-36380483D01*
X69038123Y-36332511D01*
X69021328Y-36264690D01*
X69043865Y-36198555D01*
X69088917Y-36159516D01*
X69181610Y-36112287D01*
X69215096Y-36087958D01*
X69347213Y-35991971D01*
X69347215Y-35991968D01*
X69347219Y-35991966D01*
X69491966Y-35847219D01*
X69491968Y-35847215D01*
X69491971Y-35847213D01*
X69544732Y-35774590D01*
X69612287Y-35681610D01*
X69705220Y-35499219D01*
X69768477Y-35304534D01*
X69800500Y-35102352D01*
X69800500Y-34897648D01*
X69789935Y-34830942D01*
X69768477Y-34695465D01*
X69727599Y-34569658D01*
X69705220Y-34500781D01*
X69705218Y-34500778D01*
X69705218Y-34500776D01*
X69671503Y-34434607D01*
X69612287Y-34318390D01*
X69604556Y-34307749D01*
X69491971Y-34152786D01*
X69347215Y-34008030D01*
X69314577Y-33984318D01*
X69271910Y-33928988D01*
X69265931Y-33859375D01*
X69298536Y-33797580D01*
X69359374Y-33763222D01*
X69387461Y-33759999D01*
X69544786Y-33759999D01*
X69544808Y-33759997D01*
X69569869Y-33757091D01*
X69569873Y-33757090D01*
X69672474Y-33711788D01*
X69672479Y-33711785D01*
X69751785Y-33632479D01*
X69751788Y-33632474D01*
X69797089Y-33529877D01*
X69797089Y-33529875D01*
X69799999Y-33504794D01*
X69800000Y-33504791D01*
X69800000Y-32710000D01*
X68933012Y-32710000D01*
X68965925Y-32652993D01*
X69000000Y-32525826D01*
X69000000Y-32394174D01*
X68965925Y-32267007D01*
X68933012Y-32210000D01*
X69799999Y-32210000D01*
X69799999Y-31415214D01*
X69799997Y-31415191D01*
X69797091Y-31390130D01*
X69797090Y-31390126D01*
X69751788Y-31287525D01*
X69751785Y-31287520D01*
X69672479Y-31208214D01*
X69672474Y-31208211D01*
X69569876Y-31162910D01*
X69544794Y-31160000D01*
X68750000Y-31160000D01*
X68750000Y-32026988D01*
X68692993Y-31994075D01*
X68565826Y-31960000D01*
X68434174Y-31960000D01*
X68307007Y-31994075D01*
X68250000Y-32026988D01*
X68250000Y-31160000D01*
X67455214Y-31160000D01*
X67455191Y-31160002D01*
X67430130Y-31162908D01*
X67430126Y-31162909D01*
X67327525Y-31208211D01*
X67327520Y-31208214D01*
X67248214Y-31287520D01*
X67248211Y-31287525D01*
X67202910Y-31390122D01*
X67202910Y-31390124D01*
X67200000Y-31415205D01*
X67200000Y-32210000D01*
X68066988Y-32210000D01*
X68034075Y-32267007D01*
X68000000Y-32394174D01*
X68000000Y-32525826D01*
X68034075Y-32652993D01*
X68066988Y-32710000D01*
X67200001Y-32710000D01*
X67200001Y-33504785D01*
X67200002Y-33504808D01*
X67202908Y-33529869D01*
X67202909Y-33529873D01*
X67248211Y-33632474D01*
X67248214Y-33632479D01*
X67327520Y-33711785D01*
X67327525Y-33711788D01*
X67430123Y-33757089D01*
X67455206Y-33759999D01*
X67612536Y-33759999D01*
X67679576Y-33779683D01*
X67725331Y-33832487D01*
X67735275Y-33901645D01*
X67706250Y-33965201D01*
X67685424Y-33984316D01*
X67652784Y-34008030D01*
X67508028Y-34152786D01*
X67387715Y-34318386D01*
X67294781Y-34500776D01*
X67231522Y-34695465D01*
X67199500Y-34897648D01*
X44936554Y-34897648D01*
X45097598Y-34830941D01*
X45147817Y-34797386D01*
X45159359Y-34789674D01*
X45203650Y-34760079D01*
X45269655Y-34715976D01*
X46548813Y-33436818D01*
X46610136Y-33403333D01*
X46636494Y-33400499D01*
X47644856Y-33400499D01*
X47644864Y-33400499D01*
X47644879Y-33400497D01*
X47644882Y-33400497D01*
X47669987Y-33397586D01*
X47669988Y-33397585D01*
X47669991Y-33397585D01*
X47772765Y-33352206D01*
X47852206Y-33272765D01*
X47897585Y-33169991D01*
X47900500Y-33144865D01*
X47900499Y-31889818D01*
X50100000Y-31889818D01*
X50100000Y-32110181D01*
X50134473Y-32327835D01*
X50202567Y-32537410D01*
X50302611Y-32733756D01*
X50348932Y-32797513D01*
X51017037Y-32129408D01*
X51034075Y-32192993D01*
X51099901Y-32307007D01*
X51192993Y-32400099D01*
X51307007Y-32465925D01*
X51370590Y-32482962D01*
X50702485Y-33151065D01*
X50702485Y-33151066D01*
X50766243Y-33197388D01*
X50962589Y-33297432D01*
X51172164Y-33365526D01*
X51389819Y-33400000D01*
X51610181Y-33400000D01*
X51827835Y-33365526D01*
X52037410Y-33297432D01*
X52233760Y-33197386D01*
X52297513Y-33151066D01*
X52297514Y-33151066D01*
X51629409Y-32482962D01*
X51692993Y-32465925D01*
X51807007Y-32400099D01*
X51900099Y-32307007D01*
X51965925Y-32192993D01*
X51982962Y-32129410D01*
X52651066Y-32797514D01*
X52651066Y-32797513D01*
X52697386Y-32733760D01*
X52797432Y-32537410D01*
X52865526Y-32327835D01*
X52900000Y-32110181D01*
X52900000Y-31889818D01*
X52873254Y-31720952D01*
X52870748Y-31705131D01*
X56699500Y-31705131D01*
X56699500Y-33794856D01*
X56699502Y-33794882D01*
X56702413Y-33819987D01*
X56702415Y-33819991D01*
X56747793Y-33922764D01*
X56747794Y-33922765D01*
X56827235Y-34002206D01*
X56930009Y-34047585D01*
X56955135Y-34050500D01*
X59044864Y-34050499D01*
X59044879Y-34050497D01*
X59044882Y-34050497D01*
X59069987Y-34047586D01*
X59069988Y-34047585D01*
X59069991Y-34047585D01*
X59172765Y-34002206D01*
X59252206Y-33922765D01*
X59297585Y-33819991D01*
X59300500Y-33794865D01*
X59300499Y-31705136D01*
X59299091Y-31692993D01*
X59297586Y-31680012D01*
X59297585Y-31680010D01*
X59297585Y-31680009D01*
X59252206Y-31577235D01*
X59172765Y-31497794D01*
X59149476Y-31487511D01*
X59069992Y-31452415D01*
X59044868Y-31449500D01*
X58850618Y-31449500D01*
X58783579Y-31429815D01*
X58737824Y-31377011D01*
X58730173Y-31333725D01*
X58088585Y-30692138D01*
X58173694Y-30669333D01*
X58276306Y-30610090D01*
X58360090Y-30526306D01*
X58419333Y-30423694D01*
X58442138Y-30338585D01*
X59079474Y-30975921D01*
X59111859Y-30931349D01*
X59204755Y-30749031D01*
X59267990Y-30554417D01*
X59300000Y-30352317D01*
X59300000Y-30147682D01*
X59267990Y-29945582D01*
X59204755Y-29750968D01*
X59111859Y-29568650D01*
X59079474Y-29524077D01*
X59079474Y-29524076D01*
X58442137Y-30161413D01*
X58419333Y-30076306D01*
X58360090Y-29973694D01*
X58276306Y-29889910D01*
X58173694Y-29830667D01*
X58088584Y-29807861D01*
X58725922Y-29170524D01*
X58725921Y-29170523D01*
X58681359Y-29138147D01*
X58681350Y-29138141D01*
X58499031Y-29045244D01*
X58304417Y-28982009D01*
X58102317Y-28950000D01*
X57897683Y-28950000D01*
X57695582Y-28982009D01*
X57500968Y-29045244D01*
X57318644Y-29138143D01*
X57274077Y-29170523D01*
X57274077Y-29170524D01*
X57911415Y-29807861D01*
X57826306Y-29830667D01*
X57723694Y-29889910D01*
X57639910Y-29973694D01*
X57580667Y-30076306D01*
X57557861Y-30161414D01*
X56920524Y-29524077D01*
X56920523Y-29524077D01*
X56888143Y-29568644D01*
X56795244Y-29750968D01*
X56732009Y-29945582D01*
X56700000Y-30147682D01*
X56700000Y-30352317D01*
X56732009Y-30554417D01*
X56795244Y-30749031D01*
X56888141Y-30931350D01*
X56888147Y-30931359D01*
X56920523Y-30975921D01*
X56920524Y-30975922D01*
X57557861Y-30338584D01*
X57580667Y-30423694D01*
X57639910Y-30526306D01*
X57723694Y-30610090D01*
X57826306Y-30669333D01*
X57911414Y-30692137D01*
X57269067Y-31334483D01*
X57258633Y-31384150D01*
X57209581Y-31433906D01*
X57149381Y-31449500D01*
X56955143Y-31449500D01*
X56955117Y-31449502D01*
X56930012Y-31452413D01*
X56930008Y-31452415D01*
X56827235Y-31497793D01*
X56747794Y-31577234D01*
X56702415Y-31680006D01*
X56702415Y-31680008D01*
X56699500Y-31705131D01*
X52870748Y-31705131D01*
X52865526Y-31672164D01*
X52797432Y-31462589D01*
X52697388Y-31266243D01*
X52651066Y-31202485D01*
X52651065Y-31202485D01*
X51982962Y-31870589D01*
X51965925Y-31807007D01*
X51900099Y-31692993D01*
X51807007Y-31599901D01*
X51692993Y-31534075D01*
X51629407Y-31517037D01*
X52297513Y-30848932D01*
X52233756Y-30802611D01*
X52037410Y-30702567D01*
X51827835Y-30634473D01*
X51610181Y-30600000D01*
X51389819Y-30600000D01*
X51172164Y-30634473D01*
X50962589Y-30702567D01*
X50766233Y-30802616D01*
X50702485Y-30848931D01*
X50702485Y-30848932D01*
X51370590Y-31517037D01*
X51307007Y-31534075D01*
X51192993Y-31599901D01*
X51099901Y-31692993D01*
X51034075Y-31807007D01*
X51017037Y-31870590D01*
X50348932Y-31202485D01*
X50348931Y-31202485D01*
X50302616Y-31266233D01*
X50202567Y-31462589D01*
X50134473Y-31672164D01*
X50100000Y-31889818D01*
X47900499Y-31889818D01*
X47900499Y-30855136D01*
X47899780Y-30848932D01*
X47897586Y-30830012D01*
X47897585Y-30830010D01*
X47897585Y-30830009D01*
X47852206Y-30727235D01*
X47772765Y-30647794D01*
X47742596Y-30634473D01*
X47669992Y-30602415D01*
X47644865Y-30599500D01*
X45355143Y-30599500D01*
X45355117Y-30599502D01*
X45330012Y-30602413D01*
X45330008Y-30602415D01*
X45227235Y-30647793D01*
X45147794Y-30727234D01*
X45102415Y-30830006D01*
X45102415Y-30830008D01*
X45099500Y-30855131D01*
X45099500Y-31863505D01*
X45079815Y-31930544D01*
X45063181Y-31951186D01*
X43784026Y-33230341D01*
X43784023Y-33230345D01*
X43669062Y-33402395D01*
X43669057Y-33402404D01*
X43589870Y-33593579D01*
X43589868Y-33593587D01*
X43549500Y-33796530D01*
X40486323Y-33796530D01*
X40490360Y-33771045D01*
X40500000Y-33710181D01*
X40500000Y-33550000D01*
X39700001Y-33550000D01*
X39725021Y-33489598D01*
X39750000Y-33364019D01*
X39750000Y-33235981D01*
X39725021Y-33110402D01*
X39700001Y-33050000D01*
X40500000Y-33050000D01*
X40500000Y-32889818D01*
X40465526Y-32672164D01*
X40397432Y-32462589D01*
X40297386Y-32266239D01*
X40167857Y-32087958D01*
X40012041Y-31932142D01*
X39833760Y-31802613D01*
X39637410Y-31702567D01*
X39427836Y-31634473D01*
X39350000Y-31622144D01*
X39350000Y-32699998D01*
X39289598Y-32674979D01*
X39164019Y-32650000D01*
X39035981Y-32650000D01*
X38910402Y-32674979D01*
X38850000Y-32699998D01*
X38850000Y-31600723D01*
X38843412Y-31590631D01*
X38842914Y-31520763D01*
X38880267Y-31461717D01*
X38930039Y-31435075D01*
X39012485Y-31412984D01*
X39138015Y-31340509D01*
X39240509Y-31238015D01*
X39312984Y-31112485D01*
X39350500Y-30972475D01*
X39350500Y-30827525D01*
X39312984Y-30687515D01*
X39290050Y-30647793D01*
X39240511Y-30561988D01*
X39240506Y-30561982D01*
X39138017Y-30459493D01*
X39138011Y-30459488D01*
X39082650Y-30427525D01*
X53449500Y-30427525D01*
X53449500Y-30572475D01*
X53487016Y-30712485D01*
X53487017Y-30712488D01*
X53559488Y-30838011D01*
X53559490Y-30838013D01*
X53559491Y-30838015D01*
X53661985Y-30940509D01*
X53661986Y-30940510D01*
X53661988Y-30940511D01*
X53787511Y-31012982D01*
X53787512Y-31012982D01*
X53787515Y-31012984D01*
X53927525Y-31050500D01*
X53927528Y-31050500D01*
X54072472Y-31050500D01*
X54072475Y-31050500D01*
X54212485Y-31012984D01*
X54338015Y-30940509D01*
X54341705Y-30936819D01*
X54403028Y-30903334D01*
X54429386Y-30900500D01*
X54770614Y-30900500D01*
X54837653Y-30920185D01*
X54858295Y-30936819D01*
X54861985Y-30940509D01*
X54861986Y-30940510D01*
X54861988Y-30940511D01*
X54987511Y-31012982D01*
X54987512Y-31012982D01*
X54987515Y-31012984D01*
X55127525Y-31050500D01*
X55127528Y-31050500D01*
X55272472Y-31050500D01*
X55272475Y-31050500D01*
X55412485Y-31012984D01*
X55538015Y-30940509D01*
X55640509Y-30838015D01*
X55712984Y-30712485D01*
X55750500Y-30572475D01*
X55750500Y-30427525D01*
X55712984Y-30287515D01*
X55691325Y-30250001D01*
X55665239Y-30204818D01*
X55665238Y-30204817D01*
X55657120Y-30190756D01*
X55640509Y-30161985D01*
X55538015Y-30059491D01*
X55538013Y-30059490D01*
X55538011Y-30059488D01*
X55412488Y-29987017D01*
X55412489Y-29987017D01*
X55401006Y-29983940D01*
X55272475Y-29949500D01*
X55127525Y-29949500D01*
X54998993Y-29983940D01*
X54987511Y-29987017D01*
X54861988Y-30059488D01*
X54861982Y-30059493D01*
X54858295Y-30063181D01*
X54796972Y-30096666D01*
X54770614Y-30099500D01*
X54429386Y-30099500D01*
X54362347Y-30079815D01*
X54341705Y-30063181D01*
X54338017Y-30059493D01*
X54338011Y-30059488D01*
X54212488Y-29987017D01*
X54212489Y-29987017D01*
X54201006Y-29983940D01*
X54072475Y-29949500D01*
X53927525Y-29949500D01*
X53798993Y-29983940D01*
X53787511Y-29987017D01*
X53661988Y-30059488D01*
X53661982Y-30059493D01*
X53559493Y-30161982D01*
X53559488Y-30161988D01*
X53487017Y-30287511D01*
X53487016Y-30287515D01*
X53449500Y-30427525D01*
X39082650Y-30427525D01*
X39012488Y-30387017D01*
X39012489Y-30387017D01*
X39001006Y-30383940D01*
X38872475Y-30349500D01*
X38727525Y-30349500D01*
X38598993Y-30383940D01*
X38587511Y-30387017D01*
X38461988Y-30459488D01*
X38461982Y-30459493D01*
X38359493Y-30561982D01*
X38359488Y-30561988D01*
X38287017Y-30687511D01*
X38287016Y-30687515D01*
X38249500Y-30827525D01*
X38249500Y-30827527D01*
X38249500Y-30832745D01*
X38229815Y-30899784D01*
X38213181Y-30920426D01*
X38020426Y-31113181D01*
X37959103Y-31146666D01*
X37932745Y-31149500D01*
X37927525Y-31149500D01*
X37798993Y-31183940D01*
X37787511Y-31187017D01*
X37661988Y-31259488D01*
X37661982Y-31259493D01*
X37559493Y-31361982D01*
X37559488Y-31361988D01*
X37487017Y-31487511D01*
X37487016Y-31487515D01*
X37449500Y-31627525D01*
X25183972Y-31627525D01*
X25150000Y-31622144D01*
X25150000Y-32699998D01*
X25089598Y-32674979D01*
X24964019Y-32650000D01*
X24835981Y-32650000D01*
X24710402Y-32674979D01*
X24650000Y-32699998D01*
X24650000Y-31622144D01*
X24572164Y-31634473D01*
X24572161Y-31634473D01*
X24362589Y-31702567D01*
X24166239Y-31802613D01*
X23987958Y-31932142D01*
X23832142Y-32087958D01*
X23702613Y-32266239D01*
X23602567Y-32462589D01*
X23534473Y-32672164D01*
X23500000Y-32889818D01*
X22500500Y-32889818D01*
X22500500Y-28591156D01*
X28524499Y-28591156D01*
X28560065Y-28769952D01*
X28560068Y-28769962D01*
X28629831Y-28938387D01*
X28629833Y-28938391D01*
X28731113Y-29089967D01*
X28731119Y-29089975D01*
X28860024Y-29218880D01*
X28860032Y-29218886D01*
X29011608Y-29320166D01*
X29011612Y-29320168D01*
X29180037Y-29389931D01*
X29180042Y-29389933D01*
X29180046Y-29389933D01*
X29180047Y-29389934D01*
X29358843Y-29425500D01*
X29358846Y-29425500D01*
X29541156Y-29425500D01*
X29661445Y-29401572D01*
X29719958Y-29389933D01*
X29888389Y-29320167D01*
X29888391Y-29320166D01*
X29905850Y-29308500D01*
X31035050Y-29308500D01*
X31051849Y-29319725D01*
X31051855Y-29319728D01*
X31220182Y-29389451D01*
X31220194Y-29389454D01*
X31398890Y-29424999D01*
X31398894Y-29425000D01*
X31581106Y-29425000D01*
X31581109Y-29424999D01*
X31759805Y-29389454D01*
X31759813Y-29389452D01*
X31928151Y-29319724D01*
X31928154Y-29319723D01*
X31944947Y-29308500D01*
X31944948Y-29308500D01*
X31490001Y-28853553D01*
X31490000Y-28853553D01*
X31035050Y-29308500D01*
X29905850Y-29308500D01*
X30035886Y-29221613D01*
X30039972Y-29218883D01*
X30039975Y-29218880D01*
X30084248Y-29174608D01*
X30168880Y-29089975D01*
X30168883Y-29089972D01*
X30259103Y-28954948D01*
X30270166Y-28938391D01*
X30270168Y-28938387D01*
X30339931Y-28769962D01*
X30339933Y-28769958D01*
X30348637Y-28726197D01*
X30381021Y-28664290D01*
X30441736Y-28629715D01*
X30511506Y-28633454D01*
X30568178Y-28674320D01*
X30591871Y-28726199D01*
X30600545Y-28769807D01*
X30600548Y-28769817D01*
X30670271Y-28938145D01*
X30681498Y-28954947D01*
X31136446Y-28500000D01*
X31136446Y-28499999D01*
X31090369Y-28453922D01*
X31140000Y-28453922D01*
X31140000Y-28546078D01*
X31163852Y-28635095D01*
X31209930Y-28714905D01*
X31275095Y-28780070D01*
X31354905Y-28826148D01*
X31443922Y-28850000D01*
X31536078Y-28850000D01*
X31625095Y-28826148D01*
X31704905Y-28780070D01*
X31770070Y-28714905D01*
X31816148Y-28635095D01*
X31840000Y-28546078D01*
X31840000Y-28499999D01*
X31843553Y-28499999D01*
X31843553Y-28500001D01*
X32298500Y-28954948D01*
X32298500Y-28954947D01*
X32309723Y-28938154D01*
X32309724Y-28938151D01*
X32379452Y-28769813D01*
X32388127Y-28726201D01*
X32420512Y-28664290D01*
X32481227Y-28629715D01*
X32550996Y-28633454D01*
X32607669Y-28674319D01*
X32631362Y-28726199D01*
X32640065Y-28769952D01*
X32640068Y-28769962D01*
X32709831Y-28938387D01*
X32709833Y-28938391D01*
X32811113Y-29089967D01*
X32811119Y-29089975D01*
X32940024Y-29218880D01*
X32940032Y-29218886D01*
X33091608Y-29320166D01*
X33091612Y-29320168D01*
X33260037Y-29389931D01*
X33260042Y-29389933D01*
X33260046Y-29389933D01*
X33260047Y-29389934D01*
X33438843Y-29425500D01*
X33438846Y-29425500D01*
X33621156Y-29425500D01*
X33741445Y-29401572D01*
X33799958Y-29389933D01*
X33968389Y-29320167D01*
X33968391Y-29320166D01*
X34115886Y-29221613D01*
X34119972Y-29218883D01*
X34248883Y-29089972D01*
X34339103Y-28954948D01*
X34350166Y-28938391D01*
X34350168Y-28938387D01*
X34419931Y-28769962D01*
X34419933Y-28769958D01*
X34428383Y-28727480D01*
X34460768Y-28665569D01*
X34521484Y-28630995D01*
X34591253Y-28634734D01*
X34647925Y-28675601D01*
X34671617Y-28727480D01*
X34680065Y-28769950D01*
X34680068Y-28769962D01*
X34749831Y-28938387D01*
X34749833Y-28938391D01*
X34851113Y-29089967D01*
X34851119Y-29089975D01*
X34980024Y-29218880D01*
X34980032Y-29218886D01*
X35131608Y-29320166D01*
X35131612Y-29320168D01*
X35300037Y-29389931D01*
X35300042Y-29389933D01*
X35300046Y-29389933D01*
X35300047Y-29389934D01*
X35478843Y-29425500D01*
X35478846Y-29425500D01*
X35661156Y-29425500D01*
X35781445Y-29401572D01*
X35839958Y-29389933D01*
X36008389Y-29320167D01*
X36008391Y-29320166D01*
X36155886Y-29221613D01*
X36159972Y-29218883D01*
X36204247Y-29174608D01*
X36248754Y-29130102D01*
X36288880Y-29089975D01*
X36288883Y-29089972D01*
X36379103Y-28954948D01*
X36390166Y-28938391D01*
X36390168Y-28938387D01*
X36459931Y-28769962D01*
X36459933Y-28769958D01*
X36485316Y-28642351D01*
X36495500Y-28591156D01*
X36495500Y-28408843D01*
X36459934Y-28230047D01*
X36459933Y-28230046D01*
X36459933Y-28230042D01*
X36459931Y-28230037D01*
X36390168Y-28061612D01*
X36390166Y-28061608D01*
X36288886Y-27910032D01*
X36288880Y-27910024D01*
X36159975Y-27781119D01*
X36159967Y-27781113D01*
X36008391Y-27679833D01*
X36008387Y-27679831D01*
X35839962Y-27610068D01*
X35839952Y-27610065D01*
X35661156Y-27574500D01*
X35661154Y-27574500D01*
X35478846Y-27574500D01*
X35478844Y-27574500D01*
X35300047Y-27610065D01*
X35300037Y-27610068D01*
X35131612Y-27679831D01*
X35131608Y-27679833D01*
X34980032Y-27781113D01*
X34980024Y-27781119D01*
X34851119Y-27910024D01*
X34851113Y-27910032D01*
X34749833Y-28061608D01*
X34749831Y-28061612D01*
X34680068Y-28230037D01*
X34680065Y-28230047D01*
X34671617Y-28272520D01*
X34639232Y-28334431D01*
X34578516Y-28369005D01*
X34508746Y-28365264D01*
X34452075Y-28324398D01*
X34428383Y-28272520D01*
X34419934Y-28230047D01*
X34419933Y-28230046D01*
X34419933Y-28230042D01*
X34419931Y-28230037D01*
X34350168Y-28061612D01*
X34350166Y-28061608D01*
X34248886Y-27910032D01*
X34248880Y-27910024D01*
X34119975Y-27781119D01*
X34119967Y-27781113D01*
X33968391Y-27679833D01*
X33968387Y-27679831D01*
X33799962Y-27610068D01*
X33799952Y-27610065D01*
X33621156Y-27574500D01*
X33621154Y-27574500D01*
X33438846Y-27574500D01*
X33438844Y-27574500D01*
X33260047Y-27610065D01*
X33260037Y-27610068D01*
X33091612Y-27679831D01*
X33091608Y-27679833D01*
X32940032Y-27781113D01*
X32940024Y-27781119D01*
X32811119Y-27910024D01*
X32811113Y-27910032D01*
X32709833Y-28061608D01*
X32709831Y-28061612D01*
X32640068Y-28230037D01*
X32640065Y-28230046D01*
X32631362Y-28273801D01*
X32598976Y-28335711D01*
X32538260Y-28370285D01*
X32468491Y-28366544D01*
X32411819Y-28325677D01*
X32388127Y-28273798D01*
X32379452Y-28230186D01*
X32379451Y-28230182D01*
X32309728Y-28061855D01*
X32309725Y-28061849D01*
X32298500Y-28045050D01*
X31843553Y-28499999D01*
X31840000Y-28499999D01*
X31840000Y-28453922D01*
X31816148Y-28364905D01*
X31770070Y-28285095D01*
X31704905Y-28219930D01*
X31625095Y-28173852D01*
X31536078Y-28150000D01*
X31443922Y-28150000D01*
X31354905Y-28173852D01*
X31275095Y-28219930D01*
X31209930Y-28285095D01*
X31163852Y-28364905D01*
X31140000Y-28453922D01*
X31090369Y-28453922D01*
X30681498Y-28045050D01*
X30670274Y-28061848D01*
X30600547Y-28230186D01*
X30600545Y-28230192D01*
X30591871Y-28273800D01*
X30559485Y-28335711D01*
X30498769Y-28370285D01*
X30429000Y-28366544D01*
X30372328Y-28325677D01*
X30348637Y-28273800D01*
X30339933Y-28230042D01*
X30339931Y-28230037D01*
X30270168Y-28061612D01*
X30270166Y-28061608D01*
X30168886Y-27910032D01*
X30168880Y-27910024D01*
X30039975Y-27781119D01*
X30039967Y-27781113D01*
X29905849Y-27691498D01*
X31035050Y-27691498D01*
X31490000Y-28146446D01*
X31490001Y-28146446D01*
X31944947Y-27691498D01*
X31928145Y-27680271D01*
X31759817Y-27610548D01*
X31759805Y-27610545D01*
X31581109Y-27575000D01*
X31398890Y-27575000D01*
X31220194Y-27610545D01*
X31220186Y-27610547D01*
X31051848Y-27680274D01*
X31035050Y-27691498D01*
X29905849Y-27691498D01*
X29888391Y-27679833D01*
X29888387Y-27679831D01*
X29719962Y-27610068D01*
X29719952Y-27610065D01*
X29541156Y-27574500D01*
X29541154Y-27574500D01*
X29358846Y-27574500D01*
X29358844Y-27574500D01*
X29180047Y-27610065D01*
X29180037Y-27610068D01*
X29011612Y-27679831D01*
X29011608Y-27679833D01*
X28860032Y-27781113D01*
X28860024Y-27781119D01*
X28731119Y-27910024D01*
X28731113Y-27910032D01*
X28629833Y-28061608D01*
X28629831Y-28061612D01*
X28560068Y-28230037D01*
X28560065Y-28230047D01*
X28524500Y-28408843D01*
X28524500Y-28408846D01*
X28524500Y-28591154D01*
X28524500Y-28591156D01*
X28524499Y-28591156D01*
X22500500Y-28591156D01*
X22500500Y-26051156D01*
X27504499Y-26051156D01*
X27540065Y-26229952D01*
X27540068Y-26229962D01*
X27609831Y-26398387D01*
X27609833Y-26398391D01*
X27711113Y-26549967D01*
X27711119Y-26549975D01*
X27840024Y-26678880D01*
X27840032Y-26678886D01*
X27991608Y-26780166D01*
X27991612Y-26780168D01*
X28160037Y-26849931D01*
X28160042Y-26849933D01*
X28160046Y-26849933D01*
X28160047Y-26849934D01*
X28338843Y-26885500D01*
X28338846Y-26885500D01*
X28521156Y-26885500D01*
X28641445Y-26861572D01*
X28699958Y-26849933D01*
X28868389Y-26780167D01*
X28868391Y-26780166D01*
X28885850Y-26768500D01*
X30015050Y-26768500D01*
X30031849Y-26779725D01*
X30031855Y-26779728D01*
X30200182Y-26849451D01*
X30200194Y-26849454D01*
X30378890Y-26884999D01*
X30378894Y-26885000D01*
X30561106Y-26885000D01*
X30561109Y-26884999D01*
X30739805Y-26849454D01*
X30739813Y-26849452D01*
X30908151Y-26779724D01*
X30908154Y-26779723D01*
X30924947Y-26768500D01*
X30924948Y-26768500D01*
X30470001Y-26313553D01*
X30470000Y-26313553D01*
X30015050Y-26768500D01*
X28885850Y-26768500D01*
X29015886Y-26681613D01*
X29019972Y-26678883D01*
X29019975Y-26678880D01*
X29064248Y-26634608D01*
X29148880Y-26549975D01*
X29148883Y-26549972D01*
X29239103Y-26414948D01*
X29250166Y-26398391D01*
X29250168Y-26398387D01*
X29319931Y-26229962D01*
X29319933Y-26229958D01*
X29328637Y-26186197D01*
X29361021Y-26124290D01*
X29421736Y-26089715D01*
X29491506Y-26093454D01*
X29548178Y-26134320D01*
X29571871Y-26186199D01*
X29580545Y-26229807D01*
X29580548Y-26229817D01*
X29650271Y-26398145D01*
X29661498Y-26414947D01*
X30116446Y-25960000D01*
X30116446Y-25959999D01*
X30070369Y-25913922D01*
X30120000Y-25913922D01*
X30120000Y-26006078D01*
X30143852Y-26095095D01*
X30189930Y-26174905D01*
X30255095Y-26240070D01*
X30334905Y-26286148D01*
X30423922Y-26310000D01*
X30516078Y-26310000D01*
X30605095Y-26286148D01*
X30684905Y-26240070D01*
X30750070Y-26174905D01*
X30796148Y-26095095D01*
X30820000Y-26006078D01*
X30820000Y-25959999D01*
X30823553Y-25959999D01*
X30823553Y-25960001D01*
X31278500Y-26414948D01*
X31278500Y-26414947D01*
X31289723Y-26398154D01*
X31289724Y-26398151D01*
X31359452Y-26229813D01*
X31368127Y-26186201D01*
X31400512Y-26124290D01*
X31461227Y-26089715D01*
X31530996Y-26093454D01*
X31587669Y-26134319D01*
X31611362Y-26186199D01*
X31620065Y-26229952D01*
X31620068Y-26229962D01*
X31689831Y-26398387D01*
X31689833Y-26398391D01*
X31791113Y-26549967D01*
X31791119Y-26549975D01*
X31920024Y-26678880D01*
X31920032Y-26678886D01*
X32071608Y-26780166D01*
X32071612Y-26780168D01*
X32240037Y-26849931D01*
X32240042Y-26849933D01*
X32240046Y-26849933D01*
X32240047Y-26849934D01*
X32418843Y-26885500D01*
X32418846Y-26885500D01*
X32601156Y-26885500D01*
X32721445Y-26861572D01*
X32779958Y-26849933D01*
X32948389Y-26780167D01*
X32948391Y-26780166D01*
X33095886Y-26681613D01*
X33099972Y-26678883D01*
X33228883Y-26549972D01*
X33319103Y-26414948D01*
X33330166Y-26398391D01*
X33330168Y-26398387D01*
X33399931Y-26229962D01*
X33399933Y-26229958D01*
X33408383Y-26187480D01*
X33440768Y-26125569D01*
X33501484Y-26090995D01*
X33571253Y-26094734D01*
X33627925Y-26135601D01*
X33651617Y-26187480D01*
X33660065Y-26229950D01*
X33660068Y-26229962D01*
X33729831Y-26398387D01*
X33729833Y-26398391D01*
X33831113Y-26549967D01*
X33831119Y-26549975D01*
X33960024Y-26678880D01*
X33960032Y-26678886D01*
X34111608Y-26780166D01*
X34111612Y-26780168D01*
X34280037Y-26849931D01*
X34280042Y-26849933D01*
X34280046Y-26849933D01*
X34280047Y-26849934D01*
X34458843Y-26885500D01*
X34458846Y-26885500D01*
X34641156Y-26885500D01*
X34761445Y-26861572D01*
X34819958Y-26849933D01*
X34988389Y-26780167D01*
X34988391Y-26780166D01*
X35135886Y-26681613D01*
X35139972Y-26678883D01*
X35268883Y-26549972D01*
X35359103Y-26414948D01*
X35370166Y-26398391D01*
X35370168Y-26398387D01*
X35439931Y-26229962D01*
X35439933Y-26229958D01*
X35465316Y-26102351D01*
X35475500Y-26051156D01*
X35475500Y-25897648D01*
X43119500Y-25897648D01*
X43119500Y-26102351D01*
X43151522Y-26304534D01*
X43214781Y-26499223D01*
X43307715Y-26681613D01*
X43428028Y-26847213D01*
X43572786Y-26991971D01*
X43727749Y-27104556D01*
X43738390Y-27112287D01*
X43831080Y-27159515D01*
X43920776Y-27205218D01*
X43920778Y-27205218D01*
X43920781Y-27205220D01*
X43999499Y-27230797D01*
X44115465Y-27268477D01*
X44134697Y-27271523D01*
X44317648Y-27300500D01*
X44317649Y-27300500D01*
X44522351Y-27300500D01*
X44522352Y-27300500D01*
X44724534Y-27268477D01*
X44919219Y-27205220D01*
X45101610Y-27112287D01*
X45194590Y-27044732D01*
X45267213Y-26991971D01*
X45267215Y-26991968D01*
X45267219Y-26991966D01*
X45411966Y-26847219D01*
X45411968Y-26847215D01*
X45411971Y-26847213D01*
X45469158Y-26768500D01*
X45532287Y-26681610D01*
X45625220Y-26499219D01*
X45688477Y-26304534D01*
X45720500Y-26102352D01*
X45720500Y-25897648D01*
X53279500Y-25897648D01*
X53279500Y-26102351D01*
X53311522Y-26304534D01*
X53374781Y-26499223D01*
X53467715Y-26681613D01*
X53588028Y-26847213D01*
X53732786Y-26991971D01*
X53887749Y-27104556D01*
X53898390Y-27112287D01*
X54067700Y-27198555D01*
X54080783Y-27205221D01*
X54087767Y-27207490D01*
X54113815Y-27215953D01*
X54171492Y-27255389D01*
X54198691Y-27319747D01*
X54199500Y-27333885D01*
X54199500Y-27670614D01*
X54179815Y-27737653D01*
X54163181Y-27758295D01*
X54159493Y-27761982D01*
X54159488Y-27761988D01*
X54087017Y-27887511D01*
X54087016Y-27887515D01*
X54049500Y-28027525D01*
X54049500Y-28172475D01*
X54076651Y-28273801D01*
X54087017Y-28312488D01*
X54159488Y-28438011D01*
X54159490Y-28438013D01*
X54159491Y-28438015D01*
X54261985Y-28540509D01*
X54261986Y-28540510D01*
X54261988Y-28540511D01*
X54387511Y-28612982D01*
X54387512Y-28612982D01*
X54387515Y-28612984D01*
X54527525Y-28650500D01*
X54527528Y-28650500D01*
X54672472Y-28650500D01*
X54672475Y-28650500D01*
X54812485Y-28612984D01*
X54938015Y-28540509D01*
X55040509Y-28438015D01*
X55112984Y-28312485D01*
X55150500Y-28172475D01*
X55150500Y-28027525D01*
X55112984Y-27887515D01*
X55096166Y-27858386D01*
X55040511Y-27761988D01*
X55040506Y-27761982D01*
X55036819Y-27758295D01*
X55003334Y-27696972D01*
X55000500Y-27670614D01*
X55000500Y-27320680D01*
X55020185Y-27253641D01*
X55072989Y-27207886D01*
X55077063Y-27206113D01*
X55079209Y-27205223D01*
X55079219Y-27205220D01*
X55261610Y-27112287D01*
X55354590Y-27044732D01*
X55427213Y-26991971D01*
X55427215Y-26991968D01*
X55427219Y-26991966D01*
X55571966Y-26847219D01*
X55571968Y-26847215D01*
X55571971Y-26847213D01*
X55629158Y-26768500D01*
X55692287Y-26681610D01*
X55785220Y-26499219D01*
X55848477Y-26304534D01*
X55880500Y-26102352D01*
X55880500Y-25897648D01*
X67199500Y-25897648D01*
X67199500Y-26102351D01*
X67231522Y-26304534D01*
X67294781Y-26499223D01*
X67387715Y-26681613D01*
X67508028Y-26847213D01*
X67652786Y-26991971D01*
X67807749Y-27104556D01*
X67818390Y-27112287D01*
X67909840Y-27158883D01*
X67911080Y-27159515D01*
X67961876Y-27207490D01*
X67978671Y-27275311D01*
X67956134Y-27341446D01*
X67911080Y-27380485D01*
X67818386Y-27427715D01*
X67652786Y-27548028D01*
X67508028Y-27692786D01*
X67387715Y-27858386D01*
X67294781Y-28040776D01*
X67231522Y-28235465D01*
X67199500Y-28437648D01*
X67199500Y-28642351D01*
X67231522Y-28844534D01*
X67294781Y-29039223D01*
X67387715Y-29221613D01*
X67508028Y-29387213D01*
X67652786Y-29531971D01*
X67807749Y-29644556D01*
X67818390Y-29652287D01*
X67934607Y-29711503D01*
X68000776Y-29745218D01*
X68000778Y-29745218D01*
X68000781Y-29745220D01*
X68018472Y-29750968D01*
X68195465Y-29808477D01*
X68296557Y-29824488D01*
X68397648Y-29840500D01*
X68397649Y-29840500D01*
X68602351Y-29840500D01*
X68602352Y-29840500D01*
X68804534Y-29808477D01*
X68999219Y-29745220D01*
X69181610Y-29652287D01*
X69274590Y-29584732D01*
X69347213Y-29531971D01*
X69347215Y-29531968D01*
X69347219Y-29531966D01*
X69491966Y-29387219D01*
X69491968Y-29387215D01*
X69491971Y-29387213D01*
X69549158Y-29308500D01*
X69612287Y-29221610D01*
X69705220Y-29039219D01*
X69768477Y-28844534D01*
X69800500Y-28642352D01*
X69800500Y-28437648D01*
X69789035Y-28365264D01*
X69768477Y-28235465D01*
X69705218Y-28040776D01*
X69671503Y-27974607D01*
X69612287Y-27858390D01*
X69556147Y-27781119D01*
X69491971Y-27692786D01*
X69347213Y-27548028D01*
X69181614Y-27427715D01*
X69175006Y-27424348D01*
X69088917Y-27380483D01*
X69038123Y-27332511D01*
X69021328Y-27264690D01*
X69043865Y-27198555D01*
X69088917Y-27159516D01*
X69181610Y-27112287D01*
X69202770Y-27096913D01*
X69347213Y-26991971D01*
X69347215Y-26991968D01*
X69347219Y-26991966D01*
X69491966Y-26847219D01*
X69491968Y-26847215D01*
X69491971Y-26847213D01*
X69549158Y-26768500D01*
X69612287Y-26681610D01*
X69705220Y-26499219D01*
X69768477Y-26304534D01*
X69800500Y-26102352D01*
X69800500Y-25897648D01*
X69789035Y-25825264D01*
X69768477Y-25695465D01*
X69705218Y-25500776D01*
X69671503Y-25434607D01*
X69612287Y-25318390D01*
X69556147Y-25241119D01*
X69491971Y-25152786D01*
X69347215Y-25008030D01*
X69314577Y-24984318D01*
X69271910Y-24928988D01*
X69265931Y-24859375D01*
X69298536Y-24797580D01*
X69359374Y-24763222D01*
X69387461Y-24759999D01*
X69544786Y-24759999D01*
X69544808Y-24759997D01*
X69569869Y-24757091D01*
X69569873Y-24757090D01*
X69672474Y-24711788D01*
X69672479Y-24711785D01*
X69751785Y-24632479D01*
X69751788Y-24632474D01*
X69797089Y-24529877D01*
X69797089Y-24529875D01*
X69799999Y-24504794D01*
X69800000Y-24504791D01*
X69800000Y-23710000D01*
X68933012Y-23710000D01*
X68965925Y-23652993D01*
X69000000Y-23525826D01*
X69000000Y-23394174D01*
X68965925Y-23267007D01*
X68933012Y-23210000D01*
X69799999Y-23210000D01*
X69799999Y-22415214D01*
X69799997Y-22415191D01*
X69797091Y-22390130D01*
X69797090Y-22390126D01*
X69751788Y-22287525D01*
X69751785Y-22287520D01*
X69672479Y-22208214D01*
X69672474Y-22208211D01*
X69569876Y-22162910D01*
X69544794Y-22160000D01*
X68750000Y-22160000D01*
X68750000Y-23026988D01*
X68692993Y-22994075D01*
X68565826Y-22960000D01*
X68434174Y-22960000D01*
X68307007Y-22994075D01*
X68250000Y-23026988D01*
X68250000Y-22160000D01*
X67455214Y-22160000D01*
X67455191Y-22160002D01*
X67430130Y-22162908D01*
X67430126Y-22162909D01*
X67327525Y-22208211D01*
X67327520Y-22208214D01*
X67248214Y-22287520D01*
X67248211Y-22287525D01*
X67202910Y-22390122D01*
X67202910Y-22390124D01*
X67200000Y-22415205D01*
X67200000Y-23210000D01*
X68066988Y-23210000D01*
X68034075Y-23267007D01*
X68000000Y-23394174D01*
X68000000Y-23525826D01*
X68034075Y-23652993D01*
X68066988Y-23710000D01*
X67200001Y-23710000D01*
X67200001Y-24504785D01*
X67200002Y-24504808D01*
X67202908Y-24529869D01*
X67202909Y-24529873D01*
X67248211Y-24632474D01*
X67248214Y-24632479D01*
X67327520Y-24711785D01*
X67327525Y-24711788D01*
X67430123Y-24757089D01*
X67455206Y-24759999D01*
X67612536Y-24759999D01*
X67679576Y-24779683D01*
X67725331Y-24832487D01*
X67735275Y-24901645D01*
X67706250Y-24965201D01*
X67685424Y-24984316D01*
X67652784Y-25008030D01*
X67508028Y-25152786D01*
X67387715Y-25318386D01*
X67294781Y-25500776D01*
X67231522Y-25695465D01*
X67199500Y-25897648D01*
X55880500Y-25897648D01*
X55869035Y-25825264D01*
X55848477Y-25695465D01*
X55785218Y-25500776D01*
X55751503Y-25434607D01*
X55692287Y-25318390D01*
X55636147Y-25241119D01*
X55571971Y-25152786D01*
X55427213Y-25008028D01*
X55261613Y-24887715D01*
X55261612Y-24887714D01*
X55261610Y-24887713D01*
X55204653Y-24858691D01*
X55079223Y-24794781D01*
X54884534Y-24731522D01*
X54709995Y-24703878D01*
X54682352Y-24699500D01*
X54477648Y-24699500D01*
X54453329Y-24703351D01*
X54275465Y-24731522D01*
X54080776Y-24794781D01*
X53898386Y-24887715D01*
X53732786Y-25008028D01*
X53588028Y-25152786D01*
X53467715Y-25318386D01*
X53374781Y-25500776D01*
X53311522Y-25695465D01*
X53279500Y-25897648D01*
X45720500Y-25897648D01*
X45709035Y-25825264D01*
X45688477Y-25695465D01*
X45625218Y-25500776D01*
X45591503Y-25434607D01*
X45532287Y-25318390D01*
X45476147Y-25241119D01*
X45411971Y-25152786D01*
X45267213Y-25008028D01*
X45101613Y-24887715D01*
X45101612Y-24887714D01*
X45101610Y-24887713D01*
X45044653Y-24858691D01*
X44919223Y-24794781D01*
X44724534Y-24731522D01*
X44549995Y-24703878D01*
X44522352Y-24699500D01*
X44317648Y-24699500D01*
X44293329Y-24703351D01*
X44115465Y-24731522D01*
X43920776Y-24794781D01*
X43738386Y-24887715D01*
X43572786Y-25008028D01*
X43428028Y-25152786D01*
X43307715Y-25318386D01*
X43214781Y-25500776D01*
X43151522Y-25695465D01*
X43119500Y-25897648D01*
X35475500Y-25897648D01*
X35475500Y-25868843D01*
X35439934Y-25690047D01*
X35439933Y-25690046D01*
X35439933Y-25690042D01*
X35439931Y-25690037D01*
X35370168Y-25521612D01*
X35370166Y-25521608D01*
X35268886Y-25370032D01*
X35268880Y-25370024D01*
X35139975Y-25241119D01*
X35139967Y-25241113D01*
X34988391Y-25139833D01*
X34988387Y-25139831D01*
X34819962Y-25070068D01*
X34819952Y-25070065D01*
X34641156Y-25034500D01*
X34641154Y-25034500D01*
X34458846Y-25034500D01*
X34458844Y-25034500D01*
X34280047Y-25070065D01*
X34280037Y-25070068D01*
X34111612Y-25139831D01*
X34111608Y-25139833D01*
X33960032Y-25241113D01*
X33960024Y-25241119D01*
X33831119Y-25370024D01*
X33831113Y-25370032D01*
X33729833Y-25521608D01*
X33729831Y-25521612D01*
X33660068Y-25690037D01*
X33660065Y-25690047D01*
X33651617Y-25732520D01*
X33619232Y-25794431D01*
X33558516Y-25829005D01*
X33488746Y-25825264D01*
X33432075Y-25784398D01*
X33408383Y-25732520D01*
X33399934Y-25690047D01*
X33399933Y-25690046D01*
X33399933Y-25690042D01*
X33399931Y-25690037D01*
X33330168Y-25521612D01*
X33330166Y-25521608D01*
X33228886Y-25370032D01*
X33228880Y-25370024D01*
X33099975Y-25241119D01*
X33099967Y-25241113D01*
X32948391Y-25139833D01*
X32948387Y-25139831D01*
X32779962Y-25070068D01*
X32779952Y-25070065D01*
X32601156Y-25034500D01*
X32601154Y-25034500D01*
X32418846Y-25034500D01*
X32418844Y-25034500D01*
X32240047Y-25070065D01*
X32240037Y-25070068D01*
X32071612Y-25139831D01*
X32071608Y-25139833D01*
X31920032Y-25241113D01*
X31920024Y-25241119D01*
X31791119Y-25370024D01*
X31791113Y-25370032D01*
X31689833Y-25521608D01*
X31689831Y-25521612D01*
X31620068Y-25690037D01*
X31620065Y-25690046D01*
X31611362Y-25733801D01*
X31578976Y-25795711D01*
X31518260Y-25830285D01*
X31448491Y-25826544D01*
X31391819Y-25785677D01*
X31368127Y-25733798D01*
X31359452Y-25690186D01*
X31359451Y-25690182D01*
X31289728Y-25521855D01*
X31289725Y-25521849D01*
X31278500Y-25505050D01*
X30823553Y-25959999D01*
X30820000Y-25959999D01*
X30820000Y-25913922D01*
X30796148Y-25824905D01*
X30750070Y-25745095D01*
X30684905Y-25679930D01*
X30605095Y-25633852D01*
X30516078Y-25610000D01*
X30423922Y-25610000D01*
X30334905Y-25633852D01*
X30255095Y-25679930D01*
X30189930Y-25745095D01*
X30143852Y-25824905D01*
X30120000Y-25913922D01*
X30070369Y-25913922D01*
X29661498Y-25505050D01*
X29650274Y-25521848D01*
X29580547Y-25690186D01*
X29580545Y-25690192D01*
X29571871Y-25733800D01*
X29539485Y-25795711D01*
X29478769Y-25830285D01*
X29409000Y-25826544D01*
X29352328Y-25785677D01*
X29328637Y-25733800D01*
X29319933Y-25690042D01*
X29319931Y-25690037D01*
X29250168Y-25521612D01*
X29250166Y-25521608D01*
X29148886Y-25370032D01*
X29148880Y-25370024D01*
X29019975Y-25241119D01*
X29019967Y-25241113D01*
X28885849Y-25151498D01*
X30015050Y-25151498D01*
X30470000Y-25606446D01*
X30470001Y-25606446D01*
X30924947Y-25151498D01*
X30908145Y-25140271D01*
X30739817Y-25070548D01*
X30739805Y-25070545D01*
X30561109Y-25035000D01*
X30378890Y-25035000D01*
X30200194Y-25070545D01*
X30200186Y-25070547D01*
X30031848Y-25140274D01*
X30015050Y-25151498D01*
X28885849Y-25151498D01*
X28868391Y-25139833D01*
X28868387Y-25139831D01*
X28699962Y-25070068D01*
X28699952Y-25070065D01*
X28521156Y-25034500D01*
X28521154Y-25034500D01*
X28338846Y-25034500D01*
X28338844Y-25034500D01*
X28160047Y-25070065D01*
X28160037Y-25070068D01*
X27991612Y-25139831D01*
X27991608Y-25139833D01*
X27840032Y-25241113D01*
X27840024Y-25241119D01*
X27711119Y-25370024D01*
X27711113Y-25370032D01*
X27609833Y-25521608D01*
X27609831Y-25521612D01*
X27540068Y-25690037D01*
X27540065Y-25690047D01*
X27504500Y-25868843D01*
X27504500Y-25868846D01*
X27504500Y-26051154D01*
X27504500Y-26051156D01*
X27504499Y-26051156D01*
X22500500Y-26051156D01*
X22500500Y-21874495D01*
X23085286Y-21874495D01*
X23085286Y-22125504D01*
X23118047Y-22374340D01*
X23118048Y-22374344D01*
X23150529Y-22495564D01*
X23183011Y-22616789D01*
X23279059Y-22848669D01*
X23279064Y-22848680D01*
X23343336Y-22960000D01*
X23404558Y-23066040D01*
X23404560Y-23066043D01*
X23404561Y-23066044D01*
X23557351Y-23265165D01*
X23557357Y-23265172D01*
X23734827Y-23442642D01*
X23734833Y-23442647D01*
X23933960Y-23595442D01*
X24073661Y-23676099D01*
X24151319Y-23720935D01*
X24151324Y-23720937D01*
X24151327Y-23720939D01*
X24383215Y-23816990D01*
X24625656Y-23881952D01*
X24874503Y-23914714D01*
X24874510Y-23914714D01*
X25125490Y-23914714D01*
X25125497Y-23914714D01*
X25374344Y-23881952D01*
X25616785Y-23816990D01*
X25848673Y-23720939D01*
X26066040Y-23595442D01*
X26265167Y-23442647D01*
X26442647Y-23265167D01*
X26595442Y-23066040D01*
X26720939Y-22848673D01*
X26816990Y-22616785D01*
X26881952Y-22374344D01*
X26914714Y-22125497D01*
X26914714Y-21874503D01*
X26881952Y-21625656D01*
X26816990Y-21383215D01*
X26720939Y-21151327D01*
X26720937Y-21151324D01*
X26720935Y-21151319D01*
X26673568Y-21069278D01*
X26595442Y-20933960D01*
X26532409Y-20851814D01*
X26442648Y-20734834D01*
X26442642Y-20734827D01*
X26265172Y-20557357D01*
X26265165Y-20557351D01*
X26066044Y-20404561D01*
X26066043Y-20404560D01*
X26066040Y-20404558D01*
X25979377Y-20354523D01*
X25848680Y-20279064D01*
X25848669Y-20279059D01*
X25616789Y-20183011D01*
X25374340Y-20118047D01*
X25125504Y-20085286D01*
X25125497Y-20085286D01*
X24874503Y-20085286D01*
X24874495Y-20085286D01*
X24625659Y-20118047D01*
X24383210Y-20183011D01*
X24151330Y-20279059D01*
X24151319Y-20279064D01*
X23933955Y-20404561D01*
X23734834Y-20557351D01*
X23734827Y-20557357D01*
X23557357Y-20734827D01*
X23557351Y-20734834D01*
X23404561Y-20933955D01*
X23279064Y-21151319D01*
X23279059Y-21151330D01*
X23183011Y-21383210D01*
X23118047Y-21625659D01*
X23085286Y-21874495D01*
X22500500Y-21874495D01*
X22500500Y-19624500D01*
X22520185Y-19557461D01*
X22572989Y-19511706D01*
X22624500Y-19500500D01*
X59200442Y-19500500D01*
X59267481Y-19520185D01*
G37*
%TD.AperFunction*%
%TD*%
M02*
