%TF.GenerationSoftware,KiCad,Pcbnew,10.0.4*%
%TF.CreationDate,2026-08-16T10:37:52-05:00*%
%TF.ProjectId,Derek_CAN_v4,44657265-6b5f-4434-914e-5f76342e6b69,rev?*%
%TF.SameCoordinates,Original*%
%TF.FileFunction,Legend,Top*%
%TF.FilePolarity,Positive*%
%FSLAX46Y46*%
G04 Gerber Fmt 4.6, Leading zero omitted, Abs format (unit mm)*
G04 Created by KiCad (PCBNEW 10.0.4) date 2026-08-16 10:37:52*
%MOMM*%
%LPD*%
G01*
G04 APERTURE LIST*
%ADD10C,0.120000*%
%ADD11C,0.150000*%
%ADD12C,0.110000*%
%ADD13C,3.650000*%
G04 APERTURE END LIST*
D10*
X23323808Y-25863855D02*
X23057141Y-25482902D01*
X22866665Y-25863855D02*
X22866665Y-25063855D01*
X22866665Y-25063855D02*
X23171427Y-25063855D01*
X23171427Y-25063855D02*
X23247617Y-25101950D01*
X23247617Y-25101950D02*
X23285712Y-25140045D01*
X23285712Y-25140045D02*
X23323808Y-25216236D01*
X23323808Y-25216236D02*
X23323808Y-25330521D01*
X23323808Y-25330521D02*
X23285712Y-25406712D01*
X23285712Y-25406712D02*
X23247617Y-25444807D01*
X23247617Y-25444807D02*
X23171427Y-25482902D01*
X23171427Y-25482902D02*
X22866665Y-25482902D01*
X23895236Y-25063855D02*
X23895236Y-25635283D01*
X23895236Y-25635283D02*
X23857141Y-25749569D01*
X23857141Y-25749569D02*
X23780950Y-25825760D01*
X23780950Y-25825760D02*
X23666665Y-25863855D01*
X23666665Y-25863855D02*
X23590474Y-25863855D01*
X24619046Y-25330521D02*
X24619046Y-25863855D01*
X24428570Y-25025760D02*
X24238093Y-25597188D01*
X24238093Y-25597188D02*
X24733332Y-25597188D01*
X25419046Y-25063855D02*
X25038094Y-25063855D01*
X25038094Y-25063855D02*
X24999998Y-25444807D01*
X24999998Y-25444807D02*
X25038094Y-25406712D01*
X25038094Y-25406712D02*
X25114284Y-25368617D01*
X25114284Y-25368617D02*
X25304760Y-25368617D01*
X25304760Y-25368617D02*
X25380951Y-25406712D01*
X25380951Y-25406712D02*
X25419046Y-25444807D01*
X25419046Y-25444807D02*
X25457141Y-25520998D01*
X25457141Y-25520998D02*
X25457141Y-25711474D01*
X25457141Y-25711474D02*
X25419046Y-25787664D01*
X25419046Y-25787664D02*
X25380951Y-25825760D01*
X25380951Y-25825760D02*
X25304760Y-25863855D01*
X25304760Y-25863855D02*
X25114284Y-25863855D01*
X25114284Y-25863855D02*
X25038094Y-25825760D01*
X25038094Y-25825760D02*
X24999998Y-25787664D01*
X26409523Y-25863855D02*
X26409523Y-25063855D01*
X26409523Y-25063855D02*
X26866666Y-25863855D01*
X26866666Y-25863855D02*
X26866666Y-25063855D01*
X27399999Y-25063855D02*
X27552380Y-25063855D01*
X27552380Y-25063855D02*
X27628570Y-25101950D01*
X27628570Y-25101950D02*
X27704761Y-25178140D01*
X27704761Y-25178140D02*
X27742856Y-25330521D01*
X27742856Y-25330521D02*
X27742856Y-25597188D01*
X27742856Y-25597188D02*
X27704761Y-25749569D01*
X27704761Y-25749569D02*
X27628570Y-25825760D01*
X27628570Y-25825760D02*
X27552380Y-25863855D01*
X27552380Y-25863855D02*
X27399999Y-25863855D01*
X27399999Y-25863855D02*
X27323808Y-25825760D01*
X27323808Y-25825760D02*
X27247618Y-25749569D01*
X27247618Y-25749569D02*
X27209522Y-25597188D01*
X27209522Y-25597188D02*
X27209522Y-25330521D01*
X27209522Y-25330521D02*
X27247618Y-25178140D01*
X27247618Y-25178140D02*
X27323808Y-25101950D01*
X27323808Y-25101950D02*
X27399999Y-25063855D01*
X27971427Y-25063855D02*
X28428570Y-25063855D01*
X28199998Y-25863855D02*
X28199998Y-25063855D01*
X29304761Y-25444807D02*
X29571427Y-25444807D01*
X29685713Y-25863855D02*
X29304761Y-25863855D01*
X29304761Y-25863855D02*
X29304761Y-25063855D01*
X29304761Y-25063855D02*
X29685713Y-25063855D01*
X29914285Y-25063855D02*
X30371428Y-25063855D01*
X30142856Y-25863855D02*
X30142856Y-25063855D01*
X30638095Y-25863855D02*
X30638095Y-25063855D01*
X30638095Y-25444807D02*
X31095238Y-25444807D01*
X31095238Y-25863855D02*
X31095238Y-25063855D01*
X31476190Y-25444807D02*
X31742856Y-25444807D01*
X31857142Y-25863855D02*
X31476190Y-25863855D01*
X31476190Y-25863855D02*
X31476190Y-25063855D01*
X31476190Y-25063855D02*
X31857142Y-25063855D01*
X32657143Y-25863855D02*
X32390476Y-25482902D01*
X32200000Y-25863855D02*
X32200000Y-25063855D01*
X32200000Y-25063855D02*
X32504762Y-25063855D01*
X32504762Y-25063855D02*
X32580952Y-25101950D01*
X32580952Y-25101950D02*
X32619047Y-25140045D01*
X32619047Y-25140045D02*
X32657143Y-25216236D01*
X32657143Y-25216236D02*
X32657143Y-25330521D01*
X32657143Y-25330521D02*
X32619047Y-25406712D01*
X32619047Y-25406712D02*
X32580952Y-25444807D01*
X32580952Y-25444807D02*
X32504762Y-25482902D01*
X32504762Y-25482902D02*
X32200000Y-25482902D01*
X33000000Y-25863855D02*
X33000000Y-25063855D01*
X33000000Y-25063855D02*
X33457143Y-25863855D01*
X33457143Y-25863855D02*
X33457143Y-25063855D01*
X33838095Y-25444807D02*
X34104761Y-25444807D01*
X34219047Y-25863855D02*
X33838095Y-25863855D01*
X33838095Y-25863855D02*
X33838095Y-25063855D01*
X33838095Y-25063855D02*
X34219047Y-25063855D01*
X34447619Y-25063855D02*
X34904762Y-25063855D01*
X34676190Y-25863855D02*
X34676190Y-25063855D01*
X35780953Y-25559093D02*
X36390477Y-25559093D01*
X37761905Y-25063855D02*
X37380953Y-25063855D01*
X37380953Y-25063855D02*
X37342857Y-25444807D01*
X37342857Y-25444807D02*
X37380953Y-25406712D01*
X37380953Y-25406712D02*
X37457143Y-25368617D01*
X37457143Y-25368617D02*
X37647619Y-25368617D01*
X37647619Y-25368617D02*
X37723810Y-25406712D01*
X37723810Y-25406712D02*
X37761905Y-25444807D01*
X37761905Y-25444807D02*
X37800000Y-25520998D01*
X37800000Y-25520998D02*
X37800000Y-25711474D01*
X37800000Y-25711474D02*
X37761905Y-25787664D01*
X37761905Y-25787664D02*
X37723810Y-25825760D01*
X37723810Y-25825760D02*
X37647619Y-25863855D01*
X37647619Y-25863855D02*
X37457143Y-25863855D01*
X37457143Y-25863855D02*
X37380953Y-25825760D01*
X37380953Y-25825760D02*
X37342857Y-25787664D01*
X38028572Y-25063855D02*
X38295239Y-25863855D01*
X38295239Y-25863855D02*
X38561905Y-25063855D01*
X39438096Y-25863855D02*
X39438096Y-25063855D01*
X39438096Y-25063855D02*
X39742858Y-25063855D01*
X39742858Y-25063855D02*
X39819048Y-25101950D01*
X39819048Y-25101950D02*
X39857143Y-25140045D01*
X39857143Y-25140045D02*
X39895239Y-25216236D01*
X39895239Y-25216236D02*
X39895239Y-25330521D01*
X39895239Y-25330521D02*
X39857143Y-25406712D01*
X39857143Y-25406712D02*
X39819048Y-25444807D01*
X39819048Y-25444807D02*
X39742858Y-25482902D01*
X39742858Y-25482902D02*
X39438096Y-25482902D01*
X40390477Y-25063855D02*
X40542858Y-25063855D01*
X40542858Y-25063855D02*
X40619048Y-25101950D01*
X40619048Y-25101950D02*
X40695239Y-25178140D01*
X40695239Y-25178140D02*
X40733334Y-25330521D01*
X40733334Y-25330521D02*
X40733334Y-25597188D01*
X40733334Y-25597188D02*
X40695239Y-25749569D01*
X40695239Y-25749569D02*
X40619048Y-25825760D01*
X40619048Y-25825760D02*
X40542858Y-25863855D01*
X40542858Y-25863855D02*
X40390477Y-25863855D01*
X40390477Y-25863855D02*
X40314286Y-25825760D01*
X40314286Y-25825760D02*
X40238096Y-25749569D01*
X40238096Y-25749569D02*
X40200000Y-25597188D01*
X40200000Y-25597188D02*
X40200000Y-25330521D01*
X40200000Y-25330521D02*
X40238096Y-25178140D01*
X40238096Y-25178140D02*
X40314286Y-25101950D01*
X40314286Y-25101950D02*
X40390477Y-25063855D01*
X41000000Y-25063855D02*
X41190476Y-25863855D01*
X41190476Y-25863855D02*
X41342857Y-25292426D01*
X41342857Y-25292426D02*
X41495238Y-25863855D01*
X41495238Y-25863855D02*
X41685715Y-25063855D01*
X41990477Y-25444807D02*
X42257143Y-25444807D01*
X42371429Y-25863855D02*
X41990477Y-25863855D01*
X41990477Y-25863855D02*
X41990477Y-25063855D01*
X41990477Y-25063855D02*
X42371429Y-25063855D01*
X43171430Y-25863855D02*
X42904763Y-25482902D01*
X42714287Y-25863855D02*
X42714287Y-25063855D01*
X42714287Y-25063855D02*
X43019049Y-25063855D01*
X43019049Y-25063855D02*
X43095239Y-25101950D01*
X43095239Y-25101950D02*
X43133334Y-25140045D01*
X43133334Y-25140045D02*
X43171430Y-25216236D01*
X43171430Y-25216236D02*
X43171430Y-25330521D01*
X43171430Y-25330521D02*
X43133334Y-25406712D01*
X43133334Y-25406712D02*
X43095239Y-25444807D01*
X43095239Y-25444807D02*
X43019049Y-25482902D01*
X43019049Y-25482902D02*
X42714287Y-25482902D01*
D11*
X29261904Y-21054819D02*
X29261904Y-20054819D01*
X29261904Y-20054819D02*
X29499999Y-20054819D01*
X29499999Y-20054819D02*
X29642856Y-20102438D01*
X29642856Y-20102438D02*
X29738094Y-20197676D01*
X29738094Y-20197676D02*
X29785713Y-20292914D01*
X29785713Y-20292914D02*
X29833332Y-20483390D01*
X29833332Y-20483390D02*
X29833332Y-20626247D01*
X29833332Y-20626247D02*
X29785713Y-20816723D01*
X29785713Y-20816723D02*
X29738094Y-20911961D01*
X29738094Y-20911961D02*
X29642856Y-21007200D01*
X29642856Y-21007200D02*
X29499999Y-21054819D01*
X29499999Y-21054819D02*
X29261904Y-21054819D01*
X30261904Y-20531009D02*
X30595237Y-20531009D01*
X30738094Y-21054819D02*
X30261904Y-21054819D01*
X30261904Y-21054819D02*
X30261904Y-20054819D01*
X30261904Y-20054819D02*
X30738094Y-20054819D01*
X31738094Y-21054819D02*
X31404761Y-20578628D01*
X31166666Y-21054819D02*
X31166666Y-20054819D01*
X31166666Y-20054819D02*
X31547618Y-20054819D01*
X31547618Y-20054819D02*
X31642856Y-20102438D01*
X31642856Y-20102438D02*
X31690475Y-20150057D01*
X31690475Y-20150057D02*
X31738094Y-20245295D01*
X31738094Y-20245295D02*
X31738094Y-20388152D01*
X31738094Y-20388152D02*
X31690475Y-20483390D01*
X31690475Y-20483390D02*
X31642856Y-20531009D01*
X31642856Y-20531009D02*
X31547618Y-20578628D01*
X31547618Y-20578628D02*
X31166666Y-20578628D01*
X32166666Y-20531009D02*
X32499999Y-20531009D01*
X32642856Y-21054819D02*
X32166666Y-21054819D01*
X32166666Y-21054819D02*
X32166666Y-20054819D01*
X32166666Y-20054819D02*
X32642856Y-20054819D01*
X33071428Y-21054819D02*
X33071428Y-20054819D01*
X33642856Y-21054819D02*
X33214285Y-20483390D01*
X33642856Y-20054819D02*
X33071428Y-20626247D01*
X35404761Y-20959580D02*
X35357142Y-21007200D01*
X35357142Y-21007200D02*
X35214285Y-21054819D01*
X35214285Y-21054819D02*
X35119047Y-21054819D01*
X35119047Y-21054819D02*
X34976190Y-21007200D01*
X34976190Y-21007200D02*
X34880952Y-20911961D01*
X34880952Y-20911961D02*
X34833333Y-20816723D01*
X34833333Y-20816723D02*
X34785714Y-20626247D01*
X34785714Y-20626247D02*
X34785714Y-20483390D01*
X34785714Y-20483390D02*
X34833333Y-20292914D01*
X34833333Y-20292914D02*
X34880952Y-20197676D01*
X34880952Y-20197676D02*
X34976190Y-20102438D01*
X34976190Y-20102438D02*
X35119047Y-20054819D01*
X35119047Y-20054819D02*
X35214285Y-20054819D01*
X35214285Y-20054819D02*
X35357142Y-20102438D01*
X35357142Y-20102438D02*
X35404761Y-20150057D01*
X35785714Y-20769104D02*
X36261904Y-20769104D01*
X35690476Y-21054819D02*
X36023809Y-20054819D01*
X36023809Y-20054819D02*
X36357142Y-21054819D01*
X36690476Y-21054819D02*
X36690476Y-20054819D01*
X36690476Y-20054819D02*
X37261904Y-21054819D01*
X37261904Y-21054819D02*
X37261904Y-20054819D01*
X38357143Y-20054819D02*
X38690476Y-21054819D01*
X38690476Y-21054819D02*
X39023809Y-20054819D01*
X39785714Y-20388152D02*
X39785714Y-21054819D01*
X39547619Y-20007200D02*
X39309524Y-20721485D01*
X39309524Y-20721485D02*
X39928571Y-20721485D01*
X40309524Y-21054819D02*
X40309524Y-20054819D01*
X40309524Y-20435771D02*
X40404762Y-20388152D01*
X40404762Y-20388152D02*
X40595238Y-20388152D01*
X40595238Y-20388152D02*
X40690476Y-20435771D01*
X40690476Y-20435771D02*
X40738095Y-20483390D01*
X40738095Y-20483390D02*
X40785714Y-20578628D01*
X40785714Y-20578628D02*
X40785714Y-20864342D01*
X40785714Y-20864342D02*
X40738095Y-20959580D01*
X40738095Y-20959580D02*
X40690476Y-21007200D01*
X40690476Y-21007200D02*
X40595238Y-21054819D01*
X40595238Y-21054819D02*
X40404762Y-21054819D01*
X40404762Y-21054819D02*
X40309524Y-21007200D01*
X61033333Y-31109580D02*
X60985714Y-31157200D01*
X60985714Y-31157200D02*
X60842857Y-31204819D01*
X60842857Y-31204819D02*
X60747619Y-31204819D01*
X60747619Y-31204819D02*
X60604762Y-31157200D01*
X60604762Y-31157200D02*
X60509524Y-31061961D01*
X60509524Y-31061961D02*
X60461905Y-30966723D01*
X60461905Y-30966723D02*
X60414286Y-30776247D01*
X60414286Y-30776247D02*
X60414286Y-30633390D01*
X60414286Y-30633390D02*
X60461905Y-30442914D01*
X60461905Y-30442914D02*
X60509524Y-30347676D01*
X60509524Y-30347676D02*
X60604762Y-30252438D01*
X60604762Y-30252438D02*
X60747619Y-30204819D01*
X60747619Y-30204819D02*
X60842857Y-30204819D01*
X60842857Y-30204819D02*
X60985714Y-30252438D01*
X60985714Y-30252438D02*
X61033333Y-30300057D01*
X61414286Y-30300057D02*
X61461905Y-30252438D01*
X61461905Y-30252438D02*
X61557143Y-30204819D01*
X61557143Y-30204819D02*
X61795238Y-30204819D01*
X61795238Y-30204819D02*
X61890476Y-30252438D01*
X61890476Y-30252438D02*
X61938095Y-30300057D01*
X61938095Y-30300057D02*
X61985714Y-30395295D01*
X61985714Y-30395295D02*
X61985714Y-30490533D01*
X61985714Y-30490533D02*
X61938095Y-30633390D01*
X61938095Y-30633390D02*
X61366667Y-31204819D01*
X61366667Y-31204819D02*
X61985714Y-31204819D01*
X68166666Y-29854819D02*
X68166666Y-30569104D01*
X68166666Y-30569104D02*
X68119047Y-30711961D01*
X68119047Y-30711961D02*
X68023809Y-30807200D01*
X68023809Y-30807200D02*
X67880952Y-30854819D01*
X67880952Y-30854819D02*
X67785714Y-30854819D01*
X68547619Y-29854819D02*
X69166666Y-29854819D01*
X69166666Y-29854819D02*
X68833333Y-30235771D01*
X68833333Y-30235771D02*
X68976190Y-30235771D01*
X68976190Y-30235771D02*
X69071428Y-30283390D01*
X69071428Y-30283390D02*
X69119047Y-30331009D01*
X69119047Y-30331009D02*
X69166666Y-30426247D01*
X69166666Y-30426247D02*
X69166666Y-30664342D01*
X69166666Y-30664342D02*
X69119047Y-30759580D01*
X69119047Y-30759580D02*
X69071428Y-30807200D01*
X69071428Y-30807200D02*
X68976190Y-30854819D01*
X68976190Y-30854819D02*
X68690476Y-30854819D01*
X68690476Y-30854819D02*
X68595238Y-30807200D01*
X68595238Y-30807200D02*
X68547619Y-30759580D01*
D12*
X66541244Y-35553571D02*
X66541244Y-35910714D01*
X66541244Y-35910714D02*
X65791244Y-35910714D01*
X66541244Y-35303571D02*
X65791244Y-35303571D01*
X66148387Y-34696428D02*
X66148387Y-34946428D01*
X66541244Y-34946428D02*
X65791244Y-34946428D01*
X65791244Y-34946428D02*
X65791244Y-34589285D01*
X65791244Y-34410714D02*
X65791244Y-33982143D01*
X66541244Y-34196428D02*
X65791244Y-34196428D01*
D11*
X21914819Y-35323333D02*
X22629104Y-35323333D01*
X22629104Y-35323333D02*
X22771961Y-35370952D01*
X22771961Y-35370952D02*
X22867200Y-35466190D01*
X22867200Y-35466190D02*
X22914819Y-35609047D01*
X22914819Y-35609047D02*
X22914819Y-35704285D01*
X22914819Y-34323333D02*
X22914819Y-34894761D01*
X22914819Y-34609047D02*
X21914819Y-34609047D01*
X21914819Y-34609047D02*
X22057676Y-34704285D01*
X22057676Y-34704285D02*
X22152914Y-34799523D01*
X22152914Y-34799523D02*
X22200533Y-34894761D01*
X48833333Y-22859580D02*
X48785714Y-22907200D01*
X48785714Y-22907200D02*
X48642857Y-22954819D01*
X48642857Y-22954819D02*
X48547619Y-22954819D01*
X48547619Y-22954819D02*
X48404762Y-22907200D01*
X48404762Y-22907200D02*
X48309524Y-22811961D01*
X48309524Y-22811961D02*
X48261905Y-22716723D01*
X48261905Y-22716723D02*
X48214286Y-22526247D01*
X48214286Y-22526247D02*
X48214286Y-22383390D01*
X48214286Y-22383390D02*
X48261905Y-22192914D01*
X48261905Y-22192914D02*
X48309524Y-22097676D01*
X48309524Y-22097676D02*
X48404762Y-22002438D01*
X48404762Y-22002438D02*
X48547619Y-21954819D01*
X48547619Y-21954819D02*
X48642857Y-21954819D01*
X48642857Y-21954819D02*
X48785714Y-22002438D01*
X48785714Y-22002438D02*
X48833333Y-22050057D01*
X49785714Y-22954819D02*
X49214286Y-22954819D01*
X49500000Y-22954819D02*
X49500000Y-21954819D01*
X49500000Y-21954819D02*
X49404762Y-22097676D01*
X49404762Y-22097676D02*
X49309524Y-22192914D01*
X49309524Y-22192914D02*
X49214286Y-22240533D01*
X60666666Y-35154819D02*
X60666666Y-35869104D01*
X60666666Y-35869104D02*
X60619047Y-36011961D01*
X60619047Y-36011961D02*
X60523809Y-36107200D01*
X60523809Y-36107200D02*
X60380952Y-36154819D01*
X60380952Y-36154819D02*
X60285714Y-36154819D01*
X61619047Y-35154819D02*
X61142857Y-35154819D01*
X61142857Y-35154819D02*
X61095238Y-35631009D01*
X61095238Y-35631009D02*
X61142857Y-35583390D01*
X61142857Y-35583390D02*
X61238095Y-35535771D01*
X61238095Y-35535771D02*
X61476190Y-35535771D01*
X61476190Y-35535771D02*
X61571428Y-35583390D01*
X61571428Y-35583390D02*
X61619047Y-35631009D01*
X61619047Y-35631009D02*
X61666666Y-35726247D01*
X61666666Y-35726247D02*
X61666666Y-35964342D01*
X61666666Y-35964342D02*
X61619047Y-36059580D01*
X61619047Y-36059580D02*
X61571428Y-36107200D01*
X61571428Y-36107200D02*
X61476190Y-36154819D01*
X61476190Y-36154819D02*
X61238095Y-36154819D01*
X61238095Y-36154819D02*
X61142857Y-36107200D01*
X61142857Y-36107200D02*
X61095238Y-36059580D01*
D12*
X59160714Y-42941244D02*
X58803571Y-42941244D01*
X58803571Y-42941244D02*
X58803571Y-42191244D01*
X59410714Y-42548387D02*
X59660714Y-42548387D01*
X59767857Y-42941244D02*
X59410714Y-42941244D01*
X59410714Y-42941244D02*
X59410714Y-42191244D01*
X59410714Y-42191244D02*
X59767857Y-42191244D01*
X60089285Y-42941244D02*
X60089285Y-42191244D01*
X60089285Y-42191244D02*
X60267856Y-42191244D01*
X60267856Y-42191244D02*
X60374999Y-42226958D01*
X60374999Y-42226958D02*
X60446428Y-42298387D01*
X60446428Y-42298387D02*
X60482142Y-42369815D01*
X60482142Y-42369815D02*
X60517856Y-42512672D01*
X60517856Y-42512672D02*
X60517856Y-42619815D01*
X60517856Y-42619815D02*
X60482142Y-42762672D01*
X60482142Y-42762672D02*
X60446428Y-42834101D01*
X60446428Y-42834101D02*
X60374999Y-42905530D01*
X60374999Y-42905530D02*
X60267856Y-42941244D01*
X60267856Y-42941244D02*
X60089285Y-42941244D01*
X61553571Y-42191244D02*
X61696428Y-42191244D01*
X61696428Y-42191244D02*
X61767857Y-42226958D01*
X61767857Y-42226958D02*
X61839285Y-42298387D01*
X61839285Y-42298387D02*
X61875000Y-42441244D01*
X61875000Y-42441244D02*
X61875000Y-42691244D01*
X61875000Y-42691244D02*
X61839285Y-42834101D01*
X61839285Y-42834101D02*
X61767857Y-42905530D01*
X61767857Y-42905530D02*
X61696428Y-42941244D01*
X61696428Y-42941244D02*
X61553571Y-42941244D01*
X61553571Y-42941244D02*
X61482143Y-42905530D01*
X61482143Y-42905530D02*
X61410714Y-42834101D01*
X61410714Y-42834101D02*
X61375000Y-42691244D01*
X61375000Y-42691244D02*
X61375000Y-42441244D01*
X61375000Y-42441244D02*
X61410714Y-42298387D01*
X61410714Y-42298387D02*
X61482143Y-42226958D01*
X61482143Y-42226958D02*
X61553571Y-42191244D01*
X62196428Y-42191244D02*
X62196428Y-42798387D01*
X62196428Y-42798387D02*
X62232142Y-42869815D01*
X62232142Y-42869815D02*
X62267857Y-42905530D01*
X62267857Y-42905530D02*
X62339285Y-42941244D01*
X62339285Y-42941244D02*
X62482142Y-42941244D01*
X62482142Y-42941244D02*
X62553571Y-42905530D01*
X62553571Y-42905530D02*
X62589285Y-42869815D01*
X62589285Y-42869815D02*
X62624999Y-42798387D01*
X62624999Y-42798387D02*
X62624999Y-42191244D01*
X62874999Y-42191244D02*
X63303571Y-42191244D01*
X63089285Y-42941244D02*
X63089285Y-42191244D01*
D11*
X52666666Y-31454819D02*
X52666666Y-32169104D01*
X52666666Y-32169104D02*
X52619047Y-32311961D01*
X52619047Y-32311961D02*
X52523809Y-32407200D01*
X52523809Y-32407200D02*
X52380952Y-32454819D01*
X52380952Y-32454819D02*
X52285714Y-32454819D01*
X53571428Y-31788152D02*
X53571428Y-32454819D01*
X53333333Y-31407200D02*
X53095238Y-32121485D01*
X53095238Y-32121485D02*
X53714285Y-32121485D01*
D12*
X47660714Y-32341244D02*
X47303571Y-32341244D01*
X47303571Y-32341244D02*
X47303571Y-31591244D01*
X47910714Y-31948387D02*
X48160714Y-31948387D01*
X48267857Y-32341244D02*
X47910714Y-32341244D01*
X47910714Y-32341244D02*
X47910714Y-31591244D01*
X47910714Y-31591244D02*
X48267857Y-31591244D01*
X48589285Y-32341244D02*
X48589285Y-31591244D01*
X48589285Y-31591244D02*
X48767856Y-31591244D01*
X48767856Y-31591244D02*
X48874999Y-31626958D01*
X48874999Y-31626958D02*
X48946428Y-31698387D01*
X48946428Y-31698387D02*
X48982142Y-31769815D01*
X48982142Y-31769815D02*
X49017856Y-31912672D01*
X49017856Y-31912672D02*
X49017856Y-32019815D01*
X49017856Y-32019815D02*
X48982142Y-32162672D01*
X48982142Y-32162672D02*
X48946428Y-32234101D01*
X48946428Y-32234101D02*
X48874999Y-32305530D01*
X48874999Y-32305530D02*
X48767856Y-32341244D01*
X48767856Y-32341244D02*
X48589285Y-32341244D01*
X49910714Y-32341244D02*
X49910714Y-31591244D01*
X50267857Y-32341244D02*
X50267857Y-31591244D01*
X50267857Y-31591244D02*
X50696428Y-32341244D01*
X50696428Y-32341244D02*
X50696428Y-31591244D01*
D11*
X68166666Y-20854819D02*
X68166666Y-21569104D01*
X68166666Y-21569104D02*
X68119047Y-21711961D01*
X68119047Y-21711961D02*
X68023809Y-21807200D01*
X68023809Y-21807200D02*
X67880952Y-21854819D01*
X67880952Y-21854819D02*
X67785714Y-21854819D01*
X68595238Y-20950057D02*
X68642857Y-20902438D01*
X68642857Y-20902438D02*
X68738095Y-20854819D01*
X68738095Y-20854819D02*
X68976190Y-20854819D01*
X68976190Y-20854819D02*
X69071428Y-20902438D01*
X69071428Y-20902438D02*
X69119047Y-20950057D01*
X69119047Y-20950057D02*
X69166666Y-21045295D01*
X69166666Y-21045295D02*
X69166666Y-21140533D01*
X69166666Y-21140533D02*
X69119047Y-21283390D01*
X69119047Y-21283390D02*
X68547619Y-21854819D01*
X68547619Y-21854819D02*
X69166666Y-21854819D01*
D12*
X66541244Y-26910713D02*
X65791244Y-26910713D01*
X65791244Y-26910713D02*
X65791244Y-26624999D01*
X65791244Y-26624999D02*
X65826958Y-26553570D01*
X65826958Y-26553570D02*
X65862672Y-26517856D01*
X65862672Y-26517856D02*
X65934101Y-26482142D01*
X65934101Y-26482142D02*
X66041244Y-26482142D01*
X66041244Y-26482142D02*
X66112672Y-26517856D01*
X66112672Y-26517856D02*
X66148387Y-26553570D01*
X66148387Y-26553570D02*
X66184101Y-26624999D01*
X66184101Y-26624999D02*
X66184101Y-26910713D01*
X66326958Y-26196427D02*
X66326958Y-25839285D01*
X66541244Y-26267856D02*
X65791244Y-26017856D01*
X65791244Y-26017856D02*
X66541244Y-25767856D01*
X66541244Y-25517856D02*
X65791244Y-25517856D01*
X65791244Y-25517856D02*
X66541244Y-25089285D01*
X66541244Y-25089285D02*
X65791244Y-25089285D01*
D11*
X46833333Y-40954819D02*
X46500000Y-40478628D01*
X46261905Y-40954819D02*
X46261905Y-39954819D01*
X46261905Y-39954819D02*
X46642857Y-39954819D01*
X46642857Y-39954819D02*
X46738095Y-40002438D01*
X46738095Y-40002438D02*
X46785714Y-40050057D01*
X46785714Y-40050057D02*
X46833333Y-40145295D01*
X46833333Y-40145295D02*
X46833333Y-40288152D01*
X46833333Y-40288152D02*
X46785714Y-40383390D01*
X46785714Y-40383390D02*
X46738095Y-40431009D01*
X46738095Y-40431009D02*
X46642857Y-40478628D01*
X46642857Y-40478628D02*
X46261905Y-40478628D01*
X47785714Y-40954819D02*
X47214286Y-40954819D01*
X47500000Y-40954819D02*
X47500000Y-39954819D01*
X47500000Y-39954819D02*
X47404762Y-40097676D01*
X47404762Y-40097676D02*
X47309524Y-40192914D01*
X47309524Y-40192914D02*
X47214286Y-40240533D01*
%TO.C,C2*%
D10*
X62250000Y-28250000D02*
X64750000Y-28250000D01*
X64750000Y-33250000D01*
X62250000Y-33250000D01*
X62250000Y-28250000D01*
%TO.C,J3*%
X67150000Y-31190000D02*
X69850000Y-31190000D01*
X69850000Y-38810000D01*
X67150000Y-38810000D01*
X67150000Y-31190000D01*
%TO.C,J1*%
X23510000Y-42850000D02*
X23510000Y-27120000D01*
X35960000Y-26540000D02*
X36460000Y-27040000D01*
X36460000Y-27040000D02*
X36960000Y-26540000D01*
X36960000Y-26540000D02*
X35960000Y-26540000D01*
X40250000Y-27120000D02*
X23510000Y-27120000D01*
X40250000Y-42840000D02*
X40250000Y-27120000D01*
X40250000Y-42850000D02*
X23510000Y-42850000D01*
%TO.C,C1*%
X54000000Y-25000000D02*
G75*
G02*
X44000000Y-25000000I-5000000J0D01*
G01*
X44000000Y-25000000D02*
G75*
G02*
X54000000Y-25000000I5000000J0D01*
G01*
%TO.C,J5*%
X56900000Y-37100000D02*
X65100000Y-37100000D01*
X65100000Y-41900000D01*
X56900000Y-41900000D01*
X56900000Y-37100000D01*
%TO.C,J4*%
X44900000Y-32600000D02*
X53100000Y-32600000D01*
X53100000Y-37400000D01*
X44900000Y-37400000D01*
X44900000Y-32600000D01*
%TO.C,J2*%
X67150000Y-22190000D02*
X69850000Y-22190000D01*
X69850000Y-29810000D01*
X67150000Y-29810000D01*
X67150000Y-22190000D01*
%TO.C,R1*%
X45850000Y-39250000D02*
X52150000Y-39250000D01*
X52150000Y-41750000D01*
X45850000Y-41750000D01*
X45850000Y-39250000D01*
%TD*%
D13*
%TO.C,J1*%
X30110000Y-29270000D03*
X30110000Y-40700000D03*
%TD*%
M02*
