%TF.GenerationSoftware,KiCad,Pcbnew,10.0.4*%
%TF.CreationDate,2026-08-01T13:40:55-05:00*%
%TF.ProjectId,Derek_CAN_v4,44657265-6b5f-4434-914e-5f76342e6b69,rev?*%
%TF.SameCoordinates,Original*%
%TF.FileFunction,AssemblyDrawing,Top*%
%FSLAX46Y46*%
G04 Gerber Fmt 4.6, Leading zero omitted, Abs format (unit mm)*
G04 Created by KiCad (PCBNEW 10.0.4) date 2026-08-01 13:40:55*
%MOMM*%
%LPD*%
G01*
G04 APERTURE LIST*
%ADD10C,0.150000*%
%ADD11C,0.125000*%
G04 APERTURE END LIST*
D10*
X25333333Y-42431009D02*
X25000000Y-42431009D01*
X25000000Y-42954819D02*
X25000000Y-41954819D01*
X25000000Y-41954819D02*
X25476190Y-41954819D01*
X25857143Y-42954819D02*
X25857143Y-41954819D01*
X25857143Y-41954819D02*
X26190476Y-42669104D01*
X26190476Y-42669104D02*
X26523809Y-41954819D01*
X26523809Y-41954819D02*
X26523809Y-42954819D01*
X27000000Y-42954819D02*
X27000000Y-41954819D01*
X27000000Y-42431009D02*
X27571428Y-42431009D01*
X27571428Y-42954819D02*
X27571428Y-41954819D01*
X27952381Y-41954819D02*
X28619047Y-42954819D01*
X28619047Y-41954819D02*
X27952381Y-42954819D01*
X29523809Y-42002438D02*
X29428571Y-41954819D01*
X29428571Y-41954819D02*
X29285714Y-41954819D01*
X29285714Y-41954819D02*
X29142857Y-42002438D01*
X29142857Y-42002438D02*
X29047619Y-42097676D01*
X29047619Y-42097676D02*
X29000000Y-42192914D01*
X29000000Y-42192914D02*
X28952381Y-42383390D01*
X28952381Y-42383390D02*
X28952381Y-42526247D01*
X28952381Y-42526247D02*
X29000000Y-42716723D01*
X29000000Y-42716723D02*
X29047619Y-42811961D01*
X29047619Y-42811961D02*
X29142857Y-42907200D01*
X29142857Y-42907200D02*
X29285714Y-42954819D01*
X29285714Y-42954819D02*
X29380952Y-42954819D01*
X29380952Y-42954819D02*
X29523809Y-42907200D01*
X29523809Y-42907200D02*
X29571428Y-42859580D01*
X29571428Y-42859580D02*
X29571428Y-42526247D01*
X29571428Y-42526247D02*
X29380952Y-42526247D01*
X29761905Y-43050057D02*
X30523809Y-43050057D01*
X31333333Y-42954819D02*
X31000000Y-42478628D01*
X30761905Y-42954819D02*
X30761905Y-41954819D01*
X30761905Y-41954819D02*
X31142857Y-41954819D01*
X31142857Y-41954819D02*
X31238095Y-42002438D01*
X31238095Y-42002438D02*
X31285714Y-42050057D01*
X31285714Y-42050057D02*
X31333333Y-42145295D01*
X31333333Y-42145295D02*
X31333333Y-42288152D01*
X31333333Y-42288152D02*
X31285714Y-42383390D01*
X31285714Y-42383390D02*
X31238095Y-42431009D01*
X31238095Y-42431009D02*
X31142857Y-42478628D01*
X31142857Y-42478628D02*
X30761905Y-42478628D01*
X32047619Y-41954819D02*
X32047619Y-42669104D01*
X32047619Y-42669104D02*
X32000000Y-42811961D01*
X32000000Y-42811961D02*
X31904762Y-42907200D01*
X31904762Y-42907200D02*
X31761905Y-42954819D01*
X31761905Y-42954819D02*
X31666667Y-42954819D01*
X32952381Y-42288152D02*
X32952381Y-42954819D01*
X32714286Y-41907200D02*
X32476191Y-42621485D01*
X32476191Y-42621485D02*
X33095238Y-42621485D01*
X33952381Y-41954819D02*
X33476191Y-41954819D01*
X33476191Y-41954819D02*
X33428572Y-42431009D01*
X33428572Y-42431009D02*
X33476191Y-42383390D01*
X33476191Y-42383390D02*
X33571429Y-42335771D01*
X33571429Y-42335771D02*
X33809524Y-42335771D01*
X33809524Y-42335771D02*
X33904762Y-42383390D01*
X33904762Y-42383390D02*
X33952381Y-42431009D01*
X33952381Y-42431009D02*
X34000000Y-42526247D01*
X34000000Y-42526247D02*
X34000000Y-42764342D01*
X34000000Y-42764342D02*
X33952381Y-42859580D01*
X33952381Y-42859580D02*
X33904762Y-42907200D01*
X33904762Y-42907200D02*
X33809524Y-42954819D01*
X33809524Y-42954819D02*
X33571429Y-42954819D01*
X33571429Y-42954819D02*
X33476191Y-42907200D01*
X33476191Y-42907200D02*
X33428572Y-42859580D01*
X34428572Y-42954819D02*
X34428572Y-41954819D01*
X34428572Y-41954819D02*
X35000000Y-42954819D01*
X35000000Y-42954819D02*
X35000000Y-41954819D01*
X35476191Y-42954819D02*
X35476191Y-41954819D01*
X35476191Y-41954819D02*
X35809524Y-42669104D01*
X35809524Y-42669104D02*
X36142857Y-41954819D01*
X36142857Y-41954819D02*
X36142857Y-42954819D01*
X37190476Y-42859580D02*
X37142857Y-42907200D01*
X37142857Y-42907200D02*
X37000000Y-42954819D01*
X37000000Y-42954819D02*
X36904762Y-42954819D01*
X36904762Y-42954819D02*
X36761905Y-42907200D01*
X36761905Y-42907200D02*
X36666667Y-42811961D01*
X36666667Y-42811961D02*
X36619048Y-42716723D01*
X36619048Y-42716723D02*
X36571429Y-42526247D01*
X36571429Y-42526247D02*
X36571429Y-42383390D01*
X36571429Y-42383390D02*
X36619048Y-42192914D01*
X36619048Y-42192914D02*
X36666667Y-42097676D01*
X36666667Y-42097676D02*
X36761905Y-42002438D01*
X36761905Y-42002438D02*
X36904762Y-41954819D01*
X36904762Y-41954819D02*
X37000000Y-41954819D01*
X37000000Y-41954819D02*
X37142857Y-42002438D01*
X37142857Y-42002438D02*
X37190476Y-42050057D01*
X38190476Y-42859580D02*
X38142857Y-42907200D01*
X38142857Y-42907200D02*
X38000000Y-42954819D01*
X38000000Y-42954819D02*
X37904762Y-42954819D01*
X37904762Y-42954819D02*
X37761905Y-42907200D01*
X37761905Y-42907200D02*
X37666667Y-42811961D01*
X37666667Y-42811961D02*
X37619048Y-42716723D01*
X37619048Y-42716723D02*
X37571429Y-42526247D01*
X37571429Y-42526247D02*
X37571429Y-42383390D01*
X37571429Y-42383390D02*
X37619048Y-42192914D01*
X37619048Y-42192914D02*
X37666667Y-42097676D01*
X37666667Y-42097676D02*
X37761905Y-42002438D01*
X37761905Y-42002438D02*
X37904762Y-41954819D01*
X37904762Y-41954819D02*
X38000000Y-41954819D01*
X38000000Y-41954819D02*
X38142857Y-42002438D01*
X38142857Y-42002438D02*
X38190476Y-42050057D01*
X38952381Y-42431009D02*
X38619048Y-42431009D01*
X38619048Y-42954819D02*
X38619048Y-41954819D01*
X38619048Y-41954819D02*
X39095238Y-41954819D01*
X40047619Y-42859580D02*
X40000000Y-42907200D01*
X40000000Y-42907200D02*
X39857143Y-42954819D01*
X39857143Y-42954819D02*
X39761905Y-42954819D01*
X39761905Y-42954819D02*
X39619048Y-42907200D01*
X39619048Y-42907200D02*
X39523810Y-42811961D01*
X39523810Y-42811961D02*
X39476191Y-42716723D01*
X39476191Y-42716723D02*
X39428572Y-42526247D01*
X39428572Y-42526247D02*
X39428572Y-42383390D01*
X39428572Y-42383390D02*
X39476191Y-42192914D01*
X39476191Y-42192914D02*
X39523810Y-42097676D01*
X39523810Y-42097676D02*
X39619048Y-42002438D01*
X39619048Y-42002438D02*
X39761905Y-41954819D01*
X39761905Y-41954819D02*
X39857143Y-41954819D01*
X39857143Y-41954819D02*
X40000000Y-42002438D01*
X40000000Y-42002438D02*
X40047619Y-42050057D01*
X60517857Y-23839164D02*
X60517857Y-23089164D01*
X60517857Y-23089164D02*
X60803571Y-23089164D01*
X60803571Y-23089164D02*
X60875000Y-23124878D01*
X60875000Y-23124878D02*
X60910714Y-23160592D01*
X60910714Y-23160592D02*
X60946428Y-23232021D01*
X60946428Y-23232021D02*
X60946428Y-23339164D01*
X60946428Y-23339164D02*
X60910714Y-23410592D01*
X60910714Y-23410592D02*
X60875000Y-23446307D01*
X60875000Y-23446307D02*
X60803571Y-23482021D01*
X60803571Y-23482021D02*
X60517857Y-23482021D01*
X61232143Y-23624878D02*
X61589286Y-23624878D01*
X61160714Y-23839164D02*
X61410714Y-23089164D01*
X61410714Y-23089164D02*
X61660714Y-23839164D01*
X61910714Y-23839164D02*
X61910714Y-23089164D01*
X61910714Y-23089164D02*
X62339285Y-23839164D01*
X62339285Y-23839164D02*
X62339285Y-23089164D01*
X62517857Y-23910592D02*
X63089285Y-23910592D01*
X63232143Y-23803450D02*
X63339286Y-23839164D01*
X63339286Y-23839164D02*
X63517857Y-23839164D01*
X63517857Y-23839164D02*
X63589286Y-23803450D01*
X63589286Y-23803450D02*
X63625000Y-23767735D01*
X63625000Y-23767735D02*
X63660714Y-23696307D01*
X63660714Y-23696307D02*
X63660714Y-23624878D01*
X63660714Y-23624878D02*
X63625000Y-23553450D01*
X63625000Y-23553450D02*
X63589286Y-23517735D01*
X63589286Y-23517735D02*
X63517857Y-23482021D01*
X63517857Y-23482021D02*
X63375000Y-23446307D01*
X63375000Y-23446307D02*
X63303571Y-23410592D01*
X63303571Y-23410592D02*
X63267857Y-23374878D01*
X63267857Y-23374878D02*
X63232143Y-23303450D01*
X63232143Y-23303450D02*
X63232143Y-23232021D01*
X63232143Y-23232021D02*
X63267857Y-23160592D01*
X63267857Y-23160592D02*
X63303571Y-23124878D01*
X63303571Y-23124878D02*
X63375000Y-23089164D01*
X63375000Y-23089164D02*
X63553571Y-23089164D01*
X63553571Y-23089164D02*
X63660714Y-23124878D01*
X63982143Y-23446307D02*
X64232143Y-23446307D01*
X64339286Y-23839164D02*
X63982143Y-23839164D01*
X63982143Y-23839164D02*
X63982143Y-23089164D01*
X63982143Y-23089164D02*
X64339286Y-23089164D01*
X65089285Y-23839164D02*
X64839285Y-23482021D01*
X64660714Y-23839164D02*
X64660714Y-23089164D01*
X64660714Y-23089164D02*
X64946428Y-23089164D01*
X64946428Y-23089164D02*
X65017857Y-23124878D01*
X65017857Y-23124878D02*
X65053571Y-23160592D01*
X65053571Y-23160592D02*
X65089285Y-23232021D01*
X65089285Y-23232021D02*
X65089285Y-23339164D01*
X65089285Y-23339164D02*
X65053571Y-23410592D01*
X65053571Y-23410592D02*
X65017857Y-23446307D01*
X65017857Y-23446307D02*
X64946428Y-23482021D01*
X64946428Y-23482021D02*
X64660714Y-23482021D01*
X65303571Y-23089164D02*
X65553571Y-23839164D01*
X65553571Y-23839164D02*
X65803571Y-23089164D01*
X66196428Y-23089164D02*
X66339285Y-23089164D01*
X66339285Y-23089164D02*
X66410714Y-23124878D01*
X66410714Y-23124878D02*
X66482142Y-23196307D01*
X66482142Y-23196307D02*
X66517857Y-23339164D01*
X66517857Y-23339164D02*
X66517857Y-23589164D01*
X66517857Y-23589164D02*
X66482142Y-23732021D01*
X66482142Y-23732021D02*
X66410714Y-23803450D01*
X66410714Y-23803450D02*
X66339285Y-23839164D01*
X66339285Y-23839164D02*
X66196428Y-23839164D01*
X66196428Y-23839164D02*
X66125000Y-23803450D01*
X66125000Y-23803450D02*
X66053571Y-23732021D01*
X66053571Y-23732021D02*
X66017857Y-23589164D01*
X66017857Y-23589164D02*
X66017857Y-23339164D01*
X66017857Y-23339164D02*
X66053571Y-23196307D01*
X66053571Y-23196307D02*
X66125000Y-23124878D01*
X66125000Y-23124878D02*
X66196428Y-23089164D01*
X60875000Y-33339164D02*
X60517857Y-33339164D01*
X60517857Y-33339164D02*
X60517857Y-32589164D01*
X61125000Y-33339164D02*
X61125000Y-32589164D01*
X61732143Y-32946307D02*
X61482143Y-32946307D01*
X61482143Y-33339164D02*
X61482143Y-32589164D01*
X61482143Y-32589164D02*
X61839286Y-32589164D01*
X62017857Y-32589164D02*
X62446429Y-32589164D01*
X62232143Y-33339164D02*
X62232143Y-32589164D01*
X62517858Y-33410592D02*
X63089286Y-33410592D01*
X63232144Y-33303450D02*
X63339287Y-33339164D01*
X63339287Y-33339164D02*
X63517858Y-33339164D01*
X63517858Y-33339164D02*
X63589287Y-33303450D01*
X63589287Y-33303450D02*
X63625001Y-33267735D01*
X63625001Y-33267735D02*
X63660715Y-33196307D01*
X63660715Y-33196307D02*
X63660715Y-33124878D01*
X63660715Y-33124878D02*
X63625001Y-33053450D01*
X63625001Y-33053450D02*
X63589287Y-33017735D01*
X63589287Y-33017735D02*
X63517858Y-32982021D01*
X63517858Y-32982021D02*
X63375001Y-32946307D01*
X63375001Y-32946307D02*
X63303572Y-32910592D01*
X63303572Y-32910592D02*
X63267858Y-32874878D01*
X63267858Y-32874878D02*
X63232144Y-32803450D01*
X63232144Y-32803450D02*
X63232144Y-32732021D01*
X63232144Y-32732021D02*
X63267858Y-32660592D01*
X63267858Y-32660592D02*
X63303572Y-32624878D01*
X63303572Y-32624878D02*
X63375001Y-32589164D01*
X63375001Y-32589164D02*
X63553572Y-32589164D01*
X63553572Y-32589164D02*
X63660715Y-32624878D01*
X63982144Y-32946307D02*
X64232144Y-32946307D01*
X64339287Y-33339164D02*
X63982144Y-33339164D01*
X63982144Y-33339164D02*
X63982144Y-32589164D01*
X63982144Y-32589164D02*
X64339287Y-32589164D01*
X65089286Y-33339164D02*
X64839286Y-32982021D01*
X64660715Y-33339164D02*
X64660715Y-32589164D01*
X64660715Y-32589164D02*
X64946429Y-32589164D01*
X64946429Y-32589164D02*
X65017858Y-32624878D01*
X65017858Y-32624878D02*
X65053572Y-32660592D01*
X65053572Y-32660592D02*
X65089286Y-32732021D01*
X65089286Y-32732021D02*
X65089286Y-32839164D01*
X65089286Y-32839164D02*
X65053572Y-32910592D01*
X65053572Y-32910592D02*
X65017858Y-32946307D01*
X65017858Y-32946307D02*
X64946429Y-32982021D01*
X64946429Y-32982021D02*
X64660715Y-32982021D01*
X65303572Y-32589164D02*
X65553572Y-33339164D01*
X65553572Y-33339164D02*
X65803572Y-32589164D01*
X66196429Y-32589164D02*
X66339286Y-32589164D01*
X66339286Y-32589164D02*
X66410715Y-32624878D01*
X66410715Y-32624878D02*
X66482143Y-32696307D01*
X66482143Y-32696307D02*
X66517858Y-32839164D01*
X66517858Y-32839164D02*
X66517858Y-33089164D01*
X66517858Y-33089164D02*
X66482143Y-33232021D01*
X66482143Y-33232021D02*
X66410715Y-33303450D01*
X66410715Y-33303450D02*
X66339286Y-33339164D01*
X66339286Y-33339164D02*
X66196429Y-33339164D01*
X66196429Y-33339164D02*
X66125001Y-33303450D01*
X66125001Y-33303450D02*
X66053572Y-33232021D01*
X66053572Y-33232021D02*
X66017858Y-33089164D01*
X66017858Y-33089164D02*
X66017858Y-32839164D01*
X66017858Y-32839164D02*
X66053572Y-32696307D01*
X66053572Y-32696307D02*
X66125001Y-32624878D01*
X66125001Y-32624878D02*
X66196429Y-32589164D01*
D11*
X48285714Y-41224809D02*
X48285714Y-41581952D01*
X48285714Y-41581952D02*
X48261905Y-41653380D01*
X48261905Y-41653380D02*
X48214286Y-41701000D01*
X48214286Y-41701000D02*
X48142857Y-41724809D01*
X48142857Y-41724809D02*
X48095238Y-41724809D01*
X48500000Y-41701000D02*
X48571428Y-41724809D01*
X48571428Y-41724809D02*
X48690476Y-41724809D01*
X48690476Y-41724809D02*
X48738095Y-41701000D01*
X48738095Y-41701000D02*
X48761904Y-41677190D01*
X48761904Y-41677190D02*
X48785714Y-41629571D01*
X48785714Y-41629571D02*
X48785714Y-41581952D01*
X48785714Y-41581952D02*
X48761904Y-41534333D01*
X48761904Y-41534333D02*
X48738095Y-41510523D01*
X48738095Y-41510523D02*
X48690476Y-41486714D01*
X48690476Y-41486714D02*
X48595238Y-41462904D01*
X48595238Y-41462904D02*
X48547619Y-41439095D01*
X48547619Y-41439095D02*
X48523809Y-41415285D01*
X48523809Y-41415285D02*
X48500000Y-41367666D01*
X48500000Y-41367666D02*
X48500000Y-41320047D01*
X48500000Y-41320047D02*
X48523809Y-41272428D01*
X48523809Y-41272428D02*
X48547619Y-41248619D01*
X48547619Y-41248619D02*
X48595238Y-41224809D01*
X48595238Y-41224809D02*
X48714285Y-41224809D01*
X48714285Y-41224809D02*
X48785714Y-41248619D01*
X48928571Y-41224809D02*
X49214285Y-41224809D01*
X49071428Y-41724809D02*
X49071428Y-41224809D01*
X49380951Y-41534333D02*
X49761904Y-41534333D01*
X49952380Y-41224809D02*
X50285713Y-41724809D01*
X50285713Y-41224809D02*
X49952380Y-41724809D01*
X50476189Y-41724809D02*
X50476189Y-41224809D01*
X50476189Y-41462904D02*
X50761903Y-41462904D01*
X50761903Y-41724809D02*
X50761903Y-41224809D01*
X50999999Y-41534333D02*
X51380952Y-41534333D01*
X51571428Y-41224809D02*
X51880952Y-41224809D01*
X51880952Y-41224809D02*
X51714285Y-41415285D01*
X51714285Y-41415285D02*
X51785714Y-41415285D01*
X51785714Y-41415285D02*
X51833333Y-41439095D01*
X51833333Y-41439095D02*
X51857142Y-41462904D01*
X51857142Y-41462904D02*
X51880952Y-41510523D01*
X51880952Y-41510523D02*
X51880952Y-41629571D01*
X51880952Y-41629571D02*
X51857142Y-41677190D01*
X51857142Y-41677190D02*
X51833333Y-41701000D01*
X51833333Y-41701000D02*
X51785714Y-41724809D01*
X51785714Y-41724809D02*
X51642857Y-41724809D01*
X51642857Y-41724809D02*
X51595238Y-41701000D01*
X51595238Y-41701000D02*
X51571428Y-41677190D01*
X59285714Y-41224809D02*
X59285714Y-41581952D01*
X59285714Y-41581952D02*
X59261905Y-41653380D01*
X59261905Y-41653380D02*
X59214286Y-41701000D01*
X59214286Y-41701000D02*
X59142857Y-41724809D01*
X59142857Y-41724809D02*
X59095238Y-41724809D01*
X59500000Y-41701000D02*
X59571428Y-41724809D01*
X59571428Y-41724809D02*
X59690476Y-41724809D01*
X59690476Y-41724809D02*
X59738095Y-41701000D01*
X59738095Y-41701000D02*
X59761904Y-41677190D01*
X59761904Y-41677190D02*
X59785714Y-41629571D01*
X59785714Y-41629571D02*
X59785714Y-41581952D01*
X59785714Y-41581952D02*
X59761904Y-41534333D01*
X59761904Y-41534333D02*
X59738095Y-41510523D01*
X59738095Y-41510523D02*
X59690476Y-41486714D01*
X59690476Y-41486714D02*
X59595238Y-41462904D01*
X59595238Y-41462904D02*
X59547619Y-41439095D01*
X59547619Y-41439095D02*
X59523809Y-41415285D01*
X59523809Y-41415285D02*
X59500000Y-41367666D01*
X59500000Y-41367666D02*
X59500000Y-41320047D01*
X59500000Y-41320047D02*
X59523809Y-41272428D01*
X59523809Y-41272428D02*
X59547619Y-41248619D01*
X59547619Y-41248619D02*
X59595238Y-41224809D01*
X59595238Y-41224809D02*
X59714285Y-41224809D01*
X59714285Y-41224809D02*
X59785714Y-41248619D01*
X59928571Y-41224809D02*
X60214285Y-41224809D01*
X60071428Y-41724809D02*
X60071428Y-41224809D01*
X60380951Y-41534333D02*
X60761904Y-41534333D01*
X60952380Y-41224809D02*
X61285713Y-41724809D01*
X61285713Y-41224809D02*
X60952380Y-41724809D01*
X61476189Y-41724809D02*
X61476189Y-41224809D01*
X61476189Y-41462904D02*
X61761903Y-41462904D01*
X61761903Y-41724809D02*
X61761903Y-41224809D01*
X61999999Y-41534333D02*
X62380952Y-41534333D01*
X62571428Y-41224809D02*
X62880952Y-41224809D01*
X62880952Y-41224809D02*
X62714285Y-41415285D01*
X62714285Y-41415285D02*
X62785714Y-41415285D01*
X62785714Y-41415285D02*
X62833333Y-41439095D01*
X62833333Y-41439095D02*
X62857142Y-41462904D01*
X62857142Y-41462904D02*
X62880952Y-41510523D01*
X62880952Y-41510523D02*
X62880952Y-41629571D01*
X62880952Y-41629571D02*
X62857142Y-41677190D01*
X62857142Y-41677190D02*
X62833333Y-41701000D01*
X62833333Y-41701000D02*
X62785714Y-41724809D01*
X62785714Y-41724809D02*
X62642857Y-41724809D01*
X62642857Y-41724809D02*
X62595238Y-41701000D01*
X62595238Y-41701000D02*
X62571428Y-41677190D01*
D10*
X48714286Y-23454819D02*
X49333333Y-23454819D01*
X49333333Y-23454819D02*
X49000000Y-23835771D01*
X49000000Y-23835771D02*
X49142857Y-23835771D01*
X49142857Y-23835771D02*
X49238095Y-23883390D01*
X49238095Y-23883390D02*
X49285714Y-23931009D01*
X49285714Y-23931009D02*
X49333333Y-24026247D01*
X49333333Y-24026247D02*
X49333333Y-24264342D01*
X49333333Y-24264342D02*
X49285714Y-24359580D01*
X49285714Y-24359580D02*
X49238095Y-24407200D01*
X49238095Y-24407200D02*
X49142857Y-24454819D01*
X49142857Y-24454819D02*
X48857143Y-24454819D01*
X48857143Y-24454819D02*
X48761905Y-24407200D01*
X48761905Y-24407200D02*
X48714286Y-24359580D01*
X49666667Y-23454819D02*
X50285714Y-23454819D01*
X50285714Y-23454819D02*
X49952381Y-23835771D01*
X49952381Y-23835771D02*
X50095238Y-23835771D01*
X50095238Y-23835771D02*
X50190476Y-23883390D01*
X50190476Y-23883390D02*
X50238095Y-23931009D01*
X50238095Y-23931009D02*
X50285714Y-24026247D01*
X50285714Y-24026247D02*
X50285714Y-24264342D01*
X50285714Y-24264342D02*
X50238095Y-24359580D01*
X50238095Y-24359580D02*
X50190476Y-24407200D01*
X50190476Y-24407200D02*
X50095238Y-24454819D01*
X50095238Y-24454819D02*
X49809524Y-24454819D01*
X49809524Y-24454819D02*
X49714286Y-24407200D01*
X49714286Y-24407200D02*
X49666667Y-24359580D01*
X50904762Y-23454819D02*
X51000000Y-23454819D01*
X51000000Y-23454819D02*
X51095238Y-23502438D01*
X51095238Y-23502438D02*
X51142857Y-23550057D01*
X51142857Y-23550057D02*
X51190476Y-23645295D01*
X51190476Y-23645295D02*
X51238095Y-23835771D01*
X51238095Y-23835771D02*
X51238095Y-24073866D01*
X51238095Y-24073866D02*
X51190476Y-24264342D01*
X51190476Y-24264342D02*
X51142857Y-24359580D01*
X51142857Y-24359580D02*
X51095238Y-24407200D01*
X51095238Y-24407200D02*
X51000000Y-24454819D01*
X51000000Y-24454819D02*
X50904762Y-24454819D01*
X50904762Y-24454819D02*
X50809524Y-24407200D01*
X50809524Y-24407200D02*
X50761905Y-24359580D01*
X50761905Y-24359580D02*
X50714286Y-24264342D01*
X50714286Y-24264342D02*
X50666667Y-24073866D01*
X50666667Y-24073866D02*
X50666667Y-23835771D01*
X50666667Y-23835771D02*
X50714286Y-23645295D01*
X50714286Y-23645295D02*
X50761905Y-23550057D01*
X50761905Y-23550057D02*
X50809524Y-23502438D01*
X50809524Y-23502438D02*
X50904762Y-23454819D01*
X52238095Y-24454819D02*
X51904762Y-23978628D01*
X51666667Y-24454819D02*
X51666667Y-23454819D01*
X51666667Y-23454819D02*
X52047619Y-23454819D01*
X52047619Y-23454819D02*
X52142857Y-23502438D01*
X52142857Y-23502438D02*
X52190476Y-23550057D01*
X52190476Y-23550057D02*
X52238095Y-23645295D01*
X52238095Y-23645295D02*
X52238095Y-23788152D01*
X52238095Y-23788152D02*
X52190476Y-23883390D01*
X52190476Y-23883390D02*
X52142857Y-23931009D01*
X52142857Y-23931009D02*
X52047619Y-23978628D01*
X52047619Y-23978628D02*
X51666667Y-23978628D01*
D11*
X47107145Y-28724809D02*
X46821431Y-28724809D01*
X46964288Y-28724809D02*
X46964288Y-28224809D01*
X46964288Y-28224809D02*
X46916669Y-28296238D01*
X46916669Y-28296238D02*
X46869050Y-28343857D01*
X46869050Y-28343857D02*
X46821431Y-28367666D01*
X47416668Y-28224809D02*
X47464287Y-28224809D01*
X47464287Y-28224809D02*
X47511906Y-28248619D01*
X47511906Y-28248619D02*
X47535716Y-28272428D01*
X47535716Y-28272428D02*
X47559525Y-28320047D01*
X47559525Y-28320047D02*
X47583335Y-28415285D01*
X47583335Y-28415285D02*
X47583335Y-28534333D01*
X47583335Y-28534333D02*
X47559525Y-28629571D01*
X47559525Y-28629571D02*
X47535716Y-28677190D01*
X47535716Y-28677190D02*
X47511906Y-28701000D01*
X47511906Y-28701000D02*
X47464287Y-28724809D01*
X47464287Y-28724809D02*
X47416668Y-28724809D01*
X47416668Y-28724809D02*
X47369049Y-28701000D01*
X47369049Y-28701000D02*
X47345240Y-28677190D01*
X47345240Y-28677190D02*
X47321430Y-28629571D01*
X47321430Y-28629571D02*
X47297621Y-28534333D01*
X47297621Y-28534333D02*
X47297621Y-28415285D01*
X47297621Y-28415285D02*
X47321430Y-28320047D01*
X47321430Y-28320047D02*
X47345240Y-28272428D01*
X47345240Y-28272428D02*
X47369049Y-28248619D01*
X47369049Y-28248619D02*
X47416668Y-28224809D01*
X47892858Y-28224809D02*
X47940477Y-28224809D01*
X47940477Y-28224809D02*
X47988096Y-28248619D01*
X47988096Y-28248619D02*
X48011906Y-28272428D01*
X48011906Y-28272428D02*
X48035715Y-28320047D01*
X48035715Y-28320047D02*
X48059525Y-28415285D01*
X48059525Y-28415285D02*
X48059525Y-28534333D01*
X48059525Y-28534333D02*
X48035715Y-28629571D01*
X48035715Y-28629571D02*
X48011906Y-28677190D01*
X48011906Y-28677190D02*
X47988096Y-28701000D01*
X47988096Y-28701000D02*
X47940477Y-28724809D01*
X47940477Y-28724809D02*
X47892858Y-28724809D01*
X47892858Y-28724809D02*
X47845239Y-28701000D01*
X47845239Y-28701000D02*
X47821430Y-28677190D01*
X47821430Y-28677190D02*
X47797620Y-28629571D01*
X47797620Y-28629571D02*
X47773811Y-28534333D01*
X47773811Y-28534333D02*
X47773811Y-28415285D01*
X47773811Y-28415285D02*
X47797620Y-28320047D01*
X47797620Y-28320047D02*
X47821430Y-28272428D01*
X47821430Y-28272428D02*
X47845239Y-28248619D01*
X47845239Y-28248619D02*
X47892858Y-28224809D01*
X48369048Y-28224809D02*
X48416667Y-28224809D01*
X48416667Y-28224809D02*
X48464286Y-28248619D01*
X48464286Y-28248619D02*
X48488096Y-28272428D01*
X48488096Y-28272428D02*
X48511905Y-28320047D01*
X48511905Y-28320047D02*
X48535715Y-28415285D01*
X48535715Y-28415285D02*
X48535715Y-28534333D01*
X48535715Y-28534333D02*
X48511905Y-28629571D01*
X48511905Y-28629571D02*
X48488096Y-28677190D01*
X48488096Y-28677190D02*
X48464286Y-28701000D01*
X48464286Y-28701000D02*
X48416667Y-28724809D01*
X48416667Y-28724809D02*
X48369048Y-28724809D01*
X48369048Y-28724809D02*
X48321429Y-28701000D01*
X48321429Y-28701000D02*
X48297620Y-28677190D01*
X48297620Y-28677190D02*
X48273810Y-28629571D01*
X48273810Y-28629571D02*
X48250001Y-28534333D01*
X48250001Y-28534333D02*
X48250001Y-28415285D01*
X48250001Y-28415285D02*
X48273810Y-28320047D01*
X48273810Y-28320047D02*
X48297620Y-28272428D01*
X48297620Y-28272428D02*
X48321429Y-28248619D01*
X48321429Y-28248619D02*
X48369048Y-28224809D01*
X48964286Y-28391476D02*
X48964286Y-28724809D01*
X48750000Y-28391476D02*
X48750000Y-28653380D01*
X48750000Y-28653380D02*
X48773810Y-28701000D01*
X48773810Y-28701000D02*
X48821429Y-28724809D01*
X48821429Y-28724809D02*
X48892857Y-28724809D01*
X48892857Y-28724809D02*
X48940476Y-28701000D01*
X48940476Y-28701000D02*
X48964286Y-28677190D01*
X49369048Y-28462904D02*
X49202381Y-28462904D01*
X49202381Y-28724809D02*
X49202381Y-28224809D01*
X49202381Y-28224809D02*
X49440476Y-28224809D01*
X50273809Y-28724809D02*
X49988095Y-28724809D01*
X50130952Y-28724809D02*
X50130952Y-28224809D01*
X50130952Y-28224809D02*
X50083333Y-28296238D01*
X50083333Y-28296238D02*
X50035714Y-28343857D01*
X50035714Y-28343857D02*
X49988095Y-28367666D01*
X50702380Y-28224809D02*
X50607142Y-28224809D01*
X50607142Y-28224809D02*
X50559523Y-28248619D01*
X50559523Y-28248619D02*
X50535713Y-28272428D01*
X50535713Y-28272428D02*
X50488094Y-28343857D01*
X50488094Y-28343857D02*
X50464285Y-28439095D01*
X50464285Y-28439095D02*
X50464285Y-28629571D01*
X50464285Y-28629571D02*
X50488094Y-28677190D01*
X50488094Y-28677190D02*
X50511904Y-28701000D01*
X50511904Y-28701000D02*
X50559523Y-28724809D01*
X50559523Y-28724809D02*
X50654761Y-28724809D01*
X50654761Y-28724809D02*
X50702380Y-28701000D01*
X50702380Y-28701000D02*
X50726189Y-28677190D01*
X50726189Y-28677190D02*
X50749999Y-28629571D01*
X50749999Y-28629571D02*
X50749999Y-28510523D01*
X50749999Y-28510523D02*
X50726189Y-28462904D01*
X50726189Y-28462904D02*
X50702380Y-28439095D01*
X50702380Y-28439095D02*
X50654761Y-28415285D01*
X50654761Y-28415285D02*
X50559523Y-28415285D01*
X50559523Y-28415285D02*
X50511904Y-28439095D01*
X50511904Y-28439095D02*
X50488094Y-28462904D01*
X50488094Y-28462904D02*
X50464285Y-28510523D01*
X50892856Y-28224809D02*
X51059522Y-28724809D01*
X51059522Y-28724809D02*
X51226189Y-28224809D01*
X57428574Y-28724809D02*
X57142860Y-28724809D01*
X57285717Y-28724809D02*
X57285717Y-28224809D01*
X57285717Y-28224809D02*
X57238098Y-28296238D01*
X57238098Y-28296238D02*
X57190479Y-28343857D01*
X57190479Y-28343857D02*
X57142860Y-28367666D01*
X57738097Y-28224809D02*
X57785716Y-28224809D01*
X57785716Y-28224809D02*
X57833335Y-28248619D01*
X57833335Y-28248619D02*
X57857145Y-28272428D01*
X57857145Y-28272428D02*
X57880954Y-28320047D01*
X57880954Y-28320047D02*
X57904764Y-28415285D01*
X57904764Y-28415285D02*
X57904764Y-28534333D01*
X57904764Y-28534333D02*
X57880954Y-28629571D01*
X57880954Y-28629571D02*
X57857145Y-28677190D01*
X57857145Y-28677190D02*
X57833335Y-28701000D01*
X57833335Y-28701000D02*
X57785716Y-28724809D01*
X57785716Y-28724809D02*
X57738097Y-28724809D01*
X57738097Y-28724809D02*
X57690478Y-28701000D01*
X57690478Y-28701000D02*
X57666669Y-28677190D01*
X57666669Y-28677190D02*
X57642859Y-28629571D01*
X57642859Y-28629571D02*
X57619050Y-28534333D01*
X57619050Y-28534333D02*
X57619050Y-28415285D01*
X57619050Y-28415285D02*
X57642859Y-28320047D01*
X57642859Y-28320047D02*
X57666669Y-28272428D01*
X57666669Y-28272428D02*
X57690478Y-28248619D01*
X57690478Y-28248619D02*
X57738097Y-28224809D01*
X58214287Y-28224809D02*
X58261906Y-28224809D01*
X58261906Y-28224809D02*
X58309525Y-28248619D01*
X58309525Y-28248619D02*
X58333335Y-28272428D01*
X58333335Y-28272428D02*
X58357144Y-28320047D01*
X58357144Y-28320047D02*
X58380954Y-28415285D01*
X58380954Y-28415285D02*
X58380954Y-28534333D01*
X58380954Y-28534333D02*
X58357144Y-28629571D01*
X58357144Y-28629571D02*
X58333335Y-28677190D01*
X58333335Y-28677190D02*
X58309525Y-28701000D01*
X58309525Y-28701000D02*
X58261906Y-28724809D01*
X58261906Y-28724809D02*
X58214287Y-28724809D01*
X58214287Y-28724809D02*
X58166668Y-28701000D01*
X58166668Y-28701000D02*
X58142859Y-28677190D01*
X58142859Y-28677190D02*
X58119049Y-28629571D01*
X58119049Y-28629571D02*
X58095240Y-28534333D01*
X58095240Y-28534333D02*
X58095240Y-28415285D01*
X58095240Y-28415285D02*
X58119049Y-28320047D01*
X58119049Y-28320047D02*
X58142859Y-28272428D01*
X58142859Y-28272428D02*
X58166668Y-28248619D01*
X58166668Y-28248619D02*
X58214287Y-28224809D01*
X58595239Y-28391476D02*
X58595239Y-28724809D01*
X58595239Y-28439095D02*
X58619049Y-28415285D01*
X58619049Y-28415285D02*
X58666668Y-28391476D01*
X58666668Y-28391476D02*
X58738096Y-28391476D01*
X58738096Y-28391476D02*
X58785715Y-28415285D01*
X58785715Y-28415285D02*
X58809525Y-28462904D01*
X58809525Y-28462904D02*
X58809525Y-28724809D01*
X59214287Y-28462904D02*
X59047620Y-28462904D01*
X59047620Y-28724809D02*
X59047620Y-28224809D01*
X59047620Y-28224809D02*
X59285715Y-28224809D01*
X60095238Y-28224809D02*
X59857143Y-28224809D01*
X59857143Y-28224809D02*
X59833334Y-28462904D01*
X59833334Y-28462904D02*
X59857143Y-28439095D01*
X59857143Y-28439095D02*
X59904762Y-28415285D01*
X59904762Y-28415285D02*
X60023810Y-28415285D01*
X60023810Y-28415285D02*
X60071429Y-28439095D01*
X60071429Y-28439095D02*
X60095238Y-28462904D01*
X60095238Y-28462904D02*
X60119048Y-28510523D01*
X60119048Y-28510523D02*
X60119048Y-28629571D01*
X60119048Y-28629571D02*
X60095238Y-28677190D01*
X60095238Y-28677190D02*
X60071429Y-28701000D01*
X60071429Y-28701000D02*
X60023810Y-28724809D01*
X60023810Y-28724809D02*
X59904762Y-28724809D01*
X59904762Y-28724809D02*
X59857143Y-28701000D01*
X59857143Y-28701000D02*
X59833334Y-28677190D01*
X60428571Y-28224809D02*
X60476190Y-28224809D01*
X60476190Y-28224809D02*
X60523809Y-28248619D01*
X60523809Y-28248619D02*
X60547619Y-28272428D01*
X60547619Y-28272428D02*
X60571428Y-28320047D01*
X60571428Y-28320047D02*
X60595238Y-28415285D01*
X60595238Y-28415285D02*
X60595238Y-28534333D01*
X60595238Y-28534333D02*
X60571428Y-28629571D01*
X60571428Y-28629571D02*
X60547619Y-28677190D01*
X60547619Y-28677190D02*
X60523809Y-28701000D01*
X60523809Y-28701000D02*
X60476190Y-28724809D01*
X60476190Y-28724809D02*
X60428571Y-28724809D01*
X60428571Y-28724809D02*
X60380952Y-28701000D01*
X60380952Y-28701000D02*
X60357143Y-28677190D01*
X60357143Y-28677190D02*
X60333333Y-28629571D01*
X60333333Y-28629571D02*
X60309524Y-28534333D01*
X60309524Y-28534333D02*
X60309524Y-28415285D01*
X60309524Y-28415285D02*
X60333333Y-28320047D01*
X60333333Y-28320047D02*
X60357143Y-28272428D01*
X60357143Y-28272428D02*
X60380952Y-28248619D01*
X60380952Y-28248619D02*
X60428571Y-28224809D01*
X60738095Y-28224809D02*
X60904761Y-28724809D01*
X60904761Y-28724809D02*
X61071428Y-28224809D01*
X61571427Y-28224809D02*
X61904760Y-28724809D01*
X61904760Y-28224809D02*
X61571427Y-28724809D01*
X62047617Y-28224809D02*
X62380950Y-28224809D01*
X62380950Y-28224809D02*
X62166665Y-28724809D01*
X62857140Y-28724809D02*
X62690474Y-28486714D01*
X62571426Y-28724809D02*
X62571426Y-28224809D01*
X62571426Y-28224809D02*
X62761902Y-28224809D01*
X62761902Y-28224809D02*
X62809521Y-28248619D01*
X62809521Y-28248619D02*
X62833331Y-28272428D01*
X62833331Y-28272428D02*
X62857140Y-28320047D01*
X62857140Y-28320047D02*
X62857140Y-28391476D01*
X62857140Y-28391476D02*
X62833331Y-28439095D01*
X62833331Y-28439095D02*
X62809521Y-28462904D01*
X62809521Y-28462904D02*
X62761902Y-28486714D01*
X62761902Y-28486714D02*
X62571426Y-28486714D01*
M02*
