%TF.GenerationSoftware,KiCad,Pcbnew,10.0.4*%
%TF.CreationDate,2026-08-14T14:11:39-05:00*%
%TF.ProjectId,Derek_CAN_v4,44657265-6b5f-4434-914e-5f76342e6b69,rev?*%
%TF.SameCoordinates,Original*%
%TF.FileFunction,AssemblyDrawing,Top*%
%FSLAX46Y46*%
G04 Gerber Fmt 4.6, Leading zero omitted, Abs format (unit mm)*
G04 Created by KiCad (PCBNEW 10.0.4) date 2026-08-14 14:11:39*
%MOMM*%
%LPD*%
G01*
G04 APERTURE LIST*
%ADD10C,0.125000*%
%ADD11C,0.150000*%
%ADD12C,0.100000*%
%ADD13C,0.120000*%
G04 APERTURE END LIST*
D10*
X60428574Y-27974809D02*
X60142860Y-27974809D01*
X60285717Y-27974809D02*
X60285717Y-27474809D01*
X60285717Y-27474809D02*
X60238098Y-27546238D01*
X60238098Y-27546238D02*
X60190479Y-27593857D01*
X60190479Y-27593857D02*
X60142860Y-27617666D01*
X60738097Y-27474809D02*
X60785716Y-27474809D01*
X60785716Y-27474809D02*
X60833335Y-27498619D01*
X60833335Y-27498619D02*
X60857145Y-27522428D01*
X60857145Y-27522428D02*
X60880954Y-27570047D01*
X60880954Y-27570047D02*
X60904764Y-27665285D01*
X60904764Y-27665285D02*
X60904764Y-27784333D01*
X60904764Y-27784333D02*
X60880954Y-27879571D01*
X60880954Y-27879571D02*
X60857145Y-27927190D01*
X60857145Y-27927190D02*
X60833335Y-27951000D01*
X60833335Y-27951000D02*
X60785716Y-27974809D01*
X60785716Y-27974809D02*
X60738097Y-27974809D01*
X60738097Y-27974809D02*
X60690478Y-27951000D01*
X60690478Y-27951000D02*
X60666669Y-27927190D01*
X60666669Y-27927190D02*
X60642859Y-27879571D01*
X60642859Y-27879571D02*
X60619050Y-27784333D01*
X60619050Y-27784333D02*
X60619050Y-27665285D01*
X60619050Y-27665285D02*
X60642859Y-27570047D01*
X60642859Y-27570047D02*
X60666669Y-27522428D01*
X60666669Y-27522428D02*
X60690478Y-27498619D01*
X60690478Y-27498619D02*
X60738097Y-27474809D01*
X61214287Y-27474809D02*
X61261906Y-27474809D01*
X61261906Y-27474809D02*
X61309525Y-27498619D01*
X61309525Y-27498619D02*
X61333335Y-27522428D01*
X61333335Y-27522428D02*
X61357144Y-27570047D01*
X61357144Y-27570047D02*
X61380954Y-27665285D01*
X61380954Y-27665285D02*
X61380954Y-27784333D01*
X61380954Y-27784333D02*
X61357144Y-27879571D01*
X61357144Y-27879571D02*
X61333335Y-27927190D01*
X61333335Y-27927190D02*
X61309525Y-27951000D01*
X61309525Y-27951000D02*
X61261906Y-27974809D01*
X61261906Y-27974809D02*
X61214287Y-27974809D01*
X61214287Y-27974809D02*
X61166668Y-27951000D01*
X61166668Y-27951000D02*
X61142859Y-27927190D01*
X61142859Y-27927190D02*
X61119049Y-27879571D01*
X61119049Y-27879571D02*
X61095240Y-27784333D01*
X61095240Y-27784333D02*
X61095240Y-27665285D01*
X61095240Y-27665285D02*
X61119049Y-27570047D01*
X61119049Y-27570047D02*
X61142859Y-27522428D01*
X61142859Y-27522428D02*
X61166668Y-27498619D01*
X61166668Y-27498619D02*
X61214287Y-27474809D01*
X61595239Y-27641476D02*
X61595239Y-27974809D01*
X61595239Y-27689095D02*
X61619049Y-27665285D01*
X61619049Y-27665285D02*
X61666668Y-27641476D01*
X61666668Y-27641476D02*
X61738096Y-27641476D01*
X61738096Y-27641476D02*
X61785715Y-27665285D01*
X61785715Y-27665285D02*
X61809525Y-27712904D01*
X61809525Y-27712904D02*
X61809525Y-27974809D01*
X62214287Y-27712904D02*
X62047620Y-27712904D01*
X62047620Y-27974809D02*
X62047620Y-27474809D01*
X62047620Y-27474809D02*
X62285715Y-27474809D01*
X63095238Y-27474809D02*
X62857143Y-27474809D01*
X62857143Y-27474809D02*
X62833334Y-27712904D01*
X62833334Y-27712904D02*
X62857143Y-27689095D01*
X62857143Y-27689095D02*
X62904762Y-27665285D01*
X62904762Y-27665285D02*
X63023810Y-27665285D01*
X63023810Y-27665285D02*
X63071429Y-27689095D01*
X63071429Y-27689095D02*
X63095238Y-27712904D01*
X63095238Y-27712904D02*
X63119048Y-27760523D01*
X63119048Y-27760523D02*
X63119048Y-27879571D01*
X63119048Y-27879571D02*
X63095238Y-27927190D01*
X63095238Y-27927190D02*
X63071429Y-27951000D01*
X63071429Y-27951000D02*
X63023810Y-27974809D01*
X63023810Y-27974809D02*
X62904762Y-27974809D01*
X62904762Y-27974809D02*
X62857143Y-27951000D01*
X62857143Y-27951000D02*
X62833334Y-27927190D01*
X63428571Y-27474809D02*
X63476190Y-27474809D01*
X63476190Y-27474809D02*
X63523809Y-27498619D01*
X63523809Y-27498619D02*
X63547619Y-27522428D01*
X63547619Y-27522428D02*
X63571428Y-27570047D01*
X63571428Y-27570047D02*
X63595238Y-27665285D01*
X63595238Y-27665285D02*
X63595238Y-27784333D01*
X63595238Y-27784333D02*
X63571428Y-27879571D01*
X63571428Y-27879571D02*
X63547619Y-27927190D01*
X63547619Y-27927190D02*
X63523809Y-27951000D01*
X63523809Y-27951000D02*
X63476190Y-27974809D01*
X63476190Y-27974809D02*
X63428571Y-27974809D01*
X63428571Y-27974809D02*
X63380952Y-27951000D01*
X63380952Y-27951000D02*
X63357143Y-27927190D01*
X63357143Y-27927190D02*
X63333333Y-27879571D01*
X63333333Y-27879571D02*
X63309524Y-27784333D01*
X63309524Y-27784333D02*
X63309524Y-27665285D01*
X63309524Y-27665285D02*
X63333333Y-27570047D01*
X63333333Y-27570047D02*
X63357143Y-27522428D01*
X63357143Y-27522428D02*
X63380952Y-27498619D01*
X63380952Y-27498619D02*
X63428571Y-27474809D01*
X63738095Y-27474809D02*
X63904761Y-27974809D01*
X63904761Y-27974809D02*
X64071428Y-27474809D01*
X64571427Y-27474809D02*
X64904760Y-27974809D01*
X64904760Y-27474809D02*
X64571427Y-27974809D01*
X65047617Y-27474809D02*
X65380950Y-27474809D01*
X65380950Y-27474809D02*
X65166665Y-27974809D01*
X65857140Y-27974809D02*
X65690474Y-27736714D01*
X65571426Y-27974809D02*
X65571426Y-27474809D01*
X65571426Y-27474809D02*
X65761902Y-27474809D01*
X65761902Y-27474809D02*
X65809521Y-27498619D01*
X65809521Y-27498619D02*
X65833331Y-27522428D01*
X65833331Y-27522428D02*
X65857140Y-27570047D01*
X65857140Y-27570047D02*
X65857140Y-27641476D01*
X65857140Y-27641476D02*
X65833331Y-27689095D01*
X65833331Y-27689095D02*
X65809521Y-27712904D01*
X65809521Y-27712904D02*
X65761902Y-27736714D01*
X65761902Y-27736714D02*
X65571426Y-27736714D01*
D11*
X70839164Y-37624999D02*
X70839164Y-37982142D01*
X70839164Y-37982142D02*
X70089164Y-37982142D01*
X70839164Y-37374999D02*
X70089164Y-37374999D01*
X70446307Y-36767856D02*
X70446307Y-37017856D01*
X70839164Y-37017856D02*
X70089164Y-37017856D01*
X70089164Y-37017856D02*
X70089164Y-36660713D01*
X70089164Y-36482142D02*
X70089164Y-36053571D01*
X70839164Y-36267856D02*
X70089164Y-36267856D01*
X70910592Y-35982142D02*
X70910592Y-35410713D01*
X70803450Y-35267855D02*
X70839164Y-35160713D01*
X70839164Y-35160713D02*
X70839164Y-34982141D01*
X70839164Y-34982141D02*
X70803450Y-34910713D01*
X70803450Y-34910713D02*
X70767735Y-34874998D01*
X70767735Y-34874998D02*
X70696307Y-34839284D01*
X70696307Y-34839284D02*
X70624878Y-34839284D01*
X70624878Y-34839284D02*
X70553450Y-34874998D01*
X70553450Y-34874998D02*
X70517735Y-34910713D01*
X70517735Y-34910713D02*
X70482021Y-34982141D01*
X70482021Y-34982141D02*
X70446307Y-35124998D01*
X70446307Y-35124998D02*
X70410592Y-35196427D01*
X70410592Y-35196427D02*
X70374878Y-35232141D01*
X70374878Y-35232141D02*
X70303450Y-35267855D01*
X70303450Y-35267855D02*
X70232021Y-35267855D01*
X70232021Y-35267855D02*
X70160592Y-35232141D01*
X70160592Y-35232141D02*
X70124878Y-35196427D01*
X70124878Y-35196427D02*
X70089164Y-35124998D01*
X70089164Y-35124998D02*
X70089164Y-34946427D01*
X70089164Y-34946427D02*
X70124878Y-34839284D01*
X70446307Y-34517855D02*
X70446307Y-34267855D01*
X70839164Y-34160712D02*
X70839164Y-34517855D01*
X70839164Y-34517855D02*
X70089164Y-34517855D01*
X70089164Y-34517855D02*
X70089164Y-34160712D01*
X70839164Y-33410713D02*
X70482021Y-33660713D01*
X70839164Y-33839284D02*
X70089164Y-33839284D01*
X70089164Y-33839284D02*
X70089164Y-33553570D01*
X70089164Y-33553570D02*
X70124878Y-33482141D01*
X70124878Y-33482141D02*
X70160592Y-33446427D01*
X70160592Y-33446427D02*
X70232021Y-33410713D01*
X70232021Y-33410713D02*
X70339164Y-33410713D01*
X70339164Y-33410713D02*
X70410592Y-33446427D01*
X70410592Y-33446427D02*
X70446307Y-33482141D01*
X70446307Y-33482141D02*
X70482021Y-33553570D01*
X70482021Y-33553570D02*
X70482021Y-33839284D01*
X70089164Y-33196427D02*
X70839164Y-32946427D01*
X70839164Y-32946427D02*
X70089164Y-32696427D01*
X70089164Y-32303570D02*
X70089164Y-32160713D01*
X70089164Y-32160713D02*
X70124878Y-32089284D01*
X70124878Y-32089284D02*
X70196307Y-32017856D01*
X70196307Y-32017856D02*
X70339164Y-31982141D01*
X70339164Y-31982141D02*
X70589164Y-31982141D01*
X70589164Y-31982141D02*
X70732021Y-32017856D01*
X70732021Y-32017856D02*
X70803450Y-32089284D01*
X70803450Y-32089284D02*
X70839164Y-32160713D01*
X70839164Y-32160713D02*
X70839164Y-32303570D01*
X70839164Y-32303570D02*
X70803450Y-32374999D01*
X70803450Y-32374999D02*
X70732021Y-32446427D01*
X70732021Y-32446427D02*
X70589164Y-32482141D01*
X70589164Y-32482141D02*
X70339164Y-32482141D01*
X70339164Y-32482141D02*
X70196307Y-32446427D01*
X70196307Y-32446427D02*
X70124878Y-32374999D01*
X70124878Y-32374999D02*
X70089164Y-32303570D01*
X33851009Y-42296666D02*
X33851009Y-42629999D01*
X34374819Y-42629999D02*
X33374819Y-42629999D01*
X33374819Y-42629999D02*
X33374819Y-42153809D01*
X34374819Y-41772856D02*
X33374819Y-41772856D01*
X33374819Y-41772856D02*
X34089104Y-41439523D01*
X34089104Y-41439523D02*
X33374819Y-41106190D01*
X33374819Y-41106190D02*
X34374819Y-41106190D01*
X34374819Y-40629999D02*
X33374819Y-40629999D01*
X33851009Y-40629999D02*
X33851009Y-40058571D01*
X34374819Y-40058571D02*
X33374819Y-40058571D01*
X33374819Y-39677618D02*
X34374819Y-39010952D01*
X33374819Y-39010952D02*
X34374819Y-39677618D01*
X33422438Y-38106190D02*
X33374819Y-38201428D01*
X33374819Y-38201428D02*
X33374819Y-38344285D01*
X33374819Y-38344285D02*
X33422438Y-38487142D01*
X33422438Y-38487142D02*
X33517676Y-38582380D01*
X33517676Y-38582380D02*
X33612914Y-38629999D01*
X33612914Y-38629999D02*
X33803390Y-38677618D01*
X33803390Y-38677618D02*
X33946247Y-38677618D01*
X33946247Y-38677618D02*
X34136723Y-38629999D01*
X34136723Y-38629999D02*
X34231961Y-38582380D01*
X34231961Y-38582380D02*
X34327200Y-38487142D01*
X34327200Y-38487142D02*
X34374819Y-38344285D01*
X34374819Y-38344285D02*
X34374819Y-38249047D01*
X34374819Y-38249047D02*
X34327200Y-38106190D01*
X34327200Y-38106190D02*
X34279580Y-38058571D01*
X34279580Y-38058571D02*
X33946247Y-38058571D01*
X33946247Y-38058571D02*
X33946247Y-38249047D01*
X34470057Y-37868095D02*
X34470057Y-37106190D01*
X34374819Y-36296666D02*
X33898628Y-36629999D01*
X34374819Y-36868094D02*
X33374819Y-36868094D01*
X33374819Y-36868094D02*
X33374819Y-36487142D01*
X33374819Y-36487142D02*
X33422438Y-36391904D01*
X33422438Y-36391904D02*
X33470057Y-36344285D01*
X33470057Y-36344285D02*
X33565295Y-36296666D01*
X33565295Y-36296666D02*
X33708152Y-36296666D01*
X33708152Y-36296666D02*
X33803390Y-36344285D01*
X33803390Y-36344285D02*
X33851009Y-36391904D01*
X33851009Y-36391904D02*
X33898628Y-36487142D01*
X33898628Y-36487142D02*
X33898628Y-36868094D01*
X33374819Y-35582380D02*
X34089104Y-35582380D01*
X34089104Y-35582380D02*
X34231961Y-35629999D01*
X34231961Y-35629999D02*
X34327200Y-35725237D01*
X34327200Y-35725237D02*
X34374819Y-35868094D01*
X34374819Y-35868094D02*
X34374819Y-35963332D01*
X33708152Y-34677618D02*
X34374819Y-34677618D01*
X33327200Y-34915713D02*
X34041485Y-35153808D01*
X34041485Y-35153808D02*
X34041485Y-34534761D01*
X33374819Y-33677618D02*
X33374819Y-34153808D01*
X33374819Y-34153808D02*
X33851009Y-34201427D01*
X33851009Y-34201427D02*
X33803390Y-34153808D01*
X33803390Y-34153808D02*
X33755771Y-34058570D01*
X33755771Y-34058570D02*
X33755771Y-33820475D01*
X33755771Y-33820475D02*
X33803390Y-33725237D01*
X33803390Y-33725237D02*
X33851009Y-33677618D01*
X33851009Y-33677618D02*
X33946247Y-33629999D01*
X33946247Y-33629999D02*
X34184342Y-33629999D01*
X34184342Y-33629999D02*
X34279580Y-33677618D01*
X34279580Y-33677618D02*
X34327200Y-33725237D01*
X34327200Y-33725237D02*
X34374819Y-33820475D01*
X34374819Y-33820475D02*
X34374819Y-34058570D01*
X34374819Y-34058570D02*
X34327200Y-34153808D01*
X34327200Y-34153808D02*
X34279580Y-34201427D01*
X34374819Y-33201427D02*
X33374819Y-33201427D01*
X33374819Y-33201427D02*
X34374819Y-32629999D01*
X34374819Y-32629999D02*
X33374819Y-32629999D01*
X34374819Y-32153808D02*
X33374819Y-32153808D01*
X33374819Y-32153808D02*
X34089104Y-31820475D01*
X34089104Y-31820475D02*
X33374819Y-31487142D01*
X33374819Y-31487142D02*
X34374819Y-31487142D01*
X34279580Y-30439523D02*
X34327200Y-30487142D01*
X34327200Y-30487142D02*
X34374819Y-30629999D01*
X34374819Y-30629999D02*
X34374819Y-30725237D01*
X34374819Y-30725237D02*
X34327200Y-30868094D01*
X34327200Y-30868094D02*
X34231961Y-30963332D01*
X34231961Y-30963332D02*
X34136723Y-31010951D01*
X34136723Y-31010951D02*
X33946247Y-31058570D01*
X33946247Y-31058570D02*
X33803390Y-31058570D01*
X33803390Y-31058570D02*
X33612914Y-31010951D01*
X33612914Y-31010951D02*
X33517676Y-30963332D01*
X33517676Y-30963332D02*
X33422438Y-30868094D01*
X33422438Y-30868094D02*
X33374819Y-30725237D01*
X33374819Y-30725237D02*
X33374819Y-30629999D01*
X33374819Y-30629999D02*
X33422438Y-30487142D01*
X33422438Y-30487142D02*
X33470057Y-30439523D01*
X34279580Y-29439523D02*
X34327200Y-29487142D01*
X34327200Y-29487142D02*
X34374819Y-29629999D01*
X34374819Y-29629999D02*
X34374819Y-29725237D01*
X34374819Y-29725237D02*
X34327200Y-29868094D01*
X34327200Y-29868094D02*
X34231961Y-29963332D01*
X34231961Y-29963332D02*
X34136723Y-30010951D01*
X34136723Y-30010951D02*
X33946247Y-30058570D01*
X33946247Y-30058570D02*
X33803390Y-30058570D01*
X33803390Y-30058570D02*
X33612914Y-30010951D01*
X33612914Y-30010951D02*
X33517676Y-29963332D01*
X33517676Y-29963332D02*
X33422438Y-29868094D01*
X33422438Y-29868094D02*
X33374819Y-29725237D01*
X33374819Y-29725237D02*
X33374819Y-29629999D01*
X33374819Y-29629999D02*
X33422438Y-29487142D01*
X33422438Y-29487142D02*
X33470057Y-29439523D01*
X33851009Y-28677618D02*
X33851009Y-29010951D01*
X34374819Y-29010951D02*
X33374819Y-29010951D01*
X33374819Y-29010951D02*
X33374819Y-28534761D01*
X34279580Y-27582380D02*
X34327200Y-27629999D01*
X34327200Y-27629999D02*
X34374819Y-27772856D01*
X34374819Y-27772856D02*
X34374819Y-27868094D01*
X34374819Y-27868094D02*
X34327200Y-28010951D01*
X34327200Y-28010951D02*
X34231961Y-28106189D01*
X34231961Y-28106189D02*
X34136723Y-28153808D01*
X34136723Y-28153808D02*
X33946247Y-28201427D01*
X33946247Y-28201427D02*
X33803390Y-28201427D01*
X33803390Y-28201427D02*
X33612914Y-28153808D01*
X33612914Y-28153808D02*
X33517676Y-28106189D01*
X33517676Y-28106189D02*
X33422438Y-28010951D01*
X33422438Y-28010951D02*
X33374819Y-27868094D01*
X33374819Y-27868094D02*
X33374819Y-27772856D01*
X33374819Y-27772856D02*
X33422438Y-27629999D01*
X33422438Y-27629999D02*
X33470057Y-27582380D01*
X29564819Y-35573333D02*
X30279104Y-35573333D01*
X30279104Y-35573333D02*
X30421961Y-35620952D01*
X30421961Y-35620952D02*
X30517200Y-35716190D01*
X30517200Y-35716190D02*
X30564819Y-35859047D01*
X30564819Y-35859047D02*
X30564819Y-35954285D01*
X30564819Y-34573333D02*
X30564819Y-35144761D01*
X30564819Y-34859047D02*
X29564819Y-34859047D01*
X29564819Y-34859047D02*
X29707676Y-34954285D01*
X29707676Y-34954285D02*
X29802914Y-35049523D01*
X29802914Y-35049523D02*
X29850533Y-35144761D01*
D10*
X47107145Y-21724809D02*
X46821431Y-21724809D01*
X46964288Y-21724809D02*
X46964288Y-21224809D01*
X46964288Y-21224809D02*
X46916669Y-21296238D01*
X46916669Y-21296238D02*
X46869050Y-21343857D01*
X46869050Y-21343857D02*
X46821431Y-21367666D01*
X47416668Y-21224809D02*
X47464287Y-21224809D01*
X47464287Y-21224809D02*
X47511906Y-21248619D01*
X47511906Y-21248619D02*
X47535716Y-21272428D01*
X47535716Y-21272428D02*
X47559525Y-21320047D01*
X47559525Y-21320047D02*
X47583335Y-21415285D01*
X47583335Y-21415285D02*
X47583335Y-21534333D01*
X47583335Y-21534333D02*
X47559525Y-21629571D01*
X47559525Y-21629571D02*
X47535716Y-21677190D01*
X47535716Y-21677190D02*
X47511906Y-21701000D01*
X47511906Y-21701000D02*
X47464287Y-21724809D01*
X47464287Y-21724809D02*
X47416668Y-21724809D01*
X47416668Y-21724809D02*
X47369049Y-21701000D01*
X47369049Y-21701000D02*
X47345240Y-21677190D01*
X47345240Y-21677190D02*
X47321430Y-21629571D01*
X47321430Y-21629571D02*
X47297621Y-21534333D01*
X47297621Y-21534333D02*
X47297621Y-21415285D01*
X47297621Y-21415285D02*
X47321430Y-21320047D01*
X47321430Y-21320047D02*
X47345240Y-21272428D01*
X47345240Y-21272428D02*
X47369049Y-21248619D01*
X47369049Y-21248619D02*
X47416668Y-21224809D01*
X47892858Y-21224809D02*
X47940477Y-21224809D01*
X47940477Y-21224809D02*
X47988096Y-21248619D01*
X47988096Y-21248619D02*
X48011906Y-21272428D01*
X48011906Y-21272428D02*
X48035715Y-21320047D01*
X48035715Y-21320047D02*
X48059525Y-21415285D01*
X48059525Y-21415285D02*
X48059525Y-21534333D01*
X48059525Y-21534333D02*
X48035715Y-21629571D01*
X48035715Y-21629571D02*
X48011906Y-21677190D01*
X48011906Y-21677190D02*
X47988096Y-21701000D01*
X47988096Y-21701000D02*
X47940477Y-21724809D01*
X47940477Y-21724809D02*
X47892858Y-21724809D01*
X47892858Y-21724809D02*
X47845239Y-21701000D01*
X47845239Y-21701000D02*
X47821430Y-21677190D01*
X47821430Y-21677190D02*
X47797620Y-21629571D01*
X47797620Y-21629571D02*
X47773811Y-21534333D01*
X47773811Y-21534333D02*
X47773811Y-21415285D01*
X47773811Y-21415285D02*
X47797620Y-21320047D01*
X47797620Y-21320047D02*
X47821430Y-21272428D01*
X47821430Y-21272428D02*
X47845239Y-21248619D01*
X47845239Y-21248619D02*
X47892858Y-21224809D01*
X48369048Y-21224809D02*
X48416667Y-21224809D01*
X48416667Y-21224809D02*
X48464286Y-21248619D01*
X48464286Y-21248619D02*
X48488096Y-21272428D01*
X48488096Y-21272428D02*
X48511905Y-21320047D01*
X48511905Y-21320047D02*
X48535715Y-21415285D01*
X48535715Y-21415285D02*
X48535715Y-21534333D01*
X48535715Y-21534333D02*
X48511905Y-21629571D01*
X48511905Y-21629571D02*
X48488096Y-21677190D01*
X48488096Y-21677190D02*
X48464286Y-21701000D01*
X48464286Y-21701000D02*
X48416667Y-21724809D01*
X48416667Y-21724809D02*
X48369048Y-21724809D01*
X48369048Y-21724809D02*
X48321429Y-21701000D01*
X48321429Y-21701000D02*
X48297620Y-21677190D01*
X48297620Y-21677190D02*
X48273810Y-21629571D01*
X48273810Y-21629571D02*
X48250001Y-21534333D01*
X48250001Y-21534333D02*
X48250001Y-21415285D01*
X48250001Y-21415285D02*
X48273810Y-21320047D01*
X48273810Y-21320047D02*
X48297620Y-21272428D01*
X48297620Y-21272428D02*
X48321429Y-21248619D01*
X48321429Y-21248619D02*
X48369048Y-21224809D01*
X48964286Y-21391476D02*
X48964286Y-21724809D01*
X48750000Y-21391476D02*
X48750000Y-21653380D01*
X48750000Y-21653380D02*
X48773810Y-21701000D01*
X48773810Y-21701000D02*
X48821429Y-21724809D01*
X48821429Y-21724809D02*
X48892857Y-21724809D01*
X48892857Y-21724809D02*
X48940476Y-21701000D01*
X48940476Y-21701000D02*
X48964286Y-21677190D01*
X49369048Y-21462904D02*
X49202381Y-21462904D01*
X49202381Y-21724809D02*
X49202381Y-21224809D01*
X49202381Y-21224809D02*
X49440476Y-21224809D01*
X50273809Y-21724809D02*
X49988095Y-21724809D01*
X50130952Y-21724809D02*
X50130952Y-21224809D01*
X50130952Y-21224809D02*
X50083333Y-21296238D01*
X50083333Y-21296238D02*
X50035714Y-21343857D01*
X50035714Y-21343857D02*
X49988095Y-21367666D01*
X50702380Y-21224809D02*
X50607142Y-21224809D01*
X50607142Y-21224809D02*
X50559523Y-21248619D01*
X50559523Y-21248619D02*
X50535713Y-21272428D01*
X50535713Y-21272428D02*
X50488094Y-21343857D01*
X50488094Y-21343857D02*
X50464285Y-21439095D01*
X50464285Y-21439095D02*
X50464285Y-21629571D01*
X50464285Y-21629571D02*
X50488094Y-21677190D01*
X50488094Y-21677190D02*
X50511904Y-21701000D01*
X50511904Y-21701000D02*
X50559523Y-21724809D01*
X50559523Y-21724809D02*
X50654761Y-21724809D01*
X50654761Y-21724809D02*
X50702380Y-21701000D01*
X50702380Y-21701000D02*
X50726189Y-21677190D01*
X50726189Y-21677190D02*
X50749999Y-21629571D01*
X50749999Y-21629571D02*
X50749999Y-21510523D01*
X50749999Y-21510523D02*
X50726189Y-21462904D01*
X50726189Y-21462904D02*
X50702380Y-21439095D01*
X50702380Y-21439095D02*
X50654761Y-21415285D01*
X50654761Y-21415285D02*
X50559523Y-21415285D01*
X50559523Y-21415285D02*
X50511904Y-21439095D01*
X50511904Y-21439095D02*
X50488094Y-21462904D01*
X50488094Y-21462904D02*
X50464285Y-21510523D01*
X50892856Y-21224809D02*
X51059522Y-21724809D01*
X51059522Y-21724809D02*
X51226189Y-21224809D01*
X59285714Y-41224809D02*
X59285714Y-41581952D01*
X59285714Y-41581952D02*
X59261905Y-41653380D01*
X59261905Y-41653380D02*
X59214286Y-41701000D01*
X59214286Y-41701000D02*
X59142857Y-41724809D01*
X59142857Y-41724809D02*
X59095238Y-41724809D01*
X59500000Y-41701000D02*
X59571428Y-41724809D01*
X59571428Y-41724809D02*
X59690476Y-41724809D01*
X59690476Y-41724809D02*
X59738095Y-41701000D01*
X59738095Y-41701000D02*
X59761904Y-41677190D01*
X59761904Y-41677190D02*
X59785714Y-41629571D01*
X59785714Y-41629571D02*
X59785714Y-41581952D01*
X59785714Y-41581952D02*
X59761904Y-41534333D01*
X59761904Y-41534333D02*
X59738095Y-41510523D01*
X59738095Y-41510523D02*
X59690476Y-41486714D01*
X59690476Y-41486714D02*
X59595238Y-41462904D01*
X59595238Y-41462904D02*
X59547619Y-41439095D01*
X59547619Y-41439095D02*
X59523809Y-41415285D01*
X59523809Y-41415285D02*
X59500000Y-41367666D01*
X59500000Y-41367666D02*
X59500000Y-41320047D01*
X59500000Y-41320047D02*
X59523809Y-41272428D01*
X59523809Y-41272428D02*
X59547619Y-41248619D01*
X59547619Y-41248619D02*
X59595238Y-41224809D01*
X59595238Y-41224809D02*
X59714285Y-41224809D01*
X59714285Y-41224809D02*
X59785714Y-41248619D01*
X59928571Y-41224809D02*
X60214285Y-41224809D01*
X60071428Y-41724809D02*
X60071428Y-41224809D01*
X60380951Y-41534333D02*
X60761904Y-41534333D01*
X60952380Y-41224809D02*
X61285713Y-41724809D01*
X61285713Y-41224809D02*
X60952380Y-41724809D01*
X61476189Y-41724809D02*
X61476189Y-41224809D01*
X61476189Y-41462904D02*
X61761903Y-41462904D01*
X61761903Y-41724809D02*
X61761903Y-41224809D01*
X61999999Y-41534333D02*
X62380952Y-41534333D01*
X62571428Y-41224809D02*
X62880952Y-41224809D01*
X62880952Y-41224809D02*
X62714285Y-41415285D01*
X62714285Y-41415285D02*
X62785714Y-41415285D01*
X62785714Y-41415285D02*
X62833333Y-41439095D01*
X62833333Y-41439095D02*
X62857142Y-41462904D01*
X62857142Y-41462904D02*
X62880952Y-41510523D01*
X62880952Y-41510523D02*
X62880952Y-41629571D01*
X62880952Y-41629571D02*
X62857142Y-41677190D01*
X62857142Y-41677190D02*
X62833333Y-41701000D01*
X62833333Y-41701000D02*
X62785714Y-41724809D01*
X62785714Y-41724809D02*
X62642857Y-41724809D01*
X62642857Y-41724809D02*
X62595238Y-41701000D01*
X62595238Y-41701000D02*
X62571428Y-41677190D01*
X47285714Y-36724809D02*
X47285714Y-37081952D01*
X47285714Y-37081952D02*
X47261905Y-37153380D01*
X47261905Y-37153380D02*
X47214286Y-37201000D01*
X47214286Y-37201000D02*
X47142857Y-37224809D01*
X47142857Y-37224809D02*
X47095238Y-37224809D01*
X47500000Y-37201000D02*
X47571428Y-37224809D01*
X47571428Y-37224809D02*
X47690476Y-37224809D01*
X47690476Y-37224809D02*
X47738095Y-37201000D01*
X47738095Y-37201000D02*
X47761904Y-37177190D01*
X47761904Y-37177190D02*
X47785714Y-37129571D01*
X47785714Y-37129571D02*
X47785714Y-37081952D01*
X47785714Y-37081952D02*
X47761904Y-37034333D01*
X47761904Y-37034333D02*
X47738095Y-37010523D01*
X47738095Y-37010523D02*
X47690476Y-36986714D01*
X47690476Y-36986714D02*
X47595238Y-36962904D01*
X47595238Y-36962904D02*
X47547619Y-36939095D01*
X47547619Y-36939095D02*
X47523809Y-36915285D01*
X47523809Y-36915285D02*
X47500000Y-36867666D01*
X47500000Y-36867666D02*
X47500000Y-36820047D01*
X47500000Y-36820047D02*
X47523809Y-36772428D01*
X47523809Y-36772428D02*
X47547619Y-36748619D01*
X47547619Y-36748619D02*
X47595238Y-36724809D01*
X47595238Y-36724809D02*
X47714285Y-36724809D01*
X47714285Y-36724809D02*
X47785714Y-36748619D01*
X47928571Y-36724809D02*
X48214285Y-36724809D01*
X48071428Y-37224809D02*
X48071428Y-36724809D01*
X48380951Y-37034333D02*
X48761904Y-37034333D01*
X48952380Y-36724809D02*
X49285713Y-37224809D01*
X49285713Y-36724809D02*
X48952380Y-37224809D01*
X49476189Y-37224809D02*
X49476189Y-36724809D01*
X49476189Y-36962904D02*
X49761903Y-36962904D01*
X49761903Y-37224809D02*
X49761903Y-36724809D01*
X49999999Y-37034333D02*
X50380952Y-37034333D01*
X50571428Y-36724809D02*
X50880952Y-36724809D01*
X50880952Y-36724809D02*
X50714285Y-36915285D01*
X50714285Y-36915285D02*
X50785714Y-36915285D01*
X50785714Y-36915285D02*
X50833333Y-36939095D01*
X50833333Y-36939095D02*
X50857142Y-36962904D01*
X50857142Y-36962904D02*
X50880952Y-37010523D01*
X50880952Y-37010523D02*
X50880952Y-37129571D01*
X50880952Y-37129571D02*
X50857142Y-37177190D01*
X50857142Y-37177190D02*
X50833333Y-37201000D01*
X50833333Y-37201000D02*
X50785714Y-37224809D01*
X50785714Y-37224809D02*
X50642857Y-37224809D01*
X50642857Y-37224809D02*
X50595238Y-37201000D01*
X50595238Y-37201000D02*
X50571428Y-37177190D01*
D11*
X70839164Y-28982142D02*
X70089164Y-28982142D01*
X70089164Y-28982142D02*
X70089164Y-28696428D01*
X70089164Y-28696428D02*
X70124878Y-28624999D01*
X70124878Y-28624999D02*
X70160592Y-28589285D01*
X70160592Y-28589285D02*
X70232021Y-28553571D01*
X70232021Y-28553571D02*
X70339164Y-28553571D01*
X70339164Y-28553571D02*
X70410592Y-28589285D01*
X70410592Y-28589285D02*
X70446307Y-28624999D01*
X70446307Y-28624999D02*
X70482021Y-28696428D01*
X70482021Y-28696428D02*
X70482021Y-28982142D01*
X70624878Y-28267856D02*
X70624878Y-27910714D01*
X70839164Y-28339285D02*
X70089164Y-28089285D01*
X70089164Y-28089285D02*
X70839164Y-27839285D01*
X70839164Y-27589285D02*
X70089164Y-27589285D01*
X70089164Y-27589285D02*
X70839164Y-27160714D01*
X70839164Y-27160714D02*
X70089164Y-27160714D01*
X70910592Y-26982143D02*
X70910592Y-26410714D01*
X70803450Y-26267856D02*
X70839164Y-26160714D01*
X70839164Y-26160714D02*
X70839164Y-25982142D01*
X70839164Y-25982142D02*
X70803450Y-25910714D01*
X70803450Y-25910714D02*
X70767735Y-25874999D01*
X70767735Y-25874999D02*
X70696307Y-25839285D01*
X70696307Y-25839285D02*
X70624878Y-25839285D01*
X70624878Y-25839285D02*
X70553450Y-25874999D01*
X70553450Y-25874999D02*
X70517735Y-25910714D01*
X70517735Y-25910714D02*
X70482021Y-25982142D01*
X70482021Y-25982142D02*
X70446307Y-26124999D01*
X70446307Y-26124999D02*
X70410592Y-26196428D01*
X70410592Y-26196428D02*
X70374878Y-26232142D01*
X70374878Y-26232142D02*
X70303450Y-26267856D01*
X70303450Y-26267856D02*
X70232021Y-26267856D01*
X70232021Y-26267856D02*
X70160592Y-26232142D01*
X70160592Y-26232142D02*
X70124878Y-26196428D01*
X70124878Y-26196428D02*
X70089164Y-26124999D01*
X70089164Y-26124999D02*
X70089164Y-25946428D01*
X70089164Y-25946428D02*
X70124878Y-25839285D01*
X70446307Y-25517856D02*
X70446307Y-25267856D01*
X70839164Y-25160713D02*
X70839164Y-25517856D01*
X70839164Y-25517856D02*
X70089164Y-25517856D01*
X70089164Y-25517856D02*
X70089164Y-25160713D01*
X70839164Y-24410714D02*
X70482021Y-24660714D01*
X70839164Y-24839285D02*
X70089164Y-24839285D01*
X70089164Y-24839285D02*
X70089164Y-24553571D01*
X70089164Y-24553571D02*
X70124878Y-24482142D01*
X70124878Y-24482142D02*
X70160592Y-24446428D01*
X70160592Y-24446428D02*
X70232021Y-24410714D01*
X70232021Y-24410714D02*
X70339164Y-24410714D01*
X70339164Y-24410714D02*
X70410592Y-24446428D01*
X70410592Y-24446428D02*
X70446307Y-24482142D01*
X70446307Y-24482142D02*
X70482021Y-24553571D01*
X70482021Y-24553571D02*
X70482021Y-24839285D01*
X70089164Y-24196428D02*
X70839164Y-23946428D01*
X70839164Y-23946428D02*
X70089164Y-23696428D01*
X70089164Y-23303571D02*
X70089164Y-23160714D01*
X70089164Y-23160714D02*
X70124878Y-23089285D01*
X70124878Y-23089285D02*
X70196307Y-23017857D01*
X70196307Y-23017857D02*
X70339164Y-22982142D01*
X70339164Y-22982142D02*
X70589164Y-22982142D01*
X70589164Y-22982142D02*
X70732021Y-23017857D01*
X70732021Y-23017857D02*
X70803450Y-23089285D01*
X70803450Y-23089285D02*
X70839164Y-23160714D01*
X70839164Y-23160714D02*
X70839164Y-23303571D01*
X70839164Y-23303571D02*
X70803450Y-23375000D01*
X70803450Y-23375000D02*
X70732021Y-23446428D01*
X70732021Y-23446428D02*
X70589164Y-23482142D01*
X70589164Y-23482142D02*
X70339164Y-23482142D01*
X70339164Y-23482142D02*
X70196307Y-23446428D01*
X70196307Y-23446428D02*
X70124878Y-23375000D01*
X70124878Y-23375000D02*
X70089164Y-23303571D01*
X48714286Y-39954819D02*
X49333333Y-39954819D01*
X49333333Y-39954819D02*
X49000000Y-40335771D01*
X49000000Y-40335771D02*
X49142857Y-40335771D01*
X49142857Y-40335771D02*
X49238095Y-40383390D01*
X49238095Y-40383390D02*
X49285714Y-40431009D01*
X49285714Y-40431009D02*
X49333333Y-40526247D01*
X49333333Y-40526247D02*
X49333333Y-40764342D01*
X49333333Y-40764342D02*
X49285714Y-40859580D01*
X49285714Y-40859580D02*
X49238095Y-40907200D01*
X49238095Y-40907200D02*
X49142857Y-40954819D01*
X49142857Y-40954819D02*
X48857143Y-40954819D01*
X48857143Y-40954819D02*
X48761905Y-40907200D01*
X48761905Y-40907200D02*
X48714286Y-40859580D01*
X49666667Y-39954819D02*
X50285714Y-39954819D01*
X50285714Y-39954819D02*
X49952381Y-40335771D01*
X49952381Y-40335771D02*
X50095238Y-40335771D01*
X50095238Y-40335771D02*
X50190476Y-40383390D01*
X50190476Y-40383390D02*
X50238095Y-40431009D01*
X50238095Y-40431009D02*
X50285714Y-40526247D01*
X50285714Y-40526247D02*
X50285714Y-40764342D01*
X50285714Y-40764342D02*
X50238095Y-40859580D01*
X50238095Y-40859580D02*
X50190476Y-40907200D01*
X50190476Y-40907200D02*
X50095238Y-40954819D01*
X50095238Y-40954819D02*
X49809524Y-40954819D01*
X49809524Y-40954819D02*
X49714286Y-40907200D01*
X49714286Y-40907200D02*
X49666667Y-40859580D01*
X50904762Y-39954819D02*
X51000000Y-39954819D01*
X51000000Y-39954819D02*
X51095238Y-40002438D01*
X51095238Y-40002438D02*
X51142857Y-40050057D01*
X51142857Y-40050057D02*
X51190476Y-40145295D01*
X51190476Y-40145295D02*
X51238095Y-40335771D01*
X51238095Y-40335771D02*
X51238095Y-40573866D01*
X51238095Y-40573866D02*
X51190476Y-40764342D01*
X51190476Y-40764342D02*
X51142857Y-40859580D01*
X51142857Y-40859580D02*
X51095238Y-40907200D01*
X51095238Y-40907200D02*
X51000000Y-40954819D01*
X51000000Y-40954819D02*
X50904762Y-40954819D01*
X50904762Y-40954819D02*
X50809524Y-40907200D01*
X50809524Y-40907200D02*
X50761905Y-40859580D01*
X50761905Y-40859580D02*
X50714286Y-40764342D01*
X50714286Y-40764342D02*
X50666667Y-40573866D01*
X50666667Y-40573866D02*
X50666667Y-40335771D01*
X50666667Y-40335771D02*
X50714286Y-40145295D01*
X50714286Y-40145295D02*
X50761905Y-40050057D01*
X50761905Y-40050057D02*
X50809524Y-40002438D01*
X50809524Y-40002438D02*
X50904762Y-39954819D01*
X52238095Y-40954819D02*
X51904762Y-40478628D01*
X51666667Y-40954819D02*
X51666667Y-39954819D01*
X51666667Y-39954819D02*
X52047619Y-39954819D01*
X52047619Y-39954819D02*
X52142857Y-40002438D01*
X52142857Y-40002438D02*
X52190476Y-40050057D01*
X52190476Y-40050057D02*
X52238095Y-40145295D01*
X52238095Y-40145295D02*
X52238095Y-40288152D01*
X52238095Y-40288152D02*
X52190476Y-40383390D01*
X52190476Y-40383390D02*
X52142857Y-40431009D01*
X52142857Y-40431009D02*
X52047619Y-40478628D01*
X52047619Y-40478628D02*
X51666667Y-40478628D01*
%TO.C,J1*%
D12*
X23630000Y-42735000D02*
X23630000Y-27235000D01*
D13*
X35960000Y-26540000D02*
X36460000Y-27040000D01*
X36460000Y-27040000D02*
X36960000Y-26540000D01*
X36960000Y-26540000D02*
X35960000Y-26540000D01*
D12*
X40130000Y-27235000D02*
X23630000Y-27235000D01*
X40130000Y-42735000D02*
X23630000Y-42735000D01*
X40130000Y-42735000D02*
X40130000Y-27235000D01*
%TD*%
M02*
