%TF.GenerationSoftware,KiCad,Pcbnew,10.0.4*%
%TF.CreationDate,2026-08-14T16:43:36-05:00*%
%TF.ProjectId,Cluster_Logic_Board,436c7573-7465-4725-9f4c-6f6769635f42,rev?*%
%TF.SameCoordinates,Original*%
%TF.FileFunction,Soldermask,Top*%
%TF.FilePolarity,Negative*%
%FSLAX46Y46*%
G04 Gerber Fmt 4.6, Leading zero omitted, Abs format (unit mm)*
G04 Created by KiCad (PCBNEW 10.0.4) date 2026-08-14 16:43:36*
%MOMM*%
%LPD*%
G01*
G04 APERTURE LIST*
%ADD10C,3.200000*%
%ADD11R,2.200000X2.200000*%
%ADD12C,2.200000*%
%ADD13R,2.500000X2.500000*%
%ADD14C,2.500000*%
%ADD15R,2.000000X2.000000*%
%ADD16C,2.000000*%
%ADD17R,4.000000X4.000000*%
%ADD18C,4.000000*%
G04 APERTURE END LIST*
D10*
%TO.C,M3*%
X81500000Y-51000000D03*
%TD*%
%TO.C,M3*%
X154500000Y-5500000D03*
%TD*%
%TO.C,M3*%
X5500000Y-5000000D03*
%TD*%
%TO.C,M3*%
X6000000Y-94000000D03*
%TD*%
%TO.C,M3*%
X154500000Y-94500000D03*
%TD*%
D11*
%TO.C,J3*%
X93460000Y-90000000D03*
D12*
X96000000Y-90000000D03*
X98540000Y-90000000D03*
%TD*%
D13*
%TO.C,C1*%
X14500000Y-29000000D03*
D14*
X19500000Y-29000000D03*
%TD*%
D11*
%TO.C,C7*%
X114000000Y-85000000D03*
D12*
X114000000Y-88000000D03*
%TD*%
D15*
%TO.C,C5*%
X131270000Y-87500000D03*
D16*
X128730000Y-87500000D03*
%TD*%
D11*
%TO.C,R7*%
X96190000Y-81500000D03*
D12*
X103810000Y-81500000D03*
%TD*%
D15*
%TO.C,C3*%
X132000000Y-53500000D03*
D16*
X129460000Y-53500000D03*
%TD*%
D15*
%TO.C,C8*%
X82000000Y-65230000D03*
D16*
X82000000Y-67770000D03*
%TD*%
D11*
%TO.C,R9*%
X58690000Y-81500000D03*
D12*
X66310000Y-81500000D03*
%TD*%
D11*
%TO.C,U3*%
X137920000Y-52240000D03*
D12*
X140460000Y-52240000D03*
X143000000Y-52240000D03*
X145540000Y-52240000D03*
X148080000Y-52240000D03*
X150620000Y-52240000D03*
X153160000Y-52240000D03*
X155700000Y-52240000D03*
X155700000Y-37000000D03*
X153160000Y-37000000D03*
X150620000Y-37000000D03*
X148080000Y-37000000D03*
X145540000Y-37000000D03*
X143000000Y-37000000D03*
X140460000Y-37000000D03*
X137920000Y-37000000D03*
%TD*%
D11*
%TO.C,J5*%
X55420000Y-90000000D03*
D12*
X57960000Y-90000000D03*
X60500000Y-90000000D03*
%TD*%
D11*
%TO.C,R1*%
X45380000Y-17660000D03*
D12*
X53000000Y-17660000D03*
%TD*%
D11*
%TO.C,R12*%
X66190000Y-77000000D03*
D12*
X73810000Y-77000000D03*
%TD*%
D11*
%TO.C,C4*%
X131500000Y-82500000D03*
D12*
X128500000Y-82500000D03*
%TD*%
D11*
%TO.C,J2*%
X70500000Y-35000000D03*
D12*
X73040000Y-35000000D03*
X75580000Y-35000000D03*
X78120000Y-35000000D03*
%TD*%
D11*
%TO.C,R5*%
X132760000Y-93260000D03*
D12*
X140380000Y-93260000D03*
%TD*%
D11*
%TO.C,J10*%
X18000000Y-51500000D03*
D12*
X18000000Y-54000000D03*
X18000000Y-56500000D03*
X18000000Y-59000000D03*
X18000000Y-61500000D03*
X18000000Y-64000000D03*
X18000000Y-66500000D03*
X18000000Y-69000000D03*
%TD*%
D11*
%TO.C,R11*%
X84190000Y-78000000D03*
D12*
X91810000Y-78000000D03*
%TD*%
D11*
%TO.C,R10*%
X103690000Y-77000000D03*
D12*
X111310000Y-77000000D03*
%TD*%
D11*
%TO.C,U2*%
X137760000Y-87500000D03*
D12*
X140300000Y-87500000D03*
X142840000Y-87500000D03*
X145380000Y-87500000D03*
X147920000Y-87500000D03*
X150460000Y-87500000D03*
X153000000Y-87500000D03*
X155540000Y-87500000D03*
X155540000Y-72260000D03*
X153000000Y-72260000D03*
X150460000Y-72260000D03*
X147920000Y-72260000D03*
X145380000Y-72260000D03*
X142840000Y-72260000D03*
X140300000Y-72260000D03*
X137760000Y-72260000D03*
%TD*%
D11*
%TO.C,SW1*%
X44380000Y-38920000D03*
D12*
X46920000Y-38920000D03*
X49460000Y-38920000D03*
X52000000Y-38920000D03*
X44380000Y-44000000D03*
X46920000Y-44000000D03*
X49460000Y-44000000D03*
X52000000Y-44000000D03*
%TD*%
D11*
%TO.C,J4*%
X74460000Y-90500000D03*
D12*
X77000000Y-90500000D03*
X79540000Y-90500000D03*
%TD*%
D11*
%TO.C,C2*%
X131730000Y-50000000D03*
D12*
X128730000Y-50000000D03*
%TD*%
D11*
%TO.C,R3*%
X45380000Y-25340000D03*
D12*
X53000000Y-25340000D03*
%TD*%
D11*
%TO.C,R4*%
X45380000Y-29500000D03*
D12*
X53000000Y-29500000D03*
%TD*%
D11*
%TO.C,R6*%
X133040000Y-58000000D03*
D12*
X140660000Y-58000000D03*
%TD*%
D11*
%TO.C,R8*%
X76690000Y-82500000D03*
D12*
X84310000Y-82500000D03*
%TD*%
D11*
%TO.C,U1*%
X93600000Y-14420000D03*
D12*
X93600000Y-16960000D03*
X93600000Y-19500000D03*
X93600000Y-22040000D03*
X93600000Y-24580000D03*
X93600000Y-27120000D03*
X93600000Y-29660000D03*
X93600000Y-32200000D03*
X93600000Y-34740000D03*
X93600000Y-37280000D03*
X93600000Y-39820000D03*
X93600000Y-42360000D03*
X93600000Y-44900000D03*
X93600000Y-47440000D03*
X93600000Y-49980000D03*
X93600000Y-52520000D03*
X93600000Y-55060000D03*
X93600000Y-57600000D03*
X93600000Y-60140000D03*
X93600000Y-62680000D03*
X93600000Y-65220000D03*
X93600000Y-67760000D03*
X119000000Y-14420000D03*
X119000000Y-16960000D03*
X119000000Y-19500000D03*
X119000000Y-22040000D03*
X119000000Y-24580000D03*
X119000000Y-27120000D03*
X119000000Y-29660000D03*
X119000000Y-32200000D03*
X119000000Y-34740000D03*
X119000000Y-37280000D03*
X119000000Y-39820000D03*
X119000000Y-42360000D03*
X119000000Y-44900000D03*
X119000000Y-47440000D03*
X119000000Y-49980000D03*
X119000000Y-52520000D03*
X119000000Y-55060000D03*
X119000000Y-57600000D03*
X119000000Y-60140000D03*
X119000000Y-62680000D03*
X119000000Y-65220000D03*
X119000000Y-67760000D03*
%TD*%
D17*
%TO.C,J1*%
X14500000Y-18000000D03*
D18*
X19500000Y-18000000D03*
%TD*%
D11*
%TO.C,R2*%
X45380000Y-21500000D03*
D12*
X53000000Y-21500000D03*
%TD*%
M02*
