%TF.GenerationSoftware,KiCad,Pcbnew,10.0.4*%
%TF.CreationDate,2026-08-14T16:43:36-05:00*%
%TF.ProjectId,Cluster_Logic_Board,436c7573-7465-4725-9f4c-6f6769635f42,rev?*%
%TF.SameCoordinates,Original*%
%TF.FileFunction,Copper,L1,Top*%
%TF.FilePolarity,Positive*%
%FSLAX46Y46*%
G04 Gerber Fmt 4.6, Leading zero omitted, Abs format (unit mm)*
G04 Created by KiCad (PCBNEW 10.0.4) date 2026-08-14 16:43:36*
%MOMM*%
%LPD*%
G01*
G04 APERTURE LIST*
%TA.AperFunction,ComponentPad*%
%ADD10R,2.200000X2.200000*%
%TD*%
%TA.AperFunction,ComponentPad*%
%ADD11C,2.200000*%
%TD*%
%TA.AperFunction,ComponentPad*%
%ADD12R,2.500000X2.500000*%
%TD*%
%TA.AperFunction,ComponentPad*%
%ADD13C,2.500000*%
%TD*%
%TA.AperFunction,ComponentPad*%
%ADD14R,2.000000X2.000000*%
%TD*%
%TA.AperFunction,ComponentPad*%
%ADD15C,2.000000*%
%TD*%
%TA.AperFunction,ComponentPad*%
%ADD16R,4.000000X4.000000*%
%TD*%
%TA.AperFunction,ComponentPad*%
%ADD17C,4.000000*%
%TD*%
%TA.AperFunction,ViaPad*%
%ADD18C,0.500000*%
%TD*%
%TA.AperFunction,ViaPad*%
%ADD19C,1.500000*%
%TD*%
%TA.AperFunction,ViaPad*%
%ADD20C,0.800000*%
%TD*%
%TA.AperFunction,Conductor*%
%ADD21C,0.500000*%
%TD*%
%TA.AperFunction,Conductor*%
%ADD22C,1.000000*%
%TD*%
%TA.AperFunction,Conductor*%
%ADD23C,2.000000*%
%TD*%
%TA.AperFunction,Conductor*%
%ADD24C,1.750000*%
%TD*%
%TA.AperFunction,Conductor*%
%ADD25C,1.500000*%
%TD*%
%TA.AperFunction,Conductor*%
%ADD26C,0.800000*%
%TD*%
%TA.AperFunction,Conductor*%
%ADD27C,0.200000*%
%TD*%
%TA.AperFunction,Conductor*%
%ADD28C,0.600000*%
%TD*%
%TA.AperFunction,Conductor*%
%ADD29C,0.400000*%
%TD*%
%TA.AperFunction,Conductor*%
%ADD30C,0.750000*%
%TD*%
G04 APERTURE END LIST*
D10*
%TO.P,J3,1*%
%TO.N,+5V_LOGIC*%
X93460000Y-90000000D03*
D11*
%TO.P,J3,2*%
%TO.N,PIR_LEFT_CONN*%
X96000000Y-90000000D03*
%TO.P,J3,3*%
%TO.N,GND*%
X98540000Y-90000000D03*
%TD*%
D12*
%TO.P,C1,1*%
%TO.N,+5V_LOGIC*%
X14500000Y-29000000D03*
D13*
%TO.P,C1,2*%
%TO.N,GND*%
X19500000Y-29000000D03*
%TD*%
D10*
%TO.P,C7,1*%
%TO.N,+5V_LOGIC*%
X114000000Y-85000000D03*
D11*
%TO.P,C7,2*%
%TO.N,GND*%
X114000000Y-88000000D03*
%TD*%
D14*
%TO.P,C5,1*%
%TO.N,+5V_LOGIC*%
X131270000Y-87500000D03*
D15*
%TO.P,C5,2*%
%TO.N,GND*%
X128730000Y-87500000D03*
%TD*%
D10*
%TO.P,R7,1*%
%TO.N,PIR_LEFT_CONN*%
X96190000Y-81500000D03*
D11*
%TO.P,R7,2*%
%TO.N,PIR_LEFT*%
X103810000Y-81500000D03*
%TD*%
D14*
%TO.P,C3,1*%
%TO.N,+5V_LOGIC*%
X132000000Y-53500000D03*
D15*
%TO.P,C3,2*%
%TO.N,GND*%
X129460000Y-53500000D03*
%TD*%
D14*
%TO.P,C8,1*%
%TO.N,+5V_LOGIC*%
X82000000Y-65230000D03*
D15*
%TO.P,C8,2*%
%TO.N,GND*%
X82000000Y-67770000D03*
%TD*%
D10*
%TO.P,R9,1*%
%TO.N,PIR_RIGHT_CONN*%
X58690000Y-81500000D03*
D11*
%TO.P,R9,2*%
%TO.N,PIR_RIGHT*%
X66310000Y-81500000D03*
%TD*%
D10*
%TO.P,U3,1*%
%TO.N,+5V_LOGIC*%
X137920000Y-52240000D03*
D11*
%TO.P,U3,2*%
%TO.N,DF2_RX*%
X140460000Y-52240000D03*
%TO.P,U3,3*%
%TO.N,DF2_TX*%
X143000000Y-52240000D03*
%TO.P,U3,4*%
%TO.N,N/C*%
X145540000Y-52240000D03*
%TO.P,U3,5*%
X148080000Y-52240000D03*
%TO.P,U3,6*%
X150620000Y-52240000D03*
%TO.P,U3,7*%
%TO.N,GND*%
X153160000Y-52240000D03*
%TO.P,U3,8*%
%TO.N,N/C*%
X155700000Y-52240000D03*
%TO.P,U3,9*%
X155700000Y-37000000D03*
%TO.P,U3,10*%
%TO.N,GND*%
X153160000Y-37000000D03*
%TO.P,U3,11*%
%TO.N,N/C*%
X150620000Y-37000000D03*
%TO.P,U3,12*%
X148080000Y-37000000D03*
%TO.P,U3,13*%
X145540000Y-37000000D03*
%TO.P,U3,14*%
X143000000Y-37000000D03*
%TO.P,U3,15*%
X140460000Y-37000000D03*
%TO.P,U3,16*%
X137920000Y-37000000D03*
%TD*%
D10*
%TO.P,J5,1*%
%TO.N,+5V_LOGIC*%
X55420000Y-90000000D03*
D11*
%TO.P,J5,2*%
%TO.N,PIR_RIGHT_CONN*%
X57960000Y-90000000D03*
%TO.P,J5,3*%
%TO.N,GND*%
X60500000Y-90000000D03*
%TD*%
D10*
%TO.P,R1,1*%
%TO.N,+3V3_LOGIC*%
X45380000Y-17660000D03*
D11*
%TO.P,R1,2*%
%TO.N,ID0*%
X53000000Y-17660000D03*
%TD*%
D10*
%TO.P,R12,1*%
%TO.N,PIR_RIGHT*%
X66190000Y-77000000D03*
D11*
%TO.P,R12,2*%
%TO.N,GND*%
X73810000Y-77000000D03*
%TD*%
D10*
%TO.P,C4,1*%
%TO.N,+5V_LOGIC*%
X131500000Y-82500000D03*
D11*
%TO.P,C4,2*%
%TO.N,GND*%
X128500000Y-82500000D03*
%TD*%
D10*
%TO.P,J2,1*%
%TO.N,GND*%
X70500000Y-35000000D03*
D11*
%TO.P,J2,2*%
%TO.N,+3V3_LOGIC*%
X73040000Y-35000000D03*
%TO.P,J2,3*%
%TO.N,I2C_SCL*%
X75580000Y-35000000D03*
%TO.P,J2,4*%
%TO.N,I2C_SDA*%
X78120000Y-35000000D03*
%TD*%
D10*
%TO.P,R5,1*%
%TO.N,DF1_RX_ESP*%
X132760000Y-93260000D03*
D11*
%TO.P,R5,2*%
%TO.N,DF1_RX*%
X140380000Y-93260000D03*
%TD*%
D10*
%TO.P,J10,1*%
%TO.N,GND*%
X18000000Y-51500000D03*
D11*
%TO.P,J10,2*%
X18000000Y-54000000D03*
%TO.P,J10,3*%
%TO.N,+3V3_LOGIC*%
X18000000Y-56500000D03*
%TO.P,J10,4*%
%TO.N,I2C_SDA*%
X18000000Y-59000000D03*
%TO.P,J10,5*%
%TO.N,I2C_SCL*%
X18000000Y-61500000D03*
%TO.P,J10,6*%
%TO.N,LED_DATA_3V3*%
X18000000Y-64000000D03*
%TO.P,J10,7*%
%TO.N,PCA_OE_N*%
X18000000Y-66500000D03*
%TO.P,J10,8*%
%TO.N,SPARE*%
X18000000Y-69000000D03*
%TD*%
D10*
%TO.P,R11,1*%
%TO.N,PIR_CENTER*%
X84190000Y-78000000D03*
D11*
%TO.P,R11,2*%
%TO.N,GND*%
X91810000Y-78000000D03*
%TD*%
D10*
%TO.P,R10,1*%
%TO.N,PIR_LEFT*%
X103690000Y-77000000D03*
D11*
%TO.P,R10,2*%
%TO.N,GND*%
X111310000Y-77000000D03*
%TD*%
D10*
%TO.P,U2,1*%
%TO.N,+5V_LOGIC*%
X137760000Y-87500000D03*
D11*
%TO.P,U2,2*%
%TO.N,DF1_RX*%
X140300000Y-87500000D03*
%TO.P,U2,3*%
%TO.N,DF1_TX*%
X142840000Y-87500000D03*
%TO.P,U2,4*%
%TO.N,N/C*%
X145380000Y-87500000D03*
%TO.P,U2,5*%
X147920000Y-87500000D03*
%TO.P,U2,6*%
X150460000Y-87500000D03*
%TO.P,U2,7*%
%TO.N,GND*%
X153000000Y-87500000D03*
%TO.P,U2,8*%
%TO.N,N/C*%
X155540000Y-87500000D03*
%TO.P,U2,9*%
X155540000Y-72260000D03*
%TO.P,U2,10*%
%TO.N,GND*%
X153000000Y-72260000D03*
%TO.P,U2,11*%
%TO.N,N/C*%
X150460000Y-72260000D03*
%TO.P,U2,12*%
X147920000Y-72260000D03*
%TO.P,U2,13*%
X145380000Y-72260000D03*
%TO.P,U2,14*%
X142840000Y-72260000D03*
%TO.P,U2,15*%
X140300000Y-72260000D03*
%TO.P,U2,16*%
X137760000Y-72260000D03*
%TD*%
D10*
%TO.P,SW1,1*%
%TO.N,ID0*%
X44380000Y-38920000D03*
D11*
%TO.P,SW1,2*%
%TO.N,ID1*%
X46920000Y-38920000D03*
%TO.P,SW1,3*%
%TO.N,ID2*%
X49460000Y-38920000D03*
%TO.P,SW1,4*%
%TO.N,ID3*%
X52000000Y-38920000D03*
%TO.P,SW1,5*%
%TO.N,GND*%
X44380000Y-44000000D03*
%TO.P,SW1,6*%
X46920000Y-44000000D03*
%TO.P,SW1,7*%
X49460000Y-44000000D03*
%TO.P,SW1,8*%
X52000000Y-44000000D03*
%TD*%
D10*
%TO.P,J4,1*%
%TO.N,+5V_LOGIC*%
X74460000Y-90500000D03*
D11*
%TO.P,J4,2*%
%TO.N,PIR_CENTER_CONN*%
X77000000Y-90500000D03*
%TO.P,J4,3*%
%TO.N,GND*%
X79540000Y-90500000D03*
%TD*%
D10*
%TO.P,C2,1*%
%TO.N,+5V_LOGIC*%
X131730000Y-50000000D03*
D11*
%TO.P,C2,2*%
%TO.N,GND*%
X128730000Y-50000000D03*
%TD*%
D10*
%TO.P,R3,1*%
%TO.N,+3V3_LOGIC*%
X45380000Y-25340000D03*
D11*
%TO.P,R3,2*%
%TO.N,ID2*%
X53000000Y-25340000D03*
%TD*%
D10*
%TO.P,R4,1*%
%TO.N,+3V3_LOGIC*%
X45380000Y-29500000D03*
D11*
%TO.P,R4,2*%
%TO.N,ID3*%
X53000000Y-29500000D03*
%TD*%
D10*
%TO.P,R6,1*%
%TO.N,DF2_RX_ESP*%
X133040000Y-58000000D03*
D11*
%TO.P,R6,2*%
%TO.N,DF2_RX*%
X140660000Y-58000000D03*
%TD*%
D10*
%TO.P,R8,1*%
%TO.N,PIR_CENTER_CONN*%
X76690000Y-82500000D03*
D11*
%TO.P,R8,2*%
%TO.N,PIR_CENTER*%
X84310000Y-82500000D03*
%TD*%
D10*
%TO.P,U1,J1.1*%
%TO.N,+3V3_LOGIC*%
X93600000Y-14420000D03*
D11*
%TO.P,U1,J1.2*%
X93600000Y-16960000D03*
%TO.P,U1,J1.3*%
%TO.N,N/C*%
X93600000Y-19500000D03*
%TO.P,U1,J1.4*%
%TO.N,ID0*%
X93600000Y-22040000D03*
%TO.P,U1,J1.5*%
%TO.N,ID1*%
X93600000Y-24580000D03*
%TO.P,U1,J1.6*%
%TO.N,ID2*%
X93600000Y-27120000D03*
%TO.P,U1,J1.7*%
%TO.N,ID3*%
X93600000Y-29660000D03*
%TO.P,U1,J1.8*%
%TO.N,DF2_RX_ESP*%
X93600000Y-32200000D03*
%TO.P,U1,J1.9*%
%TO.N,DF2_TX*%
X93600000Y-34740000D03*
%TO.P,U1,J1.10*%
%TO.N,DF1_RX_ESP*%
X93600000Y-37280000D03*
%TO.P,U1,J1.11*%
%TO.N,DF1_TX*%
X93600000Y-39820000D03*
%TO.P,U1,J1.12*%
%TO.N,I2C_SDA*%
X93600000Y-42360000D03*
%TO.P,U1,J1.13*%
%TO.N,N/C*%
X93600000Y-44900000D03*
%TO.P,U1,J1.14*%
X93600000Y-47440000D03*
%TO.P,U1,J1.15*%
%TO.N,I2C_SCL*%
X93600000Y-49980000D03*
%TO.P,U1,J1.16*%
%TO.N,LED_DATA_3V3*%
X93600000Y-52520000D03*
%TO.P,U1,J1.17*%
%TO.N,PIR_LEFT*%
X93600000Y-55060000D03*
%TO.P,U1,J1.18*%
%TO.N,PIR_CENTER*%
X93600000Y-57600000D03*
%TO.P,U1,J1.19*%
%TO.N,PIR_RIGHT*%
X93600000Y-60140000D03*
%TO.P,U1,J1.20*%
%TO.N,PCA_OE_N*%
X93600000Y-62680000D03*
%TO.P,U1,J1.21*%
%TO.N,+5V_LOGIC*%
X93600000Y-65220000D03*
%TO.P,U1,J1.22*%
%TO.N,GND*%
X93600000Y-67760000D03*
%TO.P,U1,J3.1*%
X119000000Y-14420000D03*
%TO.P,U1,J3.2*%
%TO.N,N/C*%
X119000000Y-16960000D03*
%TO.P,U1,J3.3*%
X119000000Y-19500000D03*
%TO.P,U1,J3.4*%
X119000000Y-22040000D03*
%TO.P,U1,J3.5*%
X119000000Y-24580000D03*
%TO.P,U1,J3.6*%
X119000000Y-27120000D03*
%TO.P,U1,J3.7*%
X119000000Y-29660000D03*
%TO.P,U1,J3.8*%
X119000000Y-32200000D03*
%TO.P,U1,J3.9*%
X119000000Y-34740000D03*
%TO.P,U1,J3.10*%
X119000000Y-37280000D03*
%TO.P,U1,J3.11*%
X119000000Y-39820000D03*
%TO.P,U1,J3.12*%
X119000000Y-42360000D03*
%TO.P,U1,J3.13*%
X119000000Y-44900000D03*
%TO.P,U1,J3.14*%
X119000000Y-47440000D03*
%TO.P,U1,J3.15*%
X119000000Y-49980000D03*
%TO.P,U1,J3.16*%
X119000000Y-52520000D03*
%TO.P,U1,J3.17*%
X119000000Y-55060000D03*
%TO.P,U1,J3.18*%
X119000000Y-57600000D03*
%TO.P,U1,J3.19*%
X119000000Y-60140000D03*
%TO.P,U1,J3.20*%
X119000000Y-62680000D03*
%TO.P,U1,J3.21*%
%TO.N,GND*%
X119000000Y-65220000D03*
%TO.P,U1,J3.22*%
X119000000Y-67760000D03*
%TD*%
D16*
%TO.P,J1,1*%
%TO.N,+5V_LOGIC*%
X14500000Y-18000000D03*
D17*
%TO.P,J1,2*%
%TO.N,GND*%
X19500000Y-18000000D03*
%TD*%
D10*
%TO.P,R2,1*%
%TO.N,+3V3_LOGIC*%
X45380000Y-21500000D03*
D11*
%TO.P,R2,2*%
%TO.N,ID1*%
X53000000Y-21500000D03*
%TD*%
D18*
%TO.N,+5V_LOGIC*%
X131000000Y-76700000D03*
X136500000Y-61000000D03*
D19*
X123311433Y-90100000D03*
D18*
X132000000Y-75700000D03*
X134800000Y-59400000D03*
%TO.N,+3V3_LOGIC*%
X91900000Y-30400000D03*
%TO.N,I2C_SCL*%
X44500000Y-57500000D03*
D20*
X82500000Y-41000000D03*
X82500000Y-37000000D03*
%TO.N,PCA_OE_N*%
X81680000Y-62680000D03*
X77680000Y-62680000D03*
D18*
%TO.N,DF1_TX*%
X97450000Y-41550000D03*
%TD*%
%TO.N,+5V_LOGIC*%
D21*
X136500000Y-63500000D02*
X132000000Y-68000000D01*
D22*
X66000000Y-87260000D02*
X74460000Y-78800000D01*
D23*
X21000000Y-90000000D02*
X46784986Y-90000000D01*
D24*
X105200000Y-91800000D02*
X105400000Y-91800000D01*
X70960000Y-94000000D02*
X89500000Y-94000000D01*
D22*
X75610000Y-77650000D02*
X78110000Y-77650000D01*
D21*
X132000000Y-77700000D02*
X131000000Y-76700000D01*
D25*
X118211433Y-85000000D02*
X123311433Y-90100000D01*
D21*
X91500000Y-65099999D02*
X91500000Y-65140000D01*
X134800000Y-56300000D02*
X132000000Y-53500000D01*
D26*
X74460000Y-90500000D02*
X70960000Y-94000000D01*
D21*
X134300000Y-55800000D02*
X137900000Y-52200000D01*
D22*
X82000000Y-65230000D02*
X82090000Y-65140000D01*
D21*
X134800000Y-59400000D02*
X134800000Y-56300000D01*
D24*
X50784986Y-94000000D02*
X70960000Y-94000000D01*
D22*
X75610000Y-77745585D02*
X75610000Y-77650000D01*
D23*
X14500000Y-36000000D02*
X10500000Y-40000000D01*
D21*
X93800000Y-65099999D02*
X91500000Y-65099999D01*
D22*
X78110000Y-77650000D02*
X90620000Y-65140000D01*
X74460000Y-78800000D02*
X74555585Y-78800000D01*
D21*
X131500000Y-87500000D02*
X131500000Y-82500000D01*
D23*
X10500000Y-40000000D02*
X10500000Y-79500000D01*
D21*
X136500000Y-61000000D02*
X136500000Y-63500000D01*
D25*
X116500000Y-85000000D02*
X118211433Y-85000000D01*
D24*
X46784986Y-90000000D02*
X50784986Y-94000000D01*
X89500000Y-94000000D02*
X103000000Y-94000000D01*
D26*
X55420000Y-90000000D02*
X46784986Y-90000000D01*
D24*
X103000000Y-94000000D02*
X105200000Y-91800000D01*
D21*
X131699999Y-53200000D02*
X131699999Y-50000000D01*
D22*
X66000000Y-94000000D02*
X66000000Y-87260000D01*
X74555585Y-78800000D02*
X75610000Y-77745585D01*
D21*
X94400000Y-66099999D02*
X93800000Y-65500000D01*
D22*
X82090000Y-65140000D02*
X93500000Y-65140000D01*
D23*
X10500000Y-79500000D02*
X21000000Y-90000000D01*
D27*
X93460000Y-90000000D02*
X93460000Y-90040000D01*
D21*
X132000000Y-82000000D02*
X132000000Y-77700000D01*
D23*
X14500000Y-18000000D02*
X14500000Y-29000000D01*
D28*
X90620000Y-65140000D02*
X91500000Y-65140000D01*
D21*
X131300000Y-87500000D02*
X137800000Y-87500000D01*
X132000000Y-68000000D02*
X132000000Y-75700000D01*
D26*
X93460000Y-90040000D02*
X89500000Y-94000000D01*
D24*
X105400000Y-91800000D02*
X112200000Y-85000000D01*
D21*
X131500000Y-82500000D02*
X132000000Y-82000000D01*
D23*
X14500000Y-29000000D02*
X14500000Y-36000000D01*
D24*
X112200000Y-85000000D02*
X116500000Y-85000000D01*
%TO.N,PIR_LEFT_CONN*%
D29*
X96200000Y-89800000D02*
X96200000Y-81500000D01*
%TO.N,PIR_LEFT*%
X103690000Y-77000000D02*
X103690000Y-65190000D01*
X103800000Y-77100000D02*
X103800000Y-81500000D01*
X103690000Y-65190000D02*
X93600000Y-55100000D01*
%TO.N,PIR_RIGHT_CONN*%
D27*
X58700000Y-81500000D02*
X58000000Y-82200000D01*
D29*
X58000000Y-82200000D02*
X58000000Y-90000000D01*
%TO.N,PIR_RIGHT*%
X80700000Y-61500000D02*
X66190000Y-76010000D01*
X86500000Y-61500000D02*
X80700000Y-61500000D01*
X93240000Y-60500000D02*
X87500000Y-60500000D01*
X66300000Y-77100000D02*
X66300000Y-81500000D01*
X87500000Y-60500000D02*
X86500000Y-61500000D01*
X93600000Y-60140000D02*
X93240000Y-60500000D01*
X66190000Y-76010000D02*
X66190000Y-77000000D01*
%TO.N,DF2_RX*%
D27*
X140700000Y-52400000D02*
X140700000Y-58000000D01*
%TO.N,DF2_TX*%
D29*
X141500000Y-60000000D02*
X142300000Y-59200000D01*
X136000000Y-60000000D02*
X141500000Y-60000000D01*
X124500000Y-71500000D02*
X136000000Y-60000000D01*
X93600000Y-34700000D02*
X116000000Y-57100000D01*
X143000000Y-58500000D02*
X143000000Y-52200000D01*
X118500000Y-71500000D02*
X124500000Y-71500000D01*
X116000000Y-57100000D02*
X116000000Y-69000000D01*
X116000000Y-69000000D02*
X118500000Y-71500000D01*
X142300000Y-59200000D02*
X143000000Y-58500000D01*
%TO.N,+3V3_LOGIC*%
X93600000Y-17000000D02*
X93600000Y-14400000D01*
D23*
X93600000Y-14420000D02*
X89680000Y-10500000D01*
D30*
X39500000Y-50500000D02*
X58500000Y-50500000D01*
D23*
X52540000Y-10500000D02*
X45380000Y-17660000D01*
D30*
X58500000Y-50500000D02*
X73040000Y-35960000D01*
D23*
X89680000Y-10500000D02*
X52540000Y-10500000D01*
D30*
X35350000Y-42350000D02*
X35350000Y-46350000D01*
D23*
X45380000Y-17660000D02*
X45500000Y-17780000D01*
X45500000Y-17780000D02*
X45500000Y-32200000D01*
X21200000Y-56500000D02*
X18000000Y-56500000D01*
D29*
X45810000Y-21620000D02*
X46190000Y-22000000D01*
D23*
X45500000Y-32200000D02*
X21200000Y-56500000D01*
D29*
X73000000Y-35040000D02*
X73000000Y-34600000D01*
X73040000Y-35960000D02*
X73040000Y-35000000D01*
D30*
X35350000Y-46350000D02*
X39500000Y-50500000D01*
%TO.N,ID0*%
D29*
X70040000Y-22040000D02*
X65660000Y-17660000D01*
X47500000Y-19500000D02*
X47500000Y-35800000D01*
X53000000Y-17660000D02*
X49340000Y-17660000D01*
X49340000Y-17660000D02*
X47500000Y-19500000D01*
X93600000Y-22040000D02*
X70040000Y-22040000D01*
X47500000Y-35800000D02*
X44380000Y-38920000D01*
X65660000Y-17660000D02*
X53000000Y-17660000D01*
%TO.N,I2C_SCL*%
X81000000Y-32500000D02*
X78080000Y-32500000D01*
X78080000Y-32500000D02*
X78000000Y-32580000D01*
X82500000Y-37000000D02*
X82500000Y-34000000D01*
X75500000Y-35000000D02*
X53000000Y-57500000D01*
X53000000Y-57500000D02*
X44500000Y-57500000D01*
X75600000Y-35000000D02*
X75500000Y-35000000D01*
X91480000Y-49980000D02*
X82500000Y-41000000D01*
X93600000Y-49980000D02*
X91480000Y-49980000D01*
X78000000Y-32580000D02*
X75580000Y-35000000D01*
X82500000Y-34000000D02*
X81000000Y-32500000D01*
%TO.N,I2C_SDA*%
X93600000Y-42400000D02*
X85500000Y-42400000D01*
X85500000Y-42400000D02*
X78100000Y-35000000D01*
X78100000Y-35000000D02*
X54100000Y-59000000D01*
X54100000Y-59000000D02*
X18000000Y-59000000D01*
%TO.N,DF1_RX_ESP*%
X132800000Y-93300000D02*
X130300000Y-93300000D01*
X96000000Y-43000000D02*
X96000000Y-39700000D01*
X96000000Y-39700000D02*
X93600000Y-37300000D01*
X130300000Y-93300000D02*
X114000000Y-77000000D01*
X114000000Y-61000000D02*
X96000000Y-43000000D01*
X114000000Y-77000000D02*
X114000000Y-61000000D01*
%TO.N,DF1_RX*%
D27*
X140300000Y-93200000D02*
X140300000Y-87500000D01*
%TO.N,LED_DATA_3V3*%
D29*
X22000000Y-60000000D02*
X86100000Y-60000000D01*
X86100000Y-60000000D02*
X93600000Y-52500000D01*
X18000000Y-64000000D02*
X22000000Y-60000000D01*
%TO.N,PCA_OE_N*%
X81680000Y-62680000D02*
X93600000Y-62680000D01*
X21820000Y-62680000D02*
X18000000Y-66500000D01*
X77680000Y-62680000D02*
X21820000Y-62680000D01*
%TO.N,PIR_CENTER*%
X98500000Y-68000000D02*
X98500000Y-62500000D01*
X84300000Y-78100000D02*
X84300000Y-82500000D01*
X98500000Y-62500000D02*
X93600000Y-57600000D01*
X84190000Y-78000000D02*
X88500000Y-78000000D01*
X88500000Y-78000000D02*
X98500000Y-68000000D01*
%TO.N,DF1_TX*%
X115000000Y-71000000D02*
X117000000Y-73000000D01*
X117000000Y-73000000D02*
X128300000Y-73000000D01*
X97450000Y-41550000D02*
X115000000Y-59100000D01*
X128300000Y-73000000D02*
X142800000Y-87500000D01*
X115000000Y-59100000D02*
X115000000Y-71000000D01*
%TO.N,ID1*%
X50000000Y-21500000D02*
X48500000Y-23000000D01*
X93600000Y-24580000D02*
X69580000Y-24580000D01*
X48500000Y-23000000D02*
X48500000Y-37340000D01*
X48500000Y-37340000D02*
X46920000Y-38920000D01*
X69580000Y-24580000D02*
X66500000Y-21500000D01*
X66500000Y-21500000D02*
X53000000Y-21500000D01*
X53000000Y-21500000D02*
X50000000Y-21500000D01*
%TO.N,ID2*%
X53000000Y-25340000D02*
X50660000Y-25340000D01*
X49460000Y-26540000D02*
X49460000Y-38920000D01*
X50660000Y-25340000D02*
X49460000Y-26540000D01*
X68120000Y-27120000D02*
X66340000Y-25340000D01*
X66340000Y-25340000D02*
X53000000Y-25340000D01*
X93600000Y-27120000D02*
X68120000Y-27120000D01*
%TO.N,ID3*%
X52000000Y-29500000D02*
X51000000Y-30500000D01*
X51000000Y-37920000D02*
X52000000Y-38920000D01*
X51000000Y-30500000D02*
X51000000Y-37920000D01*
X93600000Y-29660000D02*
X53160000Y-29660000D01*
X53000000Y-29500000D02*
X52000000Y-29500000D01*
X53160000Y-29660000D02*
X53000000Y-29500000D01*
%TO.N,PIR_CENTER_CONN*%
X76700000Y-90200000D02*
X76700000Y-82500000D01*
%TO.N,DF2_RX_ESP*%
X117000000Y-55600000D02*
X117000000Y-68500000D01*
X93600000Y-32200000D02*
X117000000Y-55600000D01*
X117000000Y-68500000D02*
X118500000Y-70000000D01*
X121000000Y-70000000D02*
X133000000Y-58000000D01*
X118500000Y-70000000D02*
X121000000Y-70000000D01*
%TD*%
M02*
