%TF.GenerationSoftware,KiCad,Pcbnew,10.0.4*%
%TF.CreationDate,2026-08-16T11:33:46-05:00*%
%TF.ProjectId,Cluster_Logic_Board,436c7573-7465-4725-9f4c-6f6769635f42,rev?*%
%TF.SameCoordinates,Original*%
%TF.FileFunction,Soldermask,Top*%
%TF.FilePolarity,Negative*%
%FSLAX46Y46*%
G04 Gerber Fmt 4.6, Leading zero omitted, Abs format (unit mm)*
G04 Created by KiCad (PCBNEW 10.0.4) date 2026-08-16 11:33:46*
%MOMM*%
%LPD*%
G01*
G04 APERTURE LIST*
%ADD10R,2.200000X2.200000*%
%ADD11C,2.200000*%
%ADD12R,2.500000X2.500000*%
%ADD13C,2.500000*%
%ADD14R,2.000000X2.000000*%
%ADD15C,2.000000*%
%ADD16C,3.200000*%
%ADD17R,4.000000X4.000000*%
%ADD18C,4.000000*%
%ADD19C,1.200000*%
%ADD20O,2.200000X1.200000*%
%ADD21O,2.300000X1.600000*%
%ADD22O,1.200000X2.200000*%
%ADD23O,2.500000X1.600000*%
G04 APERTURE END LIST*
D10*
%TO.C,J3*%
X118960000Y-111500000D03*
D11*
X121500000Y-111500000D03*
X124040000Y-111500000D03*
%TD*%
D12*
%TO.C,C1*%
X40000000Y-50500000D03*
D13*
X45000000Y-50500000D03*
%TD*%
D10*
%TO.C,C7*%
X139500000Y-106500000D03*
D11*
X139500000Y-109500000D03*
%TD*%
D14*
%TO.C,C5*%
X156770000Y-109000000D03*
D15*
X154230000Y-109000000D03*
%TD*%
D10*
%TO.C,R7*%
X121690000Y-103000000D03*
D11*
X129310000Y-103000000D03*
%TD*%
D14*
%TO.C,C3*%
X157500000Y-75000000D03*
D15*
X154960000Y-75000000D03*
%TD*%
D14*
%TO.C,C8*%
X107500000Y-86730000D03*
D15*
X107500000Y-89270000D03*
%TD*%
D10*
%TO.C,R9*%
X84190000Y-103000000D03*
D11*
X91810000Y-103000000D03*
%TD*%
D10*
%TO.C,U3 - LEFT DFPlayer*%
X163420000Y-73740000D03*
D11*
X165960000Y-73740000D03*
X168500000Y-73740000D03*
X171040000Y-73740000D03*
X173580000Y-73740000D03*
X176120000Y-73740000D03*
X178660000Y-73740000D03*
X181200000Y-73740000D03*
X181200000Y-58500000D03*
X178660000Y-58500000D03*
X176120000Y-58500000D03*
X173580000Y-58500000D03*
X171040000Y-58500000D03*
X168500000Y-58500000D03*
X165960000Y-58500000D03*
X163420000Y-58500000D03*
%TD*%
D10*
%TO.C,J5*%
X80920000Y-111500000D03*
D11*
X83460000Y-111500000D03*
X86000000Y-111500000D03*
%TD*%
D10*
%TO.C,R1*%
X70880000Y-39160000D03*
D11*
X78500000Y-39160000D03*
%TD*%
D16*
%TO.C,M3*%
X107000000Y-72500000D03*
%TD*%
D10*
%TO.C,R12*%
X91690000Y-98500000D03*
D11*
X99310000Y-98500000D03*
%TD*%
D10*
%TO.C,C4*%
X157000000Y-104000000D03*
D11*
X154000000Y-104000000D03*
%TD*%
D16*
%TO.C,M3*%
X180000000Y-27000000D03*
%TD*%
D10*
%TO.C,J2*%
X96000000Y-56500000D03*
D11*
X98540000Y-56500000D03*
X101080000Y-56500000D03*
X103620000Y-56500000D03*
%TD*%
D10*
%TO.C,R5*%
X158260000Y-114760000D03*
D11*
X165880000Y-114760000D03*
%TD*%
D10*
%TO.C,J10*%
X43500000Y-73000000D03*
D11*
X43500000Y-75500000D03*
X43500000Y-78000000D03*
X43500000Y-80500000D03*
X43500000Y-83000000D03*
X43500000Y-85500000D03*
X43500000Y-88000000D03*
X43500000Y-90500000D03*
%TD*%
D10*
%TO.C,R11*%
X109690000Y-99500000D03*
D11*
X117310000Y-99500000D03*
%TD*%
D10*
%TO.C,R10*%
X129190000Y-98500000D03*
D11*
X136810000Y-98500000D03*
%TD*%
D16*
%TO.C,M3*%
X31500000Y-115500000D03*
%TD*%
D10*
%TO.C,U2 - R DFPlayer*%
X163260000Y-109000000D03*
D11*
X165800000Y-109000000D03*
X168340000Y-109000000D03*
X170880000Y-109000000D03*
X173420000Y-109000000D03*
X175960000Y-109000000D03*
X178500000Y-109000000D03*
X181040000Y-109000000D03*
X181040000Y-93760000D03*
X178500000Y-93760000D03*
X175960000Y-93760000D03*
X173420000Y-93760000D03*
X170880000Y-93760000D03*
X168340000Y-93760000D03*
X165800000Y-93760000D03*
X163260000Y-93760000D03*
%TD*%
D10*
%TO.C,SW1*%
X69880000Y-60420000D03*
D11*
X72420000Y-60420000D03*
X74960000Y-60420000D03*
X77500000Y-60420000D03*
X69880000Y-65500000D03*
X72420000Y-65500000D03*
X74960000Y-65500000D03*
X77500000Y-65500000D03*
%TD*%
D10*
%TO.C,J4*%
X99960000Y-112000000D03*
D11*
X102500000Y-112000000D03*
X105040000Y-112000000D03*
%TD*%
D10*
%TO.C,C2*%
X157230000Y-71500000D03*
D11*
X154230000Y-71500000D03*
%TD*%
D10*
%TO.C,R3*%
X70880000Y-46840000D03*
D11*
X78500000Y-46840000D03*
%TD*%
D10*
%TO.C,R4*%
X70880000Y-51000000D03*
D11*
X78500000Y-51000000D03*
%TD*%
D16*
%TO.C,M3*%
X31000000Y-26500000D03*
%TD*%
%TO.C,M3*%
X180000000Y-116000000D03*
%TD*%
D10*
%TO.C,R6*%
X158540000Y-79500000D03*
D11*
X166160000Y-79500000D03*
%TD*%
D10*
%TO.C,R8*%
X102190000Y-104000000D03*
D11*
X109810000Y-104000000D03*
%TD*%
D10*
%TO.C,U1*%
X119100000Y-35920000D03*
D11*
X119100000Y-38460000D03*
X119100000Y-41000000D03*
X119100000Y-43540000D03*
X119100000Y-46080000D03*
X119100000Y-48620000D03*
X119100000Y-51160000D03*
X119100000Y-53700000D03*
X119100000Y-56240000D03*
X119100000Y-58780000D03*
X119100000Y-61320000D03*
X119100000Y-63860000D03*
X119100000Y-66400000D03*
X119100000Y-68940000D03*
X119100000Y-71480000D03*
X119100000Y-74020000D03*
X119100000Y-76560000D03*
X119100000Y-79100000D03*
X119100000Y-81640000D03*
X119100000Y-84180000D03*
X119100000Y-86720000D03*
X119100000Y-89260000D03*
X144500000Y-35920000D03*
X144500000Y-38460000D03*
X144500000Y-41000000D03*
X144500000Y-43540000D03*
X144500000Y-46080000D03*
X144500000Y-48620000D03*
X144500000Y-51160000D03*
X144500000Y-53700000D03*
X144500000Y-56240000D03*
X144500000Y-58780000D03*
X144500000Y-61320000D03*
X144500000Y-63860000D03*
X144500000Y-66400000D03*
X144500000Y-68940000D03*
X144500000Y-71480000D03*
X144500000Y-74020000D03*
X144500000Y-76560000D03*
X144500000Y-79100000D03*
X144500000Y-81640000D03*
X144500000Y-84180000D03*
X144500000Y-86720000D03*
X144500000Y-89260000D03*
%TD*%
D17*
%TO.C,J1*%
X40000000Y-39500000D03*
D18*
X45000000Y-39500000D03*
%TD*%
D19*
%TO.C,REF\u002A\u002A*%
X181000000Y-89000000D03*
X183500000Y-89000000D03*
X176000000Y-84000000D03*
X181000000Y-79000000D03*
X183500000Y-79000000D03*
D20*
X176000000Y-89000000D03*
D21*
X176000000Y-86500000D03*
D22*
X181000000Y-84000000D03*
D20*
X176000000Y-79000000D03*
D23*
X176000000Y-81500000D03*
%TD*%
D10*
%TO.C,R2*%
X70880000Y-43000000D03*
D11*
X78500000Y-43000000D03*
%TD*%
M02*
