%TF.GenerationSoftware,KiCad,Pcbnew,10.0.4*%
%TF.CreationDate,2026-08-14T16:43:36-05:00*%
%TF.ProjectId,Cluster_Logic_Board,436c7573-7465-4725-9f4c-6f6769635f42,rev?*%
%TF.SameCoordinates,Original*%
%TF.FileFunction,Legend,Top*%
%TF.FilePolarity,Positive*%
%FSLAX46Y46*%
G04 Gerber Fmt 4.6, Leading zero omitted, Abs format (unit mm)*
G04 Created by KiCad (PCBNEW 10.0.4) date 2026-08-14 16:43:36*
%MOMM*%
%LPD*%
G01*
G04 APERTURE LIST*
%ADD10C,0.225000*%
%ADD11C,0.300000*%
%ADD12C,0.350000*%
%ADD13C,0.150000*%
%ADD14C,0.158750*%
%ADD15C,0.120000*%
%ADD16C,0.100000*%
%ADD17C,0.250000*%
G04 APERTURE END LIST*
D10*
X4495342Y-37157145D02*
X3852485Y-37157145D01*
X3852485Y-37157145D02*
X3723914Y-37114288D01*
X3723914Y-37114288D02*
X3638200Y-37028574D01*
X3638200Y-37028574D02*
X3595342Y-36900002D01*
X3595342Y-36900002D02*
X3595342Y-36814288D01*
X3595342Y-38057145D02*
X3595342Y-37542859D01*
X3595342Y-37800002D02*
X4495342Y-37800002D01*
X4495342Y-37800002D02*
X4366771Y-37714288D01*
X4366771Y-37714288D02*
X4281057Y-37628573D01*
X4281057Y-37628573D02*
X4238200Y-37542859D01*
X4495342Y-38614288D02*
X4495342Y-38700002D01*
X4495342Y-38700002D02*
X4452485Y-38785716D01*
X4452485Y-38785716D02*
X4409628Y-38828574D01*
X4409628Y-38828574D02*
X4323914Y-38871431D01*
X4323914Y-38871431D02*
X4152485Y-38914288D01*
X4152485Y-38914288D02*
X3938200Y-38914288D01*
X3938200Y-38914288D02*
X3766771Y-38871431D01*
X3766771Y-38871431D02*
X3681057Y-38828574D01*
X3681057Y-38828574D02*
X3638200Y-38785716D01*
X3638200Y-38785716D02*
X3595342Y-38700002D01*
X3595342Y-38700002D02*
X3595342Y-38614288D01*
X3595342Y-38614288D02*
X3638200Y-38528574D01*
X3638200Y-38528574D02*
X3681057Y-38485716D01*
X3681057Y-38485716D02*
X3766771Y-38442859D01*
X3766771Y-38442859D02*
X3938200Y-38400002D01*
X3938200Y-38400002D02*
X4152485Y-38400002D01*
X4152485Y-38400002D02*
X4323914Y-38442859D01*
X4323914Y-38442859D02*
X4409628Y-38485716D01*
X4409628Y-38485716D02*
X4452485Y-38528574D01*
X4452485Y-38528574D02*
X4495342Y-38614288D01*
X4495342Y-39985716D02*
X3766771Y-39985716D01*
X3766771Y-39985716D02*
X3681057Y-40028573D01*
X3681057Y-40028573D02*
X3638200Y-40071431D01*
X3638200Y-40071431D02*
X3595342Y-40157145D01*
X3595342Y-40157145D02*
X3595342Y-40328573D01*
X3595342Y-40328573D02*
X3638200Y-40414288D01*
X3638200Y-40414288D02*
X3681057Y-40457145D01*
X3681057Y-40457145D02*
X3766771Y-40500002D01*
X3766771Y-40500002D02*
X4495342Y-40500002D01*
X3595342Y-40928573D02*
X4495342Y-40928573D01*
X4495342Y-40928573D02*
X3595342Y-41442859D01*
X3595342Y-41442859D02*
X4495342Y-41442859D01*
X3681057Y-42385716D02*
X3638200Y-42342859D01*
X3638200Y-42342859D02*
X3595342Y-42214287D01*
X3595342Y-42214287D02*
X3595342Y-42128573D01*
X3595342Y-42128573D02*
X3638200Y-42000002D01*
X3638200Y-42000002D02*
X3723914Y-41914287D01*
X3723914Y-41914287D02*
X3809628Y-41871430D01*
X3809628Y-41871430D02*
X3981057Y-41828573D01*
X3981057Y-41828573D02*
X4109628Y-41828573D01*
X4109628Y-41828573D02*
X4281057Y-41871430D01*
X4281057Y-41871430D02*
X4366771Y-41914287D01*
X4366771Y-41914287D02*
X4452485Y-42000002D01*
X4452485Y-42000002D02*
X4495342Y-42128573D01*
X4495342Y-42128573D02*
X4495342Y-42214287D01*
X4495342Y-42214287D02*
X4452485Y-42342859D01*
X4452485Y-42342859D02*
X4409628Y-42385716D01*
X3595342Y-42771430D02*
X4495342Y-42771430D01*
X4066771Y-42771430D02*
X4066771Y-43285716D01*
X3595342Y-43285716D02*
X4495342Y-43285716D01*
X3852485Y-43671430D02*
X3852485Y-44100002D01*
X3595342Y-43585716D02*
X4495342Y-43885716D01*
X4495342Y-43885716D02*
X3595342Y-44185716D01*
X3595342Y-44485716D02*
X4495342Y-44485716D01*
X4495342Y-44485716D02*
X3595342Y-45000002D01*
X3595342Y-45000002D02*
X4495342Y-45000002D01*
X4452485Y-45900002D02*
X4495342Y-45814288D01*
X4495342Y-45814288D02*
X4495342Y-45685716D01*
X4495342Y-45685716D02*
X4452485Y-45557145D01*
X4452485Y-45557145D02*
X4366771Y-45471430D01*
X4366771Y-45471430D02*
X4281057Y-45428573D01*
X4281057Y-45428573D02*
X4109628Y-45385716D01*
X4109628Y-45385716D02*
X3981057Y-45385716D01*
X3981057Y-45385716D02*
X3809628Y-45428573D01*
X3809628Y-45428573D02*
X3723914Y-45471430D01*
X3723914Y-45471430D02*
X3638200Y-45557145D01*
X3638200Y-45557145D02*
X3595342Y-45685716D01*
X3595342Y-45685716D02*
X3595342Y-45771430D01*
X3595342Y-45771430D02*
X3638200Y-45900002D01*
X3638200Y-45900002D02*
X3681057Y-45942859D01*
X3681057Y-45942859D02*
X3981057Y-45942859D01*
X3981057Y-45942859D02*
X3981057Y-45771430D01*
X4066771Y-46328573D02*
X4066771Y-46628573D01*
X3595342Y-46757145D02*
X3595342Y-46328573D01*
X3595342Y-46328573D02*
X4495342Y-46328573D01*
X4495342Y-46328573D02*
X4495342Y-46757145D01*
X3595342Y-47142859D02*
X4495342Y-47142859D01*
X4495342Y-47142859D02*
X4495342Y-47357145D01*
X4495342Y-47357145D02*
X4452485Y-47485716D01*
X4452485Y-47485716D02*
X4366771Y-47571431D01*
X4366771Y-47571431D02*
X4281057Y-47614288D01*
X4281057Y-47614288D02*
X4109628Y-47657145D01*
X4109628Y-47657145D02*
X3981057Y-47657145D01*
X3981057Y-47657145D02*
X3809628Y-47614288D01*
X3809628Y-47614288D02*
X3723914Y-47571431D01*
X3723914Y-47571431D02*
X3638200Y-47485716D01*
X3638200Y-47485716D02*
X3595342Y-47357145D01*
X3595342Y-47357145D02*
X3595342Y-47142859D01*
X3681057Y-48042859D02*
X3638200Y-48085716D01*
X3638200Y-48085716D02*
X3595342Y-48042859D01*
X3595342Y-48042859D02*
X3638200Y-48000002D01*
X3638200Y-48000002D02*
X3681057Y-48042859D01*
X3681057Y-48042859D02*
X3595342Y-48042859D01*
X4152485Y-48042859D02*
X4109628Y-48085716D01*
X4109628Y-48085716D02*
X4066771Y-48042859D01*
X4066771Y-48042859D02*
X4109628Y-48000002D01*
X4109628Y-48000002D02*
X4152485Y-48042859D01*
X4152485Y-48042859D02*
X4066771Y-48042859D01*
X3595342Y-49628573D02*
X3595342Y-49114287D01*
X3595342Y-49371430D02*
X4495342Y-49371430D01*
X4495342Y-49371430D02*
X4366771Y-49285716D01*
X4366771Y-49285716D02*
X4281057Y-49200001D01*
X4281057Y-49200001D02*
X4238200Y-49114287D01*
X4452485Y-51171430D02*
X4495342Y-51085716D01*
X4495342Y-51085716D02*
X4495342Y-50957144D01*
X4495342Y-50957144D02*
X4452485Y-50828573D01*
X4452485Y-50828573D02*
X4366771Y-50742858D01*
X4366771Y-50742858D02*
X4281057Y-50700001D01*
X4281057Y-50700001D02*
X4109628Y-50657144D01*
X4109628Y-50657144D02*
X3981057Y-50657144D01*
X3981057Y-50657144D02*
X3809628Y-50700001D01*
X3809628Y-50700001D02*
X3723914Y-50742858D01*
X3723914Y-50742858D02*
X3638200Y-50828573D01*
X3638200Y-50828573D02*
X3595342Y-50957144D01*
X3595342Y-50957144D02*
X3595342Y-51042858D01*
X3595342Y-51042858D02*
X3638200Y-51171430D01*
X3638200Y-51171430D02*
X3681057Y-51214287D01*
X3681057Y-51214287D02*
X3981057Y-51214287D01*
X3981057Y-51214287D02*
X3981057Y-51042858D01*
X3595342Y-51600001D02*
X4495342Y-51600001D01*
X4495342Y-51600001D02*
X3595342Y-52114287D01*
X3595342Y-52114287D02*
X4495342Y-52114287D01*
X3595342Y-52542858D02*
X4495342Y-52542858D01*
X4495342Y-52542858D02*
X4495342Y-52757144D01*
X4495342Y-52757144D02*
X4452485Y-52885715D01*
X4452485Y-52885715D02*
X4366771Y-52971430D01*
X4366771Y-52971430D02*
X4281057Y-53014287D01*
X4281057Y-53014287D02*
X4109628Y-53057144D01*
X4109628Y-53057144D02*
X3981057Y-53057144D01*
X3981057Y-53057144D02*
X3809628Y-53014287D01*
X3809628Y-53014287D02*
X3723914Y-52971430D01*
X3723914Y-52971430D02*
X3638200Y-52885715D01*
X3638200Y-52885715D02*
X3595342Y-52757144D01*
X3595342Y-52757144D02*
X3595342Y-52542858D01*
X4409628Y-54771429D02*
X4452485Y-54814286D01*
X4452485Y-54814286D02*
X4495342Y-54900001D01*
X4495342Y-54900001D02*
X4495342Y-55114286D01*
X4495342Y-55114286D02*
X4452485Y-55200001D01*
X4452485Y-55200001D02*
X4409628Y-55242858D01*
X4409628Y-55242858D02*
X4323914Y-55285715D01*
X4323914Y-55285715D02*
X4238200Y-55285715D01*
X4238200Y-55285715D02*
X4109628Y-55242858D01*
X4109628Y-55242858D02*
X3595342Y-54728572D01*
X3595342Y-54728572D02*
X3595342Y-55285715D01*
X4452485Y-56828572D02*
X4495342Y-56742858D01*
X4495342Y-56742858D02*
X4495342Y-56614286D01*
X4495342Y-56614286D02*
X4452485Y-56485715D01*
X4452485Y-56485715D02*
X4366771Y-56400000D01*
X4366771Y-56400000D02*
X4281057Y-56357143D01*
X4281057Y-56357143D02*
X4109628Y-56314286D01*
X4109628Y-56314286D02*
X3981057Y-56314286D01*
X3981057Y-56314286D02*
X3809628Y-56357143D01*
X3809628Y-56357143D02*
X3723914Y-56400000D01*
X3723914Y-56400000D02*
X3638200Y-56485715D01*
X3638200Y-56485715D02*
X3595342Y-56614286D01*
X3595342Y-56614286D02*
X3595342Y-56700000D01*
X3595342Y-56700000D02*
X3638200Y-56828572D01*
X3638200Y-56828572D02*
X3681057Y-56871429D01*
X3681057Y-56871429D02*
X3981057Y-56871429D01*
X3981057Y-56871429D02*
X3981057Y-56700000D01*
X3595342Y-57257143D02*
X4495342Y-57257143D01*
X4495342Y-57257143D02*
X3595342Y-57771429D01*
X3595342Y-57771429D02*
X4495342Y-57771429D01*
X3595342Y-58200000D02*
X4495342Y-58200000D01*
X4495342Y-58200000D02*
X4495342Y-58414286D01*
X4495342Y-58414286D02*
X4452485Y-58542857D01*
X4452485Y-58542857D02*
X4366771Y-58628572D01*
X4366771Y-58628572D02*
X4281057Y-58671429D01*
X4281057Y-58671429D02*
X4109628Y-58714286D01*
X4109628Y-58714286D02*
X3981057Y-58714286D01*
X3981057Y-58714286D02*
X3809628Y-58671429D01*
X3809628Y-58671429D02*
X3723914Y-58628572D01*
X3723914Y-58628572D02*
X3638200Y-58542857D01*
X3638200Y-58542857D02*
X3595342Y-58414286D01*
X3595342Y-58414286D02*
X3595342Y-58200000D01*
X4495342Y-60385714D02*
X4495342Y-60942857D01*
X4495342Y-60942857D02*
X4152485Y-60642857D01*
X4152485Y-60642857D02*
X4152485Y-60771428D01*
X4152485Y-60771428D02*
X4109628Y-60857143D01*
X4109628Y-60857143D02*
X4066771Y-60900000D01*
X4066771Y-60900000D02*
X3981057Y-60942857D01*
X3981057Y-60942857D02*
X3766771Y-60942857D01*
X3766771Y-60942857D02*
X3681057Y-60900000D01*
X3681057Y-60900000D02*
X3638200Y-60857143D01*
X3638200Y-60857143D02*
X3595342Y-60771428D01*
X3595342Y-60771428D02*
X3595342Y-60514285D01*
X3595342Y-60514285D02*
X3638200Y-60428571D01*
X3638200Y-60428571D02*
X3681057Y-60385714D01*
X4495342Y-61928571D02*
X4495342Y-62485714D01*
X4495342Y-62485714D02*
X4152485Y-62185714D01*
X4152485Y-62185714D02*
X4152485Y-62314285D01*
X4152485Y-62314285D02*
X4109628Y-62400000D01*
X4109628Y-62400000D02*
X4066771Y-62442857D01*
X4066771Y-62442857D02*
X3981057Y-62485714D01*
X3981057Y-62485714D02*
X3766771Y-62485714D01*
X3766771Y-62485714D02*
X3681057Y-62442857D01*
X3681057Y-62442857D02*
X3638200Y-62400000D01*
X3638200Y-62400000D02*
X3595342Y-62314285D01*
X3595342Y-62314285D02*
X3595342Y-62057142D01*
X3595342Y-62057142D02*
X3638200Y-61971428D01*
X3638200Y-61971428D02*
X3681057Y-61928571D01*
X4495342Y-62742857D02*
X3595342Y-63042857D01*
X3595342Y-63042857D02*
X4495342Y-63342857D01*
X4495342Y-63557143D02*
X4495342Y-64114286D01*
X4495342Y-64114286D02*
X4152485Y-63814286D01*
X4152485Y-63814286D02*
X4152485Y-63942857D01*
X4152485Y-63942857D02*
X4109628Y-64028572D01*
X4109628Y-64028572D02*
X4066771Y-64071429D01*
X4066771Y-64071429D02*
X3981057Y-64114286D01*
X3981057Y-64114286D02*
X3766771Y-64114286D01*
X3766771Y-64114286D02*
X3681057Y-64071429D01*
X3681057Y-64071429D02*
X3638200Y-64028572D01*
X3638200Y-64028572D02*
X3595342Y-63942857D01*
X3595342Y-63942857D02*
X3595342Y-63685714D01*
X3595342Y-63685714D02*
X3638200Y-63600000D01*
X3638200Y-63600000D02*
X3681057Y-63557143D01*
X4195342Y-66257143D02*
X3595342Y-66257143D01*
X4538200Y-66042857D02*
X3895342Y-65828571D01*
X3895342Y-65828571D02*
X3895342Y-66385714D01*
X3638200Y-67371428D02*
X3595342Y-67500000D01*
X3595342Y-67500000D02*
X3595342Y-67714285D01*
X3595342Y-67714285D02*
X3638200Y-67800000D01*
X3638200Y-67800000D02*
X3681057Y-67842857D01*
X3681057Y-67842857D02*
X3766771Y-67885714D01*
X3766771Y-67885714D02*
X3852485Y-67885714D01*
X3852485Y-67885714D02*
X3938200Y-67842857D01*
X3938200Y-67842857D02*
X3981057Y-67800000D01*
X3981057Y-67800000D02*
X4023914Y-67714285D01*
X4023914Y-67714285D02*
X4066771Y-67542857D01*
X4066771Y-67542857D02*
X4109628Y-67457142D01*
X4109628Y-67457142D02*
X4152485Y-67414285D01*
X4152485Y-67414285D02*
X4238200Y-67371428D01*
X4238200Y-67371428D02*
X4323914Y-67371428D01*
X4323914Y-67371428D02*
X4409628Y-67414285D01*
X4409628Y-67414285D02*
X4452485Y-67457142D01*
X4452485Y-67457142D02*
X4495342Y-67542857D01*
X4495342Y-67542857D02*
X4495342Y-67757142D01*
X4495342Y-67757142D02*
X4452485Y-67885714D01*
X3595342Y-68271428D02*
X4495342Y-68271428D01*
X4495342Y-68271428D02*
X4495342Y-68485714D01*
X4495342Y-68485714D02*
X4452485Y-68614285D01*
X4452485Y-68614285D02*
X4366771Y-68700000D01*
X4366771Y-68700000D02*
X4281057Y-68742857D01*
X4281057Y-68742857D02*
X4109628Y-68785714D01*
X4109628Y-68785714D02*
X3981057Y-68785714D01*
X3981057Y-68785714D02*
X3809628Y-68742857D01*
X3809628Y-68742857D02*
X3723914Y-68700000D01*
X3723914Y-68700000D02*
X3638200Y-68614285D01*
X3638200Y-68614285D02*
X3595342Y-68485714D01*
X3595342Y-68485714D02*
X3595342Y-68271428D01*
X3852485Y-69128571D02*
X3852485Y-69557143D01*
X3595342Y-69042857D02*
X4495342Y-69342857D01*
X4495342Y-69342857D02*
X3595342Y-69642857D01*
X4495342Y-71742857D02*
X4495342Y-71314285D01*
X4495342Y-71314285D02*
X4066771Y-71271428D01*
X4066771Y-71271428D02*
X4109628Y-71314285D01*
X4109628Y-71314285D02*
X4152485Y-71400000D01*
X4152485Y-71400000D02*
X4152485Y-71614285D01*
X4152485Y-71614285D02*
X4109628Y-71700000D01*
X4109628Y-71700000D02*
X4066771Y-71742857D01*
X4066771Y-71742857D02*
X3981057Y-71785714D01*
X3981057Y-71785714D02*
X3766771Y-71785714D01*
X3766771Y-71785714D02*
X3681057Y-71742857D01*
X3681057Y-71742857D02*
X3638200Y-71700000D01*
X3638200Y-71700000D02*
X3595342Y-71614285D01*
X3595342Y-71614285D02*
X3595342Y-71400000D01*
X3595342Y-71400000D02*
X3638200Y-71314285D01*
X3638200Y-71314285D02*
X3681057Y-71271428D01*
X3638200Y-72814285D02*
X3595342Y-72942857D01*
X3595342Y-72942857D02*
X3595342Y-73157142D01*
X3595342Y-73157142D02*
X3638200Y-73242857D01*
X3638200Y-73242857D02*
X3681057Y-73285714D01*
X3681057Y-73285714D02*
X3766771Y-73328571D01*
X3766771Y-73328571D02*
X3852485Y-73328571D01*
X3852485Y-73328571D02*
X3938200Y-73285714D01*
X3938200Y-73285714D02*
X3981057Y-73242857D01*
X3981057Y-73242857D02*
X4023914Y-73157142D01*
X4023914Y-73157142D02*
X4066771Y-72985714D01*
X4066771Y-72985714D02*
X4109628Y-72899999D01*
X4109628Y-72899999D02*
X4152485Y-72857142D01*
X4152485Y-72857142D02*
X4238200Y-72814285D01*
X4238200Y-72814285D02*
X4323914Y-72814285D01*
X4323914Y-72814285D02*
X4409628Y-72857142D01*
X4409628Y-72857142D02*
X4452485Y-72899999D01*
X4452485Y-72899999D02*
X4495342Y-72985714D01*
X4495342Y-72985714D02*
X4495342Y-73199999D01*
X4495342Y-73199999D02*
X4452485Y-73328571D01*
X3681057Y-74228571D02*
X3638200Y-74185714D01*
X3638200Y-74185714D02*
X3595342Y-74057142D01*
X3595342Y-74057142D02*
X3595342Y-73971428D01*
X3595342Y-73971428D02*
X3638200Y-73842857D01*
X3638200Y-73842857D02*
X3723914Y-73757142D01*
X3723914Y-73757142D02*
X3809628Y-73714285D01*
X3809628Y-73714285D02*
X3981057Y-73671428D01*
X3981057Y-73671428D02*
X4109628Y-73671428D01*
X4109628Y-73671428D02*
X4281057Y-73714285D01*
X4281057Y-73714285D02*
X4366771Y-73757142D01*
X4366771Y-73757142D02*
X4452485Y-73842857D01*
X4452485Y-73842857D02*
X4495342Y-73971428D01*
X4495342Y-73971428D02*
X4495342Y-74057142D01*
X4495342Y-74057142D02*
X4452485Y-74185714D01*
X4452485Y-74185714D02*
X4409628Y-74228571D01*
X3595342Y-75042857D02*
X3595342Y-74614285D01*
X3595342Y-74614285D02*
X4495342Y-74614285D01*
X4495342Y-77099999D02*
X4495342Y-76928570D01*
X4495342Y-76928570D02*
X4452485Y-76842856D01*
X4452485Y-76842856D02*
X4409628Y-76799999D01*
X4409628Y-76799999D02*
X4281057Y-76714284D01*
X4281057Y-76714284D02*
X4109628Y-76671427D01*
X4109628Y-76671427D02*
X3766771Y-76671427D01*
X3766771Y-76671427D02*
X3681057Y-76714284D01*
X3681057Y-76714284D02*
X3638200Y-76757141D01*
X3638200Y-76757141D02*
X3595342Y-76842856D01*
X3595342Y-76842856D02*
X3595342Y-77014284D01*
X3595342Y-77014284D02*
X3638200Y-77099999D01*
X3638200Y-77099999D02*
X3681057Y-77142856D01*
X3681057Y-77142856D02*
X3766771Y-77185713D01*
X3766771Y-77185713D02*
X3981057Y-77185713D01*
X3981057Y-77185713D02*
X4066771Y-77142856D01*
X4066771Y-77142856D02*
X4109628Y-77099999D01*
X4109628Y-77099999D02*
X4152485Y-77014284D01*
X4152485Y-77014284D02*
X4152485Y-76842856D01*
X4152485Y-76842856D02*
X4109628Y-76757141D01*
X4109628Y-76757141D02*
X4066771Y-76714284D01*
X4066771Y-76714284D02*
X3981057Y-76671427D01*
X3595342Y-78685713D02*
X3595342Y-78257141D01*
X3595342Y-78257141D02*
X4495342Y-78257141D01*
X4066771Y-78985712D02*
X4066771Y-79285712D01*
X3595342Y-79414284D02*
X3595342Y-78985712D01*
X3595342Y-78985712D02*
X4495342Y-78985712D01*
X4495342Y-78985712D02*
X4495342Y-79414284D01*
X3595342Y-79799998D02*
X4495342Y-79799998D01*
X4495342Y-79799998D02*
X4495342Y-80014284D01*
X4495342Y-80014284D02*
X4452485Y-80142855D01*
X4452485Y-80142855D02*
X4366771Y-80228570D01*
X4366771Y-80228570D02*
X4281057Y-80271427D01*
X4281057Y-80271427D02*
X4109628Y-80314284D01*
X4109628Y-80314284D02*
X3981057Y-80314284D01*
X3981057Y-80314284D02*
X3809628Y-80271427D01*
X3809628Y-80271427D02*
X3723914Y-80228570D01*
X3723914Y-80228570D02*
X3638200Y-80142855D01*
X3638200Y-80142855D02*
X3595342Y-80014284D01*
X3595342Y-80014284D02*
X3595342Y-79799998D01*
X4495342Y-81985712D02*
X4495342Y-82585712D01*
X4495342Y-82585712D02*
X3595342Y-82199998D01*
X4495342Y-83785712D02*
X4495342Y-83957140D01*
X4495342Y-83957140D02*
X4452485Y-84042855D01*
X4452485Y-84042855D02*
X4366771Y-84128569D01*
X4366771Y-84128569D02*
X4195342Y-84171426D01*
X4195342Y-84171426D02*
X3895342Y-84171426D01*
X3895342Y-84171426D02*
X3723914Y-84128569D01*
X3723914Y-84128569D02*
X3638200Y-84042855D01*
X3638200Y-84042855D02*
X3595342Y-83957140D01*
X3595342Y-83957140D02*
X3595342Y-83785712D01*
X3595342Y-83785712D02*
X3638200Y-83699998D01*
X3638200Y-83699998D02*
X3723914Y-83614283D01*
X3723914Y-83614283D02*
X3895342Y-83571426D01*
X3895342Y-83571426D02*
X4195342Y-83571426D01*
X4195342Y-83571426D02*
X4366771Y-83614283D01*
X4366771Y-83614283D02*
X4452485Y-83699998D01*
X4452485Y-83699998D02*
X4495342Y-83785712D01*
X4066771Y-84557140D02*
X4066771Y-84857140D01*
X3595342Y-84985712D02*
X3595342Y-84557140D01*
X3595342Y-84557140D02*
X4495342Y-84557140D01*
X4495342Y-84557140D02*
X4495342Y-84985712D01*
X4109628Y-86871426D02*
X4152485Y-86785711D01*
X4152485Y-86785711D02*
X4195342Y-86742854D01*
X4195342Y-86742854D02*
X4281057Y-86699997D01*
X4281057Y-86699997D02*
X4323914Y-86699997D01*
X4323914Y-86699997D02*
X4409628Y-86742854D01*
X4409628Y-86742854D02*
X4452485Y-86785711D01*
X4452485Y-86785711D02*
X4495342Y-86871426D01*
X4495342Y-86871426D02*
X4495342Y-87042854D01*
X4495342Y-87042854D02*
X4452485Y-87128569D01*
X4452485Y-87128569D02*
X4409628Y-87171426D01*
X4409628Y-87171426D02*
X4323914Y-87214283D01*
X4323914Y-87214283D02*
X4281057Y-87214283D01*
X4281057Y-87214283D02*
X4195342Y-87171426D01*
X4195342Y-87171426D02*
X4152485Y-87128569D01*
X4152485Y-87128569D02*
X4109628Y-87042854D01*
X4109628Y-87042854D02*
X4109628Y-86871426D01*
X4109628Y-86871426D02*
X4066771Y-86785711D01*
X4066771Y-86785711D02*
X4023914Y-86742854D01*
X4023914Y-86742854D02*
X3938200Y-86699997D01*
X3938200Y-86699997D02*
X3766771Y-86699997D01*
X3766771Y-86699997D02*
X3681057Y-86742854D01*
X3681057Y-86742854D02*
X3638200Y-86785711D01*
X3638200Y-86785711D02*
X3595342Y-86871426D01*
X3595342Y-86871426D02*
X3595342Y-87042854D01*
X3595342Y-87042854D02*
X3638200Y-87128569D01*
X3638200Y-87128569D02*
X3681057Y-87171426D01*
X3681057Y-87171426D02*
X3766771Y-87214283D01*
X3766771Y-87214283D02*
X3938200Y-87214283D01*
X3938200Y-87214283D02*
X4023914Y-87171426D01*
X4023914Y-87171426D02*
X4066771Y-87128569D01*
X4066771Y-87128569D02*
X4109628Y-87042854D01*
X3638200Y-88242854D02*
X3595342Y-88371426D01*
X3595342Y-88371426D02*
X3595342Y-88585711D01*
X3595342Y-88585711D02*
X3638200Y-88671426D01*
X3638200Y-88671426D02*
X3681057Y-88714283D01*
X3681057Y-88714283D02*
X3766771Y-88757140D01*
X3766771Y-88757140D02*
X3852485Y-88757140D01*
X3852485Y-88757140D02*
X3938200Y-88714283D01*
X3938200Y-88714283D02*
X3981057Y-88671426D01*
X3981057Y-88671426D02*
X4023914Y-88585711D01*
X4023914Y-88585711D02*
X4066771Y-88414283D01*
X4066771Y-88414283D02*
X4109628Y-88328568D01*
X4109628Y-88328568D02*
X4152485Y-88285711D01*
X4152485Y-88285711D02*
X4238200Y-88242854D01*
X4238200Y-88242854D02*
X4323914Y-88242854D01*
X4323914Y-88242854D02*
X4409628Y-88285711D01*
X4409628Y-88285711D02*
X4452485Y-88328568D01*
X4452485Y-88328568D02*
X4495342Y-88414283D01*
X4495342Y-88414283D02*
X4495342Y-88628568D01*
X4495342Y-88628568D02*
X4452485Y-88757140D01*
X3595342Y-89142854D02*
X4495342Y-89142854D01*
X4495342Y-89142854D02*
X4495342Y-89485711D01*
X4495342Y-89485711D02*
X4452485Y-89571426D01*
X4452485Y-89571426D02*
X4409628Y-89614283D01*
X4409628Y-89614283D02*
X4323914Y-89657140D01*
X4323914Y-89657140D02*
X4195342Y-89657140D01*
X4195342Y-89657140D02*
X4109628Y-89614283D01*
X4109628Y-89614283D02*
X4066771Y-89571426D01*
X4066771Y-89571426D02*
X4023914Y-89485711D01*
X4023914Y-89485711D02*
X4023914Y-89142854D01*
X3852485Y-89999997D02*
X3852485Y-90428569D01*
X3595342Y-89914283D02*
X4495342Y-90214283D01*
X4495342Y-90214283D02*
X3595342Y-90514283D01*
X3595342Y-91328569D02*
X4023914Y-91028569D01*
X3595342Y-90814283D02*
X4495342Y-90814283D01*
X4495342Y-90814283D02*
X4495342Y-91157140D01*
X4495342Y-91157140D02*
X4452485Y-91242855D01*
X4452485Y-91242855D02*
X4409628Y-91285712D01*
X4409628Y-91285712D02*
X4323914Y-91328569D01*
X4323914Y-91328569D02*
X4195342Y-91328569D01*
X4195342Y-91328569D02*
X4109628Y-91285712D01*
X4109628Y-91285712D02*
X4066771Y-91242855D01*
X4066771Y-91242855D02*
X4023914Y-91157140D01*
X4023914Y-91157140D02*
X4023914Y-90814283D01*
X4066771Y-91714283D02*
X4066771Y-92014283D01*
X3595342Y-92142855D02*
X3595342Y-91714283D01*
X3595342Y-91714283D02*
X4495342Y-91714283D01*
X4495342Y-91714283D02*
X4495342Y-92142855D01*
D11*
X16585713Y-6910971D02*
X16985713Y-6910971D01*
X17157141Y-7539542D02*
X16585713Y-7539542D01*
X16585713Y-7539542D02*
X16585713Y-6339542D01*
X16585713Y-6339542D02*
X17157141Y-6339542D01*
X17614284Y-7482400D02*
X17785713Y-7539542D01*
X17785713Y-7539542D02*
X18071427Y-7539542D01*
X18071427Y-7539542D02*
X18185713Y-7482400D01*
X18185713Y-7482400D02*
X18242855Y-7425257D01*
X18242855Y-7425257D02*
X18299998Y-7310971D01*
X18299998Y-7310971D02*
X18299998Y-7196685D01*
X18299998Y-7196685D02*
X18242855Y-7082400D01*
X18242855Y-7082400D02*
X18185713Y-7025257D01*
X18185713Y-7025257D02*
X18071427Y-6968114D01*
X18071427Y-6968114D02*
X17842855Y-6910971D01*
X17842855Y-6910971D02*
X17728570Y-6853828D01*
X17728570Y-6853828D02*
X17671427Y-6796685D01*
X17671427Y-6796685D02*
X17614284Y-6682400D01*
X17614284Y-6682400D02*
X17614284Y-6568114D01*
X17614284Y-6568114D02*
X17671427Y-6453828D01*
X17671427Y-6453828D02*
X17728570Y-6396685D01*
X17728570Y-6396685D02*
X17842855Y-6339542D01*
X17842855Y-6339542D02*
X18128570Y-6339542D01*
X18128570Y-6339542D02*
X18299998Y-6396685D01*
X18814284Y-7539542D02*
X18814284Y-6339542D01*
X18814284Y-6339542D02*
X19271427Y-6339542D01*
X19271427Y-6339542D02*
X19385712Y-6396685D01*
X19385712Y-6396685D02*
X19442855Y-6453828D01*
X19442855Y-6453828D02*
X19499998Y-6568114D01*
X19499998Y-6568114D02*
X19499998Y-6739542D01*
X19499998Y-6739542D02*
X19442855Y-6853828D01*
X19442855Y-6853828D02*
X19385712Y-6910971D01*
X19385712Y-6910971D02*
X19271427Y-6968114D01*
X19271427Y-6968114D02*
X18814284Y-6968114D01*
X19899998Y-6339542D02*
X20642855Y-6339542D01*
X20642855Y-6339542D02*
X20242855Y-6796685D01*
X20242855Y-6796685D02*
X20414284Y-6796685D01*
X20414284Y-6796685D02*
X20528570Y-6853828D01*
X20528570Y-6853828D02*
X20585712Y-6910971D01*
X20585712Y-6910971D02*
X20642855Y-7025257D01*
X20642855Y-7025257D02*
X20642855Y-7310971D01*
X20642855Y-7310971D02*
X20585712Y-7425257D01*
X20585712Y-7425257D02*
X20528570Y-7482400D01*
X20528570Y-7482400D02*
X20414284Y-7539542D01*
X20414284Y-7539542D02*
X20071427Y-7539542D01*
X20071427Y-7539542D02*
X19957141Y-7482400D01*
X19957141Y-7482400D02*
X19899998Y-7425257D01*
X21099998Y-6453828D02*
X21157141Y-6396685D01*
X21157141Y-6396685D02*
X21271427Y-6339542D01*
X21271427Y-6339542D02*
X21557141Y-6339542D01*
X21557141Y-6339542D02*
X21671427Y-6396685D01*
X21671427Y-6396685D02*
X21728569Y-6453828D01*
X21728569Y-6453828D02*
X21785712Y-6568114D01*
X21785712Y-6568114D02*
X21785712Y-6682400D01*
X21785712Y-6682400D02*
X21728569Y-6853828D01*
X21728569Y-6853828D02*
X21042855Y-7539542D01*
X21042855Y-7539542D02*
X21785712Y-7539542D01*
X22299998Y-7082400D02*
X23214284Y-7082400D01*
X23728569Y-7482400D02*
X23899998Y-7539542D01*
X23899998Y-7539542D02*
X24185712Y-7539542D01*
X24185712Y-7539542D02*
X24299998Y-7482400D01*
X24299998Y-7482400D02*
X24357140Y-7425257D01*
X24357140Y-7425257D02*
X24414283Y-7310971D01*
X24414283Y-7310971D02*
X24414283Y-7196685D01*
X24414283Y-7196685D02*
X24357140Y-7082400D01*
X24357140Y-7082400D02*
X24299998Y-7025257D01*
X24299998Y-7025257D02*
X24185712Y-6968114D01*
X24185712Y-6968114D02*
X23957140Y-6910971D01*
X23957140Y-6910971D02*
X23842855Y-6853828D01*
X23842855Y-6853828D02*
X23785712Y-6796685D01*
X23785712Y-6796685D02*
X23728569Y-6682400D01*
X23728569Y-6682400D02*
X23728569Y-6568114D01*
X23728569Y-6568114D02*
X23785712Y-6453828D01*
X23785712Y-6453828D02*
X23842855Y-6396685D01*
X23842855Y-6396685D02*
X23957140Y-6339542D01*
X23957140Y-6339542D02*
X24242855Y-6339542D01*
X24242855Y-6339542D02*
X24414283Y-6396685D01*
X24814283Y-6339542D02*
X25557140Y-6339542D01*
X25557140Y-6339542D02*
X25157140Y-6796685D01*
X25157140Y-6796685D02*
X25328569Y-6796685D01*
X25328569Y-6796685D02*
X25442855Y-6853828D01*
X25442855Y-6853828D02*
X25499997Y-6910971D01*
X25499997Y-6910971D02*
X25557140Y-7025257D01*
X25557140Y-7025257D02*
X25557140Y-7310971D01*
X25557140Y-7310971D02*
X25499997Y-7425257D01*
X25499997Y-7425257D02*
X25442855Y-7482400D01*
X25442855Y-7482400D02*
X25328569Y-7539542D01*
X25328569Y-7539542D02*
X24985712Y-7539542D01*
X24985712Y-7539542D02*
X24871426Y-7482400D01*
X24871426Y-7482400D02*
X24814283Y-7425257D01*
X27842855Y-6282400D02*
X26814283Y-7825257D01*
X29099998Y-6453828D02*
X29157141Y-6396685D01*
X29157141Y-6396685D02*
X29271427Y-6339542D01*
X29271427Y-6339542D02*
X29557141Y-6339542D01*
X29557141Y-6339542D02*
X29671427Y-6396685D01*
X29671427Y-6396685D02*
X29728569Y-6453828D01*
X29728569Y-6453828D02*
X29785712Y-6568114D01*
X29785712Y-6568114D02*
X29785712Y-6682400D01*
X29785712Y-6682400D02*
X29728569Y-6853828D01*
X29728569Y-6853828D02*
X29042855Y-7539542D01*
X29042855Y-7539542D02*
X29785712Y-7539542D01*
X30185712Y-7539542D02*
X30814284Y-6739542D01*
X30185712Y-6739542D02*
X30814284Y-7539542D01*
X32185713Y-7539542D02*
X32185713Y-6339542D01*
X32185713Y-6339542D02*
X32471427Y-6339542D01*
X32471427Y-6339542D02*
X32642856Y-6396685D01*
X32642856Y-6396685D02*
X32757141Y-6510971D01*
X32757141Y-6510971D02*
X32814284Y-6625257D01*
X32814284Y-6625257D02*
X32871427Y-6853828D01*
X32871427Y-6853828D02*
X32871427Y-7025257D01*
X32871427Y-7025257D02*
X32814284Y-7253828D01*
X32814284Y-7253828D02*
X32757141Y-7368114D01*
X32757141Y-7368114D02*
X32642856Y-7482400D01*
X32642856Y-7482400D02*
X32471427Y-7539542D01*
X32471427Y-7539542D02*
X32185713Y-7539542D01*
X33785713Y-6910971D02*
X33385713Y-6910971D01*
X33385713Y-7539542D02*
X33385713Y-6339542D01*
X33385713Y-6339542D02*
X33957141Y-6339542D01*
X34414284Y-7539542D02*
X34414284Y-6339542D01*
X34414284Y-6339542D02*
X34871427Y-6339542D01*
X34871427Y-6339542D02*
X34985712Y-6396685D01*
X34985712Y-6396685D02*
X35042855Y-6453828D01*
X35042855Y-6453828D02*
X35099998Y-6568114D01*
X35099998Y-6568114D02*
X35099998Y-6739542D01*
X35099998Y-6739542D02*
X35042855Y-6853828D01*
X35042855Y-6853828D02*
X34985712Y-6910971D01*
X34985712Y-6910971D02*
X34871427Y-6968114D01*
X34871427Y-6968114D02*
X34414284Y-6968114D01*
X36185712Y-7539542D02*
X35614284Y-7539542D01*
X35614284Y-7539542D02*
X35614284Y-6339542D01*
X36528570Y-7196685D02*
X37099999Y-7196685D01*
X36414284Y-7539542D02*
X36814284Y-6339542D01*
X36814284Y-6339542D02*
X37214284Y-7539542D01*
X37842855Y-6968114D02*
X37842855Y-7539542D01*
X37442855Y-6339542D02*
X37842855Y-6968114D01*
X37842855Y-6968114D02*
X38242855Y-6339542D01*
X38642855Y-6910971D02*
X39042855Y-6910971D01*
X39214283Y-7539542D02*
X38642855Y-7539542D01*
X38642855Y-7539542D02*
X38642855Y-6339542D01*
X38642855Y-6339542D02*
X39214283Y-6339542D01*
X40414283Y-7539542D02*
X40014283Y-6968114D01*
X39728569Y-7539542D02*
X39728569Y-6339542D01*
X39728569Y-6339542D02*
X40185712Y-6339542D01*
X40185712Y-6339542D02*
X40299997Y-6396685D01*
X40299997Y-6396685D02*
X40357140Y-6453828D01*
X40357140Y-6453828D02*
X40414283Y-6568114D01*
X40414283Y-6568114D02*
X40414283Y-6739542D01*
X40414283Y-6739542D02*
X40357140Y-6853828D01*
X40357140Y-6853828D02*
X40299997Y-6910971D01*
X40299997Y-6910971D02*
X40185712Y-6968114D01*
X40185712Y-6968114D02*
X39728569Y-6968114D01*
X42699998Y-6282400D02*
X41671426Y-7825257D01*
X44242855Y-6339542D02*
X44471427Y-6339542D01*
X44471427Y-6339542D02*
X44585712Y-6396685D01*
X44585712Y-6396685D02*
X44699998Y-6510971D01*
X44699998Y-6510971D02*
X44757141Y-6739542D01*
X44757141Y-6739542D02*
X44757141Y-7139542D01*
X44757141Y-7139542D02*
X44699998Y-7368114D01*
X44699998Y-7368114D02*
X44585712Y-7482400D01*
X44585712Y-7482400D02*
X44471427Y-7539542D01*
X44471427Y-7539542D02*
X44242855Y-7539542D01*
X44242855Y-7539542D02*
X44128570Y-7482400D01*
X44128570Y-7482400D02*
X44014284Y-7368114D01*
X44014284Y-7368114D02*
X43957141Y-7139542D01*
X43957141Y-7139542D02*
X43957141Y-6739542D01*
X43957141Y-6739542D02*
X44014284Y-6510971D01*
X44014284Y-6510971D02*
X44128570Y-6396685D01*
X44128570Y-6396685D02*
X44242855Y-6339542D01*
X45842855Y-7539542D02*
X45271427Y-7539542D01*
X45271427Y-7539542D02*
X45271427Y-6339542D01*
X46242856Y-6910971D02*
X46642856Y-6910971D01*
X46814284Y-7539542D02*
X46242856Y-7539542D01*
X46242856Y-7539542D02*
X46242856Y-6339542D01*
X46242856Y-6339542D02*
X46814284Y-6339542D01*
X47328570Y-7539542D02*
X47328570Y-6339542D01*
X47328570Y-6339542D02*
X47614284Y-6339542D01*
X47614284Y-6339542D02*
X47785713Y-6396685D01*
X47785713Y-6396685D02*
X47899998Y-6510971D01*
X47899998Y-6510971D02*
X47957141Y-6625257D01*
X47957141Y-6625257D02*
X48014284Y-6853828D01*
X48014284Y-6853828D02*
X48014284Y-7025257D01*
X48014284Y-7025257D02*
X47957141Y-7253828D01*
X47957141Y-7253828D02*
X47899998Y-7368114D01*
X47899998Y-7368114D02*
X47785713Y-7482400D01*
X47785713Y-7482400D02*
X47614284Y-7539542D01*
X47614284Y-7539542D02*
X47328570Y-7539542D01*
X50299999Y-6282400D02*
X49271427Y-7825257D01*
X51614285Y-7539542D02*
X51614285Y-6339542D01*
X51614285Y-6339542D02*
X52071428Y-6339542D01*
X52071428Y-6339542D02*
X52185713Y-6396685D01*
X52185713Y-6396685D02*
X52242856Y-6453828D01*
X52242856Y-6453828D02*
X52299999Y-6568114D01*
X52299999Y-6568114D02*
X52299999Y-6739542D01*
X52299999Y-6739542D02*
X52242856Y-6853828D01*
X52242856Y-6853828D02*
X52185713Y-6910971D01*
X52185713Y-6910971D02*
X52071428Y-6968114D01*
X52071428Y-6968114D02*
X51614285Y-6968114D01*
X52814285Y-7539542D02*
X52814285Y-6339542D01*
X54071428Y-7539542D02*
X53671428Y-6968114D01*
X53385714Y-7539542D02*
X53385714Y-6339542D01*
X53385714Y-6339542D02*
X53842857Y-6339542D01*
X53842857Y-6339542D02*
X53957142Y-6396685D01*
X53957142Y-6396685D02*
X54014285Y-6453828D01*
X54014285Y-6453828D02*
X54071428Y-6568114D01*
X54071428Y-6568114D02*
X54071428Y-6739542D01*
X54071428Y-6739542D02*
X54014285Y-6853828D01*
X54014285Y-6853828D02*
X53957142Y-6910971D01*
X53957142Y-6910971D02*
X53842857Y-6968114D01*
X53842857Y-6968114D02*
X53385714Y-6968114D01*
X56357143Y-6282400D02*
X55328571Y-7825257D01*
X57671429Y-7539542D02*
X57671429Y-6339542D01*
X57671429Y-6339542D02*
X58128572Y-6339542D01*
X58128572Y-6339542D02*
X58242857Y-6396685D01*
X58242857Y-6396685D02*
X58300000Y-6453828D01*
X58300000Y-6453828D02*
X58357143Y-6568114D01*
X58357143Y-6568114D02*
X58357143Y-6739542D01*
X58357143Y-6739542D02*
X58300000Y-6853828D01*
X58300000Y-6853828D02*
X58242857Y-6910971D01*
X58242857Y-6910971D02*
X58128572Y-6968114D01*
X58128572Y-6968114D02*
X57671429Y-6968114D01*
X59557143Y-7539542D02*
X59157143Y-6968114D01*
X58871429Y-7539542D02*
X58871429Y-6339542D01*
X58871429Y-6339542D02*
X59328572Y-6339542D01*
X59328572Y-6339542D02*
X59442857Y-6396685D01*
X59442857Y-6396685D02*
X59500000Y-6453828D01*
X59500000Y-6453828D02*
X59557143Y-6568114D01*
X59557143Y-6568114D02*
X59557143Y-6739542D01*
X59557143Y-6739542D02*
X59500000Y-6853828D01*
X59500000Y-6853828D02*
X59442857Y-6910971D01*
X59442857Y-6910971D02*
X59328572Y-6968114D01*
X59328572Y-6968114D02*
X58871429Y-6968114D01*
X60300000Y-6339542D02*
X60528572Y-6339542D01*
X60528572Y-6339542D02*
X60642857Y-6396685D01*
X60642857Y-6396685D02*
X60757143Y-6510971D01*
X60757143Y-6510971D02*
X60814286Y-6739542D01*
X60814286Y-6739542D02*
X60814286Y-7139542D01*
X60814286Y-7139542D02*
X60757143Y-7368114D01*
X60757143Y-7368114D02*
X60642857Y-7482400D01*
X60642857Y-7482400D02*
X60528572Y-7539542D01*
X60528572Y-7539542D02*
X60300000Y-7539542D01*
X60300000Y-7539542D02*
X60185715Y-7482400D01*
X60185715Y-7482400D02*
X60071429Y-7368114D01*
X60071429Y-7368114D02*
X60014286Y-7139542D01*
X60014286Y-7139542D02*
X60014286Y-6739542D01*
X60014286Y-6739542D02*
X60071429Y-6510971D01*
X60071429Y-6510971D02*
X60185715Y-6396685D01*
X60185715Y-6396685D02*
X60300000Y-6339542D01*
X61157143Y-6339542D02*
X61842858Y-6339542D01*
X61500000Y-7539542D02*
X61500000Y-6339542D01*
X62242858Y-6910971D02*
X62642858Y-6910971D01*
X62814286Y-7539542D02*
X62242858Y-7539542D01*
X62242858Y-7539542D02*
X62242858Y-6339542D01*
X62242858Y-6339542D02*
X62814286Y-6339542D01*
X64014286Y-7425257D02*
X63957143Y-7482400D01*
X63957143Y-7482400D02*
X63785715Y-7539542D01*
X63785715Y-7539542D02*
X63671429Y-7539542D01*
X63671429Y-7539542D02*
X63500000Y-7482400D01*
X63500000Y-7482400D02*
X63385715Y-7368114D01*
X63385715Y-7368114D02*
X63328572Y-7253828D01*
X63328572Y-7253828D02*
X63271429Y-7025257D01*
X63271429Y-7025257D02*
X63271429Y-6853828D01*
X63271429Y-6853828D02*
X63328572Y-6625257D01*
X63328572Y-6625257D02*
X63385715Y-6510971D01*
X63385715Y-6510971D02*
X63500000Y-6396685D01*
X63500000Y-6396685D02*
X63671429Y-6339542D01*
X63671429Y-6339542D02*
X63785715Y-6339542D01*
X63785715Y-6339542D02*
X63957143Y-6396685D01*
X63957143Y-6396685D02*
X64014286Y-6453828D01*
X64357143Y-6339542D02*
X65042858Y-6339542D01*
X64700000Y-7539542D02*
X64700000Y-6339542D01*
X65442858Y-6910971D02*
X65842858Y-6910971D01*
X66014286Y-7539542D02*
X65442858Y-7539542D01*
X65442858Y-7539542D02*
X65442858Y-6339542D01*
X65442858Y-6339542D02*
X66014286Y-6339542D01*
X66528572Y-7539542D02*
X66528572Y-6339542D01*
X66528572Y-6339542D02*
X66814286Y-6339542D01*
X66814286Y-6339542D02*
X66985715Y-6396685D01*
X66985715Y-6396685D02*
X67100000Y-6510971D01*
X67100000Y-6510971D02*
X67157143Y-6625257D01*
X67157143Y-6625257D02*
X67214286Y-6853828D01*
X67214286Y-6853828D02*
X67214286Y-7025257D01*
X67214286Y-7025257D02*
X67157143Y-7253828D01*
X67157143Y-7253828D02*
X67100000Y-7368114D01*
X67100000Y-7368114D02*
X66985715Y-7482400D01*
X66985715Y-7482400D02*
X66814286Y-7539542D01*
X66814286Y-7539542D02*
X66528572Y-7539542D01*
X68642858Y-7539542D02*
X68642858Y-6339542D01*
X69214287Y-7539542D02*
X69214287Y-6339542D01*
X69214287Y-6339542D02*
X69900001Y-7539542D01*
X69900001Y-7539542D02*
X69900001Y-6339542D01*
X70471430Y-7539542D02*
X70471430Y-6339542D01*
X70471430Y-6339542D02*
X70928573Y-6339542D01*
X70928573Y-6339542D02*
X71042858Y-6396685D01*
X71042858Y-6396685D02*
X71100001Y-6453828D01*
X71100001Y-6453828D02*
X71157144Y-6568114D01*
X71157144Y-6568114D02*
X71157144Y-6739542D01*
X71157144Y-6739542D02*
X71100001Y-6853828D01*
X71100001Y-6853828D02*
X71042858Y-6910971D01*
X71042858Y-6910971D02*
X70928573Y-6968114D01*
X70928573Y-6968114D02*
X70471430Y-6968114D01*
X71671430Y-6339542D02*
X71671430Y-7310971D01*
X71671430Y-7310971D02*
X71728573Y-7425257D01*
X71728573Y-7425257D02*
X71785716Y-7482400D01*
X71785716Y-7482400D02*
X71900001Y-7539542D01*
X71900001Y-7539542D02*
X72128573Y-7539542D01*
X72128573Y-7539542D02*
X72242858Y-7482400D01*
X72242858Y-7482400D02*
X72300001Y-7425257D01*
X72300001Y-7425257D02*
X72357144Y-7310971D01*
X72357144Y-7310971D02*
X72357144Y-6339542D01*
X72757144Y-6339542D02*
X73442859Y-6339542D01*
X73100001Y-7539542D02*
X73100001Y-6339542D01*
X73785716Y-7482400D02*
X73957145Y-7539542D01*
X73957145Y-7539542D02*
X74242859Y-7539542D01*
X74242859Y-7539542D02*
X74357145Y-7482400D01*
X74357145Y-7482400D02*
X74414287Y-7425257D01*
X74414287Y-7425257D02*
X74471430Y-7310971D01*
X74471430Y-7310971D02*
X74471430Y-7196685D01*
X74471430Y-7196685D02*
X74414287Y-7082400D01*
X74414287Y-7082400D02*
X74357145Y-7025257D01*
X74357145Y-7025257D02*
X74242859Y-6968114D01*
X74242859Y-6968114D02*
X74014287Y-6910971D01*
X74014287Y-6910971D02*
X73900002Y-6853828D01*
X73900002Y-6853828D02*
X73842859Y-6796685D01*
X73842859Y-6796685D02*
X73785716Y-6682400D01*
X73785716Y-6682400D02*
X73785716Y-6568114D01*
X73785716Y-6568114D02*
X73842859Y-6453828D01*
X73842859Y-6453828D02*
X73900002Y-6396685D01*
X73900002Y-6396685D02*
X74014287Y-6339542D01*
X74014287Y-6339542D02*
X74300002Y-6339542D01*
X74300002Y-6339542D02*
X74471430Y-6396685D01*
D12*
X14071425Y-4216561D02*
X13976187Y-4311800D01*
X13976187Y-4311800D02*
X13690473Y-4407038D01*
X13690473Y-4407038D02*
X13499997Y-4407038D01*
X13499997Y-4407038D02*
X13214282Y-4311800D01*
X13214282Y-4311800D02*
X13023806Y-4121323D01*
X13023806Y-4121323D02*
X12928568Y-3930847D01*
X12928568Y-3930847D02*
X12833330Y-3549895D01*
X12833330Y-3549895D02*
X12833330Y-3264180D01*
X12833330Y-3264180D02*
X12928568Y-2883228D01*
X12928568Y-2883228D02*
X13023806Y-2692752D01*
X13023806Y-2692752D02*
X13214282Y-2502276D01*
X13214282Y-2502276D02*
X13499997Y-2407038D01*
X13499997Y-2407038D02*
X13690473Y-2407038D01*
X13690473Y-2407038D02*
X13976187Y-2502276D01*
X13976187Y-2502276D02*
X14071425Y-2597514D01*
X15880949Y-4407038D02*
X14928568Y-4407038D01*
X14928568Y-4407038D02*
X14928568Y-2407038D01*
X16547616Y-2407038D02*
X16547616Y-4026085D01*
X16547616Y-4026085D02*
X16642854Y-4216561D01*
X16642854Y-4216561D02*
X16738092Y-4311800D01*
X16738092Y-4311800D02*
X16928568Y-4407038D01*
X16928568Y-4407038D02*
X17309521Y-4407038D01*
X17309521Y-4407038D02*
X17499997Y-4311800D01*
X17499997Y-4311800D02*
X17595235Y-4216561D01*
X17595235Y-4216561D02*
X17690473Y-4026085D01*
X17690473Y-4026085D02*
X17690473Y-2407038D01*
X18547616Y-4311800D02*
X18833330Y-4407038D01*
X18833330Y-4407038D02*
X19309521Y-4407038D01*
X19309521Y-4407038D02*
X19499997Y-4311800D01*
X19499997Y-4311800D02*
X19595235Y-4216561D01*
X19595235Y-4216561D02*
X19690473Y-4026085D01*
X19690473Y-4026085D02*
X19690473Y-3835609D01*
X19690473Y-3835609D02*
X19595235Y-3645133D01*
X19595235Y-3645133D02*
X19499997Y-3549895D01*
X19499997Y-3549895D02*
X19309521Y-3454657D01*
X19309521Y-3454657D02*
X18928568Y-3359419D01*
X18928568Y-3359419D02*
X18738092Y-3264180D01*
X18738092Y-3264180D02*
X18642854Y-3168942D01*
X18642854Y-3168942D02*
X18547616Y-2978466D01*
X18547616Y-2978466D02*
X18547616Y-2787990D01*
X18547616Y-2787990D02*
X18642854Y-2597514D01*
X18642854Y-2597514D02*
X18738092Y-2502276D01*
X18738092Y-2502276D02*
X18928568Y-2407038D01*
X18928568Y-2407038D02*
X19404759Y-2407038D01*
X19404759Y-2407038D02*
X19690473Y-2502276D01*
X20261902Y-2407038D02*
X21404759Y-2407038D01*
X20833330Y-4407038D02*
X20833330Y-2407038D01*
X22071426Y-3359419D02*
X22738093Y-3359419D01*
X23023807Y-4407038D02*
X22071426Y-4407038D01*
X22071426Y-4407038D02*
X22071426Y-2407038D01*
X22071426Y-2407038D02*
X23023807Y-2407038D01*
X25023807Y-4407038D02*
X24357140Y-3454657D01*
X23880950Y-4407038D02*
X23880950Y-2407038D01*
X23880950Y-2407038D02*
X24642855Y-2407038D01*
X24642855Y-2407038D02*
X24833331Y-2502276D01*
X24833331Y-2502276D02*
X24928569Y-2597514D01*
X24928569Y-2597514D02*
X25023807Y-2787990D01*
X25023807Y-2787990D02*
X25023807Y-3073704D01*
X25023807Y-3073704D02*
X24928569Y-3264180D01*
X24928569Y-3264180D02*
X24833331Y-3359419D01*
X24833331Y-3359419D02*
X24642855Y-3454657D01*
X24642855Y-3454657D02*
X23880950Y-3454657D01*
X28357141Y-4407038D02*
X27404760Y-4407038D01*
X27404760Y-4407038D02*
X27404760Y-2407038D01*
X29404760Y-2407038D02*
X29785713Y-2407038D01*
X29785713Y-2407038D02*
X29976189Y-2502276D01*
X29976189Y-2502276D02*
X30166665Y-2692752D01*
X30166665Y-2692752D02*
X30261903Y-3073704D01*
X30261903Y-3073704D02*
X30261903Y-3740371D01*
X30261903Y-3740371D02*
X30166665Y-4121323D01*
X30166665Y-4121323D02*
X29976189Y-4311800D01*
X29976189Y-4311800D02*
X29785713Y-4407038D01*
X29785713Y-4407038D02*
X29404760Y-4407038D01*
X29404760Y-4407038D02*
X29214284Y-4311800D01*
X29214284Y-4311800D02*
X29023808Y-4121323D01*
X29023808Y-4121323D02*
X28928570Y-3740371D01*
X28928570Y-3740371D02*
X28928570Y-3073704D01*
X28928570Y-3073704D02*
X29023808Y-2692752D01*
X29023808Y-2692752D02*
X29214284Y-2502276D01*
X29214284Y-2502276D02*
X29404760Y-2407038D01*
X32166665Y-2502276D02*
X31976189Y-2407038D01*
X31976189Y-2407038D02*
X31690475Y-2407038D01*
X31690475Y-2407038D02*
X31404760Y-2502276D01*
X31404760Y-2502276D02*
X31214284Y-2692752D01*
X31214284Y-2692752D02*
X31119046Y-2883228D01*
X31119046Y-2883228D02*
X31023808Y-3264180D01*
X31023808Y-3264180D02*
X31023808Y-3549895D01*
X31023808Y-3549895D02*
X31119046Y-3930847D01*
X31119046Y-3930847D02*
X31214284Y-4121323D01*
X31214284Y-4121323D02*
X31404760Y-4311800D01*
X31404760Y-4311800D02*
X31690475Y-4407038D01*
X31690475Y-4407038D02*
X31880951Y-4407038D01*
X31880951Y-4407038D02*
X32166665Y-4311800D01*
X32166665Y-4311800D02*
X32261903Y-4216561D01*
X32261903Y-4216561D02*
X32261903Y-3549895D01*
X32261903Y-3549895D02*
X31880951Y-3549895D01*
X33119046Y-4407038D02*
X33119046Y-2407038D01*
X35214284Y-4216561D02*
X35119046Y-4311800D01*
X35119046Y-4311800D02*
X34833332Y-4407038D01*
X34833332Y-4407038D02*
X34642856Y-4407038D01*
X34642856Y-4407038D02*
X34357141Y-4311800D01*
X34357141Y-4311800D02*
X34166665Y-4121323D01*
X34166665Y-4121323D02*
X34071427Y-3930847D01*
X34071427Y-3930847D02*
X33976189Y-3549895D01*
X33976189Y-3549895D02*
X33976189Y-3264180D01*
X33976189Y-3264180D02*
X34071427Y-2883228D01*
X34071427Y-2883228D02*
X34166665Y-2692752D01*
X34166665Y-2692752D02*
X34357141Y-2502276D01*
X34357141Y-2502276D02*
X34642856Y-2407038D01*
X34642856Y-2407038D02*
X34833332Y-2407038D01*
X34833332Y-2407038D02*
X35119046Y-2502276D01*
X35119046Y-2502276D02*
X35214284Y-2597514D01*
X38261904Y-3359419D02*
X38547618Y-3454657D01*
X38547618Y-3454657D02*
X38642856Y-3549895D01*
X38642856Y-3549895D02*
X38738094Y-3740371D01*
X38738094Y-3740371D02*
X38738094Y-4026085D01*
X38738094Y-4026085D02*
X38642856Y-4216561D01*
X38642856Y-4216561D02*
X38547618Y-4311800D01*
X38547618Y-4311800D02*
X38357142Y-4407038D01*
X38357142Y-4407038D02*
X37595237Y-4407038D01*
X37595237Y-4407038D02*
X37595237Y-2407038D01*
X37595237Y-2407038D02*
X38261904Y-2407038D01*
X38261904Y-2407038D02*
X38452380Y-2502276D01*
X38452380Y-2502276D02*
X38547618Y-2597514D01*
X38547618Y-2597514D02*
X38642856Y-2787990D01*
X38642856Y-2787990D02*
X38642856Y-2978466D01*
X38642856Y-2978466D02*
X38547618Y-3168942D01*
X38547618Y-3168942D02*
X38452380Y-3264180D01*
X38452380Y-3264180D02*
X38261904Y-3359419D01*
X38261904Y-3359419D02*
X37595237Y-3359419D01*
X39976189Y-2407038D02*
X40357142Y-2407038D01*
X40357142Y-2407038D02*
X40547618Y-2502276D01*
X40547618Y-2502276D02*
X40738094Y-2692752D01*
X40738094Y-2692752D02*
X40833332Y-3073704D01*
X40833332Y-3073704D02*
X40833332Y-3740371D01*
X40833332Y-3740371D02*
X40738094Y-4121323D01*
X40738094Y-4121323D02*
X40547618Y-4311800D01*
X40547618Y-4311800D02*
X40357142Y-4407038D01*
X40357142Y-4407038D02*
X39976189Y-4407038D01*
X39976189Y-4407038D02*
X39785713Y-4311800D01*
X39785713Y-4311800D02*
X39595237Y-4121323D01*
X39595237Y-4121323D02*
X39499999Y-3740371D01*
X39499999Y-3740371D02*
X39499999Y-3073704D01*
X39499999Y-3073704D02*
X39595237Y-2692752D01*
X39595237Y-2692752D02*
X39785713Y-2502276D01*
X39785713Y-2502276D02*
X39976189Y-2407038D01*
X41595237Y-3835609D02*
X42547618Y-3835609D01*
X41404761Y-4407038D02*
X42071427Y-2407038D01*
X42071427Y-2407038D02*
X42738094Y-4407038D01*
X44547618Y-4407038D02*
X43880951Y-3454657D01*
X43404761Y-4407038D02*
X43404761Y-2407038D01*
X43404761Y-2407038D02*
X44166666Y-2407038D01*
X44166666Y-2407038D02*
X44357142Y-2502276D01*
X44357142Y-2502276D02*
X44452380Y-2597514D01*
X44452380Y-2597514D02*
X44547618Y-2787990D01*
X44547618Y-2787990D02*
X44547618Y-3073704D01*
X44547618Y-3073704D02*
X44452380Y-3264180D01*
X44452380Y-3264180D02*
X44357142Y-3359419D01*
X44357142Y-3359419D02*
X44166666Y-3454657D01*
X44166666Y-3454657D02*
X43404761Y-3454657D01*
X45404761Y-4407038D02*
X45404761Y-2407038D01*
X45404761Y-2407038D02*
X45880951Y-2407038D01*
X45880951Y-2407038D02*
X46166666Y-2502276D01*
X46166666Y-2502276D02*
X46357142Y-2692752D01*
X46357142Y-2692752D02*
X46452380Y-2883228D01*
X46452380Y-2883228D02*
X46547618Y-3264180D01*
X46547618Y-3264180D02*
X46547618Y-3549895D01*
X46547618Y-3549895D02*
X46452380Y-3930847D01*
X46452380Y-3930847D02*
X46357142Y-4121323D01*
X46357142Y-4121323D02*
X46166666Y-4311800D01*
X46166666Y-4311800D02*
X45880951Y-4407038D01*
X45880951Y-4407038D02*
X45404761Y-4407038D01*
X48928571Y-3645133D02*
X50452381Y-3645133D01*
X54071428Y-4407038D02*
X53404761Y-3454657D01*
X52928571Y-4407038D02*
X52928571Y-2407038D01*
X52928571Y-2407038D02*
X53690476Y-2407038D01*
X53690476Y-2407038D02*
X53880952Y-2502276D01*
X53880952Y-2502276D02*
X53976190Y-2597514D01*
X53976190Y-2597514D02*
X54071428Y-2787990D01*
X54071428Y-2787990D02*
X54071428Y-3073704D01*
X54071428Y-3073704D02*
X53976190Y-3264180D01*
X53976190Y-3264180D02*
X53880952Y-3359419D01*
X53880952Y-3359419D02*
X53690476Y-3454657D01*
X53690476Y-3454657D02*
X52928571Y-3454657D01*
X54928571Y-3359419D02*
X55595238Y-3359419D01*
X55880952Y-4407038D02*
X54928571Y-4407038D01*
X54928571Y-4407038D02*
X54928571Y-2407038D01*
X54928571Y-2407038D02*
X55880952Y-2407038D01*
X56452381Y-2407038D02*
X57119047Y-4407038D01*
X57119047Y-4407038D02*
X57785714Y-2407038D01*
X61023810Y-2502276D02*
X60833334Y-2407038D01*
X60833334Y-2407038D02*
X60547620Y-2407038D01*
X60547620Y-2407038D02*
X60261905Y-2502276D01*
X60261905Y-2502276D02*
X60071429Y-2692752D01*
X60071429Y-2692752D02*
X59976191Y-2883228D01*
X59976191Y-2883228D02*
X59880953Y-3264180D01*
X59880953Y-3264180D02*
X59880953Y-3549895D01*
X59880953Y-3549895D02*
X59976191Y-3930847D01*
X59976191Y-3930847D02*
X60071429Y-4121323D01*
X60071429Y-4121323D02*
X60261905Y-4311800D01*
X60261905Y-4311800D02*
X60547620Y-4407038D01*
X60547620Y-4407038D02*
X60738096Y-4407038D01*
X60738096Y-4407038D02*
X61023810Y-4311800D01*
X61023810Y-4311800D02*
X61119048Y-4216561D01*
X61119048Y-4216561D02*
X61119048Y-3549895D01*
X61119048Y-3549895D02*
X60738096Y-3549895D01*
X63500001Y-2407038D02*
X63500001Y-4026085D01*
X63500001Y-4026085D02*
X63595239Y-4216561D01*
X63595239Y-4216561D02*
X63690477Y-4311800D01*
X63690477Y-4311800D02*
X63880953Y-4407038D01*
X63880953Y-4407038D02*
X64261906Y-4407038D01*
X64261906Y-4407038D02*
X64452382Y-4311800D01*
X64452382Y-4311800D02*
X64547620Y-4216561D01*
X64547620Y-4216561D02*
X64642858Y-4026085D01*
X64642858Y-4026085D02*
X64642858Y-2407038D01*
X66642858Y-4407038D02*
X65500001Y-4407038D01*
X66071429Y-4407038D02*
X66071429Y-2407038D01*
X66071429Y-2407038D02*
X65880953Y-2692752D01*
X65880953Y-2692752D02*
X65690477Y-2883228D01*
X65690477Y-2883228D02*
X65500001Y-2978466D01*
X70166668Y-4407038D02*
X69500001Y-3454657D01*
X69023811Y-4407038D02*
X69023811Y-2407038D01*
X69023811Y-2407038D02*
X69785716Y-2407038D01*
X69785716Y-2407038D02*
X69976192Y-2502276D01*
X69976192Y-2502276D02*
X70071430Y-2597514D01*
X70071430Y-2597514D02*
X70166668Y-2787990D01*
X70166668Y-2787990D02*
X70166668Y-3073704D01*
X70166668Y-3073704D02*
X70071430Y-3264180D01*
X70071430Y-3264180D02*
X69976192Y-3359419D01*
X69976192Y-3359419D02*
X69785716Y-3454657D01*
X69785716Y-3454657D02*
X69023811Y-3454657D01*
X71023811Y-3359419D02*
X71690478Y-3359419D01*
X71976192Y-4407038D02*
X71023811Y-4407038D01*
X71023811Y-4407038D02*
X71023811Y-2407038D01*
X71023811Y-2407038D02*
X71976192Y-2407038D01*
X73500002Y-3359419D02*
X73785716Y-3454657D01*
X73785716Y-3454657D02*
X73880954Y-3549895D01*
X73880954Y-3549895D02*
X73976192Y-3740371D01*
X73976192Y-3740371D02*
X73976192Y-4026085D01*
X73976192Y-4026085D02*
X73880954Y-4216561D01*
X73880954Y-4216561D02*
X73785716Y-4311800D01*
X73785716Y-4311800D02*
X73595240Y-4407038D01*
X73595240Y-4407038D02*
X72833335Y-4407038D01*
X72833335Y-4407038D02*
X72833335Y-2407038D01*
X72833335Y-2407038D02*
X73500002Y-2407038D01*
X73500002Y-2407038D02*
X73690478Y-2502276D01*
X73690478Y-2502276D02*
X73785716Y-2597514D01*
X73785716Y-2597514D02*
X73880954Y-2787990D01*
X73880954Y-2787990D02*
X73880954Y-2978466D01*
X73880954Y-2978466D02*
X73785716Y-3168942D01*
X73785716Y-3168942D02*
X73690478Y-3264180D01*
X73690478Y-3264180D02*
X73500002Y-3359419D01*
X73500002Y-3359419D02*
X72833335Y-3359419D01*
X74833335Y-2407038D02*
X74833335Y-4026085D01*
X74833335Y-4026085D02*
X74928573Y-4216561D01*
X74928573Y-4216561D02*
X75023811Y-4311800D01*
X75023811Y-4311800D02*
X75214287Y-4407038D01*
X75214287Y-4407038D02*
X75595240Y-4407038D01*
X75595240Y-4407038D02*
X75785716Y-4311800D01*
X75785716Y-4311800D02*
X75880954Y-4216561D01*
X75880954Y-4216561D02*
X75976192Y-4026085D01*
X75976192Y-4026085D02*
X75976192Y-2407038D01*
X76928573Y-4407038D02*
X76928573Y-2407038D01*
X78833335Y-4407038D02*
X77880954Y-4407038D01*
X77880954Y-4407038D02*
X77880954Y-2407038D01*
X79214288Y-2407038D02*
X80357145Y-2407038D01*
X79785716Y-4407038D02*
X79785716Y-2407038D01*
D13*
X77190476Y-53454819D02*
X77190476Y-52454819D01*
X77190476Y-52454819D02*
X77523809Y-53169104D01*
X77523809Y-53169104D02*
X77857142Y-52454819D01*
X77857142Y-52454819D02*
X77857142Y-53454819D01*
X78238095Y-52454819D02*
X78857142Y-52454819D01*
X78857142Y-52454819D02*
X78523809Y-52835771D01*
X78523809Y-52835771D02*
X78666666Y-52835771D01*
X78666666Y-52835771D02*
X78761904Y-52883390D01*
X78761904Y-52883390D02*
X78809523Y-52931009D01*
X78809523Y-52931009D02*
X78857142Y-53026247D01*
X78857142Y-53026247D02*
X78857142Y-53264342D01*
X78857142Y-53264342D02*
X78809523Y-53359580D01*
X78809523Y-53359580D02*
X78761904Y-53407200D01*
X78761904Y-53407200D02*
X78666666Y-53454819D01*
X78666666Y-53454819D02*
X78380952Y-53454819D01*
X78380952Y-53454819D02*
X78285714Y-53407200D01*
X78285714Y-53407200D02*
X78238095Y-53359580D01*
X150190476Y-7954819D02*
X150190476Y-6954819D01*
X150190476Y-6954819D02*
X150523809Y-7669104D01*
X150523809Y-7669104D02*
X150857142Y-6954819D01*
X150857142Y-6954819D02*
X150857142Y-7954819D01*
X151238095Y-6954819D02*
X151857142Y-6954819D01*
X151857142Y-6954819D02*
X151523809Y-7335771D01*
X151523809Y-7335771D02*
X151666666Y-7335771D01*
X151666666Y-7335771D02*
X151761904Y-7383390D01*
X151761904Y-7383390D02*
X151809523Y-7431009D01*
X151809523Y-7431009D02*
X151857142Y-7526247D01*
X151857142Y-7526247D02*
X151857142Y-7764342D01*
X151857142Y-7764342D02*
X151809523Y-7859580D01*
X151809523Y-7859580D02*
X151761904Y-7907200D01*
X151761904Y-7907200D02*
X151666666Y-7954819D01*
X151666666Y-7954819D02*
X151380952Y-7954819D01*
X151380952Y-7954819D02*
X151285714Y-7907200D01*
X151285714Y-7907200D02*
X151238095Y-7859580D01*
X1190476Y-7454819D02*
X1190476Y-6454819D01*
X1190476Y-6454819D02*
X1523809Y-7169104D01*
X1523809Y-7169104D02*
X1857142Y-6454819D01*
X1857142Y-6454819D02*
X1857142Y-7454819D01*
X2238095Y-6454819D02*
X2857142Y-6454819D01*
X2857142Y-6454819D02*
X2523809Y-6835771D01*
X2523809Y-6835771D02*
X2666666Y-6835771D01*
X2666666Y-6835771D02*
X2761904Y-6883390D01*
X2761904Y-6883390D02*
X2809523Y-6931009D01*
X2809523Y-6931009D02*
X2857142Y-7026247D01*
X2857142Y-7026247D02*
X2857142Y-7264342D01*
X2857142Y-7264342D02*
X2809523Y-7359580D01*
X2809523Y-7359580D02*
X2761904Y-7407200D01*
X2761904Y-7407200D02*
X2666666Y-7454819D01*
X2666666Y-7454819D02*
X2380952Y-7454819D01*
X2380952Y-7454819D02*
X2285714Y-7407200D01*
X2285714Y-7407200D02*
X2238095Y-7359580D01*
X1690476Y-96454819D02*
X1690476Y-95454819D01*
X1690476Y-95454819D02*
X2023809Y-96169104D01*
X2023809Y-96169104D02*
X2357142Y-95454819D01*
X2357142Y-95454819D02*
X2357142Y-96454819D01*
X2738095Y-95454819D02*
X3357142Y-95454819D01*
X3357142Y-95454819D02*
X3023809Y-95835771D01*
X3023809Y-95835771D02*
X3166666Y-95835771D01*
X3166666Y-95835771D02*
X3261904Y-95883390D01*
X3261904Y-95883390D02*
X3309523Y-95931009D01*
X3309523Y-95931009D02*
X3357142Y-96026247D01*
X3357142Y-96026247D02*
X3357142Y-96264342D01*
X3357142Y-96264342D02*
X3309523Y-96359580D01*
X3309523Y-96359580D02*
X3261904Y-96407200D01*
X3261904Y-96407200D02*
X3166666Y-96454819D01*
X3166666Y-96454819D02*
X2880952Y-96454819D01*
X2880952Y-96454819D02*
X2785714Y-96407200D01*
X2785714Y-96407200D02*
X2738095Y-96359580D01*
X150190476Y-96954819D02*
X150190476Y-95954819D01*
X150190476Y-95954819D02*
X150523809Y-96669104D01*
X150523809Y-96669104D02*
X150857142Y-95954819D01*
X150857142Y-95954819D02*
X150857142Y-96954819D01*
X151238095Y-95954819D02*
X151857142Y-95954819D01*
X151857142Y-95954819D02*
X151523809Y-96335771D01*
X151523809Y-96335771D02*
X151666666Y-96335771D01*
X151666666Y-96335771D02*
X151761904Y-96383390D01*
X151761904Y-96383390D02*
X151809523Y-96431009D01*
X151809523Y-96431009D02*
X151857142Y-96526247D01*
X151857142Y-96526247D02*
X151857142Y-96764342D01*
X151857142Y-96764342D02*
X151809523Y-96859580D01*
X151809523Y-96859580D02*
X151761904Y-96907200D01*
X151761904Y-96907200D02*
X151666666Y-96954819D01*
X151666666Y-96954819D02*
X151380952Y-96954819D01*
X151380952Y-96954819D02*
X151285714Y-96907200D01*
X151285714Y-96907200D02*
X151238095Y-96859580D01*
D14*
X95576667Y-83309271D02*
X95576667Y-84216414D01*
X95576667Y-84216414D02*
X95516190Y-84397842D01*
X95516190Y-84397842D02*
X95395238Y-84518795D01*
X95395238Y-84518795D02*
X95213809Y-84579271D01*
X95213809Y-84579271D02*
X95092857Y-84579271D01*
X96060476Y-83309271D02*
X96846667Y-83309271D01*
X96846667Y-83309271D02*
X96423333Y-83793080D01*
X96423333Y-83793080D02*
X96604762Y-83793080D01*
X96604762Y-83793080D02*
X96725714Y-83853556D01*
X96725714Y-83853556D02*
X96786190Y-83914033D01*
X96786190Y-83914033D02*
X96846667Y-84034985D01*
X96846667Y-84034985D02*
X96846667Y-84337366D01*
X96846667Y-84337366D02*
X96786190Y-84458318D01*
X96786190Y-84458318D02*
X96725714Y-84518795D01*
X96725714Y-84518795D02*
X96604762Y-84579271D01*
X96604762Y-84579271D02*
X96241905Y-84579271D01*
X96241905Y-84579271D02*
X96120952Y-84518795D01*
X96120952Y-84518795D02*
X96060476Y-84458318D01*
X16788333Y-21458318D02*
X16727857Y-21518795D01*
X16727857Y-21518795D02*
X16546428Y-21579271D01*
X16546428Y-21579271D02*
X16425476Y-21579271D01*
X16425476Y-21579271D02*
X16244047Y-21518795D01*
X16244047Y-21518795D02*
X16123095Y-21397842D01*
X16123095Y-21397842D02*
X16062618Y-21276890D01*
X16062618Y-21276890D02*
X16002142Y-21034985D01*
X16002142Y-21034985D02*
X16002142Y-20853556D01*
X16002142Y-20853556D02*
X16062618Y-20611652D01*
X16062618Y-20611652D02*
X16123095Y-20490699D01*
X16123095Y-20490699D02*
X16244047Y-20369747D01*
X16244047Y-20369747D02*
X16425476Y-20309271D01*
X16425476Y-20309271D02*
X16546428Y-20309271D01*
X16546428Y-20309271D02*
X16727857Y-20369747D01*
X16727857Y-20369747D02*
X16788333Y-20430223D01*
X17997857Y-21579271D02*
X17272142Y-21579271D01*
X17634999Y-21579271D02*
X17634999Y-20309271D01*
X17634999Y-20309271D02*
X17514047Y-20490699D01*
X17514047Y-20490699D02*
X17393095Y-20611652D01*
X17393095Y-20611652D02*
X17272142Y-20672128D01*
X118458318Y-86711666D02*
X118518795Y-86772142D01*
X118518795Y-86772142D02*
X118579271Y-86953571D01*
X118579271Y-86953571D02*
X118579271Y-87074523D01*
X118579271Y-87074523D02*
X118518795Y-87255952D01*
X118518795Y-87255952D02*
X118397842Y-87376904D01*
X118397842Y-87376904D02*
X118276890Y-87437381D01*
X118276890Y-87437381D02*
X118034985Y-87497857D01*
X118034985Y-87497857D02*
X117853556Y-87497857D01*
X117853556Y-87497857D02*
X117611652Y-87437381D01*
X117611652Y-87437381D02*
X117490699Y-87376904D01*
X117490699Y-87376904D02*
X117369747Y-87255952D01*
X117369747Y-87255952D02*
X117309271Y-87074523D01*
X117309271Y-87074523D02*
X117309271Y-86953571D01*
X117309271Y-86953571D02*
X117369747Y-86772142D01*
X117369747Y-86772142D02*
X117430223Y-86711666D01*
X117309271Y-86288333D02*
X117309271Y-85441666D01*
X117309271Y-85441666D02*
X118579271Y-85985952D01*
X125288333Y-87458318D02*
X125227857Y-87518795D01*
X125227857Y-87518795D02*
X125046428Y-87579271D01*
X125046428Y-87579271D02*
X124925476Y-87579271D01*
X124925476Y-87579271D02*
X124744047Y-87518795D01*
X124744047Y-87518795D02*
X124623095Y-87397842D01*
X124623095Y-87397842D02*
X124562618Y-87276890D01*
X124562618Y-87276890D02*
X124502142Y-87034985D01*
X124502142Y-87034985D02*
X124502142Y-86853556D01*
X124502142Y-86853556D02*
X124562618Y-86611652D01*
X124562618Y-86611652D02*
X124623095Y-86490699D01*
X124623095Y-86490699D02*
X124744047Y-86369747D01*
X124744047Y-86369747D02*
X124925476Y-86309271D01*
X124925476Y-86309271D02*
X125046428Y-86309271D01*
X125046428Y-86309271D02*
X125227857Y-86369747D01*
X125227857Y-86369747D02*
X125288333Y-86430223D01*
X126437380Y-86309271D02*
X125832618Y-86309271D01*
X125832618Y-86309271D02*
X125772142Y-86914033D01*
X125772142Y-86914033D02*
X125832618Y-86853556D01*
X125832618Y-86853556D02*
X125953571Y-86793080D01*
X125953571Y-86793080D02*
X126255952Y-86793080D01*
X126255952Y-86793080D02*
X126376904Y-86853556D01*
X126376904Y-86853556D02*
X126437380Y-86914033D01*
X126437380Y-86914033D02*
X126497857Y-87034985D01*
X126497857Y-87034985D02*
X126497857Y-87337366D01*
X126497857Y-87337366D02*
X126437380Y-87458318D01*
X126437380Y-87458318D02*
X126376904Y-87518795D01*
X126376904Y-87518795D02*
X126255952Y-87579271D01*
X126255952Y-87579271D02*
X125953571Y-87579271D01*
X125953571Y-87579271D02*
X125832618Y-87518795D01*
X125832618Y-87518795D02*
X125772142Y-87458318D01*
X99788333Y-79579271D02*
X99364999Y-78974509D01*
X99062618Y-79579271D02*
X99062618Y-78309271D01*
X99062618Y-78309271D02*
X99546428Y-78309271D01*
X99546428Y-78309271D02*
X99667380Y-78369747D01*
X99667380Y-78369747D02*
X99727857Y-78430223D01*
X99727857Y-78430223D02*
X99788333Y-78551175D01*
X99788333Y-78551175D02*
X99788333Y-78732604D01*
X99788333Y-78732604D02*
X99727857Y-78853556D01*
X99727857Y-78853556D02*
X99667380Y-78914033D01*
X99667380Y-78914033D02*
X99546428Y-78974509D01*
X99546428Y-78974509D02*
X99062618Y-78974509D01*
X100211666Y-78309271D02*
X101058333Y-78309271D01*
X101058333Y-78309271D02*
X100514047Y-79579271D01*
X126018333Y-53958318D02*
X125957857Y-54018795D01*
X125957857Y-54018795D02*
X125776428Y-54079271D01*
X125776428Y-54079271D02*
X125655476Y-54079271D01*
X125655476Y-54079271D02*
X125474047Y-54018795D01*
X125474047Y-54018795D02*
X125353095Y-53897842D01*
X125353095Y-53897842D02*
X125292618Y-53776890D01*
X125292618Y-53776890D02*
X125232142Y-53534985D01*
X125232142Y-53534985D02*
X125232142Y-53353556D01*
X125232142Y-53353556D02*
X125292618Y-53111652D01*
X125292618Y-53111652D02*
X125353095Y-52990699D01*
X125353095Y-52990699D02*
X125474047Y-52869747D01*
X125474047Y-52869747D02*
X125655476Y-52809271D01*
X125655476Y-52809271D02*
X125776428Y-52809271D01*
X125776428Y-52809271D02*
X125957857Y-52869747D01*
X125957857Y-52869747D02*
X126018333Y-52930223D01*
X126441666Y-52809271D02*
X127227857Y-52809271D01*
X127227857Y-52809271D02*
X126804523Y-53293080D01*
X126804523Y-53293080D02*
X126985952Y-53293080D01*
X126985952Y-53293080D02*
X127106904Y-53353556D01*
X127106904Y-53353556D02*
X127167380Y-53414033D01*
X127167380Y-53414033D02*
X127227857Y-53534985D01*
X127227857Y-53534985D02*
X127227857Y-53837366D01*
X127227857Y-53837366D02*
X127167380Y-53958318D01*
X127167380Y-53958318D02*
X127106904Y-54018795D01*
X127106904Y-54018795D02*
X126985952Y-54079271D01*
X126985952Y-54079271D02*
X126623095Y-54079271D01*
X126623095Y-54079271D02*
X126502142Y-54018795D01*
X126502142Y-54018795D02*
X126441666Y-53958318D01*
X85458318Y-66711666D02*
X85518795Y-66772142D01*
X85518795Y-66772142D02*
X85579271Y-66953571D01*
X85579271Y-66953571D02*
X85579271Y-67074523D01*
X85579271Y-67074523D02*
X85518795Y-67255952D01*
X85518795Y-67255952D02*
X85397842Y-67376904D01*
X85397842Y-67376904D02*
X85276890Y-67437381D01*
X85276890Y-67437381D02*
X85034985Y-67497857D01*
X85034985Y-67497857D02*
X84853556Y-67497857D01*
X84853556Y-67497857D02*
X84611652Y-67437381D01*
X84611652Y-67437381D02*
X84490699Y-67376904D01*
X84490699Y-67376904D02*
X84369747Y-67255952D01*
X84369747Y-67255952D02*
X84309271Y-67074523D01*
X84309271Y-67074523D02*
X84309271Y-66953571D01*
X84309271Y-66953571D02*
X84369747Y-66772142D01*
X84369747Y-66772142D02*
X84430223Y-66711666D01*
X84853556Y-65985952D02*
X84793080Y-66106904D01*
X84793080Y-66106904D02*
X84732604Y-66167381D01*
X84732604Y-66167381D02*
X84611652Y-66227857D01*
X84611652Y-66227857D02*
X84551175Y-66227857D01*
X84551175Y-66227857D02*
X84430223Y-66167381D01*
X84430223Y-66167381D02*
X84369747Y-66106904D01*
X84369747Y-66106904D02*
X84309271Y-65985952D01*
X84309271Y-65985952D02*
X84309271Y-65744047D01*
X84309271Y-65744047D02*
X84369747Y-65623095D01*
X84369747Y-65623095D02*
X84430223Y-65562619D01*
X84430223Y-65562619D02*
X84551175Y-65502142D01*
X84551175Y-65502142D02*
X84611652Y-65502142D01*
X84611652Y-65502142D02*
X84732604Y-65562619D01*
X84732604Y-65562619D02*
X84793080Y-65623095D01*
X84793080Y-65623095D02*
X84853556Y-65744047D01*
X84853556Y-65744047D02*
X84853556Y-65985952D01*
X84853556Y-65985952D02*
X84914033Y-66106904D01*
X84914033Y-66106904D02*
X84974509Y-66167381D01*
X84974509Y-66167381D02*
X85095461Y-66227857D01*
X85095461Y-66227857D02*
X85337366Y-66227857D01*
X85337366Y-66227857D02*
X85458318Y-66167381D01*
X85458318Y-66167381D02*
X85518795Y-66106904D01*
X85518795Y-66106904D02*
X85579271Y-65985952D01*
X85579271Y-65985952D02*
X85579271Y-65744047D01*
X85579271Y-65744047D02*
X85518795Y-65623095D01*
X85518795Y-65623095D02*
X85458318Y-65562619D01*
X85458318Y-65562619D02*
X85337366Y-65502142D01*
X85337366Y-65502142D02*
X85095461Y-65502142D01*
X85095461Y-65502142D02*
X84974509Y-65562619D01*
X84974509Y-65562619D02*
X84914033Y-65623095D01*
X84914033Y-65623095D02*
X84853556Y-65744047D01*
X62328333Y-79579271D02*
X61904999Y-78974509D01*
X61602618Y-79579271D02*
X61602618Y-78309271D01*
X61602618Y-78309271D02*
X62086428Y-78309271D01*
X62086428Y-78309271D02*
X62207380Y-78369747D01*
X62207380Y-78369747D02*
X62267857Y-78430223D01*
X62267857Y-78430223D02*
X62328333Y-78551175D01*
X62328333Y-78551175D02*
X62328333Y-78732604D01*
X62328333Y-78732604D02*
X62267857Y-78853556D01*
X62267857Y-78853556D02*
X62207380Y-78914033D01*
X62207380Y-78914033D02*
X62086428Y-78974509D01*
X62086428Y-78974509D02*
X61602618Y-78974509D01*
X62933095Y-79579271D02*
X63174999Y-79579271D01*
X63174999Y-79579271D02*
X63295952Y-79518795D01*
X63295952Y-79518795D02*
X63356428Y-79458318D01*
X63356428Y-79458318D02*
X63477380Y-79276890D01*
X63477380Y-79276890D02*
X63537857Y-79034985D01*
X63537857Y-79034985D02*
X63537857Y-78551175D01*
X63537857Y-78551175D02*
X63477380Y-78430223D01*
X63477380Y-78430223D02*
X63416904Y-78369747D01*
X63416904Y-78369747D02*
X63295952Y-78309271D01*
X63295952Y-78309271D02*
X63054047Y-78309271D01*
X63054047Y-78309271D02*
X62933095Y-78369747D01*
X62933095Y-78369747D02*
X62872618Y-78430223D01*
X62872618Y-78430223D02*
X62812142Y-78551175D01*
X62812142Y-78551175D02*
X62812142Y-78853556D01*
X62812142Y-78853556D02*
X62872618Y-78974509D01*
X62872618Y-78974509D02*
X62933095Y-79034985D01*
X62933095Y-79034985D02*
X63054047Y-79095461D01*
X63054047Y-79095461D02*
X63295952Y-79095461D01*
X63295952Y-79095461D02*
X63416904Y-79034985D01*
X63416904Y-79034985D02*
X63477380Y-78974509D01*
X63477380Y-78974509D02*
X63537857Y-78853556D01*
X134119271Y-45587619D02*
X135147366Y-45587619D01*
X135147366Y-45587619D02*
X135268318Y-45527142D01*
X135268318Y-45527142D02*
X135328795Y-45466666D01*
X135328795Y-45466666D02*
X135389271Y-45345714D01*
X135389271Y-45345714D02*
X135389271Y-45103809D01*
X135389271Y-45103809D02*
X135328795Y-44982857D01*
X135328795Y-44982857D02*
X135268318Y-44922380D01*
X135268318Y-44922380D02*
X135147366Y-44861904D01*
X135147366Y-44861904D02*
X134119271Y-44861904D01*
X134119271Y-44378095D02*
X134119271Y-43591904D01*
X134119271Y-43591904D02*
X134603080Y-44015238D01*
X134603080Y-44015238D02*
X134603080Y-43833809D01*
X134603080Y-43833809D02*
X134663556Y-43712857D01*
X134663556Y-43712857D02*
X134724033Y-43652381D01*
X134724033Y-43652381D02*
X134844985Y-43591904D01*
X134844985Y-43591904D02*
X135147366Y-43591904D01*
X135147366Y-43591904D02*
X135268318Y-43652381D01*
X135268318Y-43652381D02*
X135328795Y-43712857D01*
X135328795Y-43712857D02*
X135389271Y-43833809D01*
X135389271Y-43833809D02*
X135389271Y-44196666D01*
X135389271Y-44196666D02*
X135328795Y-44317619D01*
X135328795Y-44317619D02*
X135268318Y-44378095D01*
D15*
X155673855Y-48715238D02*
X155140521Y-48715238D01*
X155216712Y-48715238D02*
X155178617Y-48677143D01*
X155178617Y-48677143D02*
X155140521Y-48600953D01*
X155140521Y-48600953D02*
X155140521Y-48486667D01*
X155140521Y-48486667D02*
X155178617Y-48410476D01*
X155178617Y-48410476D02*
X155254807Y-48372381D01*
X155254807Y-48372381D02*
X155673855Y-48372381D01*
X155254807Y-48372381D02*
X155178617Y-48334286D01*
X155178617Y-48334286D02*
X155140521Y-48258095D01*
X155140521Y-48258095D02*
X155140521Y-48143810D01*
X155140521Y-48143810D02*
X155178617Y-48067619D01*
X155178617Y-48067619D02*
X155254807Y-48029524D01*
X155254807Y-48029524D02*
X155673855Y-48029524D01*
X155673855Y-47648571D02*
X155140521Y-47648571D01*
X154873855Y-47648571D02*
X154911950Y-47686667D01*
X154911950Y-47686667D02*
X154950045Y-47648571D01*
X154950045Y-47648571D02*
X154911950Y-47610476D01*
X154911950Y-47610476D02*
X154873855Y-47648571D01*
X154873855Y-47648571D02*
X154950045Y-47648571D01*
X155635760Y-46924762D02*
X155673855Y-47000953D01*
X155673855Y-47000953D02*
X155673855Y-47153334D01*
X155673855Y-47153334D02*
X155635760Y-47229524D01*
X155635760Y-47229524D02*
X155597664Y-47267619D01*
X155597664Y-47267619D02*
X155521474Y-47305715D01*
X155521474Y-47305715D02*
X155292902Y-47305715D01*
X155292902Y-47305715D02*
X155216712Y-47267619D01*
X155216712Y-47267619D02*
X155178617Y-47229524D01*
X155178617Y-47229524D02*
X155140521Y-47153334D01*
X155140521Y-47153334D02*
X155140521Y-47000953D01*
X155140521Y-47000953D02*
X155178617Y-46924762D01*
X155673855Y-46581905D02*
X155140521Y-46581905D01*
X155292902Y-46581905D02*
X155216712Y-46543810D01*
X155216712Y-46543810D02*
X155178617Y-46505715D01*
X155178617Y-46505715D02*
X155140521Y-46429524D01*
X155140521Y-46429524D02*
X155140521Y-46353334D01*
X155673855Y-45972382D02*
X155635760Y-46048572D01*
X155635760Y-46048572D02*
X155597664Y-46086667D01*
X155597664Y-46086667D02*
X155521474Y-46124763D01*
X155521474Y-46124763D02*
X155292902Y-46124763D01*
X155292902Y-46124763D02*
X155216712Y-46086667D01*
X155216712Y-46086667D02*
X155178617Y-46048572D01*
X155178617Y-46048572D02*
X155140521Y-45972382D01*
X155140521Y-45972382D02*
X155140521Y-45858096D01*
X155140521Y-45858096D02*
X155178617Y-45781905D01*
X155178617Y-45781905D02*
X155216712Y-45743810D01*
X155216712Y-45743810D02*
X155292902Y-45705715D01*
X155292902Y-45705715D02*
X155521474Y-45705715D01*
X155521474Y-45705715D02*
X155597664Y-45743810D01*
X155597664Y-45743810D02*
X155635760Y-45781905D01*
X155635760Y-45781905D02*
X155673855Y-45858096D01*
X155673855Y-45858096D02*
X155673855Y-45972382D01*
X155635760Y-45400953D02*
X155673855Y-45286667D01*
X155673855Y-45286667D02*
X155673855Y-45096191D01*
X155673855Y-45096191D02*
X155635760Y-45020000D01*
X155635760Y-45020000D02*
X155597664Y-44981905D01*
X155597664Y-44981905D02*
X155521474Y-44943810D01*
X155521474Y-44943810D02*
X155445283Y-44943810D01*
X155445283Y-44943810D02*
X155369093Y-44981905D01*
X155369093Y-44981905D02*
X155330998Y-45020000D01*
X155330998Y-45020000D02*
X155292902Y-45096191D01*
X155292902Y-45096191D02*
X155254807Y-45248572D01*
X155254807Y-45248572D02*
X155216712Y-45324762D01*
X155216712Y-45324762D02*
X155178617Y-45362857D01*
X155178617Y-45362857D02*
X155102426Y-45400953D01*
X155102426Y-45400953D02*
X155026236Y-45400953D01*
X155026236Y-45400953D02*
X154950045Y-45362857D01*
X154950045Y-45362857D02*
X154911950Y-45324762D01*
X154911950Y-45324762D02*
X154873855Y-45248572D01*
X154873855Y-45248572D02*
X154873855Y-45058095D01*
X154873855Y-45058095D02*
X154911950Y-44943810D01*
X155673855Y-44600952D02*
X154873855Y-44600952D01*
X154873855Y-44600952D02*
X154873855Y-44410476D01*
X154873855Y-44410476D02*
X154911950Y-44296190D01*
X154911950Y-44296190D02*
X154988140Y-44220000D01*
X154988140Y-44220000D02*
X155064331Y-44181905D01*
X155064331Y-44181905D02*
X155216712Y-44143809D01*
X155216712Y-44143809D02*
X155330998Y-44143809D01*
X155330998Y-44143809D02*
X155483379Y-44181905D01*
X155483379Y-44181905D02*
X155559569Y-44220000D01*
X155559569Y-44220000D02*
X155635760Y-44296190D01*
X155635760Y-44296190D02*
X155673855Y-44410476D01*
X155673855Y-44410476D02*
X155673855Y-44600952D01*
X155254807Y-43191428D02*
X155254807Y-42924762D01*
X155673855Y-42810476D02*
X155673855Y-43191428D01*
X155673855Y-43191428D02*
X154873855Y-43191428D01*
X154873855Y-43191428D02*
X154873855Y-42810476D01*
X155673855Y-42467618D02*
X154873855Y-42467618D01*
X154873855Y-42467618D02*
X154873855Y-42277142D01*
X154873855Y-42277142D02*
X154911950Y-42162856D01*
X154911950Y-42162856D02*
X154988140Y-42086666D01*
X154988140Y-42086666D02*
X155064331Y-42048571D01*
X155064331Y-42048571D02*
X155216712Y-42010475D01*
X155216712Y-42010475D02*
X155330998Y-42010475D01*
X155330998Y-42010475D02*
X155483379Y-42048571D01*
X155483379Y-42048571D02*
X155559569Y-42086666D01*
X155559569Y-42086666D02*
X155635760Y-42162856D01*
X155635760Y-42162856D02*
X155673855Y-42277142D01*
X155673855Y-42277142D02*
X155673855Y-42467618D01*
X154911950Y-41248571D02*
X154873855Y-41324761D01*
X154873855Y-41324761D02*
X154873855Y-41439047D01*
X154873855Y-41439047D02*
X154911950Y-41553333D01*
X154911950Y-41553333D02*
X154988140Y-41629523D01*
X154988140Y-41629523D02*
X155064331Y-41667618D01*
X155064331Y-41667618D02*
X155216712Y-41705714D01*
X155216712Y-41705714D02*
X155330998Y-41705714D01*
X155330998Y-41705714D02*
X155483379Y-41667618D01*
X155483379Y-41667618D02*
X155559569Y-41629523D01*
X155559569Y-41629523D02*
X155635760Y-41553333D01*
X155635760Y-41553333D02*
X155673855Y-41439047D01*
X155673855Y-41439047D02*
X155673855Y-41362856D01*
X155673855Y-41362856D02*
X155635760Y-41248571D01*
X155635760Y-41248571D02*
X155597664Y-41210475D01*
X155597664Y-41210475D02*
X155330998Y-41210475D01*
X155330998Y-41210475D02*
X155330998Y-41362856D01*
X155254807Y-40867618D02*
X155254807Y-40600952D01*
X155673855Y-40486666D02*
X155673855Y-40867618D01*
X155673855Y-40867618D02*
X154873855Y-40867618D01*
X154873855Y-40867618D02*
X154873855Y-40486666D01*
D14*
X57536667Y-83309271D02*
X57536667Y-84216414D01*
X57536667Y-84216414D02*
X57476190Y-84397842D01*
X57476190Y-84397842D02*
X57355238Y-84518795D01*
X57355238Y-84518795D02*
X57173809Y-84579271D01*
X57173809Y-84579271D02*
X57052857Y-84579271D01*
X58746190Y-83309271D02*
X58141428Y-83309271D01*
X58141428Y-83309271D02*
X58080952Y-83914033D01*
X58080952Y-83914033D02*
X58141428Y-83853556D01*
X58141428Y-83853556D02*
X58262381Y-83793080D01*
X58262381Y-83793080D02*
X58564762Y-83793080D01*
X58564762Y-83793080D02*
X58685714Y-83853556D01*
X58685714Y-83853556D02*
X58746190Y-83914033D01*
X58746190Y-83914033D02*
X58806667Y-84034985D01*
X58806667Y-84034985D02*
X58806667Y-84337366D01*
X58806667Y-84337366D02*
X58746190Y-84458318D01*
X58746190Y-84458318D02*
X58685714Y-84518795D01*
X58685714Y-84518795D02*
X58564762Y-84579271D01*
X58564762Y-84579271D02*
X58262381Y-84579271D01*
X58262381Y-84579271D02*
X58141428Y-84518795D01*
X58141428Y-84518795D02*
X58080952Y-84458318D01*
X48978333Y-15739271D02*
X48554999Y-15134509D01*
X48252618Y-15739271D02*
X48252618Y-14469271D01*
X48252618Y-14469271D02*
X48736428Y-14469271D01*
X48736428Y-14469271D02*
X48857380Y-14529747D01*
X48857380Y-14529747D02*
X48917857Y-14590223D01*
X48917857Y-14590223D02*
X48978333Y-14711175D01*
X48978333Y-14711175D02*
X48978333Y-14892604D01*
X48978333Y-14892604D02*
X48917857Y-15013556D01*
X48917857Y-15013556D02*
X48857380Y-15074033D01*
X48857380Y-15074033D02*
X48736428Y-15134509D01*
X48736428Y-15134509D02*
X48252618Y-15134509D01*
X50187857Y-15739271D02*
X49462142Y-15739271D01*
X49824999Y-15739271D02*
X49824999Y-14469271D01*
X49824999Y-14469271D02*
X49704047Y-14650699D01*
X49704047Y-14650699D02*
X49583095Y-14771652D01*
X49583095Y-14771652D02*
X49462142Y-14832128D01*
X69183571Y-75079271D02*
X68760237Y-74474509D01*
X68457856Y-75079271D02*
X68457856Y-73809271D01*
X68457856Y-73809271D02*
X68941666Y-73809271D01*
X68941666Y-73809271D02*
X69062618Y-73869747D01*
X69062618Y-73869747D02*
X69123095Y-73930223D01*
X69123095Y-73930223D02*
X69183571Y-74051175D01*
X69183571Y-74051175D02*
X69183571Y-74232604D01*
X69183571Y-74232604D02*
X69123095Y-74353556D01*
X69123095Y-74353556D02*
X69062618Y-74414033D01*
X69062618Y-74414033D02*
X68941666Y-74474509D01*
X68941666Y-74474509D02*
X68457856Y-74474509D01*
X70393095Y-75079271D02*
X69667380Y-75079271D01*
X70030237Y-75079271D02*
X70030237Y-73809271D01*
X70030237Y-73809271D02*
X69909285Y-73990699D01*
X69909285Y-73990699D02*
X69788333Y-74111652D01*
X69788333Y-74111652D02*
X69667380Y-74172128D01*
X70876904Y-73930223D02*
X70937380Y-73869747D01*
X70937380Y-73869747D02*
X71058333Y-73809271D01*
X71058333Y-73809271D02*
X71360714Y-73809271D01*
X71360714Y-73809271D02*
X71481666Y-73869747D01*
X71481666Y-73869747D02*
X71542142Y-73930223D01*
X71542142Y-73930223D02*
X71602619Y-74051175D01*
X71602619Y-74051175D02*
X71602619Y-74172128D01*
X71602619Y-74172128D02*
X71542142Y-74353556D01*
X71542142Y-74353556D02*
X70816428Y-75079271D01*
X70816428Y-75079271D02*
X71602619Y-75079271D01*
X125288333Y-82958318D02*
X125227857Y-83018795D01*
X125227857Y-83018795D02*
X125046428Y-83079271D01*
X125046428Y-83079271D02*
X124925476Y-83079271D01*
X124925476Y-83079271D02*
X124744047Y-83018795D01*
X124744047Y-83018795D02*
X124623095Y-82897842D01*
X124623095Y-82897842D02*
X124562618Y-82776890D01*
X124562618Y-82776890D02*
X124502142Y-82534985D01*
X124502142Y-82534985D02*
X124502142Y-82353556D01*
X124502142Y-82353556D02*
X124562618Y-82111652D01*
X124562618Y-82111652D02*
X124623095Y-81990699D01*
X124623095Y-81990699D02*
X124744047Y-81869747D01*
X124744047Y-81869747D02*
X124925476Y-81809271D01*
X124925476Y-81809271D02*
X125046428Y-81809271D01*
X125046428Y-81809271D02*
X125227857Y-81869747D01*
X125227857Y-81869747D02*
X125288333Y-81930223D01*
X126376904Y-82232604D02*
X126376904Y-83079271D01*
X126074523Y-81748795D02*
X125772142Y-82655937D01*
X125772142Y-82655937D02*
X126558333Y-82655937D01*
X73886667Y-28309271D02*
X73886667Y-29216414D01*
X73886667Y-29216414D02*
X73826190Y-29397842D01*
X73826190Y-29397842D02*
X73705238Y-29518795D01*
X73705238Y-29518795D02*
X73523809Y-29579271D01*
X73523809Y-29579271D02*
X73402857Y-29579271D01*
X74430952Y-28430223D02*
X74491428Y-28369747D01*
X74491428Y-28369747D02*
X74612381Y-28309271D01*
X74612381Y-28309271D02*
X74914762Y-28309271D01*
X74914762Y-28309271D02*
X75035714Y-28369747D01*
X75035714Y-28369747D02*
X75096190Y-28430223D01*
X75096190Y-28430223D02*
X75156667Y-28551175D01*
X75156667Y-28551175D02*
X75156667Y-28672128D01*
X75156667Y-28672128D02*
X75096190Y-28853556D01*
X75096190Y-28853556D02*
X74370476Y-29579271D01*
X74370476Y-29579271D02*
X75156667Y-29579271D01*
X136168333Y-96339271D02*
X135744999Y-95734509D01*
X135442618Y-96339271D02*
X135442618Y-95069271D01*
X135442618Y-95069271D02*
X135926428Y-95069271D01*
X135926428Y-95069271D02*
X136047380Y-95129747D01*
X136047380Y-95129747D02*
X136107857Y-95190223D01*
X136107857Y-95190223D02*
X136168333Y-95311175D01*
X136168333Y-95311175D02*
X136168333Y-95492604D01*
X136168333Y-95492604D02*
X136107857Y-95613556D01*
X136107857Y-95613556D02*
X136047380Y-95674033D01*
X136047380Y-95674033D02*
X135926428Y-95734509D01*
X135926428Y-95734509D02*
X135442618Y-95734509D01*
X137317380Y-95069271D02*
X136712618Y-95069271D01*
X136712618Y-95069271D02*
X136652142Y-95674033D01*
X136652142Y-95674033D02*
X136712618Y-95613556D01*
X136712618Y-95613556D02*
X136833571Y-95553080D01*
X136833571Y-95553080D02*
X137135952Y-95553080D01*
X137135952Y-95553080D02*
X137256904Y-95613556D01*
X137256904Y-95613556D02*
X137317380Y-95674033D01*
X137317380Y-95674033D02*
X137377857Y-95794985D01*
X137377857Y-95794985D02*
X137377857Y-96097366D01*
X137377857Y-96097366D02*
X137317380Y-96218318D01*
X137317380Y-96218318D02*
X137256904Y-96278795D01*
X137256904Y-96278795D02*
X137135952Y-96339271D01*
X137135952Y-96339271D02*
X136833571Y-96339271D01*
X136833571Y-96339271D02*
X136712618Y-96278795D01*
X136712618Y-96278795D02*
X136652142Y-96218318D01*
X23309271Y-61278094D02*
X24216414Y-61278094D01*
X24216414Y-61278094D02*
X24397842Y-61338571D01*
X24397842Y-61338571D02*
X24518795Y-61459523D01*
X24518795Y-61459523D02*
X24579271Y-61640952D01*
X24579271Y-61640952D02*
X24579271Y-61761904D01*
X24579271Y-60008094D02*
X24579271Y-60733809D01*
X24579271Y-60370952D02*
X23309271Y-60370952D01*
X23309271Y-60370952D02*
X23490699Y-60491904D01*
X23490699Y-60491904D02*
X23611652Y-60612856D01*
X23611652Y-60612856D02*
X23672128Y-60733809D01*
X23309271Y-59221904D02*
X23309271Y-59100951D01*
X23309271Y-59100951D02*
X23369747Y-58979999D01*
X23369747Y-58979999D02*
X23430223Y-58919523D01*
X23430223Y-58919523D02*
X23551175Y-58859047D01*
X23551175Y-58859047D02*
X23793080Y-58798570D01*
X23793080Y-58798570D02*
X24095461Y-58798570D01*
X24095461Y-58798570D02*
X24337366Y-58859047D01*
X24337366Y-58859047D02*
X24458318Y-58919523D01*
X24458318Y-58919523D02*
X24518795Y-58979999D01*
X24518795Y-58979999D02*
X24579271Y-59100951D01*
X24579271Y-59100951D02*
X24579271Y-59221904D01*
X24579271Y-59221904D02*
X24518795Y-59342856D01*
X24518795Y-59342856D02*
X24458318Y-59403332D01*
X24458318Y-59403332D02*
X24337366Y-59463809D01*
X24337366Y-59463809D02*
X24095461Y-59524285D01*
X24095461Y-59524285D02*
X23793080Y-59524285D01*
X23793080Y-59524285D02*
X23551175Y-59463809D01*
X23551175Y-59463809D02*
X23430223Y-59403332D01*
X23430223Y-59403332D02*
X23369747Y-59342856D01*
X23369747Y-59342856D02*
X23309271Y-59221904D01*
X87183571Y-76079271D02*
X86760237Y-75474509D01*
X86457856Y-76079271D02*
X86457856Y-74809271D01*
X86457856Y-74809271D02*
X86941666Y-74809271D01*
X86941666Y-74809271D02*
X87062618Y-74869747D01*
X87062618Y-74869747D02*
X87123095Y-74930223D01*
X87123095Y-74930223D02*
X87183571Y-75051175D01*
X87183571Y-75051175D02*
X87183571Y-75232604D01*
X87183571Y-75232604D02*
X87123095Y-75353556D01*
X87123095Y-75353556D02*
X87062618Y-75414033D01*
X87062618Y-75414033D02*
X86941666Y-75474509D01*
X86941666Y-75474509D02*
X86457856Y-75474509D01*
X88393095Y-76079271D02*
X87667380Y-76079271D01*
X88030237Y-76079271D02*
X88030237Y-74809271D01*
X88030237Y-74809271D02*
X87909285Y-74990699D01*
X87909285Y-74990699D02*
X87788333Y-75111652D01*
X87788333Y-75111652D02*
X87667380Y-75172128D01*
X89602619Y-76079271D02*
X88876904Y-76079271D01*
X89239761Y-76079271D02*
X89239761Y-74809271D01*
X89239761Y-74809271D02*
X89118809Y-74990699D01*
X89118809Y-74990699D02*
X88997857Y-75111652D01*
X88997857Y-75111652D02*
X88876904Y-75172128D01*
X106683571Y-75079271D02*
X106260237Y-74474509D01*
X105957856Y-75079271D02*
X105957856Y-73809271D01*
X105957856Y-73809271D02*
X106441666Y-73809271D01*
X106441666Y-73809271D02*
X106562618Y-73869747D01*
X106562618Y-73869747D02*
X106623095Y-73930223D01*
X106623095Y-73930223D02*
X106683571Y-74051175D01*
X106683571Y-74051175D02*
X106683571Y-74232604D01*
X106683571Y-74232604D02*
X106623095Y-74353556D01*
X106623095Y-74353556D02*
X106562618Y-74414033D01*
X106562618Y-74414033D02*
X106441666Y-74474509D01*
X106441666Y-74474509D02*
X105957856Y-74474509D01*
X107893095Y-75079271D02*
X107167380Y-75079271D01*
X107530237Y-75079271D02*
X107530237Y-73809271D01*
X107530237Y-73809271D02*
X107409285Y-73990699D01*
X107409285Y-73990699D02*
X107288333Y-74111652D01*
X107288333Y-74111652D02*
X107167380Y-74172128D01*
X108679285Y-73809271D02*
X108800238Y-73809271D01*
X108800238Y-73809271D02*
X108921190Y-73869747D01*
X108921190Y-73869747D02*
X108981666Y-73930223D01*
X108981666Y-73930223D02*
X109042142Y-74051175D01*
X109042142Y-74051175D02*
X109102619Y-74293080D01*
X109102619Y-74293080D02*
X109102619Y-74595461D01*
X109102619Y-74595461D02*
X109042142Y-74837366D01*
X109042142Y-74837366D02*
X108981666Y-74958318D01*
X108981666Y-74958318D02*
X108921190Y-75018795D01*
X108921190Y-75018795D02*
X108800238Y-75079271D01*
X108800238Y-75079271D02*
X108679285Y-75079271D01*
X108679285Y-75079271D02*
X108558333Y-75018795D01*
X108558333Y-75018795D02*
X108497857Y-74958318D01*
X108497857Y-74958318D02*
X108437380Y-74837366D01*
X108437380Y-74837366D02*
X108376904Y-74595461D01*
X108376904Y-74595461D02*
X108376904Y-74293080D01*
X108376904Y-74293080D02*
X108437380Y-74051175D01*
X108437380Y-74051175D02*
X108497857Y-73930223D01*
X108497857Y-73930223D02*
X108558333Y-73869747D01*
X108558333Y-73869747D02*
X108679285Y-73809271D01*
X133309271Y-80467619D02*
X134337366Y-80467619D01*
X134337366Y-80467619D02*
X134458318Y-80407142D01*
X134458318Y-80407142D02*
X134518795Y-80346666D01*
X134518795Y-80346666D02*
X134579271Y-80225714D01*
X134579271Y-80225714D02*
X134579271Y-79983809D01*
X134579271Y-79983809D02*
X134518795Y-79862857D01*
X134518795Y-79862857D02*
X134458318Y-79802380D01*
X134458318Y-79802380D02*
X134337366Y-79741904D01*
X134337366Y-79741904D02*
X133309271Y-79741904D01*
X133430223Y-79197619D02*
X133369747Y-79137143D01*
X133369747Y-79137143D02*
X133309271Y-79016190D01*
X133309271Y-79016190D02*
X133309271Y-78713809D01*
X133309271Y-78713809D02*
X133369747Y-78592857D01*
X133369747Y-78592857D02*
X133430223Y-78532381D01*
X133430223Y-78532381D02*
X133551175Y-78471904D01*
X133551175Y-78471904D02*
X133672128Y-78471904D01*
X133672128Y-78471904D02*
X133853556Y-78532381D01*
X133853556Y-78532381D02*
X134579271Y-79258095D01*
X134579271Y-79258095D02*
X134579271Y-78471904D01*
D15*
X155513855Y-83975238D02*
X154980521Y-83975238D01*
X155056712Y-83975238D02*
X155018617Y-83937143D01*
X155018617Y-83937143D02*
X154980521Y-83860953D01*
X154980521Y-83860953D02*
X154980521Y-83746667D01*
X154980521Y-83746667D02*
X155018617Y-83670476D01*
X155018617Y-83670476D02*
X155094807Y-83632381D01*
X155094807Y-83632381D02*
X155513855Y-83632381D01*
X155094807Y-83632381D02*
X155018617Y-83594286D01*
X155018617Y-83594286D02*
X154980521Y-83518095D01*
X154980521Y-83518095D02*
X154980521Y-83403810D01*
X154980521Y-83403810D02*
X155018617Y-83327619D01*
X155018617Y-83327619D02*
X155094807Y-83289524D01*
X155094807Y-83289524D02*
X155513855Y-83289524D01*
X155513855Y-82908571D02*
X154980521Y-82908571D01*
X154713855Y-82908571D02*
X154751950Y-82946667D01*
X154751950Y-82946667D02*
X154790045Y-82908571D01*
X154790045Y-82908571D02*
X154751950Y-82870476D01*
X154751950Y-82870476D02*
X154713855Y-82908571D01*
X154713855Y-82908571D02*
X154790045Y-82908571D01*
X155475760Y-82184762D02*
X155513855Y-82260953D01*
X155513855Y-82260953D02*
X155513855Y-82413334D01*
X155513855Y-82413334D02*
X155475760Y-82489524D01*
X155475760Y-82489524D02*
X155437664Y-82527619D01*
X155437664Y-82527619D02*
X155361474Y-82565715D01*
X155361474Y-82565715D02*
X155132902Y-82565715D01*
X155132902Y-82565715D02*
X155056712Y-82527619D01*
X155056712Y-82527619D02*
X155018617Y-82489524D01*
X155018617Y-82489524D02*
X154980521Y-82413334D01*
X154980521Y-82413334D02*
X154980521Y-82260953D01*
X154980521Y-82260953D02*
X155018617Y-82184762D01*
X155513855Y-81841905D02*
X154980521Y-81841905D01*
X155132902Y-81841905D02*
X155056712Y-81803810D01*
X155056712Y-81803810D02*
X155018617Y-81765715D01*
X155018617Y-81765715D02*
X154980521Y-81689524D01*
X154980521Y-81689524D02*
X154980521Y-81613334D01*
X155513855Y-81232382D02*
X155475760Y-81308572D01*
X155475760Y-81308572D02*
X155437664Y-81346667D01*
X155437664Y-81346667D02*
X155361474Y-81384763D01*
X155361474Y-81384763D02*
X155132902Y-81384763D01*
X155132902Y-81384763D02*
X155056712Y-81346667D01*
X155056712Y-81346667D02*
X155018617Y-81308572D01*
X155018617Y-81308572D02*
X154980521Y-81232382D01*
X154980521Y-81232382D02*
X154980521Y-81118096D01*
X154980521Y-81118096D02*
X155018617Y-81041905D01*
X155018617Y-81041905D02*
X155056712Y-81003810D01*
X155056712Y-81003810D02*
X155132902Y-80965715D01*
X155132902Y-80965715D02*
X155361474Y-80965715D01*
X155361474Y-80965715D02*
X155437664Y-81003810D01*
X155437664Y-81003810D02*
X155475760Y-81041905D01*
X155475760Y-81041905D02*
X155513855Y-81118096D01*
X155513855Y-81118096D02*
X155513855Y-81232382D01*
X155475760Y-80660953D02*
X155513855Y-80546667D01*
X155513855Y-80546667D02*
X155513855Y-80356191D01*
X155513855Y-80356191D02*
X155475760Y-80280000D01*
X155475760Y-80280000D02*
X155437664Y-80241905D01*
X155437664Y-80241905D02*
X155361474Y-80203810D01*
X155361474Y-80203810D02*
X155285283Y-80203810D01*
X155285283Y-80203810D02*
X155209093Y-80241905D01*
X155209093Y-80241905D02*
X155170998Y-80280000D01*
X155170998Y-80280000D02*
X155132902Y-80356191D01*
X155132902Y-80356191D02*
X155094807Y-80508572D01*
X155094807Y-80508572D02*
X155056712Y-80584762D01*
X155056712Y-80584762D02*
X155018617Y-80622857D01*
X155018617Y-80622857D02*
X154942426Y-80660953D01*
X154942426Y-80660953D02*
X154866236Y-80660953D01*
X154866236Y-80660953D02*
X154790045Y-80622857D01*
X154790045Y-80622857D02*
X154751950Y-80584762D01*
X154751950Y-80584762D02*
X154713855Y-80508572D01*
X154713855Y-80508572D02*
X154713855Y-80318095D01*
X154713855Y-80318095D02*
X154751950Y-80203810D01*
X155513855Y-79860952D02*
X154713855Y-79860952D01*
X154713855Y-79860952D02*
X154713855Y-79670476D01*
X154713855Y-79670476D02*
X154751950Y-79556190D01*
X154751950Y-79556190D02*
X154828140Y-79480000D01*
X154828140Y-79480000D02*
X154904331Y-79441905D01*
X154904331Y-79441905D02*
X155056712Y-79403809D01*
X155056712Y-79403809D02*
X155170998Y-79403809D01*
X155170998Y-79403809D02*
X155323379Y-79441905D01*
X155323379Y-79441905D02*
X155399569Y-79480000D01*
X155399569Y-79480000D02*
X155475760Y-79556190D01*
X155475760Y-79556190D02*
X155513855Y-79670476D01*
X155513855Y-79670476D02*
X155513855Y-79860952D01*
X155094807Y-78451428D02*
X155094807Y-78184762D01*
X155513855Y-78070476D02*
X155513855Y-78451428D01*
X155513855Y-78451428D02*
X154713855Y-78451428D01*
X154713855Y-78451428D02*
X154713855Y-78070476D01*
X155513855Y-77727618D02*
X154713855Y-77727618D01*
X154713855Y-77727618D02*
X154713855Y-77537142D01*
X154713855Y-77537142D02*
X154751950Y-77422856D01*
X154751950Y-77422856D02*
X154828140Y-77346666D01*
X154828140Y-77346666D02*
X154904331Y-77308571D01*
X154904331Y-77308571D02*
X155056712Y-77270475D01*
X155056712Y-77270475D02*
X155170998Y-77270475D01*
X155170998Y-77270475D02*
X155323379Y-77308571D01*
X155323379Y-77308571D02*
X155399569Y-77346666D01*
X155399569Y-77346666D02*
X155475760Y-77422856D01*
X155475760Y-77422856D02*
X155513855Y-77537142D01*
X155513855Y-77537142D02*
X155513855Y-77727618D01*
X154751950Y-76508571D02*
X154713855Y-76584761D01*
X154713855Y-76584761D02*
X154713855Y-76699047D01*
X154713855Y-76699047D02*
X154751950Y-76813333D01*
X154751950Y-76813333D02*
X154828140Y-76889523D01*
X154828140Y-76889523D02*
X154904331Y-76927618D01*
X154904331Y-76927618D02*
X155056712Y-76965714D01*
X155056712Y-76965714D02*
X155170998Y-76965714D01*
X155170998Y-76965714D02*
X155323379Y-76927618D01*
X155323379Y-76927618D02*
X155399569Y-76889523D01*
X155399569Y-76889523D02*
X155475760Y-76813333D01*
X155475760Y-76813333D02*
X155513855Y-76699047D01*
X155513855Y-76699047D02*
X155513855Y-76622856D01*
X155513855Y-76622856D02*
X155475760Y-76508571D01*
X155475760Y-76508571D02*
X155437664Y-76470475D01*
X155437664Y-76470475D02*
X155170998Y-76470475D01*
X155170998Y-76470475D02*
X155170998Y-76622856D01*
X155094807Y-76127618D02*
X155094807Y-75860952D01*
X155513855Y-75746666D02*
X155513855Y-76127618D01*
X155513855Y-76127618D02*
X154713855Y-76127618D01*
X154713855Y-76127618D02*
X154713855Y-75746666D01*
D14*
X46806666Y-49018795D02*
X46988095Y-49079271D01*
X46988095Y-49079271D02*
X47290476Y-49079271D01*
X47290476Y-49079271D02*
X47411428Y-49018795D01*
X47411428Y-49018795D02*
X47471904Y-48958318D01*
X47471904Y-48958318D02*
X47532381Y-48837366D01*
X47532381Y-48837366D02*
X47532381Y-48716414D01*
X47532381Y-48716414D02*
X47471904Y-48595461D01*
X47471904Y-48595461D02*
X47411428Y-48534985D01*
X47411428Y-48534985D02*
X47290476Y-48474509D01*
X47290476Y-48474509D02*
X47048571Y-48414033D01*
X47048571Y-48414033D02*
X46927619Y-48353556D01*
X46927619Y-48353556D02*
X46867142Y-48293080D01*
X46867142Y-48293080D02*
X46806666Y-48172128D01*
X46806666Y-48172128D02*
X46806666Y-48051175D01*
X46806666Y-48051175D02*
X46867142Y-47930223D01*
X46867142Y-47930223D02*
X46927619Y-47869747D01*
X46927619Y-47869747D02*
X47048571Y-47809271D01*
X47048571Y-47809271D02*
X47350952Y-47809271D01*
X47350952Y-47809271D02*
X47532381Y-47869747D01*
X47955714Y-47809271D02*
X48258095Y-49079271D01*
X48258095Y-49079271D02*
X48500000Y-48172128D01*
X48500000Y-48172128D02*
X48741905Y-49079271D01*
X48741905Y-49079271D02*
X49044286Y-47809271D01*
X50193334Y-49079271D02*
X49467619Y-49079271D01*
X49830476Y-49079271D02*
X49830476Y-47809271D01*
X49830476Y-47809271D02*
X49709524Y-47990699D01*
X49709524Y-47990699D02*
X49588572Y-48111652D01*
X49588572Y-48111652D02*
X49467619Y-48172128D01*
X76576667Y-83809271D02*
X76576667Y-84716414D01*
X76576667Y-84716414D02*
X76516190Y-84897842D01*
X76516190Y-84897842D02*
X76395238Y-85018795D01*
X76395238Y-85018795D02*
X76213809Y-85079271D01*
X76213809Y-85079271D02*
X76092857Y-85079271D01*
X77725714Y-84232604D02*
X77725714Y-85079271D01*
X77423333Y-83748795D02*
X77120952Y-84655937D01*
X77120952Y-84655937D02*
X77907143Y-84655937D01*
X125018333Y-50458318D02*
X124957857Y-50518795D01*
X124957857Y-50518795D02*
X124776428Y-50579271D01*
X124776428Y-50579271D02*
X124655476Y-50579271D01*
X124655476Y-50579271D02*
X124474047Y-50518795D01*
X124474047Y-50518795D02*
X124353095Y-50397842D01*
X124353095Y-50397842D02*
X124292618Y-50276890D01*
X124292618Y-50276890D02*
X124232142Y-50034985D01*
X124232142Y-50034985D02*
X124232142Y-49853556D01*
X124232142Y-49853556D02*
X124292618Y-49611652D01*
X124292618Y-49611652D02*
X124353095Y-49490699D01*
X124353095Y-49490699D02*
X124474047Y-49369747D01*
X124474047Y-49369747D02*
X124655476Y-49309271D01*
X124655476Y-49309271D02*
X124776428Y-49309271D01*
X124776428Y-49309271D02*
X124957857Y-49369747D01*
X124957857Y-49369747D02*
X125018333Y-49430223D01*
X125502142Y-49430223D02*
X125562618Y-49369747D01*
X125562618Y-49369747D02*
X125683571Y-49309271D01*
X125683571Y-49309271D02*
X125985952Y-49309271D01*
X125985952Y-49309271D02*
X126106904Y-49369747D01*
X126106904Y-49369747D02*
X126167380Y-49430223D01*
X126167380Y-49430223D02*
X126227857Y-49551175D01*
X126227857Y-49551175D02*
X126227857Y-49672128D01*
X126227857Y-49672128D02*
X126167380Y-49853556D01*
X126167380Y-49853556D02*
X125441666Y-50579271D01*
X125441666Y-50579271D02*
X126227857Y-50579271D01*
X48978333Y-23419271D02*
X48554999Y-22814509D01*
X48252618Y-23419271D02*
X48252618Y-22149271D01*
X48252618Y-22149271D02*
X48736428Y-22149271D01*
X48736428Y-22149271D02*
X48857380Y-22209747D01*
X48857380Y-22209747D02*
X48917857Y-22270223D01*
X48917857Y-22270223D02*
X48978333Y-22391175D01*
X48978333Y-22391175D02*
X48978333Y-22572604D01*
X48978333Y-22572604D02*
X48917857Y-22693556D01*
X48917857Y-22693556D02*
X48857380Y-22754033D01*
X48857380Y-22754033D02*
X48736428Y-22814509D01*
X48736428Y-22814509D02*
X48252618Y-22814509D01*
X49401666Y-22149271D02*
X50187857Y-22149271D01*
X50187857Y-22149271D02*
X49764523Y-22633080D01*
X49764523Y-22633080D02*
X49945952Y-22633080D01*
X49945952Y-22633080D02*
X50066904Y-22693556D01*
X50066904Y-22693556D02*
X50127380Y-22754033D01*
X50127380Y-22754033D02*
X50187857Y-22874985D01*
X50187857Y-22874985D02*
X50187857Y-23177366D01*
X50187857Y-23177366D02*
X50127380Y-23298318D01*
X50127380Y-23298318D02*
X50066904Y-23358795D01*
X50066904Y-23358795D02*
X49945952Y-23419271D01*
X49945952Y-23419271D02*
X49583095Y-23419271D01*
X49583095Y-23419271D02*
X49462142Y-23358795D01*
X49462142Y-23358795D02*
X49401666Y-23298318D01*
X48978333Y-27579271D02*
X48554999Y-26974509D01*
X48252618Y-27579271D02*
X48252618Y-26309271D01*
X48252618Y-26309271D02*
X48736428Y-26309271D01*
X48736428Y-26309271D02*
X48857380Y-26369747D01*
X48857380Y-26369747D02*
X48917857Y-26430223D01*
X48917857Y-26430223D02*
X48978333Y-26551175D01*
X48978333Y-26551175D02*
X48978333Y-26732604D01*
X48978333Y-26732604D02*
X48917857Y-26853556D01*
X48917857Y-26853556D02*
X48857380Y-26914033D01*
X48857380Y-26914033D02*
X48736428Y-26974509D01*
X48736428Y-26974509D02*
X48252618Y-26974509D01*
X50066904Y-26732604D02*
X50066904Y-27579271D01*
X49764523Y-26248795D02*
X49462142Y-27155937D01*
X49462142Y-27155937D02*
X50248333Y-27155937D01*
X136828333Y-61079271D02*
X136404999Y-60474509D01*
X136102618Y-61079271D02*
X136102618Y-59809271D01*
X136102618Y-59809271D02*
X136586428Y-59809271D01*
X136586428Y-59809271D02*
X136707380Y-59869747D01*
X136707380Y-59869747D02*
X136767857Y-59930223D01*
X136767857Y-59930223D02*
X136828333Y-60051175D01*
X136828333Y-60051175D02*
X136828333Y-60232604D01*
X136828333Y-60232604D02*
X136767857Y-60353556D01*
X136767857Y-60353556D02*
X136707380Y-60414033D01*
X136707380Y-60414033D02*
X136586428Y-60474509D01*
X136586428Y-60474509D02*
X136102618Y-60474509D01*
X137916904Y-59809271D02*
X137674999Y-59809271D01*
X137674999Y-59809271D02*
X137554047Y-59869747D01*
X137554047Y-59869747D02*
X137493571Y-59930223D01*
X137493571Y-59930223D02*
X137372618Y-60111652D01*
X137372618Y-60111652D02*
X137312142Y-60353556D01*
X137312142Y-60353556D02*
X137312142Y-60837366D01*
X137312142Y-60837366D02*
X137372618Y-60958318D01*
X137372618Y-60958318D02*
X137433095Y-61018795D01*
X137433095Y-61018795D02*
X137554047Y-61079271D01*
X137554047Y-61079271D02*
X137795952Y-61079271D01*
X137795952Y-61079271D02*
X137916904Y-61018795D01*
X137916904Y-61018795D02*
X137977380Y-60958318D01*
X137977380Y-60958318D02*
X138037857Y-60837366D01*
X138037857Y-60837366D02*
X138037857Y-60534985D01*
X138037857Y-60534985D02*
X137977380Y-60414033D01*
X137977380Y-60414033D02*
X137916904Y-60353556D01*
X137916904Y-60353556D02*
X137795952Y-60293080D01*
X137795952Y-60293080D02*
X137554047Y-60293080D01*
X137554047Y-60293080D02*
X137433095Y-60353556D01*
X137433095Y-60353556D02*
X137372618Y-60414033D01*
X137372618Y-60414033D02*
X137312142Y-60534985D01*
X80288333Y-80579271D02*
X79864999Y-79974509D01*
X79562618Y-80579271D02*
X79562618Y-79309271D01*
X79562618Y-79309271D02*
X80046428Y-79309271D01*
X80046428Y-79309271D02*
X80167380Y-79369747D01*
X80167380Y-79369747D02*
X80227857Y-79430223D01*
X80227857Y-79430223D02*
X80288333Y-79551175D01*
X80288333Y-79551175D02*
X80288333Y-79732604D01*
X80288333Y-79732604D02*
X80227857Y-79853556D01*
X80227857Y-79853556D02*
X80167380Y-79914033D01*
X80167380Y-79914033D02*
X80046428Y-79974509D01*
X80046428Y-79974509D02*
X79562618Y-79974509D01*
X81014047Y-79853556D02*
X80893095Y-79793080D01*
X80893095Y-79793080D02*
X80832618Y-79732604D01*
X80832618Y-79732604D02*
X80772142Y-79611652D01*
X80772142Y-79611652D02*
X80772142Y-79551175D01*
X80772142Y-79551175D02*
X80832618Y-79430223D01*
X80832618Y-79430223D02*
X80893095Y-79369747D01*
X80893095Y-79369747D02*
X81014047Y-79309271D01*
X81014047Y-79309271D02*
X81255952Y-79309271D01*
X81255952Y-79309271D02*
X81376904Y-79369747D01*
X81376904Y-79369747D02*
X81437380Y-79430223D01*
X81437380Y-79430223D02*
X81497857Y-79551175D01*
X81497857Y-79551175D02*
X81497857Y-79611652D01*
X81497857Y-79611652D02*
X81437380Y-79732604D01*
X81437380Y-79732604D02*
X81376904Y-79793080D01*
X81376904Y-79793080D02*
X81255952Y-79853556D01*
X81255952Y-79853556D02*
X81014047Y-79853556D01*
X81014047Y-79853556D02*
X80893095Y-79914033D01*
X80893095Y-79914033D02*
X80832618Y-79974509D01*
X80832618Y-79974509D02*
X80772142Y-80095461D01*
X80772142Y-80095461D02*
X80772142Y-80337366D01*
X80772142Y-80337366D02*
X80832618Y-80458318D01*
X80832618Y-80458318D02*
X80893095Y-80518795D01*
X80893095Y-80518795D02*
X81014047Y-80579271D01*
X81014047Y-80579271D02*
X81255952Y-80579271D01*
X81255952Y-80579271D02*
X81376904Y-80518795D01*
X81376904Y-80518795D02*
X81437380Y-80458318D01*
X81437380Y-80458318D02*
X81497857Y-80337366D01*
X81497857Y-80337366D02*
X81497857Y-80095461D01*
X81497857Y-80095461D02*
X81437380Y-79974509D01*
X81437380Y-79974509D02*
X81376904Y-79914033D01*
X81376904Y-79914033D02*
X81255952Y-79853556D01*
X105332380Y-4729271D02*
X105332380Y-5757366D01*
X105332380Y-5757366D02*
X105392857Y-5878318D01*
X105392857Y-5878318D02*
X105453333Y-5938795D01*
X105453333Y-5938795D02*
X105574285Y-5999271D01*
X105574285Y-5999271D02*
X105816190Y-5999271D01*
X105816190Y-5999271D02*
X105937142Y-5938795D01*
X105937142Y-5938795D02*
X105997619Y-5878318D01*
X105997619Y-5878318D02*
X106058095Y-5757366D01*
X106058095Y-5757366D02*
X106058095Y-4729271D01*
X107328095Y-5999271D02*
X106602380Y-5999271D01*
X106965237Y-5999271D02*
X106965237Y-4729271D01*
X106965237Y-4729271D02*
X106844285Y-4910699D01*
X106844285Y-4910699D02*
X106723333Y-5031652D01*
X106723333Y-5031652D02*
X106602380Y-5092128D01*
D16*
X90419047Y-14119240D02*
X90759523Y-14119240D01*
X90759523Y-14119240D02*
X90576190Y-14328764D01*
X90576190Y-14328764D02*
X90654761Y-14328764D01*
X90654761Y-14328764D02*
X90707142Y-14354954D01*
X90707142Y-14354954D02*
X90733333Y-14381145D01*
X90733333Y-14381145D02*
X90759523Y-14433526D01*
X90759523Y-14433526D02*
X90759523Y-14564478D01*
X90759523Y-14564478D02*
X90733333Y-14616859D01*
X90733333Y-14616859D02*
X90707142Y-14643050D01*
X90707142Y-14643050D02*
X90654761Y-14669240D01*
X90654761Y-14669240D02*
X90497618Y-14669240D01*
X90497618Y-14669240D02*
X90445237Y-14643050D01*
X90445237Y-14643050D02*
X90419047Y-14616859D01*
X90916666Y-14119240D02*
X91100000Y-14669240D01*
X91100000Y-14669240D02*
X91283333Y-14119240D01*
X91414286Y-14119240D02*
X91754762Y-14119240D01*
X91754762Y-14119240D02*
X91571429Y-14328764D01*
X91571429Y-14328764D02*
X91650000Y-14328764D01*
X91650000Y-14328764D02*
X91702381Y-14354954D01*
X91702381Y-14354954D02*
X91728572Y-14381145D01*
X91728572Y-14381145D02*
X91754762Y-14433526D01*
X91754762Y-14433526D02*
X91754762Y-14564478D01*
X91754762Y-14564478D02*
X91728572Y-14616859D01*
X91728572Y-14616859D02*
X91702381Y-14643050D01*
X91702381Y-14643050D02*
X91650000Y-14669240D01*
X91650000Y-14669240D02*
X91492857Y-14669240D01*
X91492857Y-14669240D02*
X91440476Y-14643050D01*
X91440476Y-14643050D02*
X91414286Y-14616859D01*
X90995238Y-64919240D02*
X90733333Y-64919240D01*
X90733333Y-64919240D02*
X90707142Y-65181145D01*
X90707142Y-65181145D02*
X90733333Y-65154954D01*
X90733333Y-65154954D02*
X90785714Y-65128764D01*
X90785714Y-65128764D02*
X90916666Y-65128764D01*
X90916666Y-65128764D02*
X90969047Y-65154954D01*
X90969047Y-65154954D02*
X90995238Y-65181145D01*
X90995238Y-65181145D02*
X91021428Y-65233526D01*
X91021428Y-65233526D02*
X91021428Y-65364478D01*
X91021428Y-65364478D02*
X90995238Y-65416859D01*
X90995238Y-65416859D02*
X90969047Y-65443050D01*
X90969047Y-65443050D02*
X90916666Y-65469240D01*
X90916666Y-65469240D02*
X90785714Y-65469240D01*
X90785714Y-65469240D02*
X90733333Y-65443050D01*
X90733333Y-65443050D02*
X90707142Y-65416859D01*
X91178571Y-64919240D02*
X91361905Y-65469240D01*
X91361905Y-65469240D02*
X91545238Y-64919240D01*
X90680952Y-67485430D02*
X90628571Y-67459240D01*
X90628571Y-67459240D02*
X90550000Y-67459240D01*
X90550000Y-67459240D02*
X90471428Y-67485430D01*
X90471428Y-67485430D02*
X90419047Y-67537811D01*
X90419047Y-67537811D02*
X90392857Y-67590192D01*
X90392857Y-67590192D02*
X90366666Y-67694954D01*
X90366666Y-67694954D02*
X90366666Y-67773526D01*
X90366666Y-67773526D02*
X90392857Y-67878288D01*
X90392857Y-67878288D02*
X90419047Y-67930669D01*
X90419047Y-67930669D02*
X90471428Y-67983050D01*
X90471428Y-67983050D02*
X90550000Y-68009240D01*
X90550000Y-68009240D02*
X90602381Y-68009240D01*
X90602381Y-68009240D02*
X90680952Y-67983050D01*
X90680952Y-67983050D02*
X90707143Y-67956859D01*
X90707143Y-67956859D02*
X90707143Y-67773526D01*
X90707143Y-67773526D02*
X90602381Y-67773526D01*
X90942857Y-68009240D02*
X90942857Y-67459240D01*
X90942857Y-67459240D02*
X91257143Y-68009240D01*
X91257143Y-68009240D02*
X91257143Y-67459240D01*
X91519047Y-68009240D02*
X91519047Y-67459240D01*
X91519047Y-67459240D02*
X91649999Y-67459240D01*
X91649999Y-67459240D02*
X91728571Y-67485430D01*
X91728571Y-67485430D02*
X91780952Y-67537811D01*
X91780952Y-67537811D02*
X91807142Y-67590192D01*
X91807142Y-67590192D02*
X91833333Y-67694954D01*
X91833333Y-67694954D02*
X91833333Y-67773526D01*
X91833333Y-67773526D02*
X91807142Y-67878288D01*
X91807142Y-67878288D02*
X91780952Y-67930669D01*
X91780952Y-67930669D02*
X91728571Y-67983050D01*
X91728571Y-67983050D02*
X91649999Y-68009240D01*
X91649999Y-68009240D02*
X91519047Y-68009240D01*
X89871428Y-11092371D02*
X89871428Y-11520942D01*
X89871428Y-11520942D02*
X89842857Y-11606657D01*
X89842857Y-11606657D02*
X89785714Y-11663800D01*
X89785714Y-11663800D02*
X89700000Y-11692371D01*
X89700000Y-11692371D02*
X89642857Y-11692371D01*
X90471428Y-11692371D02*
X90128571Y-11692371D01*
X90300000Y-11692371D02*
X90300000Y-11092371D01*
X90300000Y-11092371D02*
X90242857Y-11178085D01*
X90242857Y-11178085D02*
X90185714Y-11235228D01*
X90185714Y-11235228D02*
X90128571Y-11263800D01*
X91471429Y-11692371D02*
X91185715Y-11692371D01*
X91185715Y-11692371D02*
X91185715Y-11092371D01*
X91671429Y-11378085D02*
X91871429Y-11378085D01*
X91957143Y-11692371D02*
X91671429Y-11692371D01*
X91671429Y-11692371D02*
X91671429Y-11092371D01*
X91671429Y-11092371D02*
X91957143Y-11092371D01*
X92414286Y-11378085D02*
X92214286Y-11378085D01*
X92214286Y-11692371D02*
X92214286Y-11092371D01*
X92214286Y-11092371D02*
X92500000Y-11092371D01*
X92642857Y-11092371D02*
X92985715Y-11092371D01*
X92814286Y-11692371D02*
X92814286Y-11092371D01*
D15*
X99621429Y-11546438D02*
X99978572Y-11546438D01*
X99550000Y-11760724D02*
X99800000Y-11010724D01*
X99800000Y-11010724D02*
X100050000Y-11760724D01*
X100300000Y-11760724D02*
X100300000Y-11010724D01*
X100300000Y-11010724D02*
X100728571Y-11760724D01*
X100728571Y-11760724D02*
X100728571Y-11010724D01*
X100978571Y-11010724D02*
X101407143Y-11010724D01*
X101192857Y-11760724D02*
X101192857Y-11010724D01*
X101657143Y-11367867D02*
X101907143Y-11367867D01*
X102014286Y-11760724D02*
X101657143Y-11760724D01*
X101657143Y-11760724D02*
X101657143Y-11010724D01*
X101657143Y-11010724D02*
X102014286Y-11010724D01*
X102335714Y-11760724D02*
X102335714Y-11010724D01*
X102335714Y-11010724D02*
X102764285Y-11760724D01*
X102764285Y-11760724D02*
X102764285Y-11010724D01*
X103121428Y-11760724D02*
X103121428Y-11010724D01*
X103121428Y-11010724D02*
X103549999Y-11760724D01*
X103549999Y-11760724D02*
X103549999Y-11010724D01*
X103871428Y-11546438D02*
X104228571Y-11546438D01*
X103799999Y-11760724D02*
X104049999Y-11010724D01*
X104049999Y-11010724D02*
X104299999Y-11760724D01*
X105657142Y-10975010D02*
X105014285Y-11939295D01*
X106407142Y-11010724D02*
X106585714Y-11760724D01*
X106585714Y-11760724D02*
X106728571Y-11225010D01*
X106728571Y-11225010D02*
X106871428Y-11760724D01*
X106871428Y-11760724D02*
X107050000Y-11010724D01*
X107764285Y-11760724D02*
X107514285Y-11403581D01*
X107335714Y-11760724D02*
X107335714Y-11010724D01*
X107335714Y-11010724D02*
X107621428Y-11010724D01*
X107621428Y-11010724D02*
X107692857Y-11046438D01*
X107692857Y-11046438D02*
X107728571Y-11082152D01*
X107728571Y-11082152D02*
X107764285Y-11153581D01*
X107764285Y-11153581D02*
X107764285Y-11260724D01*
X107764285Y-11260724D02*
X107728571Y-11332152D01*
X107728571Y-11332152D02*
X107692857Y-11367867D01*
X107692857Y-11367867D02*
X107621428Y-11403581D01*
X107621428Y-11403581D02*
X107335714Y-11403581D01*
X108228571Y-11010724D02*
X108371428Y-11010724D01*
X108371428Y-11010724D02*
X108442857Y-11046438D01*
X108442857Y-11046438D02*
X108514285Y-11117867D01*
X108514285Y-11117867D02*
X108550000Y-11260724D01*
X108550000Y-11260724D02*
X108550000Y-11510724D01*
X108550000Y-11510724D02*
X108514285Y-11653581D01*
X108514285Y-11653581D02*
X108442857Y-11725010D01*
X108442857Y-11725010D02*
X108371428Y-11760724D01*
X108371428Y-11760724D02*
X108228571Y-11760724D01*
X108228571Y-11760724D02*
X108157143Y-11725010D01*
X108157143Y-11725010D02*
X108085714Y-11653581D01*
X108085714Y-11653581D02*
X108050000Y-11510724D01*
X108050000Y-11510724D02*
X108050000Y-11260724D01*
X108050000Y-11260724D02*
X108085714Y-11117867D01*
X108085714Y-11117867D02*
X108157143Y-11046438D01*
X108157143Y-11046438D02*
X108228571Y-11010724D01*
X109014285Y-11010724D02*
X109157142Y-11010724D01*
X109157142Y-11010724D02*
X109228571Y-11046438D01*
X109228571Y-11046438D02*
X109299999Y-11117867D01*
X109299999Y-11117867D02*
X109335714Y-11260724D01*
X109335714Y-11260724D02*
X109335714Y-11510724D01*
X109335714Y-11510724D02*
X109299999Y-11653581D01*
X109299999Y-11653581D02*
X109228571Y-11725010D01*
X109228571Y-11725010D02*
X109157142Y-11760724D01*
X109157142Y-11760724D02*
X109014285Y-11760724D01*
X109014285Y-11760724D02*
X108942857Y-11725010D01*
X108942857Y-11725010D02*
X108871428Y-11653581D01*
X108871428Y-11653581D02*
X108835714Y-11510724D01*
X108835714Y-11510724D02*
X108835714Y-11260724D01*
X108835714Y-11260724D02*
X108871428Y-11117867D01*
X108871428Y-11117867D02*
X108942857Y-11046438D01*
X108942857Y-11046438D02*
X109014285Y-11010724D01*
X109657142Y-11760724D02*
X109657142Y-11010724D01*
X109657142Y-11010724D02*
X109907142Y-11546438D01*
X109907142Y-11546438D02*
X110157142Y-11010724D01*
X110157142Y-11010724D02*
X110157142Y-11760724D01*
X111085714Y-11367867D02*
X111335714Y-11367867D01*
X111442857Y-11760724D02*
X111085714Y-11760724D01*
X111085714Y-11760724D02*
X111085714Y-11010724D01*
X111085714Y-11010724D02*
X111442857Y-11010724D01*
X111764285Y-11760724D02*
X111764285Y-11010724D01*
X111764285Y-11010724D02*
X112192856Y-11760724D01*
X112192856Y-11760724D02*
X112192856Y-11010724D01*
X112549999Y-11760724D02*
X112549999Y-11010724D01*
X112549999Y-11010724D02*
X112728570Y-11010724D01*
X112728570Y-11010724D02*
X112835713Y-11046438D01*
X112835713Y-11046438D02*
X112907142Y-11117867D01*
X112907142Y-11117867D02*
X112942856Y-11189295D01*
X112942856Y-11189295D02*
X112978570Y-11332152D01*
X112978570Y-11332152D02*
X112978570Y-11439295D01*
X112978570Y-11439295D02*
X112942856Y-11582152D01*
X112942856Y-11582152D02*
X112907142Y-11653581D01*
X112907142Y-11653581D02*
X112835713Y-11725010D01*
X112835713Y-11725010D02*
X112728570Y-11760724D01*
X112728570Y-11760724D02*
X112549999Y-11760724D01*
X101442857Y-69760724D02*
X101442857Y-69010724D01*
X101442857Y-69010724D02*
X101621428Y-69010724D01*
X101621428Y-69010724D02*
X101728571Y-69046438D01*
X101728571Y-69046438D02*
X101800000Y-69117867D01*
X101800000Y-69117867D02*
X101835714Y-69189295D01*
X101835714Y-69189295D02*
X101871428Y-69332152D01*
X101871428Y-69332152D02*
X101871428Y-69439295D01*
X101871428Y-69439295D02*
X101835714Y-69582152D01*
X101835714Y-69582152D02*
X101800000Y-69653581D01*
X101800000Y-69653581D02*
X101728571Y-69725010D01*
X101728571Y-69725010D02*
X101621428Y-69760724D01*
X101621428Y-69760724D02*
X101442857Y-69760724D01*
X102192857Y-69010724D02*
X102192857Y-69617867D01*
X102192857Y-69617867D02*
X102228571Y-69689295D01*
X102228571Y-69689295D02*
X102264286Y-69725010D01*
X102264286Y-69725010D02*
X102335714Y-69760724D01*
X102335714Y-69760724D02*
X102478571Y-69760724D01*
X102478571Y-69760724D02*
X102550000Y-69725010D01*
X102550000Y-69725010D02*
X102585714Y-69689295D01*
X102585714Y-69689295D02*
X102621428Y-69617867D01*
X102621428Y-69617867D02*
X102621428Y-69010724D01*
X102942857Y-69546438D02*
X103300000Y-69546438D01*
X102871428Y-69760724D02*
X103121428Y-69010724D01*
X103121428Y-69010724D02*
X103371428Y-69760724D01*
X103978571Y-69760724D02*
X103621428Y-69760724D01*
X103621428Y-69760724D02*
X103621428Y-69010724D01*
X104800000Y-69010724D02*
X104800000Y-69617867D01*
X104800000Y-69617867D02*
X104835714Y-69689295D01*
X104835714Y-69689295D02*
X104871429Y-69725010D01*
X104871429Y-69725010D02*
X104942857Y-69760724D01*
X104942857Y-69760724D02*
X105085714Y-69760724D01*
X105085714Y-69760724D02*
X105157143Y-69725010D01*
X105157143Y-69725010D02*
X105192857Y-69689295D01*
X105192857Y-69689295D02*
X105228571Y-69617867D01*
X105228571Y-69617867D02*
X105228571Y-69010724D01*
X105550000Y-69725010D02*
X105657143Y-69760724D01*
X105657143Y-69760724D02*
X105835714Y-69760724D01*
X105835714Y-69760724D02*
X105907143Y-69725010D01*
X105907143Y-69725010D02*
X105942857Y-69689295D01*
X105942857Y-69689295D02*
X105978571Y-69617867D01*
X105978571Y-69617867D02*
X105978571Y-69546438D01*
X105978571Y-69546438D02*
X105942857Y-69475010D01*
X105942857Y-69475010D02*
X105907143Y-69439295D01*
X105907143Y-69439295D02*
X105835714Y-69403581D01*
X105835714Y-69403581D02*
X105692857Y-69367867D01*
X105692857Y-69367867D02*
X105621428Y-69332152D01*
X105621428Y-69332152D02*
X105585714Y-69296438D01*
X105585714Y-69296438D02*
X105550000Y-69225010D01*
X105550000Y-69225010D02*
X105550000Y-69153581D01*
X105550000Y-69153581D02*
X105585714Y-69082152D01*
X105585714Y-69082152D02*
X105621428Y-69046438D01*
X105621428Y-69046438D02*
X105692857Y-69010724D01*
X105692857Y-69010724D02*
X105871428Y-69010724D01*
X105871428Y-69010724D02*
X105978571Y-69046438D01*
X106550000Y-69367867D02*
X106657143Y-69403581D01*
X106657143Y-69403581D02*
X106692857Y-69439295D01*
X106692857Y-69439295D02*
X106728571Y-69510724D01*
X106728571Y-69510724D02*
X106728571Y-69617867D01*
X106728571Y-69617867D02*
X106692857Y-69689295D01*
X106692857Y-69689295D02*
X106657143Y-69725010D01*
X106657143Y-69725010D02*
X106585714Y-69760724D01*
X106585714Y-69760724D02*
X106300000Y-69760724D01*
X106300000Y-69760724D02*
X106300000Y-69010724D01*
X106300000Y-69010724D02*
X106550000Y-69010724D01*
X106550000Y-69010724D02*
X106621429Y-69046438D01*
X106621429Y-69046438D02*
X106657143Y-69082152D01*
X106657143Y-69082152D02*
X106692857Y-69153581D01*
X106692857Y-69153581D02*
X106692857Y-69225010D01*
X106692857Y-69225010D02*
X106657143Y-69296438D01*
X106657143Y-69296438D02*
X106621429Y-69332152D01*
X106621429Y-69332152D02*
X106550000Y-69367867D01*
X106550000Y-69367867D02*
X106300000Y-69367867D01*
X107050000Y-69475010D02*
X107621429Y-69475010D01*
X108407142Y-69689295D02*
X108371428Y-69725010D01*
X108371428Y-69725010D02*
X108264285Y-69760724D01*
X108264285Y-69760724D02*
X108192857Y-69760724D01*
X108192857Y-69760724D02*
X108085714Y-69725010D01*
X108085714Y-69725010D02*
X108014285Y-69653581D01*
X108014285Y-69653581D02*
X107978571Y-69582152D01*
X107978571Y-69582152D02*
X107942857Y-69439295D01*
X107942857Y-69439295D02*
X107942857Y-69332152D01*
X107942857Y-69332152D02*
X107978571Y-69189295D01*
X107978571Y-69189295D02*
X108014285Y-69117867D01*
X108014285Y-69117867D02*
X108085714Y-69046438D01*
X108085714Y-69046438D02*
X108192857Y-69010724D01*
X108192857Y-69010724D02*
X108264285Y-69010724D01*
X108264285Y-69010724D02*
X108371428Y-69046438D01*
X108371428Y-69046438D02*
X108407142Y-69082152D01*
X109300000Y-69367867D02*
X109550000Y-69367867D01*
X109657143Y-69760724D02*
X109300000Y-69760724D01*
X109300000Y-69760724D02*
X109300000Y-69010724D01*
X109300000Y-69010724D02*
X109657143Y-69010724D01*
X109978571Y-69760724D02*
X109978571Y-69010724D01*
X109978571Y-69010724D02*
X110407142Y-69760724D01*
X110407142Y-69760724D02*
X110407142Y-69010724D01*
X110764285Y-69760724D02*
X110764285Y-69010724D01*
X110764285Y-69010724D02*
X110942856Y-69010724D01*
X110942856Y-69010724D02*
X111049999Y-69046438D01*
X111049999Y-69046438D02*
X111121428Y-69117867D01*
X111121428Y-69117867D02*
X111157142Y-69189295D01*
X111157142Y-69189295D02*
X111192856Y-69332152D01*
X111192856Y-69332152D02*
X111192856Y-69439295D01*
X111192856Y-69439295D02*
X111157142Y-69582152D01*
X111157142Y-69582152D02*
X111121428Y-69653581D01*
X111121428Y-69653581D02*
X111049999Y-69725010D01*
X111049999Y-69725010D02*
X110942856Y-69760724D01*
X110942856Y-69760724D02*
X110764285Y-69760724D01*
D16*
X119585714Y-11092371D02*
X119585714Y-11520942D01*
X119585714Y-11520942D02*
X119557143Y-11606657D01*
X119557143Y-11606657D02*
X119500000Y-11663800D01*
X119500000Y-11663800D02*
X119414286Y-11692371D01*
X119414286Y-11692371D02*
X119357143Y-11692371D01*
X119814286Y-11092371D02*
X120185714Y-11092371D01*
X120185714Y-11092371D02*
X119985714Y-11320942D01*
X119985714Y-11320942D02*
X120071429Y-11320942D01*
X120071429Y-11320942D02*
X120128572Y-11349514D01*
X120128572Y-11349514D02*
X120157143Y-11378085D01*
X120157143Y-11378085D02*
X120185714Y-11435228D01*
X120185714Y-11435228D02*
X120185714Y-11578085D01*
X120185714Y-11578085D02*
X120157143Y-11635228D01*
X120157143Y-11635228D02*
X120128572Y-11663800D01*
X120128572Y-11663800D02*
X120071429Y-11692371D01*
X120071429Y-11692371D02*
X119900000Y-11692371D01*
X119900000Y-11692371D02*
X119842857Y-11663800D01*
X119842857Y-11663800D02*
X119814286Y-11635228D01*
X121242858Y-11692371D02*
X121042858Y-11406657D01*
X120900001Y-11692371D02*
X120900001Y-11092371D01*
X120900001Y-11092371D02*
X121128572Y-11092371D01*
X121128572Y-11092371D02*
X121185715Y-11120942D01*
X121185715Y-11120942D02*
X121214286Y-11149514D01*
X121214286Y-11149514D02*
X121242858Y-11206657D01*
X121242858Y-11206657D02*
X121242858Y-11292371D01*
X121242858Y-11292371D02*
X121214286Y-11349514D01*
X121214286Y-11349514D02*
X121185715Y-11378085D01*
X121185715Y-11378085D02*
X121128572Y-11406657D01*
X121128572Y-11406657D02*
X120900001Y-11406657D01*
X121500001Y-11692371D02*
X121500001Y-11092371D01*
X122100000Y-11120942D02*
X122042858Y-11092371D01*
X122042858Y-11092371D02*
X121957143Y-11092371D01*
X121957143Y-11092371D02*
X121871429Y-11120942D01*
X121871429Y-11120942D02*
X121814286Y-11178085D01*
X121814286Y-11178085D02*
X121785715Y-11235228D01*
X121785715Y-11235228D02*
X121757143Y-11349514D01*
X121757143Y-11349514D02*
X121757143Y-11435228D01*
X121757143Y-11435228D02*
X121785715Y-11549514D01*
X121785715Y-11549514D02*
X121814286Y-11606657D01*
X121814286Y-11606657D02*
X121871429Y-11663800D01*
X121871429Y-11663800D02*
X121957143Y-11692371D01*
X121957143Y-11692371D02*
X122014286Y-11692371D01*
X122014286Y-11692371D02*
X122100000Y-11663800D01*
X122100000Y-11663800D02*
X122128572Y-11635228D01*
X122128572Y-11635228D02*
X122128572Y-11435228D01*
X122128572Y-11435228D02*
X122014286Y-11435228D01*
X122385715Y-11692371D02*
X122385715Y-11092371D01*
X122385715Y-11378085D02*
X122728572Y-11378085D01*
X122728572Y-11692371D02*
X122728572Y-11092371D01*
X122928571Y-11092371D02*
X123271429Y-11092371D01*
X123100000Y-11692371D02*
X123100000Y-11092371D01*
X121080952Y-14145430D02*
X121028571Y-14119240D01*
X121028571Y-14119240D02*
X120950000Y-14119240D01*
X120950000Y-14119240D02*
X120871428Y-14145430D01*
X120871428Y-14145430D02*
X120819047Y-14197811D01*
X120819047Y-14197811D02*
X120792857Y-14250192D01*
X120792857Y-14250192D02*
X120766666Y-14354954D01*
X120766666Y-14354954D02*
X120766666Y-14433526D01*
X120766666Y-14433526D02*
X120792857Y-14538288D01*
X120792857Y-14538288D02*
X120819047Y-14590669D01*
X120819047Y-14590669D02*
X120871428Y-14643050D01*
X120871428Y-14643050D02*
X120950000Y-14669240D01*
X120950000Y-14669240D02*
X121002381Y-14669240D01*
X121002381Y-14669240D02*
X121080952Y-14643050D01*
X121080952Y-14643050D02*
X121107143Y-14616859D01*
X121107143Y-14616859D02*
X121107143Y-14433526D01*
X121107143Y-14433526D02*
X121002381Y-14433526D01*
X121342857Y-14669240D02*
X121342857Y-14119240D01*
X121342857Y-14119240D02*
X121657143Y-14669240D01*
X121657143Y-14669240D02*
X121657143Y-14119240D01*
X121919047Y-14669240D02*
X121919047Y-14119240D01*
X121919047Y-14119240D02*
X122049999Y-14119240D01*
X122049999Y-14119240D02*
X122128571Y-14145430D01*
X122128571Y-14145430D02*
X122180952Y-14197811D01*
X122180952Y-14197811D02*
X122207142Y-14250192D01*
X122207142Y-14250192D02*
X122233333Y-14354954D01*
X122233333Y-14354954D02*
X122233333Y-14433526D01*
X122233333Y-14433526D02*
X122207142Y-14538288D01*
X122207142Y-14538288D02*
X122180952Y-14590669D01*
X122180952Y-14590669D02*
X122128571Y-14643050D01*
X122128571Y-14643050D02*
X122049999Y-14669240D01*
X122049999Y-14669240D02*
X121919047Y-14669240D01*
D14*
X16576667Y-10309271D02*
X16576667Y-11216414D01*
X16576667Y-11216414D02*
X16516190Y-11397842D01*
X16516190Y-11397842D02*
X16395238Y-11518795D01*
X16395238Y-11518795D02*
X16213809Y-11579271D01*
X16213809Y-11579271D02*
X16092857Y-11579271D01*
X17846667Y-11579271D02*
X17120952Y-11579271D01*
X17483809Y-11579271D02*
X17483809Y-10309271D01*
X17483809Y-10309271D02*
X17362857Y-10490699D01*
X17362857Y-10490699D02*
X17241905Y-10611652D01*
X17241905Y-10611652D02*
X17120952Y-10672128D01*
X48978333Y-19579271D02*
X48554999Y-18974509D01*
X48252618Y-19579271D02*
X48252618Y-18309271D01*
X48252618Y-18309271D02*
X48736428Y-18309271D01*
X48736428Y-18309271D02*
X48857380Y-18369747D01*
X48857380Y-18369747D02*
X48917857Y-18430223D01*
X48917857Y-18430223D02*
X48978333Y-18551175D01*
X48978333Y-18551175D02*
X48978333Y-18732604D01*
X48978333Y-18732604D02*
X48917857Y-18853556D01*
X48917857Y-18853556D02*
X48857380Y-18914033D01*
X48857380Y-18914033D02*
X48736428Y-18974509D01*
X48736428Y-18974509D02*
X48252618Y-18974509D01*
X49462142Y-18430223D02*
X49522618Y-18369747D01*
X49522618Y-18369747D02*
X49643571Y-18309271D01*
X49643571Y-18309271D02*
X49945952Y-18309271D01*
X49945952Y-18309271D02*
X50066904Y-18369747D01*
X50066904Y-18369747D02*
X50127380Y-18430223D01*
X50127380Y-18430223D02*
X50187857Y-18551175D01*
X50187857Y-18551175D02*
X50187857Y-18672128D01*
X50187857Y-18672128D02*
X50127380Y-18853556D01*
X50127380Y-18853556D02*
X49401666Y-19579271D01*
X49401666Y-19579271D02*
X50187857Y-19579271D01*
%TO.C,J3*%
D11*
X91000000Y-86000000D02*
X101000000Y-86000000D01*
X101000000Y-94000000D01*
X91000000Y-94000000D01*
X91000000Y-86000000D01*
%TO.C,C1*%
X12000000Y-23000000D02*
X22000000Y-23000000D01*
X22000000Y-35000000D01*
X12000000Y-35000000D01*
X12000000Y-23000000D01*
%TO.C,C7*%
D17*
X117000000Y-86500000D02*
G75*
G02*
X111000000Y-86500000I-3000000J0D01*
G01*
X111000000Y-86500000D02*
G75*
G02*
X117000000Y-86500000I3000000J0D01*
G01*
%TO.C,C8*%
X80500000Y-64000000D02*
X83500000Y-64000000D01*
X83500000Y-69000000D01*
X80500000Y-69000000D01*
X80500000Y-64000000D01*
%TO.C,U3*%
D11*
X136810000Y-34620000D02*
X156810000Y-34620000D01*
X156810000Y-54620000D01*
X136810000Y-54620000D01*
X136810000Y-34620000D01*
%TO.C,J5*%
X52960000Y-86000000D02*
X62960000Y-86000000D01*
X62960000Y-94000000D01*
X52960000Y-94000000D01*
X52960000Y-86000000D01*
%TO.C,J2*%
X67310000Y-31000000D02*
X81310000Y-31000000D01*
X81310000Y-39000000D01*
X67310000Y-39000000D01*
X67310000Y-31000000D01*
%TO.C,J10*%
X14000000Y-48250000D02*
X22000000Y-48250000D01*
X22000000Y-72250000D01*
X14000000Y-72250000D01*
X14000000Y-48250000D01*
%TO.C,U2*%
X136650000Y-69880000D02*
X156650000Y-69880000D01*
X156650000Y-89880000D01*
X136650000Y-89880000D01*
X136650000Y-69880000D01*
%TO.C,SW1*%
X40460000Y-35460000D02*
X58460000Y-35460000D01*
X58460000Y-47460000D01*
X40460000Y-47460000D01*
X40460000Y-35460000D01*
%TO.C,J4*%
X72000000Y-86500000D02*
X82000000Y-86500000D01*
X82000000Y-94500000D01*
X72000000Y-94500000D01*
X72000000Y-86500000D01*
%TO.C,U1*%
X89300000Y-8420000D02*
X123300000Y-8420000D01*
X123300000Y-72420000D01*
X89300000Y-72420000D01*
X89300000Y-8420000D01*
%TO.C,J1*%
X10000000Y-13000000D02*
X24000000Y-13000000D01*
X24000000Y-23000000D01*
X10000000Y-23000000D01*
X10000000Y-13000000D01*
%TD*%
M02*
