M48
; DRILL file KiCad 10.0.4 date 2026-08-16T11:33:49
; FORMAT={-:-/ absolute / metric / decimal}
; #@! TF.CreationDate,2026-08-16T11:33:49-05:00
; #@! TF.GenerationSoftware,Kicad,Pcbnew,10.0.4
; #@! TF.FileFunction,Plated,1,2,PTH
FMAT,2
METRIC
; #@! TA.AperFunction,Plated,PTH,ViaDrill
T1C0.300
; #@! TA.AperFunction,Plated,PTH,ViaDrill
T2C0.400
; #@! TA.AperFunction,Plated,PTH,ComponentDrill
T3C0.400
; #@! TA.AperFunction,Plated,PTH,ViaDrill
T4C0.800
; #@! TA.AperFunction,Plated,PTH,ComponentDrill
T5C0.800
; #@! TA.AperFunction,Plated,PTH,ComponentDrill
T6C0.900
; #@! TA.AperFunction,Plated,PTH,ComponentDrill
T7C1.000
; #@! TA.AperFunction,Plated,PTH,ComponentDrill
T8C1.500
%
G90
G05
T1
X70.0Y-79.0
X122.95Y-63.05
X156.5Y-98.2
X157.5Y-97.2
X160.3Y-80.9
X162.0Y-82.5
T2
X103.18Y-84.18
X107.18Y-84.18
X108.0Y-58.5
X108.0Y-62.5
T4
X148.811Y-111.6
T5
X107.5Y-86.73
X107.5Y-89.27
X154.23Y-109.0
X154.96Y-75.0
X156.77Y-109.0
X157.5Y-75.0
T6
X70.88Y-39.16
X70.88Y-43.0
X70.88Y-46.84
X70.88Y-51.0
X78.5Y-39.16
X78.5Y-43.0
X78.5Y-46.84
X78.5Y-51.0
X84.19Y-103.0
X91.69Y-98.5
X91.81Y-103.0
X99.31Y-98.5
X102.19Y-104.0
X109.69Y-99.5
X109.81Y-104.0
X117.31Y-99.5
X121.69Y-103.0
X129.19Y-98.5
X129.31Y-103.0
X136.81Y-98.5
X139.5Y-106.5
X139.5Y-109.5
X154.0Y-104.0
X154.23Y-71.5
X157.0Y-104.0
X157.23Y-71.5
X158.26Y-114.76
X158.54Y-79.5
X165.88Y-114.76
X166.16Y-79.5
T7
X40.0Y-50.5
X43.5Y-73.0
X43.5Y-75.5
X43.5Y-78.0
X43.5Y-80.5
X43.5Y-83.0
X43.5Y-85.5
X43.5Y-88.0
X43.5Y-90.5
X45.0Y-50.5
X69.88Y-60.42
X69.88Y-65.5
X72.42Y-60.42
X72.42Y-65.5
X74.96Y-60.42
X74.96Y-65.5
X77.5Y-60.42
X77.5Y-65.5
X80.92Y-111.5
X83.46Y-111.5
X86.0Y-111.5
X96.0Y-56.5
X98.54Y-56.5
X99.96Y-112.0
X101.08Y-56.5
X102.5Y-112.0
X103.62Y-56.5
X105.04Y-112.0
X118.96Y-111.5
X119.1Y-35.92
X119.1Y-38.46
X119.1Y-41.0
X119.1Y-43.54
X119.1Y-46.08
X119.1Y-48.62
X119.1Y-51.16
X119.1Y-53.7
X119.1Y-56.24
X119.1Y-58.78
X119.1Y-61.32
X119.1Y-63.86
X119.1Y-66.4
X119.1Y-68.94
X119.1Y-71.48
X119.1Y-74.02
X119.1Y-76.56
X119.1Y-79.1
X119.1Y-81.64
X119.1Y-84.18
X119.1Y-86.72
X119.1Y-89.26
X121.5Y-111.5
X124.04Y-111.5
X144.5Y-35.92
X144.5Y-38.46
X144.5Y-41.0
X144.5Y-43.54
X144.5Y-46.08
X144.5Y-48.62
X144.5Y-51.16
X144.5Y-53.7
X144.5Y-56.24
X144.5Y-58.78
X144.5Y-61.32
X144.5Y-63.86
X144.5Y-66.4
X144.5Y-68.94
X144.5Y-71.48
X144.5Y-74.02
X144.5Y-76.56
X144.5Y-79.1
X144.5Y-81.64
X144.5Y-84.18
X144.5Y-86.72
X144.5Y-89.26
X163.26Y-93.76
X163.26Y-109.0
X163.42Y-58.5
X163.42Y-73.74
X165.8Y-93.76
X165.8Y-109.0
X165.96Y-58.5
X165.96Y-73.74
X168.34Y-93.76
X168.34Y-109.0
X168.5Y-58.5
X168.5Y-73.74
X170.88Y-93.76
X170.88Y-109.0
X171.04Y-58.5
X171.04Y-73.74
X173.42Y-93.76
X173.42Y-109.0
X173.58Y-58.5
X173.58Y-73.74
X175.96Y-93.76
X175.96Y-109.0
X176.12Y-58.5
X176.12Y-73.74
X178.5Y-93.76
X178.5Y-109.0
X178.66Y-58.5
X178.66Y-73.74
X181.04Y-93.76
X181.04Y-109.0
X181.2Y-58.5
X181.2Y-73.74
T8
X40.0Y-39.5
X45.0Y-39.5
T3
G00X176.5Y-79.0
M15
G01X175.5Y-79.0
M16
G05
G00X175.5Y-89.0
M15
G01X176.5Y-89.0
M16
G05
G00X181.0Y-84.5
M15
G01X181.0Y-83.5
M16
G05
T5
G00X176.35Y-81.5
M15
G01X175.65Y-81.5
M16
G05
G00X175.65Y-86.5
M15
G01X176.35Y-86.5
M16
G05
M30
