M48
; DRILL file KiCad 10.0.4 date 2026-08-09T21:33:01
; FORMAT={-:-/ absolute / metric / decimal}
; #@! TF.CreationDate,2026-08-09T21:33:01-05:00
; #@! TF.GenerationSoftware,Kicad,Pcbnew,10.0.4
; #@! TF.FileFunction,Plated,1,2,PTH
FMAT,2
METRIC
; #@! TA.AperFunction,Plated,PTH,ViaDrill
T1C0.300
; #@! TA.AperFunction,Plated,PTH,ViaDrill
T2C0.400
; #@! TA.AperFunction,Plated,PTH,ViaDrill
T3C0.800
; #@! TA.AperFunction,Plated,PTH,ComponentDrill
T4C0.800
; #@! TA.AperFunction,Plated,PTH,ComponentDrill
T5C0.900
; #@! TA.AperFunction,Plated,PTH,ComponentDrill
T6C1.000
; #@! TA.AperFunction,Plated,PTH,ComponentDrill
T7C1.500
%
G90
G05
T1
X44.5Y-57.5
X91.9Y-30.4
X97.45Y-41.55
X131.0Y-76.7
X132.0Y-75.7
X134.8Y-59.4
X136.5Y-61.0
T2
X77.68Y-62.68
X81.68Y-62.68
X82.5Y-37.0
X82.5Y-41.0
T3
X123.311Y-90.1
T4
X82.0Y-65.23
X82.0Y-67.77
X128.73Y-87.5
X129.46Y-53.5
X131.27Y-87.5
X132.0Y-53.5
T5
X45.38Y-17.66
X45.38Y-21.5
X45.38Y-25.34
X45.38Y-29.5
X53.0Y-17.66
X53.0Y-21.5
X53.0Y-25.34
X53.0Y-29.5
X58.69Y-81.5
X66.19Y-77.0
X66.31Y-81.5
X73.81Y-77.0
X76.69Y-82.5
X84.19Y-78.0
X84.31Y-82.5
X91.81Y-78.0
X96.19Y-81.5
X103.69Y-77.0
X103.81Y-81.5
X111.31Y-77.0
X114.0Y-85.0
X114.0Y-88.0
X128.5Y-82.5
X128.73Y-50.0
X131.5Y-82.5
X131.73Y-50.0
X132.76Y-93.26
X133.04Y-58.0
X140.38Y-93.26
X140.66Y-58.0
T6
X14.5Y-29.0
X18.0Y-51.5
X18.0Y-54.0
X18.0Y-56.5
X18.0Y-59.0
X18.0Y-61.5
X18.0Y-64.0
X18.0Y-66.5
X18.0Y-69.0
X19.5Y-29.0
X44.38Y-38.92
X44.38Y-44.0
X46.92Y-38.92
X46.92Y-44.0
X49.46Y-38.92
X49.46Y-44.0
X52.0Y-38.92
X52.0Y-44.0
X55.42Y-90.0
X57.96Y-90.0
X60.5Y-90.0
X70.5Y-35.0
X73.04Y-35.0
X74.46Y-90.5
X75.58Y-35.0
X77.0Y-90.5
X78.12Y-35.0
X79.54Y-90.5
X93.46Y-90.0
X93.6Y-14.42
X93.6Y-16.96
X93.6Y-19.5
X93.6Y-22.04
X93.6Y-24.58
X93.6Y-27.12
X93.6Y-29.66
X93.6Y-32.2
X93.6Y-34.74
X93.6Y-37.28
X93.6Y-39.82
X93.6Y-42.36
X93.6Y-44.9
X93.6Y-47.44
X93.6Y-49.98
X93.6Y-52.52
X93.6Y-55.06
X93.6Y-57.6
X93.6Y-60.14
X93.6Y-62.68
X93.6Y-65.22
X93.6Y-67.76
X96.0Y-90.0
X98.54Y-90.0
X119.0Y-14.42
X119.0Y-16.96
X119.0Y-19.5
X119.0Y-22.04
X119.0Y-24.58
X119.0Y-27.12
X119.0Y-29.66
X119.0Y-32.2
X119.0Y-34.74
X119.0Y-37.28
X119.0Y-39.82
X119.0Y-42.36
X119.0Y-44.9
X119.0Y-47.44
X119.0Y-49.98
X119.0Y-52.52
X119.0Y-55.06
X119.0Y-57.6
X119.0Y-60.14
X119.0Y-62.68
X119.0Y-65.22
X119.0Y-67.76
X137.76Y-72.26
X137.76Y-87.5
X137.92Y-37.0
X137.92Y-52.24
X140.3Y-72.26
X140.3Y-87.5
X140.46Y-37.0
X140.46Y-52.24
X142.84Y-72.26
X142.84Y-87.5
X143.0Y-37.0
X143.0Y-52.24
X145.38Y-72.26
X145.38Y-87.5
X145.54Y-37.0
X145.54Y-52.24
X147.92Y-72.26
X147.92Y-87.5
X148.08Y-37.0
X148.08Y-52.24
X150.46Y-72.26
X150.46Y-87.5
X150.62Y-37.0
X150.62Y-52.24
X153.0Y-72.26
X153.0Y-87.5
X153.16Y-37.0
X153.16Y-52.24
X155.54Y-72.26
X155.54Y-87.5
X155.7Y-37.0
X155.7Y-52.24
T7
X14.5Y-18.0
X19.5Y-18.0
M30
