%TF.GenerationSoftware,KiCad,Pcbnew,10.0.4*%
%TF.CreationDate,2026-08-16T11:33:46-05:00*%
%TF.ProjectId,Cluster_Logic_Board,436c7573-7465-4725-9f4c-6f6769635f42,rev?*%
%TF.SameCoordinates,Original*%
%TF.FileFunction,Legend,Top*%
%TF.FilePolarity,Positive*%
%FSLAX46Y46*%
G04 Gerber Fmt 4.6, Leading zero omitted, Abs format (unit mm)*
G04 Created by KiCad (PCBNEW 10.0.4) date 2026-08-16 11:33:46*
%MOMM*%
%LPD*%
G01*
G04 APERTURE LIST*
%ADD10C,0.225000*%
%ADD11C,0.300000*%
%ADD12C,0.350000*%
%ADD13C,0.158750*%
%ADD14C,0.120000*%
%ADD15C,0.150000*%
%ADD16C,0.100000*%
%ADD17C,0.250000*%
G04 APERTURE END LIST*
D10*
X29995342Y-58657145D02*
X29352485Y-58657145D01*
X29352485Y-58657145D02*
X29223914Y-58614288D01*
X29223914Y-58614288D02*
X29138200Y-58528574D01*
X29138200Y-58528574D02*
X29095342Y-58400002D01*
X29095342Y-58400002D02*
X29095342Y-58314288D01*
X29095342Y-59557145D02*
X29095342Y-59042859D01*
X29095342Y-59300002D02*
X29995342Y-59300002D01*
X29995342Y-59300002D02*
X29866771Y-59214288D01*
X29866771Y-59214288D02*
X29781057Y-59128573D01*
X29781057Y-59128573D02*
X29738200Y-59042859D01*
X29995342Y-60114288D02*
X29995342Y-60200002D01*
X29995342Y-60200002D02*
X29952485Y-60285716D01*
X29952485Y-60285716D02*
X29909628Y-60328574D01*
X29909628Y-60328574D02*
X29823914Y-60371431D01*
X29823914Y-60371431D02*
X29652485Y-60414288D01*
X29652485Y-60414288D02*
X29438200Y-60414288D01*
X29438200Y-60414288D02*
X29266771Y-60371431D01*
X29266771Y-60371431D02*
X29181057Y-60328574D01*
X29181057Y-60328574D02*
X29138200Y-60285716D01*
X29138200Y-60285716D02*
X29095342Y-60200002D01*
X29095342Y-60200002D02*
X29095342Y-60114288D01*
X29095342Y-60114288D02*
X29138200Y-60028574D01*
X29138200Y-60028574D02*
X29181057Y-59985716D01*
X29181057Y-59985716D02*
X29266771Y-59942859D01*
X29266771Y-59942859D02*
X29438200Y-59900002D01*
X29438200Y-59900002D02*
X29652485Y-59900002D01*
X29652485Y-59900002D02*
X29823914Y-59942859D01*
X29823914Y-59942859D02*
X29909628Y-59985716D01*
X29909628Y-59985716D02*
X29952485Y-60028574D01*
X29952485Y-60028574D02*
X29995342Y-60114288D01*
X29995342Y-61485716D02*
X29266771Y-61485716D01*
X29266771Y-61485716D02*
X29181057Y-61528573D01*
X29181057Y-61528573D02*
X29138200Y-61571431D01*
X29138200Y-61571431D02*
X29095342Y-61657145D01*
X29095342Y-61657145D02*
X29095342Y-61828573D01*
X29095342Y-61828573D02*
X29138200Y-61914288D01*
X29138200Y-61914288D02*
X29181057Y-61957145D01*
X29181057Y-61957145D02*
X29266771Y-62000002D01*
X29266771Y-62000002D02*
X29995342Y-62000002D01*
X29095342Y-62428573D02*
X29995342Y-62428573D01*
X29995342Y-62428573D02*
X29095342Y-62942859D01*
X29095342Y-62942859D02*
X29995342Y-62942859D01*
X29181057Y-63885716D02*
X29138200Y-63842859D01*
X29138200Y-63842859D02*
X29095342Y-63714287D01*
X29095342Y-63714287D02*
X29095342Y-63628573D01*
X29095342Y-63628573D02*
X29138200Y-63500002D01*
X29138200Y-63500002D02*
X29223914Y-63414287D01*
X29223914Y-63414287D02*
X29309628Y-63371430D01*
X29309628Y-63371430D02*
X29481057Y-63328573D01*
X29481057Y-63328573D02*
X29609628Y-63328573D01*
X29609628Y-63328573D02*
X29781057Y-63371430D01*
X29781057Y-63371430D02*
X29866771Y-63414287D01*
X29866771Y-63414287D02*
X29952485Y-63500002D01*
X29952485Y-63500002D02*
X29995342Y-63628573D01*
X29995342Y-63628573D02*
X29995342Y-63714287D01*
X29995342Y-63714287D02*
X29952485Y-63842859D01*
X29952485Y-63842859D02*
X29909628Y-63885716D01*
X29095342Y-64271430D02*
X29995342Y-64271430D01*
X29566771Y-64271430D02*
X29566771Y-64785716D01*
X29095342Y-64785716D02*
X29995342Y-64785716D01*
X29352485Y-65171430D02*
X29352485Y-65600002D01*
X29095342Y-65085716D02*
X29995342Y-65385716D01*
X29995342Y-65385716D02*
X29095342Y-65685716D01*
X29095342Y-65985716D02*
X29995342Y-65985716D01*
X29995342Y-65985716D02*
X29095342Y-66500002D01*
X29095342Y-66500002D02*
X29995342Y-66500002D01*
X29952485Y-67400002D02*
X29995342Y-67314288D01*
X29995342Y-67314288D02*
X29995342Y-67185716D01*
X29995342Y-67185716D02*
X29952485Y-67057145D01*
X29952485Y-67057145D02*
X29866771Y-66971430D01*
X29866771Y-66971430D02*
X29781057Y-66928573D01*
X29781057Y-66928573D02*
X29609628Y-66885716D01*
X29609628Y-66885716D02*
X29481057Y-66885716D01*
X29481057Y-66885716D02*
X29309628Y-66928573D01*
X29309628Y-66928573D02*
X29223914Y-66971430D01*
X29223914Y-66971430D02*
X29138200Y-67057145D01*
X29138200Y-67057145D02*
X29095342Y-67185716D01*
X29095342Y-67185716D02*
X29095342Y-67271430D01*
X29095342Y-67271430D02*
X29138200Y-67400002D01*
X29138200Y-67400002D02*
X29181057Y-67442859D01*
X29181057Y-67442859D02*
X29481057Y-67442859D01*
X29481057Y-67442859D02*
X29481057Y-67271430D01*
X29566771Y-67828573D02*
X29566771Y-68128573D01*
X29095342Y-68257145D02*
X29095342Y-67828573D01*
X29095342Y-67828573D02*
X29995342Y-67828573D01*
X29995342Y-67828573D02*
X29995342Y-68257145D01*
X29095342Y-68642859D02*
X29995342Y-68642859D01*
X29995342Y-68642859D02*
X29995342Y-68857145D01*
X29995342Y-68857145D02*
X29952485Y-68985716D01*
X29952485Y-68985716D02*
X29866771Y-69071431D01*
X29866771Y-69071431D02*
X29781057Y-69114288D01*
X29781057Y-69114288D02*
X29609628Y-69157145D01*
X29609628Y-69157145D02*
X29481057Y-69157145D01*
X29481057Y-69157145D02*
X29309628Y-69114288D01*
X29309628Y-69114288D02*
X29223914Y-69071431D01*
X29223914Y-69071431D02*
X29138200Y-68985716D01*
X29138200Y-68985716D02*
X29095342Y-68857145D01*
X29095342Y-68857145D02*
X29095342Y-68642859D01*
X29181057Y-69542859D02*
X29138200Y-69585716D01*
X29138200Y-69585716D02*
X29095342Y-69542859D01*
X29095342Y-69542859D02*
X29138200Y-69500002D01*
X29138200Y-69500002D02*
X29181057Y-69542859D01*
X29181057Y-69542859D02*
X29095342Y-69542859D01*
X29652485Y-69542859D02*
X29609628Y-69585716D01*
X29609628Y-69585716D02*
X29566771Y-69542859D01*
X29566771Y-69542859D02*
X29609628Y-69500002D01*
X29609628Y-69500002D02*
X29652485Y-69542859D01*
X29652485Y-69542859D02*
X29566771Y-69542859D01*
X29095342Y-71128573D02*
X29095342Y-70614287D01*
X29095342Y-70871430D02*
X29995342Y-70871430D01*
X29995342Y-70871430D02*
X29866771Y-70785716D01*
X29866771Y-70785716D02*
X29781057Y-70700001D01*
X29781057Y-70700001D02*
X29738200Y-70614287D01*
X29952485Y-72671430D02*
X29995342Y-72585716D01*
X29995342Y-72585716D02*
X29995342Y-72457144D01*
X29995342Y-72457144D02*
X29952485Y-72328573D01*
X29952485Y-72328573D02*
X29866771Y-72242858D01*
X29866771Y-72242858D02*
X29781057Y-72200001D01*
X29781057Y-72200001D02*
X29609628Y-72157144D01*
X29609628Y-72157144D02*
X29481057Y-72157144D01*
X29481057Y-72157144D02*
X29309628Y-72200001D01*
X29309628Y-72200001D02*
X29223914Y-72242858D01*
X29223914Y-72242858D02*
X29138200Y-72328573D01*
X29138200Y-72328573D02*
X29095342Y-72457144D01*
X29095342Y-72457144D02*
X29095342Y-72542858D01*
X29095342Y-72542858D02*
X29138200Y-72671430D01*
X29138200Y-72671430D02*
X29181057Y-72714287D01*
X29181057Y-72714287D02*
X29481057Y-72714287D01*
X29481057Y-72714287D02*
X29481057Y-72542858D01*
X29095342Y-73100001D02*
X29995342Y-73100001D01*
X29995342Y-73100001D02*
X29095342Y-73614287D01*
X29095342Y-73614287D02*
X29995342Y-73614287D01*
X29095342Y-74042858D02*
X29995342Y-74042858D01*
X29995342Y-74042858D02*
X29995342Y-74257144D01*
X29995342Y-74257144D02*
X29952485Y-74385715D01*
X29952485Y-74385715D02*
X29866771Y-74471430D01*
X29866771Y-74471430D02*
X29781057Y-74514287D01*
X29781057Y-74514287D02*
X29609628Y-74557144D01*
X29609628Y-74557144D02*
X29481057Y-74557144D01*
X29481057Y-74557144D02*
X29309628Y-74514287D01*
X29309628Y-74514287D02*
X29223914Y-74471430D01*
X29223914Y-74471430D02*
X29138200Y-74385715D01*
X29138200Y-74385715D02*
X29095342Y-74257144D01*
X29095342Y-74257144D02*
X29095342Y-74042858D01*
X29909628Y-76271429D02*
X29952485Y-76314286D01*
X29952485Y-76314286D02*
X29995342Y-76400001D01*
X29995342Y-76400001D02*
X29995342Y-76614286D01*
X29995342Y-76614286D02*
X29952485Y-76700001D01*
X29952485Y-76700001D02*
X29909628Y-76742858D01*
X29909628Y-76742858D02*
X29823914Y-76785715D01*
X29823914Y-76785715D02*
X29738200Y-76785715D01*
X29738200Y-76785715D02*
X29609628Y-76742858D01*
X29609628Y-76742858D02*
X29095342Y-76228572D01*
X29095342Y-76228572D02*
X29095342Y-76785715D01*
X29952485Y-78328572D02*
X29995342Y-78242858D01*
X29995342Y-78242858D02*
X29995342Y-78114286D01*
X29995342Y-78114286D02*
X29952485Y-77985715D01*
X29952485Y-77985715D02*
X29866771Y-77900000D01*
X29866771Y-77900000D02*
X29781057Y-77857143D01*
X29781057Y-77857143D02*
X29609628Y-77814286D01*
X29609628Y-77814286D02*
X29481057Y-77814286D01*
X29481057Y-77814286D02*
X29309628Y-77857143D01*
X29309628Y-77857143D02*
X29223914Y-77900000D01*
X29223914Y-77900000D02*
X29138200Y-77985715D01*
X29138200Y-77985715D02*
X29095342Y-78114286D01*
X29095342Y-78114286D02*
X29095342Y-78200000D01*
X29095342Y-78200000D02*
X29138200Y-78328572D01*
X29138200Y-78328572D02*
X29181057Y-78371429D01*
X29181057Y-78371429D02*
X29481057Y-78371429D01*
X29481057Y-78371429D02*
X29481057Y-78200000D01*
X29095342Y-78757143D02*
X29995342Y-78757143D01*
X29995342Y-78757143D02*
X29095342Y-79271429D01*
X29095342Y-79271429D02*
X29995342Y-79271429D01*
X29095342Y-79700000D02*
X29995342Y-79700000D01*
X29995342Y-79700000D02*
X29995342Y-79914286D01*
X29995342Y-79914286D02*
X29952485Y-80042857D01*
X29952485Y-80042857D02*
X29866771Y-80128572D01*
X29866771Y-80128572D02*
X29781057Y-80171429D01*
X29781057Y-80171429D02*
X29609628Y-80214286D01*
X29609628Y-80214286D02*
X29481057Y-80214286D01*
X29481057Y-80214286D02*
X29309628Y-80171429D01*
X29309628Y-80171429D02*
X29223914Y-80128572D01*
X29223914Y-80128572D02*
X29138200Y-80042857D01*
X29138200Y-80042857D02*
X29095342Y-79914286D01*
X29095342Y-79914286D02*
X29095342Y-79700000D01*
X29995342Y-81885714D02*
X29995342Y-82442857D01*
X29995342Y-82442857D02*
X29652485Y-82142857D01*
X29652485Y-82142857D02*
X29652485Y-82271428D01*
X29652485Y-82271428D02*
X29609628Y-82357143D01*
X29609628Y-82357143D02*
X29566771Y-82400000D01*
X29566771Y-82400000D02*
X29481057Y-82442857D01*
X29481057Y-82442857D02*
X29266771Y-82442857D01*
X29266771Y-82442857D02*
X29181057Y-82400000D01*
X29181057Y-82400000D02*
X29138200Y-82357143D01*
X29138200Y-82357143D02*
X29095342Y-82271428D01*
X29095342Y-82271428D02*
X29095342Y-82014285D01*
X29095342Y-82014285D02*
X29138200Y-81928571D01*
X29138200Y-81928571D02*
X29181057Y-81885714D01*
X29995342Y-83428571D02*
X29995342Y-83985714D01*
X29995342Y-83985714D02*
X29652485Y-83685714D01*
X29652485Y-83685714D02*
X29652485Y-83814285D01*
X29652485Y-83814285D02*
X29609628Y-83900000D01*
X29609628Y-83900000D02*
X29566771Y-83942857D01*
X29566771Y-83942857D02*
X29481057Y-83985714D01*
X29481057Y-83985714D02*
X29266771Y-83985714D01*
X29266771Y-83985714D02*
X29181057Y-83942857D01*
X29181057Y-83942857D02*
X29138200Y-83900000D01*
X29138200Y-83900000D02*
X29095342Y-83814285D01*
X29095342Y-83814285D02*
X29095342Y-83557142D01*
X29095342Y-83557142D02*
X29138200Y-83471428D01*
X29138200Y-83471428D02*
X29181057Y-83428571D01*
X29995342Y-84242857D02*
X29095342Y-84542857D01*
X29095342Y-84542857D02*
X29995342Y-84842857D01*
X29995342Y-85057143D02*
X29995342Y-85614286D01*
X29995342Y-85614286D02*
X29652485Y-85314286D01*
X29652485Y-85314286D02*
X29652485Y-85442857D01*
X29652485Y-85442857D02*
X29609628Y-85528572D01*
X29609628Y-85528572D02*
X29566771Y-85571429D01*
X29566771Y-85571429D02*
X29481057Y-85614286D01*
X29481057Y-85614286D02*
X29266771Y-85614286D01*
X29266771Y-85614286D02*
X29181057Y-85571429D01*
X29181057Y-85571429D02*
X29138200Y-85528572D01*
X29138200Y-85528572D02*
X29095342Y-85442857D01*
X29095342Y-85442857D02*
X29095342Y-85185714D01*
X29095342Y-85185714D02*
X29138200Y-85100000D01*
X29138200Y-85100000D02*
X29181057Y-85057143D01*
X29695342Y-87757143D02*
X29095342Y-87757143D01*
X30038200Y-87542857D02*
X29395342Y-87328571D01*
X29395342Y-87328571D02*
X29395342Y-87885714D01*
X29138200Y-88871428D02*
X29095342Y-89000000D01*
X29095342Y-89000000D02*
X29095342Y-89214285D01*
X29095342Y-89214285D02*
X29138200Y-89300000D01*
X29138200Y-89300000D02*
X29181057Y-89342857D01*
X29181057Y-89342857D02*
X29266771Y-89385714D01*
X29266771Y-89385714D02*
X29352485Y-89385714D01*
X29352485Y-89385714D02*
X29438200Y-89342857D01*
X29438200Y-89342857D02*
X29481057Y-89300000D01*
X29481057Y-89300000D02*
X29523914Y-89214285D01*
X29523914Y-89214285D02*
X29566771Y-89042857D01*
X29566771Y-89042857D02*
X29609628Y-88957142D01*
X29609628Y-88957142D02*
X29652485Y-88914285D01*
X29652485Y-88914285D02*
X29738200Y-88871428D01*
X29738200Y-88871428D02*
X29823914Y-88871428D01*
X29823914Y-88871428D02*
X29909628Y-88914285D01*
X29909628Y-88914285D02*
X29952485Y-88957142D01*
X29952485Y-88957142D02*
X29995342Y-89042857D01*
X29995342Y-89042857D02*
X29995342Y-89257142D01*
X29995342Y-89257142D02*
X29952485Y-89385714D01*
X29095342Y-89771428D02*
X29995342Y-89771428D01*
X29995342Y-89771428D02*
X29995342Y-89985714D01*
X29995342Y-89985714D02*
X29952485Y-90114285D01*
X29952485Y-90114285D02*
X29866771Y-90200000D01*
X29866771Y-90200000D02*
X29781057Y-90242857D01*
X29781057Y-90242857D02*
X29609628Y-90285714D01*
X29609628Y-90285714D02*
X29481057Y-90285714D01*
X29481057Y-90285714D02*
X29309628Y-90242857D01*
X29309628Y-90242857D02*
X29223914Y-90200000D01*
X29223914Y-90200000D02*
X29138200Y-90114285D01*
X29138200Y-90114285D02*
X29095342Y-89985714D01*
X29095342Y-89985714D02*
X29095342Y-89771428D01*
X29352485Y-90628571D02*
X29352485Y-91057143D01*
X29095342Y-90542857D02*
X29995342Y-90842857D01*
X29995342Y-90842857D02*
X29095342Y-91142857D01*
X29995342Y-93242857D02*
X29995342Y-92814285D01*
X29995342Y-92814285D02*
X29566771Y-92771428D01*
X29566771Y-92771428D02*
X29609628Y-92814285D01*
X29609628Y-92814285D02*
X29652485Y-92900000D01*
X29652485Y-92900000D02*
X29652485Y-93114285D01*
X29652485Y-93114285D02*
X29609628Y-93200000D01*
X29609628Y-93200000D02*
X29566771Y-93242857D01*
X29566771Y-93242857D02*
X29481057Y-93285714D01*
X29481057Y-93285714D02*
X29266771Y-93285714D01*
X29266771Y-93285714D02*
X29181057Y-93242857D01*
X29181057Y-93242857D02*
X29138200Y-93200000D01*
X29138200Y-93200000D02*
X29095342Y-93114285D01*
X29095342Y-93114285D02*
X29095342Y-92900000D01*
X29095342Y-92900000D02*
X29138200Y-92814285D01*
X29138200Y-92814285D02*
X29181057Y-92771428D01*
X29138200Y-94314285D02*
X29095342Y-94442857D01*
X29095342Y-94442857D02*
X29095342Y-94657142D01*
X29095342Y-94657142D02*
X29138200Y-94742857D01*
X29138200Y-94742857D02*
X29181057Y-94785714D01*
X29181057Y-94785714D02*
X29266771Y-94828571D01*
X29266771Y-94828571D02*
X29352485Y-94828571D01*
X29352485Y-94828571D02*
X29438200Y-94785714D01*
X29438200Y-94785714D02*
X29481057Y-94742857D01*
X29481057Y-94742857D02*
X29523914Y-94657142D01*
X29523914Y-94657142D02*
X29566771Y-94485714D01*
X29566771Y-94485714D02*
X29609628Y-94399999D01*
X29609628Y-94399999D02*
X29652485Y-94357142D01*
X29652485Y-94357142D02*
X29738200Y-94314285D01*
X29738200Y-94314285D02*
X29823914Y-94314285D01*
X29823914Y-94314285D02*
X29909628Y-94357142D01*
X29909628Y-94357142D02*
X29952485Y-94399999D01*
X29952485Y-94399999D02*
X29995342Y-94485714D01*
X29995342Y-94485714D02*
X29995342Y-94699999D01*
X29995342Y-94699999D02*
X29952485Y-94828571D01*
X29181057Y-95728571D02*
X29138200Y-95685714D01*
X29138200Y-95685714D02*
X29095342Y-95557142D01*
X29095342Y-95557142D02*
X29095342Y-95471428D01*
X29095342Y-95471428D02*
X29138200Y-95342857D01*
X29138200Y-95342857D02*
X29223914Y-95257142D01*
X29223914Y-95257142D02*
X29309628Y-95214285D01*
X29309628Y-95214285D02*
X29481057Y-95171428D01*
X29481057Y-95171428D02*
X29609628Y-95171428D01*
X29609628Y-95171428D02*
X29781057Y-95214285D01*
X29781057Y-95214285D02*
X29866771Y-95257142D01*
X29866771Y-95257142D02*
X29952485Y-95342857D01*
X29952485Y-95342857D02*
X29995342Y-95471428D01*
X29995342Y-95471428D02*
X29995342Y-95557142D01*
X29995342Y-95557142D02*
X29952485Y-95685714D01*
X29952485Y-95685714D02*
X29909628Y-95728571D01*
X29095342Y-96542857D02*
X29095342Y-96114285D01*
X29095342Y-96114285D02*
X29995342Y-96114285D01*
X29995342Y-98599999D02*
X29995342Y-98428570D01*
X29995342Y-98428570D02*
X29952485Y-98342856D01*
X29952485Y-98342856D02*
X29909628Y-98299999D01*
X29909628Y-98299999D02*
X29781057Y-98214284D01*
X29781057Y-98214284D02*
X29609628Y-98171427D01*
X29609628Y-98171427D02*
X29266771Y-98171427D01*
X29266771Y-98171427D02*
X29181057Y-98214284D01*
X29181057Y-98214284D02*
X29138200Y-98257141D01*
X29138200Y-98257141D02*
X29095342Y-98342856D01*
X29095342Y-98342856D02*
X29095342Y-98514284D01*
X29095342Y-98514284D02*
X29138200Y-98599999D01*
X29138200Y-98599999D02*
X29181057Y-98642856D01*
X29181057Y-98642856D02*
X29266771Y-98685713D01*
X29266771Y-98685713D02*
X29481057Y-98685713D01*
X29481057Y-98685713D02*
X29566771Y-98642856D01*
X29566771Y-98642856D02*
X29609628Y-98599999D01*
X29609628Y-98599999D02*
X29652485Y-98514284D01*
X29652485Y-98514284D02*
X29652485Y-98342856D01*
X29652485Y-98342856D02*
X29609628Y-98257141D01*
X29609628Y-98257141D02*
X29566771Y-98214284D01*
X29566771Y-98214284D02*
X29481057Y-98171427D01*
X29095342Y-100185713D02*
X29095342Y-99757141D01*
X29095342Y-99757141D02*
X29995342Y-99757141D01*
X29566771Y-100485712D02*
X29566771Y-100785712D01*
X29095342Y-100914284D02*
X29095342Y-100485712D01*
X29095342Y-100485712D02*
X29995342Y-100485712D01*
X29995342Y-100485712D02*
X29995342Y-100914284D01*
X29095342Y-101299998D02*
X29995342Y-101299998D01*
X29995342Y-101299998D02*
X29995342Y-101514284D01*
X29995342Y-101514284D02*
X29952485Y-101642855D01*
X29952485Y-101642855D02*
X29866771Y-101728570D01*
X29866771Y-101728570D02*
X29781057Y-101771427D01*
X29781057Y-101771427D02*
X29609628Y-101814284D01*
X29609628Y-101814284D02*
X29481057Y-101814284D01*
X29481057Y-101814284D02*
X29309628Y-101771427D01*
X29309628Y-101771427D02*
X29223914Y-101728570D01*
X29223914Y-101728570D02*
X29138200Y-101642855D01*
X29138200Y-101642855D02*
X29095342Y-101514284D01*
X29095342Y-101514284D02*
X29095342Y-101299998D01*
X29995342Y-103485712D02*
X29995342Y-104085712D01*
X29995342Y-104085712D02*
X29095342Y-103699998D01*
X29995342Y-105285712D02*
X29995342Y-105457140D01*
X29995342Y-105457140D02*
X29952485Y-105542855D01*
X29952485Y-105542855D02*
X29866771Y-105628569D01*
X29866771Y-105628569D02*
X29695342Y-105671426D01*
X29695342Y-105671426D02*
X29395342Y-105671426D01*
X29395342Y-105671426D02*
X29223914Y-105628569D01*
X29223914Y-105628569D02*
X29138200Y-105542855D01*
X29138200Y-105542855D02*
X29095342Y-105457140D01*
X29095342Y-105457140D02*
X29095342Y-105285712D01*
X29095342Y-105285712D02*
X29138200Y-105199998D01*
X29138200Y-105199998D02*
X29223914Y-105114283D01*
X29223914Y-105114283D02*
X29395342Y-105071426D01*
X29395342Y-105071426D02*
X29695342Y-105071426D01*
X29695342Y-105071426D02*
X29866771Y-105114283D01*
X29866771Y-105114283D02*
X29952485Y-105199998D01*
X29952485Y-105199998D02*
X29995342Y-105285712D01*
X29566771Y-106057140D02*
X29566771Y-106357140D01*
X29095342Y-106485712D02*
X29095342Y-106057140D01*
X29095342Y-106057140D02*
X29995342Y-106057140D01*
X29995342Y-106057140D02*
X29995342Y-106485712D01*
X29609628Y-108371426D02*
X29652485Y-108285711D01*
X29652485Y-108285711D02*
X29695342Y-108242854D01*
X29695342Y-108242854D02*
X29781057Y-108199997D01*
X29781057Y-108199997D02*
X29823914Y-108199997D01*
X29823914Y-108199997D02*
X29909628Y-108242854D01*
X29909628Y-108242854D02*
X29952485Y-108285711D01*
X29952485Y-108285711D02*
X29995342Y-108371426D01*
X29995342Y-108371426D02*
X29995342Y-108542854D01*
X29995342Y-108542854D02*
X29952485Y-108628569D01*
X29952485Y-108628569D02*
X29909628Y-108671426D01*
X29909628Y-108671426D02*
X29823914Y-108714283D01*
X29823914Y-108714283D02*
X29781057Y-108714283D01*
X29781057Y-108714283D02*
X29695342Y-108671426D01*
X29695342Y-108671426D02*
X29652485Y-108628569D01*
X29652485Y-108628569D02*
X29609628Y-108542854D01*
X29609628Y-108542854D02*
X29609628Y-108371426D01*
X29609628Y-108371426D02*
X29566771Y-108285711D01*
X29566771Y-108285711D02*
X29523914Y-108242854D01*
X29523914Y-108242854D02*
X29438200Y-108199997D01*
X29438200Y-108199997D02*
X29266771Y-108199997D01*
X29266771Y-108199997D02*
X29181057Y-108242854D01*
X29181057Y-108242854D02*
X29138200Y-108285711D01*
X29138200Y-108285711D02*
X29095342Y-108371426D01*
X29095342Y-108371426D02*
X29095342Y-108542854D01*
X29095342Y-108542854D02*
X29138200Y-108628569D01*
X29138200Y-108628569D02*
X29181057Y-108671426D01*
X29181057Y-108671426D02*
X29266771Y-108714283D01*
X29266771Y-108714283D02*
X29438200Y-108714283D01*
X29438200Y-108714283D02*
X29523914Y-108671426D01*
X29523914Y-108671426D02*
X29566771Y-108628569D01*
X29566771Y-108628569D02*
X29609628Y-108542854D01*
X29138200Y-109742854D02*
X29095342Y-109871426D01*
X29095342Y-109871426D02*
X29095342Y-110085711D01*
X29095342Y-110085711D02*
X29138200Y-110171426D01*
X29138200Y-110171426D02*
X29181057Y-110214283D01*
X29181057Y-110214283D02*
X29266771Y-110257140D01*
X29266771Y-110257140D02*
X29352485Y-110257140D01*
X29352485Y-110257140D02*
X29438200Y-110214283D01*
X29438200Y-110214283D02*
X29481057Y-110171426D01*
X29481057Y-110171426D02*
X29523914Y-110085711D01*
X29523914Y-110085711D02*
X29566771Y-109914283D01*
X29566771Y-109914283D02*
X29609628Y-109828568D01*
X29609628Y-109828568D02*
X29652485Y-109785711D01*
X29652485Y-109785711D02*
X29738200Y-109742854D01*
X29738200Y-109742854D02*
X29823914Y-109742854D01*
X29823914Y-109742854D02*
X29909628Y-109785711D01*
X29909628Y-109785711D02*
X29952485Y-109828568D01*
X29952485Y-109828568D02*
X29995342Y-109914283D01*
X29995342Y-109914283D02*
X29995342Y-110128568D01*
X29995342Y-110128568D02*
X29952485Y-110257140D01*
X29095342Y-110642854D02*
X29995342Y-110642854D01*
X29995342Y-110642854D02*
X29995342Y-110985711D01*
X29995342Y-110985711D02*
X29952485Y-111071426D01*
X29952485Y-111071426D02*
X29909628Y-111114283D01*
X29909628Y-111114283D02*
X29823914Y-111157140D01*
X29823914Y-111157140D02*
X29695342Y-111157140D01*
X29695342Y-111157140D02*
X29609628Y-111114283D01*
X29609628Y-111114283D02*
X29566771Y-111071426D01*
X29566771Y-111071426D02*
X29523914Y-110985711D01*
X29523914Y-110985711D02*
X29523914Y-110642854D01*
X29352485Y-111499997D02*
X29352485Y-111928569D01*
X29095342Y-111414283D02*
X29995342Y-111714283D01*
X29995342Y-111714283D02*
X29095342Y-112014283D01*
X29095342Y-112828569D02*
X29523914Y-112528569D01*
X29095342Y-112314283D02*
X29995342Y-112314283D01*
X29995342Y-112314283D02*
X29995342Y-112657140D01*
X29995342Y-112657140D02*
X29952485Y-112742855D01*
X29952485Y-112742855D02*
X29909628Y-112785712D01*
X29909628Y-112785712D02*
X29823914Y-112828569D01*
X29823914Y-112828569D02*
X29695342Y-112828569D01*
X29695342Y-112828569D02*
X29609628Y-112785712D01*
X29609628Y-112785712D02*
X29566771Y-112742855D01*
X29566771Y-112742855D02*
X29523914Y-112657140D01*
X29523914Y-112657140D02*
X29523914Y-112314283D01*
X29566771Y-113214283D02*
X29566771Y-113514283D01*
X29095342Y-113642855D02*
X29095342Y-113214283D01*
X29095342Y-113214283D02*
X29995342Y-113214283D01*
X29995342Y-113214283D02*
X29995342Y-113642855D01*
D11*
X42085713Y-28410971D02*
X42485713Y-28410971D01*
X42657141Y-29039542D02*
X42085713Y-29039542D01*
X42085713Y-29039542D02*
X42085713Y-27839542D01*
X42085713Y-27839542D02*
X42657141Y-27839542D01*
X43114284Y-28982400D02*
X43285713Y-29039542D01*
X43285713Y-29039542D02*
X43571427Y-29039542D01*
X43571427Y-29039542D02*
X43685713Y-28982400D01*
X43685713Y-28982400D02*
X43742855Y-28925257D01*
X43742855Y-28925257D02*
X43799998Y-28810971D01*
X43799998Y-28810971D02*
X43799998Y-28696685D01*
X43799998Y-28696685D02*
X43742855Y-28582400D01*
X43742855Y-28582400D02*
X43685713Y-28525257D01*
X43685713Y-28525257D02*
X43571427Y-28468114D01*
X43571427Y-28468114D02*
X43342855Y-28410971D01*
X43342855Y-28410971D02*
X43228570Y-28353828D01*
X43228570Y-28353828D02*
X43171427Y-28296685D01*
X43171427Y-28296685D02*
X43114284Y-28182400D01*
X43114284Y-28182400D02*
X43114284Y-28068114D01*
X43114284Y-28068114D02*
X43171427Y-27953828D01*
X43171427Y-27953828D02*
X43228570Y-27896685D01*
X43228570Y-27896685D02*
X43342855Y-27839542D01*
X43342855Y-27839542D02*
X43628570Y-27839542D01*
X43628570Y-27839542D02*
X43799998Y-27896685D01*
X44314284Y-29039542D02*
X44314284Y-27839542D01*
X44314284Y-27839542D02*
X44771427Y-27839542D01*
X44771427Y-27839542D02*
X44885712Y-27896685D01*
X44885712Y-27896685D02*
X44942855Y-27953828D01*
X44942855Y-27953828D02*
X44999998Y-28068114D01*
X44999998Y-28068114D02*
X44999998Y-28239542D01*
X44999998Y-28239542D02*
X44942855Y-28353828D01*
X44942855Y-28353828D02*
X44885712Y-28410971D01*
X44885712Y-28410971D02*
X44771427Y-28468114D01*
X44771427Y-28468114D02*
X44314284Y-28468114D01*
X45399998Y-27839542D02*
X46142855Y-27839542D01*
X46142855Y-27839542D02*
X45742855Y-28296685D01*
X45742855Y-28296685D02*
X45914284Y-28296685D01*
X45914284Y-28296685D02*
X46028570Y-28353828D01*
X46028570Y-28353828D02*
X46085712Y-28410971D01*
X46085712Y-28410971D02*
X46142855Y-28525257D01*
X46142855Y-28525257D02*
X46142855Y-28810971D01*
X46142855Y-28810971D02*
X46085712Y-28925257D01*
X46085712Y-28925257D02*
X46028570Y-28982400D01*
X46028570Y-28982400D02*
X45914284Y-29039542D01*
X45914284Y-29039542D02*
X45571427Y-29039542D01*
X45571427Y-29039542D02*
X45457141Y-28982400D01*
X45457141Y-28982400D02*
X45399998Y-28925257D01*
X46599998Y-27953828D02*
X46657141Y-27896685D01*
X46657141Y-27896685D02*
X46771427Y-27839542D01*
X46771427Y-27839542D02*
X47057141Y-27839542D01*
X47057141Y-27839542D02*
X47171427Y-27896685D01*
X47171427Y-27896685D02*
X47228569Y-27953828D01*
X47228569Y-27953828D02*
X47285712Y-28068114D01*
X47285712Y-28068114D02*
X47285712Y-28182400D01*
X47285712Y-28182400D02*
X47228569Y-28353828D01*
X47228569Y-28353828D02*
X46542855Y-29039542D01*
X46542855Y-29039542D02*
X47285712Y-29039542D01*
X47799998Y-28582400D02*
X48714284Y-28582400D01*
X49228569Y-28982400D02*
X49399998Y-29039542D01*
X49399998Y-29039542D02*
X49685712Y-29039542D01*
X49685712Y-29039542D02*
X49799998Y-28982400D01*
X49799998Y-28982400D02*
X49857140Y-28925257D01*
X49857140Y-28925257D02*
X49914283Y-28810971D01*
X49914283Y-28810971D02*
X49914283Y-28696685D01*
X49914283Y-28696685D02*
X49857140Y-28582400D01*
X49857140Y-28582400D02*
X49799998Y-28525257D01*
X49799998Y-28525257D02*
X49685712Y-28468114D01*
X49685712Y-28468114D02*
X49457140Y-28410971D01*
X49457140Y-28410971D02*
X49342855Y-28353828D01*
X49342855Y-28353828D02*
X49285712Y-28296685D01*
X49285712Y-28296685D02*
X49228569Y-28182400D01*
X49228569Y-28182400D02*
X49228569Y-28068114D01*
X49228569Y-28068114D02*
X49285712Y-27953828D01*
X49285712Y-27953828D02*
X49342855Y-27896685D01*
X49342855Y-27896685D02*
X49457140Y-27839542D01*
X49457140Y-27839542D02*
X49742855Y-27839542D01*
X49742855Y-27839542D02*
X49914283Y-27896685D01*
X50314283Y-27839542D02*
X51057140Y-27839542D01*
X51057140Y-27839542D02*
X50657140Y-28296685D01*
X50657140Y-28296685D02*
X50828569Y-28296685D01*
X50828569Y-28296685D02*
X50942855Y-28353828D01*
X50942855Y-28353828D02*
X50999997Y-28410971D01*
X50999997Y-28410971D02*
X51057140Y-28525257D01*
X51057140Y-28525257D02*
X51057140Y-28810971D01*
X51057140Y-28810971D02*
X50999997Y-28925257D01*
X50999997Y-28925257D02*
X50942855Y-28982400D01*
X50942855Y-28982400D02*
X50828569Y-29039542D01*
X50828569Y-29039542D02*
X50485712Y-29039542D01*
X50485712Y-29039542D02*
X50371426Y-28982400D01*
X50371426Y-28982400D02*
X50314283Y-28925257D01*
X53342855Y-27782400D02*
X52314283Y-29325257D01*
X54599998Y-27953828D02*
X54657141Y-27896685D01*
X54657141Y-27896685D02*
X54771427Y-27839542D01*
X54771427Y-27839542D02*
X55057141Y-27839542D01*
X55057141Y-27839542D02*
X55171427Y-27896685D01*
X55171427Y-27896685D02*
X55228569Y-27953828D01*
X55228569Y-27953828D02*
X55285712Y-28068114D01*
X55285712Y-28068114D02*
X55285712Y-28182400D01*
X55285712Y-28182400D02*
X55228569Y-28353828D01*
X55228569Y-28353828D02*
X54542855Y-29039542D01*
X54542855Y-29039542D02*
X55285712Y-29039542D01*
X55685712Y-29039542D02*
X56314284Y-28239542D01*
X55685712Y-28239542D02*
X56314284Y-29039542D01*
X57685713Y-29039542D02*
X57685713Y-27839542D01*
X57685713Y-27839542D02*
X57971427Y-27839542D01*
X57971427Y-27839542D02*
X58142856Y-27896685D01*
X58142856Y-27896685D02*
X58257141Y-28010971D01*
X58257141Y-28010971D02*
X58314284Y-28125257D01*
X58314284Y-28125257D02*
X58371427Y-28353828D01*
X58371427Y-28353828D02*
X58371427Y-28525257D01*
X58371427Y-28525257D02*
X58314284Y-28753828D01*
X58314284Y-28753828D02*
X58257141Y-28868114D01*
X58257141Y-28868114D02*
X58142856Y-28982400D01*
X58142856Y-28982400D02*
X57971427Y-29039542D01*
X57971427Y-29039542D02*
X57685713Y-29039542D01*
X59285713Y-28410971D02*
X58885713Y-28410971D01*
X58885713Y-29039542D02*
X58885713Y-27839542D01*
X58885713Y-27839542D02*
X59457141Y-27839542D01*
X59914284Y-29039542D02*
X59914284Y-27839542D01*
X59914284Y-27839542D02*
X60371427Y-27839542D01*
X60371427Y-27839542D02*
X60485712Y-27896685D01*
X60485712Y-27896685D02*
X60542855Y-27953828D01*
X60542855Y-27953828D02*
X60599998Y-28068114D01*
X60599998Y-28068114D02*
X60599998Y-28239542D01*
X60599998Y-28239542D02*
X60542855Y-28353828D01*
X60542855Y-28353828D02*
X60485712Y-28410971D01*
X60485712Y-28410971D02*
X60371427Y-28468114D01*
X60371427Y-28468114D02*
X59914284Y-28468114D01*
X61685712Y-29039542D02*
X61114284Y-29039542D01*
X61114284Y-29039542D02*
X61114284Y-27839542D01*
X62028570Y-28696685D02*
X62599999Y-28696685D01*
X61914284Y-29039542D02*
X62314284Y-27839542D01*
X62314284Y-27839542D02*
X62714284Y-29039542D01*
X63342855Y-28468114D02*
X63342855Y-29039542D01*
X62942855Y-27839542D02*
X63342855Y-28468114D01*
X63342855Y-28468114D02*
X63742855Y-27839542D01*
X64142855Y-28410971D02*
X64542855Y-28410971D01*
X64714283Y-29039542D02*
X64142855Y-29039542D01*
X64142855Y-29039542D02*
X64142855Y-27839542D01*
X64142855Y-27839542D02*
X64714283Y-27839542D01*
X65914283Y-29039542D02*
X65514283Y-28468114D01*
X65228569Y-29039542D02*
X65228569Y-27839542D01*
X65228569Y-27839542D02*
X65685712Y-27839542D01*
X65685712Y-27839542D02*
X65799997Y-27896685D01*
X65799997Y-27896685D02*
X65857140Y-27953828D01*
X65857140Y-27953828D02*
X65914283Y-28068114D01*
X65914283Y-28068114D02*
X65914283Y-28239542D01*
X65914283Y-28239542D02*
X65857140Y-28353828D01*
X65857140Y-28353828D02*
X65799997Y-28410971D01*
X65799997Y-28410971D02*
X65685712Y-28468114D01*
X65685712Y-28468114D02*
X65228569Y-28468114D01*
X68199998Y-27782400D02*
X67171426Y-29325257D01*
X69742855Y-27839542D02*
X69971427Y-27839542D01*
X69971427Y-27839542D02*
X70085712Y-27896685D01*
X70085712Y-27896685D02*
X70199998Y-28010971D01*
X70199998Y-28010971D02*
X70257141Y-28239542D01*
X70257141Y-28239542D02*
X70257141Y-28639542D01*
X70257141Y-28639542D02*
X70199998Y-28868114D01*
X70199998Y-28868114D02*
X70085712Y-28982400D01*
X70085712Y-28982400D02*
X69971427Y-29039542D01*
X69971427Y-29039542D02*
X69742855Y-29039542D01*
X69742855Y-29039542D02*
X69628570Y-28982400D01*
X69628570Y-28982400D02*
X69514284Y-28868114D01*
X69514284Y-28868114D02*
X69457141Y-28639542D01*
X69457141Y-28639542D02*
X69457141Y-28239542D01*
X69457141Y-28239542D02*
X69514284Y-28010971D01*
X69514284Y-28010971D02*
X69628570Y-27896685D01*
X69628570Y-27896685D02*
X69742855Y-27839542D01*
X71342855Y-29039542D02*
X70771427Y-29039542D01*
X70771427Y-29039542D02*
X70771427Y-27839542D01*
X71742856Y-28410971D02*
X72142856Y-28410971D01*
X72314284Y-29039542D02*
X71742856Y-29039542D01*
X71742856Y-29039542D02*
X71742856Y-27839542D01*
X71742856Y-27839542D02*
X72314284Y-27839542D01*
X72828570Y-29039542D02*
X72828570Y-27839542D01*
X72828570Y-27839542D02*
X73114284Y-27839542D01*
X73114284Y-27839542D02*
X73285713Y-27896685D01*
X73285713Y-27896685D02*
X73399998Y-28010971D01*
X73399998Y-28010971D02*
X73457141Y-28125257D01*
X73457141Y-28125257D02*
X73514284Y-28353828D01*
X73514284Y-28353828D02*
X73514284Y-28525257D01*
X73514284Y-28525257D02*
X73457141Y-28753828D01*
X73457141Y-28753828D02*
X73399998Y-28868114D01*
X73399998Y-28868114D02*
X73285713Y-28982400D01*
X73285713Y-28982400D02*
X73114284Y-29039542D01*
X73114284Y-29039542D02*
X72828570Y-29039542D01*
X75799999Y-27782400D02*
X74771427Y-29325257D01*
X77114285Y-29039542D02*
X77114285Y-27839542D01*
X77114285Y-27839542D02*
X77571428Y-27839542D01*
X77571428Y-27839542D02*
X77685713Y-27896685D01*
X77685713Y-27896685D02*
X77742856Y-27953828D01*
X77742856Y-27953828D02*
X77799999Y-28068114D01*
X77799999Y-28068114D02*
X77799999Y-28239542D01*
X77799999Y-28239542D02*
X77742856Y-28353828D01*
X77742856Y-28353828D02*
X77685713Y-28410971D01*
X77685713Y-28410971D02*
X77571428Y-28468114D01*
X77571428Y-28468114D02*
X77114285Y-28468114D01*
X78314285Y-29039542D02*
X78314285Y-27839542D01*
X79571428Y-29039542D02*
X79171428Y-28468114D01*
X78885714Y-29039542D02*
X78885714Y-27839542D01*
X78885714Y-27839542D02*
X79342857Y-27839542D01*
X79342857Y-27839542D02*
X79457142Y-27896685D01*
X79457142Y-27896685D02*
X79514285Y-27953828D01*
X79514285Y-27953828D02*
X79571428Y-28068114D01*
X79571428Y-28068114D02*
X79571428Y-28239542D01*
X79571428Y-28239542D02*
X79514285Y-28353828D01*
X79514285Y-28353828D02*
X79457142Y-28410971D01*
X79457142Y-28410971D02*
X79342857Y-28468114D01*
X79342857Y-28468114D02*
X78885714Y-28468114D01*
X81857143Y-27782400D02*
X80828571Y-29325257D01*
X83171429Y-29039542D02*
X83171429Y-27839542D01*
X83171429Y-27839542D02*
X83628572Y-27839542D01*
X83628572Y-27839542D02*
X83742857Y-27896685D01*
X83742857Y-27896685D02*
X83800000Y-27953828D01*
X83800000Y-27953828D02*
X83857143Y-28068114D01*
X83857143Y-28068114D02*
X83857143Y-28239542D01*
X83857143Y-28239542D02*
X83800000Y-28353828D01*
X83800000Y-28353828D02*
X83742857Y-28410971D01*
X83742857Y-28410971D02*
X83628572Y-28468114D01*
X83628572Y-28468114D02*
X83171429Y-28468114D01*
X85057143Y-29039542D02*
X84657143Y-28468114D01*
X84371429Y-29039542D02*
X84371429Y-27839542D01*
X84371429Y-27839542D02*
X84828572Y-27839542D01*
X84828572Y-27839542D02*
X84942857Y-27896685D01*
X84942857Y-27896685D02*
X85000000Y-27953828D01*
X85000000Y-27953828D02*
X85057143Y-28068114D01*
X85057143Y-28068114D02*
X85057143Y-28239542D01*
X85057143Y-28239542D02*
X85000000Y-28353828D01*
X85000000Y-28353828D02*
X84942857Y-28410971D01*
X84942857Y-28410971D02*
X84828572Y-28468114D01*
X84828572Y-28468114D02*
X84371429Y-28468114D01*
X85800000Y-27839542D02*
X86028572Y-27839542D01*
X86028572Y-27839542D02*
X86142857Y-27896685D01*
X86142857Y-27896685D02*
X86257143Y-28010971D01*
X86257143Y-28010971D02*
X86314286Y-28239542D01*
X86314286Y-28239542D02*
X86314286Y-28639542D01*
X86314286Y-28639542D02*
X86257143Y-28868114D01*
X86257143Y-28868114D02*
X86142857Y-28982400D01*
X86142857Y-28982400D02*
X86028572Y-29039542D01*
X86028572Y-29039542D02*
X85800000Y-29039542D01*
X85800000Y-29039542D02*
X85685715Y-28982400D01*
X85685715Y-28982400D02*
X85571429Y-28868114D01*
X85571429Y-28868114D02*
X85514286Y-28639542D01*
X85514286Y-28639542D02*
X85514286Y-28239542D01*
X85514286Y-28239542D02*
X85571429Y-28010971D01*
X85571429Y-28010971D02*
X85685715Y-27896685D01*
X85685715Y-27896685D02*
X85800000Y-27839542D01*
X86657143Y-27839542D02*
X87342858Y-27839542D01*
X87000000Y-29039542D02*
X87000000Y-27839542D01*
X87742858Y-28410971D02*
X88142858Y-28410971D01*
X88314286Y-29039542D02*
X87742858Y-29039542D01*
X87742858Y-29039542D02*
X87742858Y-27839542D01*
X87742858Y-27839542D02*
X88314286Y-27839542D01*
X89514286Y-28925257D02*
X89457143Y-28982400D01*
X89457143Y-28982400D02*
X89285715Y-29039542D01*
X89285715Y-29039542D02*
X89171429Y-29039542D01*
X89171429Y-29039542D02*
X89000000Y-28982400D01*
X89000000Y-28982400D02*
X88885715Y-28868114D01*
X88885715Y-28868114D02*
X88828572Y-28753828D01*
X88828572Y-28753828D02*
X88771429Y-28525257D01*
X88771429Y-28525257D02*
X88771429Y-28353828D01*
X88771429Y-28353828D02*
X88828572Y-28125257D01*
X88828572Y-28125257D02*
X88885715Y-28010971D01*
X88885715Y-28010971D02*
X89000000Y-27896685D01*
X89000000Y-27896685D02*
X89171429Y-27839542D01*
X89171429Y-27839542D02*
X89285715Y-27839542D01*
X89285715Y-27839542D02*
X89457143Y-27896685D01*
X89457143Y-27896685D02*
X89514286Y-27953828D01*
X89857143Y-27839542D02*
X90542858Y-27839542D01*
X90200000Y-29039542D02*
X90200000Y-27839542D01*
X90942858Y-28410971D02*
X91342858Y-28410971D01*
X91514286Y-29039542D02*
X90942858Y-29039542D01*
X90942858Y-29039542D02*
X90942858Y-27839542D01*
X90942858Y-27839542D02*
X91514286Y-27839542D01*
X92028572Y-29039542D02*
X92028572Y-27839542D01*
X92028572Y-27839542D02*
X92314286Y-27839542D01*
X92314286Y-27839542D02*
X92485715Y-27896685D01*
X92485715Y-27896685D02*
X92600000Y-28010971D01*
X92600000Y-28010971D02*
X92657143Y-28125257D01*
X92657143Y-28125257D02*
X92714286Y-28353828D01*
X92714286Y-28353828D02*
X92714286Y-28525257D01*
X92714286Y-28525257D02*
X92657143Y-28753828D01*
X92657143Y-28753828D02*
X92600000Y-28868114D01*
X92600000Y-28868114D02*
X92485715Y-28982400D01*
X92485715Y-28982400D02*
X92314286Y-29039542D01*
X92314286Y-29039542D02*
X92028572Y-29039542D01*
X94142858Y-29039542D02*
X94142858Y-27839542D01*
X94714287Y-29039542D02*
X94714287Y-27839542D01*
X94714287Y-27839542D02*
X95400001Y-29039542D01*
X95400001Y-29039542D02*
X95400001Y-27839542D01*
X95971430Y-29039542D02*
X95971430Y-27839542D01*
X95971430Y-27839542D02*
X96428573Y-27839542D01*
X96428573Y-27839542D02*
X96542858Y-27896685D01*
X96542858Y-27896685D02*
X96600001Y-27953828D01*
X96600001Y-27953828D02*
X96657144Y-28068114D01*
X96657144Y-28068114D02*
X96657144Y-28239542D01*
X96657144Y-28239542D02*
X96600001Y-28353828D01*
X96600001Y-28353828D02*
X96542858Y-28410971D01*
X96542858Y-28410971D02*
X96428573Y-28468114D01*
X96428573Y-28468114D02*
X95971430Y-28468114D01*
X97171430Y-27839542D02*
X97171430Y-28810971D01*
X97171430Y-28810971D02*
X97228573Y-28925257D01*
X97228573Y-28925257D02*
X97285716Y-28982400D01*
X97285716Y-28982400D02*
X97400001Y-29039542D01*
X97400001Y-29039542D02*
X97628573Y-29039542D01*
X97628573Y-29039542D02*
X97742858Y-28982400D01*
X97742858Y-28982400D02*
X97800001Y-28925257D01*
X97800001Y-28925257D02*
X97857144Y-28810971D01*
X97857144Y-28810971D02*
X97857144Y-27839542D01*
X98257144Y-27839542D02*
X98942859Y-27839542D01*
X98600001Y-29039542D02*
X98600001Y-27839542D01*
X99285716Y-28982400D02*
X99457145Y-29039542D01*
X99457145Y-29039542D02*
X99742859Y-29039542D01*
X99742859Y-29039542D02*
X99857145Y-28982400D01*
X99857145Y-28982400D02*
X99914287Y-28925257D01*
X99914287Y-28925257D02*
X99971430Y-28810971D01*
X99971430Y-28810971D02*
X99971430Y-28696685D01*
X99971430Y-28696685D02*
X99914287Y-28582400D01*
X99914287Y-28582400D02*
X99857145Y-28525257D01*
X99857145Y-28525257D02*
X99742859Y-28468114D01*
X99742859Y-28468114D02*
X99514287Y-28410971D01*
X99514287Y-28410971D02*
X99400002Y-28353828D01*
X99400002Y-28353828D02*
X99342859Y-28296685D01*
X99342859Y-28296685D02*
X99285716Y-28182400D01*
X99285716Y-28182400D02*
X99285716Y-28068114D01*
X99285716Y-28068114D02*
X99342859Y-27953828D01*
X99342859Y-27953828D02*
X99400002Y-27896685D01*
X99400002Y-27896685D02*
X99514287Y-27839542D01*
X99514287Y-27839542D02*
X99800002Y-27839542D01*
X99800002Y-27839542D02*
X99971430Y-27896685D01*
D12*
X49047617Y-25716561D02*
X48952379Y-25811800D01*
X48952379Y-25811800D02*
X48666665Y-25907038D01*
X48666665Y-25907038D02*
X48476189Y-25907038D01*
X48476189Y-25907038D02*
X48190474Y-25811800D01*
X48190474Y-25811800D02*
X47999998Y-25621323D01*
X47999998Y-25621323D02*
X47904760Y-25430847D01*
X47904760Y-25430847D02*
X47809522Y-25049895D01*
X47809522Y-25049895D02*
X47809522Y-24764180D01*
X47809522Y-24764180D02*
X47904760Y-24383228D01*
X47904760Y-24383228D02*
X47999998Y-24192752D01*
X47999998Y-24192752D02*
X48190474Y-24002276D01*
X48190474Y-24002276D02*
X48476189Y-23907038D01*
X48476189Y-23907038D02*
X48666665Y-23907038D01*
X48666665Y-23907038D02*
X48952379Y-24002276D01*
X48952379Y-24002276D02*
X49047617Y-24097514D01*
X50857141Y-25907038D02*
X49904760Y-25907038D01*
X49904760Y-25907038D02*
X49904760Y-23907038D01*
X51523808Y-23907038D02*
X51523808Y-25526085D01*
X51523808Y-25526085D02*
X51619046Y-25716561D01*
X51619046Y-25716561D02*
X51714284Y-25811800D01*
X51714284Y-25811800D02*
X51904760Y-25907038D01*
X51904760Y-25907038D02*
X52285713Y-25907038D01*
X52285713Y-25907038D02*
X52476189Y-25811800D01*
X52476189Y-25811800D02*
X52571427Y-25716561D01*
X52571427Y-25716561D02*
X52666665Y-25526085D01*
X52666665Y-25526085D02*
X52666665Y-23907038D01*
X53523808Y-25811800D02*
X53809522Y-25907038D01*
X53809522Y-25907038D02*
X54285713Y-25907038D01*
X54285713Y-25907038D02*
X54476189Y-25811800D01*
X54476189Y-25811800D02*
X54571427Y-25716561D01*
X54571427Y-25716561D02*
X54666665Y-25526085D01*
X54666665Y-25526085D02*
X54666665Y-25335609D01*
X54666665Y-25335609D02*
X54571427Y-25145133D01*
X54571427Y-25145133D02*
X54476189Y-25049895D01*
X54476189Y-25049895D02*
X54285713Y-24954657D01*
X54285713Y-24954657D02*
X53904760Y-24859419D01*
X53904760Y-24859419D02*
X53714284Y-24764180D01*
X53714284Y-24764180D02*
X53619046Y-24668942D01*
X53619046Y-24668942D02*
X53523808Y-24478466D01*
X53523808Y-24478466D02*
X53523808Y-24287990D01*
X53523808Y-24287990D02*
X53619046Y-24097514D01*
X53619046Y-24097514D02*
X53714284Y-24002276D01*
X53714284Y-24002276D02*
X53904760Y-23907038D01*
X53904760Y-23907038D02*
X54380951Y-23907038D01*
X54380951Y-23907038D02*
X54666665Y-24002276D01*
X55238094Y-23907038D02*
X56380951Y-23907038D01*
X55809522Y-25907038D02*
X55809522Y-23907038D01*
X57047618Y-24859419D02*
X57714285Y-24859419D01*
X57999999Y-25907038D02*
X57047618Y-25907038D01*
X57047618Y-25907038D02*
X57047618Y-23907038D01*
X57047618Y-23907038D02*
X57999999Y-23907038D01*
X59999999Y-25907038D02*
X59333332Y-24954657D01*
X58857142Y-25907038D02*
X58857142Y-23907038D01*
X58857142Y-23907038D02*
X59619047Y-23907038D01*
X59619047Y-23907038D02*
X59809523Y-24002276D01*
X59809523Y-24002276D02*
X59904761Y-24097514D01*
X59904761Y-24097514D02*
X59999999Y-24287990D01*
X59999999Y-24287990D02*
X59999999Y-24573704D01*
X59999999Y-24573704D02*
X59904761Y-24764180D01*
X59904761Y-24764180D02*
X59809523Y-24859419D01*
X59809523Y-24859419D02*
X59619047Y-24954657D01*
X59619047Y-24954657D02*
X58857142Y-24954657D01*
X63333333Y-25907038D02*
X62380952Y-25907038D01*
X62380952Y-25907038D02*
X62380952Y-23907038D01*
X64380952Y-23907038D02*
X64761905Y-23907038D01*
X64761905Y-23907038D02*
X64952381Y-24002276D01*
X64952381Y-24002276D02*
X65142857Y-24192752D01*
X65142857Y-24192752D02*
X65238095Y-24573704D01*
X65238095Y-24573704D02*
X65238095Y-25240371D01*
X65238095Y-25240371D02*
X65142857Y-25621323D01*
X65142857Y-25621323D02*
X64952381Y-25811800D01*
X64952381Y-25811800D02*
X64761905Y-25907038D01*
X64761905Y-25907038D02*
X64380952Y-25907038D01*
X64380952Y-25907038D02*
X64190476Y-25811800D01*
X64190476Y-25811800D02*
X64000000Y-25621323D01*
X64000000Y-25621323D02*
X63904762Y-25240371D01*
X63904762Y-25240371D02*
X63904762Y-24573704D01*
X63904762Y-24573704D02*
X64000000Y-24192752D01*
X64000000Y-24192752D02*
X64190476Y-24002276D01*
X64190476Y-24002276D02*
X64380952Y-23907038D01*
X67142857Y-24002276D02*
X66952381Y-23907038D01*
X66952381Y-23907038D02*
X66666667Y-23907038D01*
X66666667Y-23907038D02*
X66380952Y-24002276D01*
X66380952Y-24002276D02*
X66190476Y-24192752D01*
X66190476Y-24192752D02*
X66095238Y-24383228D01*
X66095238Y-24383228D02*
X66000000Y-24764180D01*
X66000000Y-24764180D02*
X66000000Y-25049895D01*
X66000000Y-25049895D02*
X66095238Y-25430847D01*
X66095238Y-25430847D02*
X66190476Y-25621323D01*
X66190476Y-25621323D02*
X66380952Y-25811800D01*
X66380952Y-25811800D02*
X66666667Y-25907038D01*
X66666667Y-25907038D02*
X66857143Y-25907038D01*
X66857143Y-25907038D02*
X67142857Y-25811800D01*
X67142857Y-25811800D02*
X67238095Y-25716561D01*
X67238095Y-25716561D02*
X67238095Y-25049895D01*
X67238095Y-25049895D02*
X66857143Y-25049895D01*
X68095238Y-25907038D02*
X68095238Y-23907038D01*
X70190476Y-25716561D02*
X70095238Y-25811800D01*
X70095238Y-25811800D02*
X69809524Y-25907038D01*
X69809524Y-25907038D02*
X69619048Y-25907038D01*
X69619048Y-25907038D02*
X69333333Y-25811800D01*
X69333333Y-25811800D02*
X69142857Y-25621323D01*
X69142857Y-25621323D02*
X69047619Y-25430847D01*
X69047619Y-25430847D02*
X68952381Y-25049895D01*
X68952381Y-25049895D02*
X68952381Y-24764180D01*
X68952381Y-24764180D02*
X69047619Y-24383228D01*
X69047619Y-24383228D02*
X69142857Y-24192752D01*
X69142857Y-24192752D02*
X69333333Y-24002276D01*
X69333333Y-24002276D02*
X69619048Y-23907038D01*
X69619048Y-23907038D02*
X69809524Y-23907038D01*
X69809524Y-23907038D02*
X70095238Y-24002276D01*
X70095238Y-24002276D02*
X70190476Y-24097514D01*
X73238096Y-24859419D02*
X73523810Y-24954657D01*
X73523810Y-24954657D02*
X73619048Y-25049895D01*
X73619048Y-25049895D02*
X73714286Y-25240371D01*
X73714286Y-25240371D02*
X73714286Y-25526085D01*
X73714286Y-25526085D02*
X73619048Y-25716561D01*
X73619048Y-25716561D02*
X73523810Y-25811800D01*
X73523810Y-25811800D02*
X73333334Y-25907038D01*
X73333334Y-25907038D02*
X72571429Y-25907038D01*
X72571429Y-25907038D02*
X72571429Y-23907038D01*
X72571429Y-23907038D02*
X73238096Y-23907038D01*
X73238096Y-23907038D02*
X73428572Y-24002276D01*
X73428572Y-24002276D02*
X73523810Y-24097514D01*
X73523810Y-24097514D02*
X73619048Y-24287990D01*
X73619048Y-24287990D02*
X73619048Y-24478466D01*
X73619048Y-24478466D02*
X73523810Y-24668942D01*
X73523810Y-24668942D02*
X73428572Y-24764180D01*
X73428572Y-24764180D02*
X73238096Y-24859419D01*
X73238096Y-24859419D02*
X72571429Y-24859419D01*
X74952381Y-23907038D02*
X75333334Y-23907038D01*
X75333334Y-23907038D02*
X75523810Y-24002276D01*
X75523810Y-24002276D02*
X75714286Y-24192752D01*
X75714286Y-24192752D02*
X75809524Y-24573704D01*
X75809524Y-24573704D02*
X75809524Y-25240371D01*
X75809524Y-25240371D02*
X75714286Y-25621323D01*
X75714286Y-25621323D02*
X75523810Y-25811800D01*
X75523810Y-25811800D02*
X75333334Y-25907038D01*
X75333334Y-25907038D02*
X74952381Y-25907038D01*
X74952381Y-25907038D02*
X74761905Y-25811800D01*
X74761905Y-25811800D02*
X74571429Y-25621323D01*
X74571429Y-25621323D02*
X74476191Y-25240371D01*
X74476191Y-25240371D02*
X74476191Y-24573704D01*
X74476191Y-24573704D02*
X74571429Y-24192752D01*
X74571429Y-24192752D02*
X74761905Y-24002276D01*
X74761905Y-24002276D02*
X74952381Y-23907038D01*
X76571429Y-25335609D02*
X77523810Y-25335609D01*
X76380953Y-25907038D02*
X77047619Y-23907038D01*
X77047619Y-23907038D02*
X77714286Y-25907038D01*
X79523810Y-25907038D02*
X78857143Y-24954657D01*
X78380953Y-25907038D02*
X78380953Y-23907038D01*
X78380953Y-23907038D02*
X79142858Y-23907038D01*
X79142858Y-23907038D02*
X79333334Y-24002276D01*
X79333334Y-24002276D02*
X79428572Y-24097514D01*
X79428572Y-24097514D02*
X79523810Y-24287990D01*
X79523810Y-24287990D02*
X79523810Y-24573704D01*
X79523810Y-24573704D02*
X79428572Y-24764180D01*
X79428572Y-24764180D02*
X79333334Y-24859419D01*
X79333334Y-24859419D02*
X79142858Y-24954657D01*
X79142858Y-24954657D02*
X78380953Y-24954657D01*
X80380953Y-25907038D02*
X80380953Y-23907038D01*
X80380953Y-23907038D02*
X80857143Y-23907038D01*
X80857143Y-23907038D02*
X81142858Y-24002276D01*
X81142858Y-24002276D02*
X81333334Y-24192752D01*
X81333334Y-24192752D02*
X81428572Y-24383228D01*
X81428572Y-24383228D02*
X81523810Y-24764180D01*
X81523810Y-24764180D02*
X81523810Y-25049895D01*
X81523810Y-25049895D02*
X81428572Y-25430847D01*
X81428572Y-25430847D02*
X81333334Y-25621323D01*
X81333334Y-25621323D02*
X81142858Y-25811800D01*
X81142858Y-25811800D02*
X80857143Y-25907038D01*
X80857143Y-25907038D02*
X80380953Y-25907038D01*
X83904763Y-25145133D02*
X85428573Y-25145133D01*
X89047620Y-25907038D02*
X88380953Y-24954657D01*
X87904763Y-25907038D02*
X87904763Y-23907038D01*
X87904763Y-23907038D02*
X88666668Y-23907038D01*
X88666668Y-23907038D02*
X88857144Y-24002276D01*
X88857144Y-24002276D02*
X88952382Y-24097514D01*
X88952382Y-24097514D02*
X89047620Y-24287990D01*
X89047620Y-24287990D02*
X89047620Y-24573704D01*
X89047620Y-24573704D02*
X88952382Y-24764180D01*
X88952382Y-24764180D02*
X88857144Y-24859419D01*
X88857144Y-24859419D02*
X88666668Y-24954657D01*
X88666668Y-24954657D02*
X87904763Y-24954657D01*
X89904763Y-24859419D02*
X90571430Y-24859419D01*
X90857144Y-25907038D02*
X89904763Y-25907038D01*
X89904763Y-25907038D02*
X89904763Y-23907038D01*
X89904763Y-23907038D02*
X90857144Y-23907038D01*
X91428573Y-23907038D02*
X92095239Y-25907038D01*
X92095239Y-25907038D02*
X92761906Y-23907038D01*
X94952383Y-25907038D02*
X94952383Y-23907038D01*
X94952383Y-24859419D02*
X96095240Y-24859419D01*
X96095240Y-25907038D02*
X96095240Y-23907038D01*
D13*
X121076667Y-104809271D02*
X121076667Y-105716414D01*
X121076667Y-105716414D02*
X121016190Y-105897842D01*
X121016190Y-105897842D02*
X120895238Y-106018795D01*
X120895238Y-106018795D02*
X120713809Y-106079271D01*
X120713809Y-106079271D02*
X120592857Y-106079271D01*
X121560476Y-104809271D02*
X122346667Y-104809271D01*
X122346667Y-104809271D02*
X121923333Y-105293080D01*
X121923333Y-105293080D02*
X122104762Y-105293080D01*
X122104762Y-105293080D02*
X122225714Y-105353556D01*
X122225714Y-105353556D02*
X122286190Y-105414033D01*
X122286190Y-105414033D02*
X122346667Y-105534985D01*
X122346667Y-105534985D02*
X122346667Y-105837366D01*
X122346667Y-105837366D02*
X122286190Y-105958318D01*
X122286190Y-105958318D02*
X122225714Y-106018795D01*
X122225714Y-106018795D02*
X122104762Y-106079271D01*
X122104762Y-106079271D02*
X121741905Y-106079271D01*
X121741905Y-106079271D02*
X121620952Y-106018795D01*
X121620952Y-106018795D02*
X121560476Y-105958318D01*
X42288333Y-42958318D02*
X42227857Y-43018795D01*
X42227857Y-43018795D02*
X42046428Y-43079271D01*
X42046428Y-43079271D02*
X41925476Y-43079271D01*
X41925476Y-43079271D02*
X41744047Y-43018795D01*
X41744047Y-43018795D02*
X41623095Y-42897842D01*
X41623095Y-42897842D02*
X41562618Y-42776890D01*
X41562618Y-42776890D02*
X41502142Y-42534985D01*
X41502142Y-42534985D02*
X41502142Y-42353556D01*
X41502142Y-42353556D02*
X41562618Y-42111652D01*
X41562618Y-42111652D02*
X41623095Y-41990699D01*
X41623095Y-41990699D02*
X41744047Y-41869747D01*
X41744047Y-41869747D02*
X41925476Y-41809271D01*
X41925476Y-41809271D02*
X42046428Y-41809271D01*
X42046428Y-41809271D02*
X42227857Y-41869747D01*
X42227857Y-41869747D02*
X42288333Y-41930223D01*
X43497857Y-43079271D02*
X42772142Y-43079271D01*
X43134999Y-43079271D02*
X43134999Y-41809271D01*
X43134999Y-41809271D02*
X43014047Y-41990699D01*
X43014047Y-41990699D02*
X42893095Y-42111652D01*
X42893095Y-42111652D02*
X42772142Y-42172128D01*
X143958318Y-108211666D02*
X144018795Y-108272142D01*
X144018795Y-108272142D02*
X144079271Y-108453571D01*
X144079271Y-108453571D02*
X144079271Y-108574523D01*
X144079271Y-108574523D02*
X144018795Y-108755952D01*
X144018795Y-108755952D02*
X143897842Y-108876904D01*
X143897842Y-108876904D02*
X143776890Y-108937381D01*
X143776890Y-108937381D02*
X143534985Y-108997857D01*
X143534985Y-108997857D02*
X143353556Y-108997857D01*
X143353556Y-108997857D02*
X143111652Y-108937381D01*
X143111652Y-108937381D02*
X142990699Y-108876904D01*
X142990699Y-108876904D02*
X142869747Y-108755952D01*
X142869747Y-108755952D02*
X142809271Y-108574523D01*
X142809271Y-108574523D02*
X142809271Y-108453571D01*
X142809271Y-108453571D02*
X142869747Y-108272142D01*
X142869747Y-108272142D02*
X142930223Y-108211666D01*
X142809271Y-107788333D02*
X142809271Y-106941666D01*
X142809271Y-106941666D02*
X144079271Y-107485952D01*
X150788333Y-108958318D02*
X150727857Y-109018795D01*
X150727857Y-109018795D02*
X150546428Y-109079271D01*
X150546428Y-109079271D02*
X150425476Y-109079271D01*
X150425476Y-109079271D02*
X150244047Y-109018795D01*
X150244047Y-109018795D02*
X150123095Y-108897842D01*
X150123095Y-108897842D02*
X150062618Y-108776890D01*
X150062618Y-108776890D02*
X150002142Y-108534985D01*
X150002142Y-108534985D02*
X150002142Y-108353556D01*
X150002142Y-108353556D02*
X150062618Y-108111652D01*
X150062618Y-108111652D02*
X150123095Y-107990699D01*
X150123095Y-107990699D02*
X150244047Y-107869747D01*
X150244047Y-107869747D02*
X150425476Y-107809271D01*
X150425476Y-107809271D02*
X150546428Y-107809271D01*
X150546428Y-107809271D02*
X150727857Y-107869747D01*
X150727857Y-107869747D02*
X150788333Y-107930223D01*
X151937380Y-107809271D02*
X151332618Y-107809271D01*
X151332618Y-107809271D02*
X151272142Y-108414033D01*
X151272142Y-108414033D02*
X151332618Y-108353556D01*
X151332618Y-108353556D02*
X151453571Y-108293080D01*
X151453571Y-108293080D02*
X151755952Y-108293080D01*
X151755952Y-108293080D02*
X151876904Y-108353556D01*
X151876904Y-108353556D02*
X151937380Y-108414033D01*
X151937380Y-108414033D02*
X151997857Y-108534985D01*
X151997857Y-108534985D02*
X151997857Y-108837366D01*
X151997857Y-108837366D02*
X151937380Y-108958318D01*
X151937380Y-108958318D02*
X151876904Y-109018795D01*
X151876904Y-109018795D02*
X151755952Y-109079271D01*
X151755952Y-109079271D02*
X151453571Y-109079271D01*
X151453571Y-109079271D02*
X151332618Y-109018795D01*
X151332618Y-109018795D02*
X151272142Y-108958318D01*
X125288333Y-101079271D02*
X124864999Y-100474509D01*
X124562618Y-101079271D02*
X124562618Y-99809271D01*
X124562618Y-99809271D02*
X125046428Y-99809271D01*
X125046428Y-99809271D02*
X125167380Y-99869747D01*
X125167380Y-99869747D02*
X125227857Y-99930223D01*
X125227857Y-99930223D02*
X125288333Y-100051175D01*
X125288333Y-100051175D02*
X125288333Y-100232604D01*
X125288333Y-100232604D02*
X125227857Y-100353556D01*
X125227857Y-100353556D02*
X125167380Y-100414033D01*
X125167380Y-100414033D02*
X125046428Y-100474509D01*
X125046428Y-100474509D02*
X124562618Y-100474509D01*
X125711666Y-99809271D02*
X126558333Y-99809271D01*
X126558333Y-99809271D02*
X126014047Y-101079271D01*
X151518333Y-75458318D02*
X151457857Y-75518795D01*
X151457857Y-75518795D02*
X151276428Y-75579271D01*
X151276428Y-75579271D02*
X151155476Y-75579271D01*
X151155476Y-75579271D02*
X150974047Y-75518795D01*
X150974047Y-75518795D02*
X150853095Y-75397842D01*
X150853095Y-75397842D02*
X150792618Y-75276890D01*
X150792618Y-75276890D02*
X150732142Y-75034985D01*
X150732142Y-75034985D02*
X150732142Y-74853556D01*
X150732142Y-74853556D02*
X150792618Y-74611652D01*
X150792618Y-74611652D02*
X150853095Y-74490699D01*
X150853095Y-74490699D02*
X150974047Y-74369747D01*
X150974047Y-74369747D02*
X151155476Y-74309271D01*
X151155476Y-74309271D02*
X151276428Y-74309271D01*
X151276428Y-74309271D02*
X151457857Y-74369747D01*
X151457857Y-74369747D02*
X151518333Y-74430223D01*
X151941666Y-74309271D02*
X152727857Y-74309271D01*
X152727857Y-74309271D02*
X152304523Y-74793080D01*
X152304523Y-74793080D02*
X152485952Y-74793080D01*
X152485952Y-74793080D02*
X152606904Y-74853556D01*
X152606904Y-74853556D02*
X152667380Y-74914033D01*
X152667380Y-74914033D02*
X152727857Y-75034985D01*
X152727857Y-75034985D02*
X152727857Y-75337366D01*
X152727857Y-75337366D02*
X152667380Y-75458318D01*
X152667380Y-75458318D02*
X152606904Y-75518795D01*
X152606904Y-75518795D02*
X152485952Y-75579271D01*
X152485952Y-75579271D02*
X152123095Y-75579271D01*
X152123095Y-75579271D02*
X152002142Y-75518795D01*
X152002142Y-75518795D02*
X151941666Y-75458318D01*
X110958318Y-88211666D02*
X111018795Y-88272142D01*
X111018795Y-88272142D02*
X111079271Y-88453571D01*
X111079271Y-88453571D02*
X111079271Y-88574523D01*
X111079271Y-88574523D02*
X111018795Y-88755952D01*
X111018795Y-88755952D02*
X110897842Y-88876904D01*
X110897842Y-88876904D02*
X110776890Y-88937381D01*
X110776890Y-88937381D02*
X110534985Y-88997857D01*
X110534985Y-88997857D02*
X110353556Y-88997857D01*
X110353556Y-88997857D02*
X110111652Y-88937381D01*
X110111652Y-88937381D02*
X109990699Y-88876904D01*
X109990699Y-88876904D02*
X109869747Y-88755952D01*
X109869747Y-88755952D02*
X109809271Y-88574523D01*
X109809271Y-88574523D02*
X109809271Y-88453571D01*
X109809271Y-88453571D02*
X109869747Y-88272142D01*
X109869747Y-88272142D02*
X109930223Y-88211666D01*
X110353556Y-87485952D02*
X110293080Y-87606904D01*
X110293080Y-87606904D02*
X110232604Y-87667381D01*
X110232604Y-87667381D02*
X110111652Y-87727857D01*
X110111652Y-87727857D02*
X110051175Y-87727857D01*
X110051175Y-87727857D02*
X109930223Y-87667381D01*
X109930223Y-87667381D02*
X109869747Y-87606904D01*
X109869747Y-87606904D02*
X109809271Y-87485952D01*
X109809271Y-87485952D02*
X109809271Y-87244047D01*
X109809271Y-87244047D02*
X109869747Y-87123095D01*
X109869747Y-87123095D02*
X109930223Y-87062619D01*
X109930223Y-87062619D02*
X110051175Y-87002142D01*
X110051175Y-87002142D02*
X110111652Y-87002142D01*
X110111652Y-87002142D02*
X110232604Y-87062619D01*
X110232604Y-87062619D02*
X110293080Y-87123095D01*
X110293080Y-87123095D02*
X110353556Y-87244047D01*
X110353556Y-87244047D02*
X110353556Y-87485952D01*
X110353556Y-87485952D02*
X110414033Y-87606904D01*
X110414033Y-87606904D02*
X110474509Y-87667381D01*
X110474509Y-87667381D02*
X110595461Y-87727857D01*
X110595461Y-87727857D02*
X110837366Y-87727857D01*
X110837366Y-87727857D02*
X110958318Y-87667381D01*
X110958318Y-87667381D02*
X111018795Y-87606904D01*
X111018795Y-87606904D02*
X111079271Y-87485952D01*
X111079271Y-87485952D02*
X111079271Y-87244047D01*
X111079271Y-87244047D02*
X111018795Y-87123095D01*
X111018795Y-87123095D02*
X110958318Y-87062619D01*
X110958318Y-87062619D02*
X110837366Y-87002142D01*
X110837366Y-87002142D02*
X110595461Y-87002142D01*
X110595461Y-87002142D02*
X110474509Y-87062619D01*
X110474509Y-87062619D02*
X110414033Y-87123095D01*
X110414033Y-87123095D02*
X110353556Y-87244047D01*
X87828333Y-101079271D02*
X87404999Y-100474509D01*
X87102618Y-101079271D02*
X87102618Y-99809271D01*
X87102618Y-99809271D02*
X87586428Y-99809271D01*
X87586428Y-99809271D02*
X87707380Y-99869747D01*
X87707380Y-99869747D02*
X87767857Y-99930223D01*
X87767857Y-99930223D02*
X87828333Y-100051175D01*
X87828333Y-100051175D02*
X87828333Y-100232604D01*
X87828333Y-100232604D02*
X87767857Y-100353556D01*
X87767857Y-100353556D02*
X87707380Y-100414033D01*
X87707380Y-100414033D02*
X87586428Y-100474509D01*
X87586428Y-100474509D02*
X87102618Y-100474509D01*
X88433095Y-101079271D02*
X88674999Y-101079271D01*
X88674999Y-101079271D02*
X88795952Y-101018795D01*
X88795952Y-101018795D02*
X88856428Y-100958318D01*
X88856428Y-100958318D02*
X88977380Y-100776890D01*
X88977380Y-100776890D02*
X89037857Y-100534985D01*
X89037857Y-100534985D02*
X89037857Y-100051175D01*
X89037857Y-100051175D02*
X88977380Y-99930223D01*
X88977380Y-99930223D02*
X88916904Y-99869747D01*
X88916904Y-99869747D02*
X88795952Y-99809271D01*
X88795952Y-99809271D02*
X88554047Y-99809271D01*
X88554047Y-99809271D02*
X88433095Y-99869747D01*
X88433095Y-99869747D02*
X88372618Y-99930223D01*
X88372618Y-99930223D02*
X88312142Y-100051175D01*
X88312142Y-100051175D02*
X88312142Y-100353556D01*
X88312142Y-100353556D02*
X88372618Y-100474509D01*
X88372618Y-100474509D02*
X88433095Y-100534985D01*
X88433095Y-100534985D02*
X88554047Y-100595461D01*
X88554047Y-100595461D02*
X88795952Y-100595461D01*
X88795952Y-100595461D02*
X88916904Y-100534985D01*
X88916904Y-100534985D02*
X88977380Y-100474509D01*
X88977380Y-100474509D02*
X89037857Y-100353556D01*
X159809271Y-74964523D02*
X160837366Y-74964523D01*
X160837366Y-74964523D02*
X160958318Y-74904046D01*
X160958318Y-74904046D02*
X161018795Y-74843570D01*
X161018795Y-74843570D02*
X161079271Y-74722618D01*
X161079271Y-74722618D02*
X161079271Y-74480713D01*
X161079271Y-74480713D02*
X161018795Y-74359761D01*
X161018795Y-74359761D02*
X160958318Y-74299284D01*
X160958318Y-74299284D02*
X160837366Y-74238808D01*
X160837366Y-74238808D02*
X159809271Y-74238808D01*
X159809271Y-73754999D02*
X159809271Y-72968808D01*
X159809271Y-72968808D02*
X160293080Y-73392142D01*
X160293080Y-73392142D02*
X160293080Y-73210713D01*
X160293080Y-73210713D02*
X160353556Y-73089761D01*
X160353556Y-73089761D02*
X160414033Y-73029285D01*
X160414033Y-73029285D02*
X160534985Y-72968808D01*
X160534985Y-72968808D02*
X160837366Y-72968808D01*
X160837366Y-72968808D02*
X160958318Y-73029285D01*
X160958318Y-73029285D02*
X161018795Y-73089761D01*
X161018795Y-73089761D02*
X161079271Y-73210713D01*
X161079271Y-73210713D02*
X161079271Y-73573570D01*
X161079271Y-73573570D02*
X161018795Y-73694523D01*
X161018795Y-73694523D02*
X160958318Y-73754999D01*
X160595461Y-71456904D02*
X160595461Y-70489285D01*
X161079271Y-68312142D02*
X161079271Y-68916904D01*
X161079271Y-68916904D02*
X159809271Y-68916904D01*
X160414033Y-67888809D02*
X160414033Y-67465475D01*
X161079271Y-67284047D02*
X161079271Y-67888809D01*
X161079271Y-67888809D02*
X159809271Y-67888809D01*
X159809271Y-67888809D02*
X159809271Y-67284047D01*
X160414033Y-66316427D02*
X160414033Y-66739761D01*
X161079271Y-66739761D02*
X159809271Y-66739761D01*
X159809271Y-66739761D02*
X159809271Y-66134999D01*
X159809271Y-65832618D02*
X159809271Y-65106904D01*
X161079271Y-65469761D02*
X159809271Y-65469761D01*
X161079271Y-63715952D02*
X159809271Y-63715952D01*
X159809271Y-63715952D02*
X159809271Y-63413571D01*
X159809271Y-63413571D02*
X159869747Y-63232142D01*
X159869747Y-63232142D02*
X159990699Y-63111190D01*
X159990699Y-63111190D02*
X160111652Y-63050713D01*
X160111652Y-63050713D02*
X160353556Y-62990237D01*
X160353556Y-62990237D02*
X160534985Y-62990237D01*
X160534985Y-62990237D02*
X160776890Y-63050713D01*
X160776890Y-63050713D02*
X160897842Y-63111190D01*
X160897842Y-63111190D02*
X161018795Y-63232142D01*
X161018795Y-63232142D02*
X161079271Y-63413571D01*
X161079271Y-63413571D02*
X161079271Y-63715952D01*
X160414033Y-62022618D02*
X160414033Y-62445952D01*
X161079271Y-62445952D02*
X159809271Y-62445952D01*
X159809271Y-62445952D02*
X159809271Y-61841190D01*
X161079271Y-61357381D02*
X159809271Y-61357381D01*
X159809271Y-61357381D02*
X159809271Y-60873571D01*
X159809271Y-60873571D02*
X159869747Y-60752619D01*
X159869747Y-60752619D02*
X159930223Y-60692142D01*
X159930223Y-60692142D02*
X160051175Y-60631666D01*
X160051175Y-60631666D02*
X160232604Y-60631666D01*
X160232604Y-60631666D02*
X160353556Y-60692142D01*
X160353556Y-60692142D02*
X160414033Y-60752619D01*
X160414033Y-60752619D02*
X160474509Y-60873571D01*
X160474509Y-60873571D02*
X160474509Y-61357381D01*
X161079271Y-59905952D02*
X161018795Y-60026904D01*
X161018795Y-60026904D02*
X160897842Y-60087381D01*
X160897842Y-60087381D02*
X159809271Y-60087381D01*
X161079271Y-58877857D02*
X160414033Y-58877857D01*
X160414033Y-58877857D02*
X160293080Y-58938333D01*
X160293080Y-58938333D02*
X160232604Y-59059285D01*
X160232604Y-59059285D02*
X160232604Y-59301190D01*
X160232604Y-59301190D02*
X160293080Y-59422143D01*
X161018795Y-58877857D02*
X161079271Y-58998809D01*
X161079271Y-58998809D02*
X161079271Y-59301190D01*
X161079271Y-59301190D02*
X161018795Y-59422143D01*
X161018795Y-59422143D02*
X160897842Y-59482619D01*
X160897842Y-59482619D02*
X160776890Y-59482619D01*
X160776890Y-59482619D02*
X160655937Y-59422143D01*
X160655937Y-59422143D02*
X160595461Y-59301190D01*
X160595461Y-59301190D02*
X160595461Y-58998809D01*
X160595461Y-58998809D02*
X160534985Y-58877857D01*
X160232604Y-58394047D02*
X161079271Y-58091666D01*
X160232604Y-57789285D02*
X161079271Y-58091666D01*
X161079271Y-58091666D02*
X161381652Y-58212618D01*
X161381652Y-58212618D02*
X161442128Y-58273095D01*
X161442128Y-58273095D02*
X161502604Y-58394047D01*
X161018795Y-56821666D02*
X161079271Y-56942618D01*
X161079271Y-56942618D02*
X161079271Y-57184523D01*
X161079271Y-57184523D02*
X161018795Y-57305476D01*
X161018795Y-57305476D02*
X160897842Y-57365952D01*
X160897842Y-57365952D02*
X160414033Y-57365952D01*
X160414033Y-57365952D02*
X160293080Y-57305476D01*
X160293080Y-57305476D02*
X160232604Y-57184523D01*
X160232604Y-57184523D02*
X160232604Y-56942618D01*
X160232604Y-56942618D02*
X160293080Y-56821666D01*
X160293080Y-56821666D02*
X160414033Y-56761190D01*
X160414033Y-56761190D02*
X160534985Y-56761190D01*
X160534985Y-56761190D02*
X160655937Y-57365952D01*
X161079271Y-56216905D02*
X160232604Y-56216905D01*
X160474509Y-56216905D02*
X160353556Y-56156428D01*
X160353556Y-56156428D02*
X160293080Y-56095952D01*
X160293080Y-56095952D02*
X160232604Y-55975000D01*
X160232604Y-55975000D02*
X160232604Y-55854047D01*
D14*
X181173855Y-70215238D02*
X180640521Y-70215238D01*
X180716712Y-70215238D02*
X180678617Y-70177143D01*
X180678617Y-70177143D02*
X180640521Y-70100953D01*
X180640521Y-70100953D02*
X180640521Y-69986667D01*
X180640521Y-69986667D02*
X180678617Y-69910476D01*
X180678617Y-69910476D02*
X180754807Y-69872381D01*
X180754807Y-69872381D02*
X181173855Y-69872381D01*
X180754807Y-69872381D02*
X180678617Y-69834286D01*
X180678617Y-69834286D02*
X180640521Y-69758095D01*
X180640521Y-69758095D02*
X180640521Y-69643810D01*
X180640521Y-69643810D02*
X180678617Y-69567619D01*
X180678617Y-69567619D02*
X180754807Y-69529524D01*
X180754807Y-69529524D02*
X181173855Y-69529524D01*
X181173855Y-69148571D02*
X180640521Y-69148571D01*
X180373855Y-69148571D02*
X180411950Y-69186667D01*
X180411950Y-69186667D02*
X180450045Y-69148571D01*
X180450045Y-69148571D02*
X180411950Y-69110476D01*
X180411950Y-69110476D02*
X180373855Y-69148571D01*
X180373855Y-69148571D02*
X180450045Y-69148571D01*
X181135760Y-68424762D02*
X181173855Y-68500953D01*
X181173855Y-68500953D02*
X181173855Y-68653334D01*
X181173855Y-68653334D02*
X181135760Y-68729524D01*
X181135760Y-68729524D02*
X181097664Y-68767619D01*
X181097664Y-68767619D02*
X181021474Y-68805715D01*
X181021474Y-68805715D02*
X180792902Y-68805715D01*
X180792902Y-68805715D02*
X180716712Y-68767619D01*
X180716712Y-68767619D02*
X180678617Y-68729524D01*
X180678617Y-68729524D02*
X180640521Y-68653334D01*
X180640521Y-68653334D02*
X180640521Y-68500953D01*
X180640521Y-68500953D02*
X180678617Y-68424762D01*
X181173855Y-68081905D02*
X180640521Y-68081905D01*
X180792902Y-68081905D02*
X180716712Y-68043810D01*
X180716712Y-68043810D02*
X180678617Y-68005715D01*
X180678617Y-68005715D02*
X180640521Y-67929524D01*
X180640521Y-67929524D02*
X180640521Y-67853334D01*
X181173855Y-67472382D02*
X181135760Y-67548572D01*
X181135760Y-67548572D02*
X181097664Y-67586667D01*
X181097664Y-67586667D02*
X181021474Y-67624763D01*
X181021474Y-67624763D02*
X180792902Y-67624763D01*
X180792902Y-67624763D02*
X180716712Y-67586667D01*
X180716712Y-67586667D02*
X180678617Y-67548572D01*
X180678617Y-67548572D02*
X180640521Y-67472382D01*
X180640521Y-67472382D02*
X180640521Y-67358096D01*
X180640521Y-67358096D02*
X180678617Y-67281905D01*
X180678617Y-67281905D02*
X180716712Y-67243810D01*
X180716712Y-67243810D02*
X180792902Y-67205715D01*
X180792902Y-67205715D02*
X181021474Y-67205715D01*
X181021474Y-67205715D02*
X181097664Y-67243810D01*
X181097664Y-67243810D02*
X181135760Y-67281905D01*
X181135760Y-67281905D02*
X181173855Y-67358096D01*
X181173855Y-67358096D02*
X181173855Y-67472382D01*
X181135760Y-66900953D02*
X181173855Y-66786667D01*
X181173855Y-66786667D02*
X181173855Y-66596191D01*
X181173855Y-66596191D02*
X181135760Y-66520000D01*
X181135760Y-66520000D02*
X181097664Y-66481905D01*
X181097664Y-66481905D02*
X181021474Y-66443810D01*
X181021474Y-66443810D02*
X180945283Y-66443810D01*
X180945283Y-66443810D02*
X180869093Y-66481905D01*
X180869093Y-66481905D02*
X180830998Y-66520000D01*
X180830998Y-66520000D02*
X180792902Y-66596191D01*
X180792902Y-66596191D02*
X180754807Y-66748572D01*
X180754807Y-66748572D02*
X180716712Y-66824762D01*
X180716712Y-66824762D02*
X180678617Y-66862857D01*
X180678617Y-66862857D02*
X180602426Y-66900953D01*
X180602426Y-66900953D02*
X180526236Y-66900953D01*
X180526236Y-66900953D02*
X180450045Y-66862857D01*
X180450045Y-66862857D02*
X180411950Y-66824762D01*
X180411950Y-66824762D02*
X180373855Y-66748572D01*
X180373855Y-66748572D02*
X180373855Y-66558095D01*
X180373855Y-66558095D02*
X180411950Y-66443810D01*
X181173855Y-66100952D02*
X180373855Y-66100952D01*
X180373855Y-66100952D02*
X180373855Y-65910476D01*
X180373855Y-65910476D02*
X180411950Y-65796190D01*
X180411950Y-65796190D02*
X180488140Y-65720000D01*
X180488140Y-65720000D02*
X180564331Y-65681905D01*
X180564331Y-65681905D02*
X180716712Y-65643809D01*
X180716712Y-65643809D02*
X180830998Y-65643809D01*
X180830998Y-65643809D02*
X180983379Y-65681905D01*
X180983379Y-65681905D02*
X181059569Y-65720000D01*
X181059569Y-65720000D02*
X181135760Y-65796190D01*
X181135760Y-65796190D02*
X181173855Y-65910476D01*
X181173855Y-65910476D02*
X181173855Y-66100952D01*
X180754807Y-64691428D02*
X180754807Y-64424762D01*
X181173855Y-64310476D02*
X181173855Y-64691428D01*
X181173855Y-64691428D02*
X180373855Y-64691428D01*
X180373855Y-64691428D02*
X180373855Y-64310476D01*
X181173855Y-63967618D02*
X180373855Y-63967618D01*
X180373855Y-63967618D02*
X180373855Y-63777142D01*
X180373855Y-63777142D02*
X180411950Y-63662856D01*
X180411950Y-63662856D02*
X180488140Y-63586666D01*
X180488140Y-63586666D02*
X180564331Y-63548571D01*
X180564331Y-63548571D02*
X180716712Y-63510475D01*
X180716712Y-63510475D02*
X180830998Y-63510475D01*
X180830998Y-63510475D02*
X180983379Y-63548571D01*
X180983379Y-63548571D02*
X181059569Y-63586666D01*
X181059569Y-63586666D02*
X181135760Y-63662856D01*
X181135760Y-63662856D02*
X181173855Y-63777142D01*
X181173855Y-63777142D02*
X181173855Y-63967618D01*
X180411950Y-62748571D02*
X180373855Y-62824761D01*
X180373855Y-62824761D02*
X180373855Y-62939047D01*
X180373855Y-62939047D02*
X180411950Y-63053333D01*
X180411950Y-63053333D02*
X180488140Y-63129523D01*
X180488140Y-63129523D02*
X180564331Y-63167618D01*
X180564331Y-63167618D02*
X180716712Y-63205714D01*
X180716712Y-63205714D02*
X180830998Y-63205714D01*
X180830998Y-63205714D02*
X180983379Y-63167618D01*
X180983379Y-63167618D02*
X181059569Y-63129523D01*
X181059569Y-63129523D02*
X181135760Y-63053333D01*
X181135760Y-63053333D02*
X181173855Y-62939047D01*
X181173855Y-62939047D02*
X181173855Y-62862856D01*
X181173855Y-62862856D02*
X181135760Y-62748571D01*
X181135760Y-62748571D02*
X181097664Y-62710475D01*
X181097664Y-62710475D02*
X180830998Y-62710475D01*
X180830998Y-62710475D02*
X180830998Y-62862856D01*
X180754807Y-62367618D02*
X180754807Y-62100952D01*
X181173855Y-61986666D02*
X181173855Y-62367618D01*
X181173855Y-62367618D02*
X180373855Y-62367618D01*
X180373855Y-62367618D02*
X180373855Y-61986666D01*
D13*
X83036667Y-104809271D02*
X83036667Y-105716414D01*
X83036667Y-105716414D02*
X82976190Y-105897842D01*
X82976190Y-105897842D02*
X82855238Y-106018795D01*
X82855238Y-106018795D02*
X82673809Y-106079271D01*
X82673809Y-106079271D02*
X82552857Y-106079271D01*
X84246190Y-104809271D02*
X83641428Y-104809271D01*
X83641428Y-104809271D02*
X83580952Y-105414033D01*
X83580952Y-105414033D02*
X83641428Y-105353556D01*
X83641428Y-105353556D02*
X83762381Y-105293080D01*
X83762381Y-105293080D02*
X84064762Y-105293080D01*
X84064762Y-105293080D02*
X84185714Y-105353556D01*
X84185714Y-105353556D02*
X84246190Y-105414033D01*
X84246190Y-105414033D02*
X84306667Y-105534985D01*
X84306667Y-105534985D02*
X84306667Y-105837366D01*
X84306667Y-105837366D02*
X84246190Y-105958318D01*
X84246190Y-105958318D02*
X84185714Y-106018795D01*
X84185714Y-106018795D02*
X84064762Y-106079271D01*
X84064762Y-106079271D02*
X83762381Y-106079271D01*
X83762381Y-106079271D02*
X83641428Y-106018795D01*
X83641428Y-106018795D02*
X83580952Y-105958318D01*
X74478333Y-37239271D02*
X74054999Y-36634509D01*
X73752618Y-37239271D02*
X73752618Y-35969271D01*
X73752618Y-35969271D02*
X74236428Y-35969271D01*
X74236428Y-35969271D02*
X74357380Y-36029747D01*
X74357380Y-36029747D02*
X74417857Y-36090223D01*
X74417857Y-36090223D02*
X74478333Y-36211175D01*
X74478333Y-36211175D02*
X74478333Y-36392604D01*
X74478333Y-36392604D02*
X74417857Y-36513556D01*
X74417857Y-36513556D02*
X74357380Y-36574033D01*
X74357380Y-36574033D02*
X74236428Y-36634509D01*
X74236428Y-36634509D02*
X73752618Y-36634509D01*
X75687857Y-37239271D02*
X74962142Y-37239271D01*
X75324999Y-37239271D02*
X75324999Y-35969271D01*
X75324999Y-35969271D02*
X75204047Y-36150699D01*
X75204047Y-36150699D02*
X75083095Y-36271652D01*
X75083095Y-36271652D02*
X74962142Y-36332128D01*
D15*
X102690476Y-74954819D02*
X102690476Y-73954819D01*
X102690476Y-73954819D02*
X103023809Y-74669104D01*
X103023809Y-74669104D02*
X103357142Y-73954819D01*
X103357142Y-73954819D02*
X103357142Y-74954819D01*
X103738095Y-73954819D02*
X104357142Y-73954819D01*
X104357142Y-73954819D02*
X104023809Y-74335771D01*
X104023809Y-74335771D02*
X104166666Y-74335771D01*
X104166666Y-74335771D02*
X104261904Y-74383390D01*
X104261904Y-74383390D02*
X104309523Y-74431009D01*
X104309523Y-74431009D02*
X104357142Y-74526247D01*
X104357142Y-74526247D02*
X104357142Y-74764342D01*
X104357142Y-74764342D02*
X104309523Y-74859580D01*
X104309523Y-74859580D02*
X104261904Y-74907200D01*
X104261904Y-74907200D02*
X104166666Y-74954819D01*
X104166666Y-74954819D02*
X103880952Y-74954819D01*
X103880952Y-74954819D02*
X103785714Y-74907200D01*
X103785714Y-74907200D02*
X103738095Y-74859580D01*
D13*
X94683571Y-96579271D02*
X94260237Y-95974509D01*
X93957856Y-96579271D02*
X93957856Y-95309271D01*
X93957856Y-95309271D02*
X94441666Y-95309271D01*
X94441666Y-95309271D02*
X94562618Y-95369747D01*
X94562618Y-95369747D02*
X94623095Y-95430223D01*
X94623095Y-95430223D02*
X94683571Y-95551175D01*
X94683571Y-95551175D02*
X94683571Y-95732604D01*
X94683571Y-95732604D02*
X94623095Y-95853556D01*
X94623095Y-95853556D02*
X94562618Y-95914033D01*
X94562618Y-95914033D02*
X94441666Y-95974509D01*
X94441666Y-95974509D02*
X93957856Y-95974509D01*
X95893095Y-96579271D02*
X95167380Y-96579271D01*
X95530237Y-96579271D02*
X95530237Y-95309271D01*
X95530237Y-95309271D02*
X95409285Y-95490699D01*
X95409285Y-95490699D02*
X95288333Y-95611652D01*
X95288333Y-95611652D02*
X95167380Y-95672128D01*
X96376904Y-95430223D02*
X96437380Y-95369747D01*
X96437380Y-95369747D02*
X96558333Y-95309271D01*
X96558333Y-95309271D02*
X96860714Y-95309271D01*
X96860714Y-95309271D02*
X96981666Y-95369747D01*
X96981666Y-95369747D02*
X97042142Y-95430223D01*
X97042142Y-95430223D02*
X97102619Y-95551175D01*
X97102619Y-95551175D02*
X97102619Y-95672128D01*
X97102619Y-95672128D02*
X97042142Y-95853556D01*
X97042142Y-95853556D02*
X96316428Y-96579271D01*
X96316428Y-96579271D02*
X97102619Y-96579271D01*
X150788333Y-104458318D02*
X150727857Y-104518795D01*
X150727857Y-104518795D02*
X150546428Y-104579271D01*
X150546428Y-104579271D02*
X150425476Y-104579271D01*
X150425476Y-104579271D02*
X150244047Y-104518795D01*
X150244047Y-104518795D02*
X150123095Y-104397842D01*
X150123095Y-104397842D02*
X150062618Y-104276890D01*
X150062618Y-104276890D02*
X150002142Y-104034985D01*
X150002142Y-104034985D02*
X150002142Y-103853556D01*
X150002142Y-103853556D02*
X150062618Y-103611652D01*
X150062618Y-103611652D02*
X150123095Y-103490699D01*
X150123095Y-103490699D02*
X150244047Y-103369747D01*
X150244047Y-103369747D02*
X150425476Y-103309271D01*
X150425476Y-103309271D02*
X150546428Y-103309271D01*
X150546428Y-103309271D02*
X150727857Y-103369747D01*
X150727857Y-103369747D02*
X150788333Y-103430223D01*
X151876904Y-103732604D02*
X151876904Y-104579271D01*
X151574523Y-103248795D02*
X151272142Y-104155937D01*
X151272142Y-104155937D02*
X152058333Y-104155937D01*
D15*
X175690476Y-29454819D02*
X175690476Y-28454819D01*
X175690476Y-28454819D02*
X176023809Y-29169104D01*
X176023809Y-29169104D02*
X176357142Y-28454819D01*
X176357142Y-28454819D02*
X176357142Y-29454819D01*
X176738095Y-28454819D02*
X177357142Y-28454819D01*
X177357142Y-28454819D02*
X177023809Y-28835771D01*
X177023809Y-28835771D02*
X177166666Y-28835771D01*
X177166666Y-28835771D02*
X177261904Y-28883390D01*
X177261904Y-28883390D02*
X177309523Y-28931009D01*
X177309523Y-28931009D02*
X177357142Y-29026247D01*
X177357142Y-29026247D02*
X177357142Y-29264342D01*
X177357142Y-29264342D02*
X177309523Y-29359580D01*
X177309523Y-29359580D02*
X177261904Y-29407200D01*
X177261904Y-29407200D02*
X177166666Y-29454819D01*
X177166666Y-29454819D02*
X176880952Y-29454819D01*
X176880952Y-29454819D02*
X176785714Y-29407200D01*
X176785714Y-29407200D02*
X176738095Y-29359580D01*
D13*
X99386667Y-49809271D02*
X99386667Y-50716414D01*
X99386667Y-50716414D02*
X99326190Y-50897842D01*
X99326190Y-50897842D02*
X99205238Y-51018795D01*
X99205238Y-51018795D02*
X99023809Y-51079271D01*
X99023809Y-51079271D02*
X98902857Y-51079271D01*
X99930952Y-49930223D02*
X99991428Y-49869747D01*
X99991428Y-49869747D02*
X100112381Y-49809271D01*
X100112381Y-49809271D02*
X100414762Y-49809271D01*
X100414762Y-49809271D02*
X100535714Y-49869747D01*
X100535714Y-49869747D02*
X100596190Y-49930223D01*
X100596190Y-49930223D02*
X100656667Y-50051175D01*
X100656667Y-50051175D02*
X100656667Y-50172128D01*
X100656667Y-50172128D02*
X100596190Y-50353556D01*
X100596190Y-50353556D02*
X99870476Y-51079271D01*
X99870476Y-51079271D02*
X100656667Y-51079271D01*
X161668333Y-117839271D02*
X161244999Y-117234509D01*
X160942618Y-117839271D02*
X160942618Y-116569271D01*
X160942618Y-116569271D02*
X161426428Y-116569271D01*
X161426428Y-116569271D02*
X161547380Y-116629747D01*
X161547380Y-116629747D02*
X161607857Y-116690223D01*
X161607857Y-116690223D02*
X161668333Y-116811175D01*
X161668333Y-116811175D02*
X161668333Y-116992604D01*
X161668333Y-116992604D02*
X161607857Y-117113556D01*
X161607857Y-117113556D02*
X161547380Y-117174033D01*
X161547380Y-117174033D02*
X161426428Y-117234509D01*
X161426428Y-117234509D02*
X160942618Y-117234509D01*
X162817380Y-116569271D02*
X162212618Y-116569271D01*
X162212618Y-116569271D02*
X162152142Y-117174033D01*
X162152142Y-117174033D02*
X162212618Y-117113556D01*
X162212618Y-117113556D02*
X162333571Y-117053080D01*
X162333571Y-117053080D02*
X162635952Y-117053080D01*
X162635952Y-117053080D02*
X162756904Y-117113556D01*
X162756904Y-117113556D02*
X162817380Y-117174033D01*
X162817380Y-117174033D02*
X162877857Y-117294985D01*
X162877857Y-117294985D02*
X162877857Y-117597366D01*
X162877857Y-117597366D02*
X162817380Y-117718318D01*
X162817380Y-117718318D02*
X162756904Y-117778795D01*
X162756904Y-117778795D02*
X162635952Y-117839271D01*
X162635952Y-117839271D02*
X162333571Y-117839271D01*
X162333571Y-117839271D02*
X162212618Y-117778795D01*
X162212618Y-117778795D02*
X162152142Y-117718318D01*
X48809271Y-82778094D02*
X49716414Y-82778094D01*
X49716414Y-82778094D02*
X49897842Y-82838571D01*
X49897842Y-82838571D02*
X50018795Y-82959523D01*
X50018795Y-82959523D02*
X50079271Y-83140952D01*
X50079271Y-83140952D02*
X50079271Y-83261904D01*
X50079271Y-81508094D02*
X50079271Y-82233809D01*
X50079271Y-81870952D02*
X48809271Y-81870952D01*
X48809271Y-81870952D02*
X48990699Y-81991904D01*
X48990699Y-81991904D02*
X49111652Y-82112856D01*
X49111652Y-82112856D02*
X49172128Y-82233809D01*
X48809271Y-80721904D02*
X48809271Y-80600951D01*
X48809271Y-80600951D02*
X48869747Y-80479999D01*
X48869747Y-80479999D02*
X48930223Y-80419523D01*
X48930223Y-80419523D02*
X49051175Y-80359047D01*
X49051175Y-80359047D02*
X49293080Y-80298570D01*
X49293080Y-80298570D02*
X49595461Y-80298570D01*
X49595461Y-80298570D02*
X49837366Y-80359047D01*
X49837366Y-80359047D02*
X49958318Y-80419523D01*
X49958318Y-80419523D02*
X50018795Y-80479999D01*
X50018795Y-80479999D02*
X50079271Y-80600951D01*
X50079271Y-80600951D02*
X50079271Y-80721904D01*
X50079271Y-80721904D02*
X50018795Y-80842856D01*
X50018795Y-80842856D02*
X49958318Y-80903332D01*
X49958318Y-80903332D02*
X49837366Y-80963809D01*
X49837366Y-80963809D02*
X49595461Y-81024285D01*
X49595461Y-81024285D02*
X49293080Y-81024285D01*
X49293080Y-81024285D02*
X49051175Y-80963809D01*
X49051175Y-80963809D02*
X48930223Y-80903332D01*
X48930223Y-80903332D02*
X48869747Y-80842856D01*
X48869747Y-80842856D02*
X48809271Y-80721904D01*
X112683571Y-97579271D02*
X112260237Y-96974509D01*
X111957856Y-97579271D02*
X111957856Y-96309271D01*
X111957856Y-96309271D02*
X112441666Y-96309271D01*
X112441666Y-96309271D02*
X112562618Y-96369747D01*
X112562618Y-96369747D02*
X112623095Y-96430223D01*
X112623095Y-96430223D02*
X112683571Y-96551175D01*
X112683571Y-96551175D02*
X112683571Y-96732604D01*
X112683571Y-96732604D02*
X112623095Y-96853556D01*
X112623095Y-96853556D02*
X112562618Y-96914033D01*
X112562618Y-96914033D02*
X112441666Y-96974509D01*
X112441666Y-96974509D02*
X111957856Y-96974509D01*
X113893095Y-97579271D02*
X113167380Y-97579271D01*
X113530237Y-97579271D02*
X113530237Y-96309271D01*
X113530237Y-96309271D02*
X113409285Y-96490699D01*
X113409285Y-96490699D02*
X113288333Y-96611652D01*
X113288333Y-96611652D02*
X113167380Y-96672128D01*
X115102619Y-97579271D02*
X114376904Y-97579271D01*
X114739761Y-97579271D02*
X114739761Y-96309271D01*
X114739761Y-96309271D02*
X114618809Y-96490699D01*
X114618809Y-96490699D02*
X114497857Y-96611652D01*
X114497857Y-96611652D02*
X114376904Y-96672128D01*
X132183571Y-96579271D02*
X131760237Y-95974509D01*
X131457856Y-96579271D02*
X131457856Y-95309271D01*
X131457856Y-95309271D02*
X131941666Y-95309271D01*
X131941666Y-95309271D02*
X132062618Y-95369747D01*
X132062618Y-95369747D02*
X132123095Y-95430223D01*
X132123095Y-95430223D02*
X132183571Y-95551175D01*
X132183571Y-95551175D02*
X132183571Y-95732604D01*
X132183571Y-95732604D02*
X132123095Y-95853556D01*
X132123095Y-95853556D02*
X132062618Y-95914033D01*
X132062618Y-95914033D02*
X131941666Y-95974509D01*
X131941666Y-95974509D02*
X131457856Y-95974509D01*
X133393095Y-96579271D02*
X132667380Y-96579271D01*
X133030237Y-96579271D02*
X133030237Y-95309271D01*
X133030237Y-95309271D02*
X132909285Y-95490699D01*
X132909285Y-95490699D02*
X132788333Y-95611652D01*
X132788333Y-95611652D02*
X132667380Y-95672128D01*
X134179285Y-95309271D02*
X134300238Y-95309271D01*
X134300238Y-95309271D02*
X134421190Y-95369747D01*
X134421190Y-95369747D02*
X134481666Y-95430223D01*
X134481666Y-95430223D02*
X134542142Y-95551175D01*
X134542142Y-95551175D02*
X134602619Y-95793080D01*
X134602619Y-95793080D02*
X134602619Y-96095461D01*
X134602619Y-96095461D02*
X134542142Y-96337366D01*
X134542142Y-96337366D02*
X134481666Y-96458318D01*
X134481666Y-96458318D02*
X134421190Y-96518795D01*
X134421190Y-96518795D02*
X134300238Y-96579271D01*
X134300238Y-96579271D02*
X134179285Y-96579271D01*
X134179285Y-96579271D02*
X134058333Y-96518795D01*
X134058333Y-96518795D02*
X133997857Y-96458318D01*
X133997857Y-96458318D02*
X133937380Y-96337366D01*
X133937380Y-96337366D02*
X133876904Y-96095461D01*
X133876904Y-96095461D02*
X133876904Y-95793080D01*
X133876904Y-95793080D02*
X133937380Y-95551175D01*
X133937380Y-95551175D02*
X133997857Y-95430223D01*
X133997857Y-95430223D02*
X134058333Y-95369747D01*
X134058333Y-95369747D02*
X134179285Y-95309271D01*
D15*
X27190476Y-117954819D02*
X27190476Y-116954819D01*
X27190476Y-116954819D02*
X27523809Y-117669104D01*
X27523809Y-117669104D02*
X27857142Y-116954819D01*
X27857142Y-116954819D02*
X27857142Y-117954819D01*
X28238095Y-116954819D02*
X28857142Y-116954819D01*
X28857142Y-116954819D02*
X28523809Y-117335771D01*
X28523809Y-117335771D02*
X28666666Y-117335771D01*
X28666666Y-117335771D02*
X28761904Y-117383390D01*
X28761904Y-117383390D02*
X28809523Y-117431009D01*
X28809523Y-117431009D02*
X28857142Y-117526247D01*
X28857142Y-117526247D02*
X28857142Y-117764342D01*
X28857142Y-117764342D02*
X28809523Y-117859580D01*
X28809523Y-117859580D02*
X28761904Y-117907200D01*
X28761904Y-117907200D02*
X28666666Y-117954819D01*
X28666666Y-117954819D02*
X28380952Y-117954819D01*
X28380952Y-117954819D02*
X28285714Y-117907200D01*
X28285714Y-117907200D02*
X28238095Y-117859580D01*
D13*
X159809271Y-109982856D02*
X160837366Y-109982856D01*
X160837366Y-109982856D02*
X160958318Y-109922379D01*
X160958318Y-109922379D02*
X161018795Y-109861903D01*
X161018795Y-109861903D02*
X161079271Y-109740951D01*
X161079271Y-109740951D02*
X161079271Y-109499046D01*
X161079271Y-109499046D02*
X161018795Y-109378094D01*
X161018795Y-109378094D02*
X160958318Y-109317617D01*
X160958318Y-109317617D02*
X160837366Y-109257141D01*
X160837366Y-109257141D02*
X159809271Y-109257141D01*
X159930223Y-108712856D02*
X159869747Y-108652380D01*
X159869747Y-108652380D02*
X159809271Y-108531427D01*
X159809271Y-108531427D02*
X159809271Y-108229046D01*
X159809271Y-108229046D02*
X159869747Y-108108094D01*
X159869747Y-108108094D02*
X159930223Y-108047618D01*
X159930223Y-108047618D02*
X160051175Y-107987141D01*
X160051175Y-107987141D02*
X160172128Y-107987141D01*
X160172128Y-107987141D02*
X160353556Y-108047618D01*
X160353556Y-108047618D02*
X161079271Y-108773332D01*
X161079271Y-108773332D02*
X161079271Y-107987141D01*
X160595461Y-106475237D02*
X160595461Y-105507618D01*
X161079271Y-103209522D02*
X160474509Y-103632856D01*
X161079271Y-103935237D02*
X159809271Y-103935237D01*
X159809271Y-103935237D02*
X159809271Y-103451427D01*
X159809271Y-103451427D02*
X159869747Y-103330475D01*
X159869747Y-103330475D02*
X159930223Y-103269998D01*
X159930223Y-103269998D02*
X160051175Y-103209522D01*
X160051175Y-103209522D02*
X160232604Y-103209522D01*
X160232604Y-103209522D02*
X160353556Y-103269998D01*
X160353556Y-103269998D02*
X160414033Y-103330475D01*
X160414033Y-103330475D02*
X160474509Y-103451427D01*
X160474509Y-103451427D02*
X160474509Y-103935237D01*
X161079271Y-101697618D02*
X159809271Y-101697618D01*
X159809271Y-101697618D02*
X159809271Y-101395237D01*
X159809271Y-101395237D02*
X159869747Y-101213808D01*
X159869747Y-101213808D02*
X159990699Y-101092856D01*
X159990699Y-101092856D02*
X160111652Y-101032379D01*
X160111652Y-101032379D02*
X160353556Y-100971903D01*
X160353556Y-100971903D02*
X160534985Y-100971903D01*
X160534985Y-100971903D02*
X160776890Y-101032379D01*
X160776890Y-101032379D02*
X160897842Y-101092856D01*
X160897842Y-101092856D02*
X161018795Y-101213808D01*
X161018795Y-101213808D02*
X161079271Y-101395237D01*
X161079271Y-101395237D02*
X161079271Y-101697618D01*
X160414033Y-100004284D02*
X160414033Y-100427618D01*
X161079271Y-100427618D02*
X159809271Y-100427618D01*
X159809271Y-100427618D02*
X159809271Y-99822856D01*
X161079271Y-99339047D02*
X159809271Y-99339047D01*
X159809271Y-99339047D02*
X159809271Y-98855237D01*
X159809271Y-98855237D02*
X159869747Y-98734285D01*
X159869747Y-98734285D02*
X159930223Y-98673808D01*
X159930223Y-98673808D02*
X160051175Y-98613332D01*
X160051175Y-98613332D02*
X160232604Y-98613332D01*
X160232604Y-98613332D02*
X160353556Y-98673808D01*
X160353556Y-98673808D02*
X160414033Y-98734285D01*
X160414033Y-98734285D02*
X160474509Y-98855237D01*
X160474509Y-98855237D02*
X160474509Y-99339047D01*
X161079271Y-97887618D02*
X161018795Y-98008570D01*
X161018795Y-98008570D02*
X160897842Y-98069047D01*
X160897842Y-98069047D02*
X159809271Y-98069047D01*
X161079271Y-96859523D02*
X160414033Y-96859523D01*
X160414033Y-96859523D02*
X160293080Y-96919999D01*
X160293080Y-96919999D02*
X160232604Y-97040951D01*
X160232604Y-97040951D02*
X160232604Y-97282856D01*
X160232604Y-97282856D02*
X160293080Y-97403809D01*
X161018795Y-96859523D02*
X161079271Y-96980475D01*
X161079271Y-96980475D02*
X161079271Y-97282856D01*
X161079271Y-97282856D02*
X161018795Y-97403809D01*
X161018795Y-97403809D02*
X160897842Y-97464285D01*
X160897842Y-97464285D02*
X160776890Y-97464285D01*
X160776890Y-97464285D02*
X160655937Y-97403809D01*
X160655937Y-97403809D02*
X160595461Y-97282856D01*
X160595461Y-97282856D02*
X160595461Y-96980475D01*
X160595461Y-96980475D02*
X160534985Y-96859523D01*
X160232604Y-96375713D02*
X161079271Y-96073332D01*
X160232604Y-95770951D02*
X161079271Y-96073332D01*
X161079271Y-96073332D02*
X161381652Y-96194284D01*
X161381652Y-96194284D02*
X161442128Y-96254761D01*
X161442128Y-96254761D02*
X161502604Y-96375713D01*
X161018795Y-94803332D02*
X161079271Y-94924284D01*
X161079271Y-94924284D02*
X161079271Y-95166189D01*
X161079271Y-95166189D02*
X161018795Y-95287142D01*
X161018795Y-95287142D02*
X160897842Y-95347618D01*
X160897842Y-95347618D02*
X160414033Y-95347618D01*
X160414033Y-95347618D02*
X160293080Y-95287142D01*
X160293080Y-95287142D02*
X160232604Y-95166189D01*
X160232604Y-95166189D02*
X160232604Y-94924284D01*
X160232604Y-94924284D02*
X160293080Y-94803332D01*
X160293080Y-94803332D02*
X160414033Y-94742856D01*
X160414033Y-94742856D02*
X160534985Y-94742856D01*
X160534985Y-94742856D02*
X160655937Y-95347618D01*
X161079271Y-94198571D02*
X160232604Y-94198571D01*
X160474509Y-94198571D02*
X160353556Y-94138094D01*
X160353556Y-94138094D02*
X160293080Y-94077618D01*
X160293080Y-94077618D02*
X160232604Y-93956666D01*
X160232604Y-93956666D02*
X160232604Y-93835713D01*
D14*
X181013855Y-105475238D02*
X180480521Y-105475238D01*
X180556712Y-105475238D02*
X180518617Y-105437143D01*
X180518617Y-105437143D02*
X180480521Y-105360953D01*
X180480521Y-105360953D02*
X180480521Y-105246667D01*
X180480521Y-105246667D02*
X180518617Y-105170476D01*
X180518617Y-105170476D02*
X180594807Y-105132381D01*
X180594807Y-105132381D02*
X181013855Y-105132381D01*
X180594807Y-105132381D02*
X180518617Y-105094286D01*
X180518617Y-105094286D02*
X180480521Y-105018095D01*
X180480521Y-105018095D02*
X180480521Y-104903810D01*
X180480521Y-104903810D02*
X180518617Y-104827619D01*
X180518617Y-104827619D02*
X180594807Y-104789524D01*
X180594807Y-104789524D02*
X181013855Y-104789524D01*
X181013855Y-104408571D02*
X180480521Y-104408571D01*
X180213855Y-104408571D02*
X180251950Y-104446667D01*
X180251950Y-104446667D02*
X180290045Y-104408571D01*
X180290045Y-104408571D02*
X180251950Y-104370476D01*
X180251950Y-104370476D02*
X180213855Y-104408571D01*
X180213855Y-104408571D02*
X180290045Y-104408571D01*
X180975760Y-103684762D02*
X181013855Y-103760953D01*
X181013855Y-103760953D02*
X181013855Y-103913334D01*
X181013855Y-103913334D02*
X180975760Y-103989524D01*
X180975760Y-103989524D02*
X180937664Y-104027619D01*
X180937664Y-104027619D02*
X180861474Y-104065715D01*
X180861474Y-104065715D02*
X180632902Y-104065715D01*
X180632902Y-104065715D02*
X180556712Y-104027619D01*
X180556712Y-104027619D02*
X180518617Y-103989524D01*
X180518617Y-103989524D02*
X180480521Y-103913334D01*
X180480521Y-103913334D02*
X180480521Y-103760953D01*
X180480521Y-103760953D02*
X180518617Y-103684762D01*
X181013855Y-103341905D02*
X180480521Y-103341905D01*
X180632902Y-103341905D02*
X180556712Y-103303810D01*
X180556712Y-103303810D02*
X180518617Y-103265715D01*
X180518617Y-103265715D02*
X180480521Y-103189524D01*
X180480521Y-103189524D02*
X180480521Y-103113334D01*
X181013855Y-102732382D02*
X180975760Y-102808572D01*
X180975760Y-102808572D02*
X180937664Y-102846667D01*
X180937664Y-102846667D02*
X180861474Y-102884763D01*
X180861474Y-102884763D02*
X180632902Y-102884763D01*
X180632902Y-102884763D02*
X180556712Y-102846667D01*
X180556712Y-102846667D02*
X180518617Y-102808572D01*
X180518617Y-102808572D02*
X180480521Y-102732382D01*
X180480521Y-102732382D02*
X180480521Y-102618096D01*
X180480521Y-102618096D02*
X180518617Y-102541905D01*
X180518617Y-102541905D02*
X180556712Y-102503810D01*
X180556712Y-102503810D02*
X180632902Y-102465715D01*
X180632902Y-102465715D02*
X180861474Y-102465715D01*
X180861474Y-102465715D02*
X180937664Y-102503810D01*
X180937664Y-102503810D02*
X180975760Y-102541905D01*
X180975760Y-102541905D02*
X181013855Y-102618096D01*
X181013855Y-102618096D02*
X181013855Y-102732382D01*
X180975760Y-102160953D02*
X181013855Y-102046667D01*
X181013855Y-102046667D02*
X181013855Y-101856191D01*
X181013855Y-101856191D02*
X180975760Y-101780000D01*
X180975760Y-101780000D02*
X180937664Y-101741905D01*
X180937664Y-101741905D02*
X180861474Y-101703810D01*
X180861474Y-101703810D02*
X180785283Y-101703810D01*
X180785283Y-101703810D02*
X180709093Y-101741905D01*
X180709093Y-101741905D02*
X180670998Y-101780000D01*
X180670998Y-101780000D02*
X180632902Y-101856191D01*
X180632902Y-101856191D02*
X180594807Y-102008572D01*
X180594807Y-102008572D02*
X180556712Y-102084762D01*
X180556712Y-102084762D02*
X180518617Y-102122857D01*
X180518617Y-102122857D02*
X180442426Y-102160953D01*
X180442426Y-102160953D02*
X180366236Y-102160953D01*
X180366236Y-102160953D02*
X180290045Y-102122857D01*
X180290045Y-102122857D02*
X180251950Y-102084762D01*
X180251950Y-102084762D02*
X180213855Y-102008572D01*
X180213855Y-102008572D02*
X180213855Y-101818095D01*
X180213855Y-101818095D02*
X180251950Y-101703810D01*
X181013855Y-101360952D02*
X180213855Y-101360952D01*
X180213855Y-101360952D02*
X180213855Y-101170476D01*
X180213855Y-101170476D02*
X180251950Y-101056190D01*
X180251950Y-101056190D02*
X180328140Y-100980000D01*
X180328140Y-100980000D02*
X180404331Y-100941905D01*
X180404331Y-100941905D02*
X180556712Y-100903809D01*
X180556712Y-100903809D02*
X180670998Y-100903809D01*
X180670998Y-100903809D02*
X180823379Y-100941905D01*
X180823379Y-100941905D02*
X180899569Y-100980000D01*
X180899569Y-100980000D02*
X180975760Y-101056190D01*
X180975760Y-101056190D02*
X181013855Y-101170476D01*
X181013855Y-101170476D02*
X181013855Y-101360952D01*
X180594807Y-99951428D02*
X180594807Y-99684762D01*
X181013855Y-99570476D02*
X181013855Y-99951428D01*
X181013855Y-99951428D02*
X180213855Y-99951428D01*
X180213855Y-99951428D02*
X180213855Y-99570476D01*
X181013855Y-99227618D02*
X180213855Y-99227618D01*
X180213855Y-99227618D02*
X180213855Y-99037142D01*
X180213855Y-99037142D02*
X180251950Y-98922856D01*
X180251950Y-98922856D02*
X180328140Y-98846666D01*
X180328140Y-98846666D02*
X180404331Y-98808571D01*
X180404331Y-98808571D02*
X180556712Y-98770475D01*
X180556712Y-98770475D02*
X180670998Y-98770475D01*
X180670998Y-98770475D02*
X180823379Y-98808571D01*
X180823379Y-98808571D02*
X180899569Y-98846666D01*
X180899569Y-98846666D02*
X180975760Y-98922856D01*
X180975760Y-98922856D02*
X181013855Y-99037142D01*
X181013855Y-99037142D02*
X181013855Y-99227618D01*
X180251950Y-98008571D02*
X180213855Y-98084761D01*
X180213855Y-98084761D02*
X180213855Y-98199047D01*
X180213855Y-98199047D02*
X180251950Y-98313333D01*
X180251950Y-98313333D02*
X180328140Y-98389523D01*
X180328140Y-98389523D02*
X180404331Y-98427618D01*
X180404331Y-98427618D02*
X180556712Y-98465714D01*
X180556712Y-98465714D02*
X180670998Y-98465714D01*
X180670998Y-98465714D02*
X180823379Y-98427618D01*
X180823379Y-98427618D02*
X180899569Y-98389523D01*
X180899569Y-98389523D02*
X180975760Y-98313333D01*
X180975760Y-98313333D02*
X181013855Y-98199047D01*
X181013855Y-98199047D02*
X181013855Y-98122856D01*
X181013855Y-98122856D02*
X180975760Y-98008571D01*
X180975760Y-98008571D02*
X180937664Y-97970475D01*
X180937664Y-97970475D02*
X180670998Y-97970475D01*
X180670998Y-97970475D02*
X180670998Y-98122856D01*
X180594807Y-97627618D02*
X180594807Y-97360952D01*
X181013855Y-97246666D02*
X181013855Y-97627618D01*
X181013855Y-97627618D02*
X180213855Y-97627618D01*
X180213855Y-97627618D02*
X180213855Y-97246666D01*
D13*
X72306666Y-70518795D02*
X72488095Y-70579271D01*
X72488095Y-70579271D02*
X72790476Y-70579271D01*
X72790476Y-70579271D02*
X72911428Y-70518795D01*
X72911428Y-70518795D02*
X72971904Y-70458318D01*
X72971904Y-70458318D02*
X73032381Y-70337366D01*
X73032381Y-70337366D02*
X73032381Y-70216414D01*
X73032381Y-70216414D02*
X72971904Y-70095461D01*
X72971904Y-70095461D02*
X72911428Y-70034985D01*
X72911428Y-70034985D02*
X72790476Y-69974509D01*
X72790476Y-69974509D02*
X72548571Y-69914033D01*
X72548571Y-69914033D02*
X72427619Y-69853556D01*
X72427619Y-69853556D02*
X72367142Y-69793080D01*
X72367142Y-69793080D02*
X72306666Y-69672128D01*
X72306666Y-69672128D02*
X72306666Y-69551175D01*
X72306666Y-69551175D02*
X72367142Y-69430223D01*
X72367142Y-69430223D02*
X72427619Y-69369747D01*
X72427619Y-69369747D02*
X72548571Y-69309271D01*
X72548571Y-69309271D02*
X72850952Y-69309271D01*
X72850952Y-69309271D02*
X73032381Y-69369747D01*
X73455714Y-69309271D02*
X73758095Y-70579271D01*
X73758095Y-70579271D02*
X74000000Y-69672128D01*
X74000000Y-69672128D02*
X74241905Y-70579271D01*
X74241905Y-70579271D02*
X74544286Y-69309271D01*
X75693334Y-70579271D02*
X74967619Y-70579271D01*
X75330476Y-70579271D02*
X75330476Y-69309271D01*
X75330476Y-69309271D02*
X75209524Y-69490699D01*
X75209524Y-69490699D02*
X75088572Y-69611652D01*
X75088572Y-69611652D02*
X74967619Y-69672128D01*
X102076667Y-105309271D02*
X102076667Y-106216414D01*
X102076667Y-106216414D02*
X102016190Y-106397842D01*
X102016190Y-106397842D02*
X101895238Y-106518795D01*
X101895238Y-106518795D02*
X101713809Y-106579271D01*
X101713809Y-106579271D02*
X101592857Y-106579271D01*
X103225714Y-105732604D02*
X103225714Y-106579271D01*
X102923333Y-105248795D02*
X102620952Y-106155937D01*
X102620952Y-106155937D02*
X103407143Y-106155937D01*
X150518333Y-71958318D02*
X150457857Y-72018795D01*
X150457857Y-72018795D02*
X150276428Y-72079271D01*
X150276428Y-72079271D02*
X150155476Y-72079271D01*
X150155476Y-72079271D02*
X149974047Y-72018795D01*
X149974047Y-72018795D02*
X149853095Y-71897842D01*
X149853095Y-71897842D02*
X149792618Y-71776890D01*
X149792618Y-71776890D02*
X149732142Y-71534985D01*
X149732142Y-71534985D02*
X149732142Y-71353556D01*
X149732142Y-71353556D02*
X149792618Y-71111652D01*
X149792618Y-71111652D02*
X149853095Y-70990699D01*
X149853095Y-70990699D02*
X149974047Y-70869747D01*
X149974047Y-70869747D02*
X150155476Y-70809271D01*
X150155476Y-70809271D02*
X150276428Y-70809271D01*
X150276428Y-70809271D02*
X150457857Y-70869747D01*
X150457857Y-70869747D02*
X150518333Y-70930223D01*
X151002142Y-70930223D02*
X151062618Y-70869747D01*
X151062618Y-70869747D02*
X151183571Y-70809271D01*
X151183571Y-70809271D02*
X151485952Y-70809271D01*
X151485952Y-70809271D02*
X151606904Y-70869747D01*
X151606904Y-70869747D02*
X151667380Y-70930223D01*
X151667380Y-70930223D02*
X151727857Y-71051175D01*
X151727857Y-71051175D02*
X151727857Y-71172128D01*
X151727857Y-71172128D02*
X151667380Y-71353556D01*
X151667380Y-71353556D02*
X150941666Y-72079271D01*
X150941666Y-72079271D02*
X151727857Y-72079271D01*
X74478333Y-44919271D02*
X74054999Y-44314509D01*
X73752618Y-44919271D02*
X73752618Y-43649271D01*
X73752618Y-43649271D02*
X74236428Y-43649271D01*
X74236428Y-43649271D02*
X74357380Y-43709747D01*
X74357380Y-43709747D02*
X74417857Y-43770223D01*
X74417857Y-43770223D02*
X74478333Y-43891175D01*
X74478333Y-43891175D02*
X74478333Y-44072604D01*
X74478333Y-44072604D02*
X74417857Y-44193556D01*
X74417857Y-44193556D02*
X74357380Y-44254033D01*
X74357380Y-44254033D02*
X74236428Y-44314509D01*
X74236428Y-44314509D02*
X73752618Y-44314509D01*
X74901666Y-43649271D02*
X75687857Y-43649271D01*
X75687857Y-43649271D02*
X75264523Y-44133080D01*
X75264523Y-44133080D02*
X75445952Y-44133080D01*
X75445952Y-44133080D02*
X75566904Y-44193556D01*
X75566904Y-44193556D02*
X75627380Y-44254033D01*
X75627380Y-44254033D02*
X75687857Y-44374985D01*
X75687857Y-44374985D02*
X75687857Y-44677366D01*
X75687857Y-44677366D02*
X75627380Y-44798318D01*
X75627380Y-44798318D02*
X75566904Y-44858795D01*
X75566904Y-44858795D02*
X75445952Y-44919271D01*
X75445952Y-44919271D02*
X75083095Y-44919271D01*
X75083095Y-44919271D02*
X74962142Y-44858795D01*
X74962142Y-44858795D02*
X74901666Y-44798318D01*
X74478333Y-49079271D02*
X74054999Y-48474509D01*
X73752618Y-49079271D02*
X73752618Y-47809271D01*
X73752618Y-47809271D02*
X74236428Y-47809271D01*
X74236428Y-47809271D02*
X74357380Y-47869747D01*
X74357380Y-47869747D02*
X74417857Y-47930223D01*
X74417857Y-47930223D02*
X74478333Y-48051175D01*
X74478333Y-48051175D02*
X74478333Y-48232604D01*
X74478333Y-48232604D02*
X74417857Y-48353556D01*
X74417857Y-48353556D02*
X74357380Y-48414033D01*
X74357380Y-48414033D02*
X74236428Y-48474509D01*
X74236428Y-48474509D02*
X73752618Y-48474509D01*
X75566904Y-48232604D02*
X75566904Y-49079271D01*
X75264523Y-47748795D02*
X74962142Y-48655937D01*
X74962142Y-48655937D02*
X75748333Y-48655937D01*
D15*
X26690476Y-28954819D02*
X26690476Y-27954819D01*
X26690476Y-27954819D02*
X27023809Y-28669104D01*
X27023809Y-28669104D02*
X27357142Y-27954819D01*
X27357142Y-27954819D02*
X27357142Y-28954819D01*
X27738095Y-27954819D02*
X28357142Y-27954819D01*
X28357142Y-27954819D02*
X28023809Y-28335771D01*
X28023809Y-28335771D02*
X28166666Y-28335771D01*
X28166666Y-28335771D02*
X28261904Y-28383390D01*
X28261904Y-28383390D02*
X28309523Y-28431009D01*
X28309523Y-28431009D02*
X28357142Y-28526247D01*
X28357142Y-28526247D02*
X28357142Y-28764342D01*
X28357142Y-28764342D02*
X28309523Y-28859580D01*
X28309523Y-28859580D02*
X28261904Y-28907200D01*
X28261904Y-28907200D02*
X28166666Y-28954819D01*
X28166666Y-28954819D02*
X27880952Y-28954819D01*
X27880952Y-28954819D02*
X27785714Y-28907200D01*
X27785714Y-28907200D02*
X27738095Y-28859580D01*
X175690476Y-118454819D02*
X175690476Y-117454819D01*
X175690476Y-117454819D02*
X176023809Y-118169104D01*
X176023809Y-118169104D02*
X176357142Y-117454819D01*
X176357142Y-117454819D02*
X176357142Y-118454819D01*
X176738095Y-117454819D02*
X177357142Y-117454819D01*
X177357142Y-117454819D02*
X177023809Y-117835771D01*
X177023809Y-117835771D02*
X177166666Y-117835771D01*
X177166666Y-117835771D02*
X177261904Y-117883390D01*
X177261904Y-117883390D02*
X177309523Y-117931009D01*
X177309523Y-117931009D02*
X177357142Y-118026247D01*
X177357142Y-118026247D02*
X177357142Y-118264342D01*
X177357142Y-118264342D02*
X177309523Y-118359580D01*
X177309523Y-118359580D02*
X177261904Y-118407200D01*
X177261904Y-118407200D02*
X177166666Y-118454819D01*
X177166666Y-118454819D02*
X176880952Y-118454819D01*
X176880952Y-118454819D02*
X176785714Y-118407200D01*
X176785714Y-118407200D02*
X176738095Y-118359580D01*
D13*
X162328333Y-82579271D02*
X161904999Y-81974509D01*
X161602618Y-82579271D02*
X161602618Y-81309271D01*
X161602618Y-81309271D02*
X162086428Y-81309271D01*
X162086428Y-81309271D02*
X162207380Y-81369747D01*
X162207380Y-81369747D02*
X162267857Y-81430223D01*
X162267857Y-81430223D02*
X162328333Y-81551175D01*
X162328333Y-81551175D02*
X162328333Y-81732604D01*
X162328333Y-81732604D02*
X162267857Y-81853556D01*
X162267857Y-81853556D02*
X162207380Y-81914033D01*
X162207380Y-81914033D02*
X162086428Y-81974509D01*
X162086428Y-81974509D02*
X161602618Y-81974509D01*
X163416904Y-81309271D02*
X163174999Y-81309271D01*
X163174999Y-81309271D02*
X163054047Y-81369747D01*
X163054047Y-81369747D02*
X162993571Y-81430223D01*
X162993571Y-81430223D02*
X162872618Y-81611652D01*
X162872618Y-81611652D02*
X162812142Y-81853556D01*
X162812142Y-81853556D02*
X162812142Y-82337366D01*
X162812142Y-82337366D02*
X162872618Y-82458318D01*
X162872618Y-82458318D02*
X162933095Y-82518795D01*
X162933095Y-82518795D02*
X163054047Y-82579271D01*
X163054047Y-82579271D02*
X163295952Y-82579271D01*
X163295952Y-82579271D02*
X163416904Y-82518795D01*
X163416904Y-82518795D02*
X163477380Y-82458318D01*
X163477380Y-82458318D02*
X163537857Y-82337366D01*
X163537857Y-82337366D02*
X163537857Y-82034985D01*
X163537857Y-82034985D02*
X163477380Y-81914033D01*
X163477380Y-81914033D02*
X163416904Y-81853556D01*
X163416904Y-81853556D02*
X163295952Y-81793080D01*
X163295952Y-81793080D02*
X163054047Y-81793080D01*
X163054047Y-81793080D02*
X162933095Y-81853556D01*
X162933095Y-81853556D02*
X162872618Y-81914033D01*
X162872618Y-81914033D02*
X162812142Y-82034985D01*
X105788333Y-102079271D02*
X105364999Y-101474509D01*
X105062618Y-102079271D02*
X105062618Y-100809271D01*
X105062618Y-100809271D02*
X105546428Y-100809271D01*
X105546428Y-100809271D02*
X105667380Y-100869747D01*
X105667380Y-100869747D02*
X105727857Y-100930223D01*
X105727857Y-100930223D02*
X105788333Y-101051175D01*
X105788333Y-101051175D02*
X105788333Y-101232604D01*
X105788333Y-101232604D02*
X105727857Y-101353556D01*
X105727857Y-101353556D02*
X105667380Y-101414033D01*
X105667380Y-101414033D02*
X105546428Y-101474509D01*
X105546428Y-101474509D02*
X105062618Y-101474509D01*
X106514047Y-101353556D02*
X106393095Y-101293080D01*
X106393095Y-101293080D02*
X106332618Y-101232604D01*
X106332618Y-101232604D02*
X106272142Y-101111652D01*
X106272142Y-101111652D02*
X106272142Y-101051175D01*
X106272142Y-101051175D02*
X106332618Y-100930223D01*
X106332618Y-100930223D02*
X106393095Y-100869747D01*
X106393095Y-100869747D02*
X106514047Y-100809271D01*
X106514047Y-100809271D02*
X106755952Y-100809271D01*
X106755952Y-100809271D02*
X106876904Y-100869747D01*
X106876904Y-100869747D02*
X106937380Y-100930223D01*
X106937380Y-100930223D02*
X106997857Y-101051175D01*
X106997857Y-101051175D02*
X106997857Y-101111652D01*
X106997857Y-101111652D02*
X106937380Y-101232604D01*
X106937380Y-101232604D02*
X106876904Y-101293080D01*
X106876904Y-101293080D02*
X106755952Y-101353556D01*
X106755952Y-101353556D02*
X106514047Y-101353556D01*
X106514047Y-101353556D02*
X106393095Y-101414033D01*
X106393095Y-101414033D02*
X106332618Y-101474509D01*
X106332618Y-101474509D02*
X106272142Y-101595461D01*
X106272142Y-101595461D02*
X106272142Y-101837366D01*
X106272142Y-101837366D02*
X106332618Y-101958318D01*
X106332618Y-101958318D02*
X106393095Y-102018795D01*
X106393095Y-102018795D02*
X106514047Y-102079271D01*
X106514047Y-102079271D02*
X106755952Y-102079271D01*
X106755952Y-102079271D02*
X106876904Y-102018795D01*
X106876904Y-102018795D02*
X106937380Y-101958318D01*
X106937380Y-101958318D02*
X106997857Y-101837366D01*
X106997857Y-101837366D02*
X106997857Y-101595461D01*
X106997857Y-101595461D02*
X106937380Y-101474509D01*
X106937380Y-101474509D02*
X106876904Y-101414033D01*
X106876904Y-101414033D02*
X106755952Y-101353556D01*
X130832380Y-26229271D02*
X130832380Y-27257366D01*
X130832380Y-27257366D02*
X130892857Y-27378318D01*
X130892857Y-27378318D02*
X130953333Y-27438795D01*
X130953333Y-27438795D02*
X131074285Y-27499271D01*
X131074285Y-27499271D02*
X131316190Y-27499271D01*
X131316190Y-27499271D02*
X131437142Y-27438795D01*
X131437142Y-27438795D02*
X131497619Y-27378318D01*
X131497619Y-27378318D02*
X131558095Y-27257366D01*
X131558095Y-27257366D02*
X131558095Y-26229271D01*
X132828095Y-27499271D02*
X132102380Y-27499271D01*
X132465237Y-27499271D02*
X132465237Y-26229271D01*
X132465237Y-26229271D02*
X132344285Y-26410699D01*
X132344285Y-26410699D02*
X132223333Y-26531652D01*
X132223333Y-26531652D02*
X132102380Y-26592128D01*
D16*
X115919047Y-35619240D02*
X116259523Y-35619240D01*
X116259523Y-35619240D02*
X116076190Y-35828764D01*
X116076190Y-35828764D02*
X116154761Y-35828764D01*
X116154761Y-35828764D02*
X116207142Y-35854954D01*
X116207142Y-35854954D02*
X116233333Y-35881145D01*
X116233333Y-35881145D02*
X116259523Y-35933526D01*
X116259523Y-35933526D02*
X116259523Y-36064478D01*
X116259523Y-36064478D02*
X116233333Y-36116859D01*
X116233333Y-36116859D02*
X116207142Y-36143050D01*
X116207142Y-36143050D02*
X116154761Y-36169240D01*
X116154761Y-36169240D02*
X115997618Y-36169240D01*
X115997618Y-36169240D02*
X115945237Y-36143050D01*
X115945237Y-36143050D02*
X115919047Y-36116859D01*
X116416666Y-35619240D02*
X116600000Y-36169240D01*
X116600000Y-36169240D02*
X116783333Y-35619240D01*
X116914286Y-35619240D02*
X117254762Y-35619240D01*
X117254762Y-35619240D02*
X117071429Y-35828764D01*
X117071429Y-35828764D02*
X117150000Y-35828764D01*
X117150000Y-35828764D02*
X117202381Y-35854954D01*
X117202381Y-35854954D02*
X117228572Y-35881145D01*
X117228572Y-35881145D02*
X117254762Y-35933526D01*
X117254762Y-35933526D02*
X117254762Y-36064478D01*
X117254762Y-36064478D02*
X117228572Y-36116859D01*
X117228572Y-36116859D02*
X117202381Y-36143050D01*
X117202381Y-36143050D02*
X117150000Y-36169240D01*
X117150000Y-36169240D02*
X116992857Y-36169240D01*
X116992857Y-36169240D02*
X116940476Y-36143050D01*
X116940476Y-36143050D02*
X116914286Y-36116859D01*
X116495238Y-86419240D02*
X116233333Y-86419240D01*
X116233333Y-86419240D02*
X116207142Y-86681145D01*
X116207142Y-86681145D02*
X116233333Y-86654954D01*
X116233333Y-86654954D02*
X116285714Y-86628764D01*
X116285714Y-86628764D02*
X116416666Y-86628764D01*
X116416666Y-86628764D02*
X116469047Y-86654954D01*
X116469047Y-86654954D02*
X116495238Y-86681145D01*
X116495238Y-86681145D02*
X116521428Y-86733526D01*
X116521428Y-86733526D02*
X116521428Y-86864478D01*
X116521428Y-86864478D02*
X116495238Y-86916859D01*
X116495238Y-86916859D02*
X116469047Y-86943050D01*
X116469047Y-86943050D02*
X116416666Y-86969240D01*
X116416666Y-86969240D02*
X116285714Y-86969240D01*
X116285714Y-86969240D02*
X116233333Y-86943050D01*
X116233333Y-86943050D02*
X116207142Y-86916859D01*
X116678571Y-86419240D02*
X116861905Y-86969240D01*
X116861905Y-86969240D02*
X117045238Y-86419240D01*
X116180952Y-88985430D02*
X116128571Y-88959240D01*
X116128571Y-88959240D02*
X116050000Y-88959240D01*
X116050000Y-88959240D02*
X115971428Y-88985430D01*
X115971428Y-88985430D02*
X115919047Y-89037811D01*
X115919047Y-89037811D02*
X115892857Y-89090192D01*
X115892857Y-89090192D02*
X115866666Y-89194954D01*
X115866666Y-89194954D02*
X115866666Y-89273526D01*
X115866666Y-89273526D02*
X115892857Y-89378288D01*
X115892857Y-89378288D02*
X115919047Y-89430669D01*
X115919047Y-89430669D02*
X115971428Y-89483050D01*
X115971428Y-89483050D02*
X116050000Y-89509240D01*
X116050000Y-89509240D02*
X116102381Y-89509240D01*
X116102381Y-89509240D02*
X116180952Y-89483050D01*
X116180952Y-89483050D02*
X116207143Y-89456859D01*
X116207143Y-89456859D02*
X116207143Y-89273526D01*
X116207143Y-89273526D02*
X116102381Y-89273526D01*
X116442857Y-89509240D02*
X116442857Y-88959240D01*
X116442857Y-88959240D02*
X116757143Y-89509240D01*
X116757143Y-89509240D02*
X116757143Y-88959240D01*
X117019047Y-89509240D02*
X117019047Y-88959240D01*
X117019047Y-88959240D02*
X117149999Y-88959240D01*
X117149999Y-88959240D02*
X117228571Y-88985430D01*
X117228571Y-88985430D02*
X117280952Y-89037811D01*
X117280952Y-89037811D02*
X117307142Y-89090192D01*
X117307142Y-89090192D02*
X117333333Y-89194954D01*
X117333333Y-89194954D02*
X117333333Y-89273526D01*
X117333333Y-89273526D02*
X117307142Y-89378288D01*
X117307142Y-89378288D02*
X117280952Y-89430669D01*
X117280952Y-89430669D02*
X117228571Y-89483050D01*
X117228571Y-89483050D02*
X117149999Y-89509240D01*
X117149999Y-89509240D02*
X117019047Y-89509240D01*
X115371428Y-32592371D02*
X115371428Y-33020942D01*
X115371428Y-33020942D02*
X115342857Y-33106657D01*
X115342857Y-33106657D02*
X115285714Y-33163800D01*
X115285714Y-33163800D02*
X115200000Y-33192371D01*
X115200000Y-33192371D02*
X115142857Y-33192371D01*
X115971428Y-33192371D02*
X115628571Y-33192371D01*
X115800000Y-33192371D02*
X115800000Y-32592371D01*
X115800000Y-32592371D02*
X115742857Y-32678085D01*
X115742857Y-32678085D02*
X115685714Y-32735228D01*
X115685714Y-32735228D02*
X115628571Y-32763800D01*
X116971429Y-33192371D02*
X116685715Y-33192371D01*
X116685715Y-33192371D02*
X116685715Y-32592371D01*
X117171429Y-32878085D02*
X117371429Y-32878085D01*
X117457143Y-33192371D02*
X117171429Y-33192371D01*
X117171429Y-33192371D02*
X117171429Y-32592371D01*
X117171429Y-32592371D02*
X117457143Y-32592371D01*
X117914286Y-32878085D02*
X117714286Y-32878085D01*
X117714286Y-33192371D02*
X117714286Y-32592371D01*
X117714286Y-32592371D02*
X118000000Y-32592371D01*
X118142857Y-32592371D02*
X118485715Y-32592371D01*
X118314286Y-33192371D02*
X118314286Y-32592371D01*
D14*
X125121429Y-33046438D02*
X125478572Y-33046438D01*
X125050000Y-33260724D02*
X125300000Y-32510724D01*
X125300000Y-32510724D02*
X125550000Y-33260724D01*
X125800000Y-33260724D02*
X125800000Y-32510724D01*
X125800000Y-32510724D02*
X126228571Y-33260724D01*
X126228571Y-33260724D02*
X126228571Y-32510724D01*
X126478571Y-32510724D02*
X126907143Y-32510724D01*
X126692857Y-33260724D02*
X126692857Y-32510724D01*
X127157143Y-32867867D02*
X127407143Y-32867867D01*
X127514286Y-33260724D02*
X127157143Y-33260724D01*
X127157143Y-33260724D02*
X127157143Y-32510724D01*
X127157143Y-32510724D02*
X127514286Y-32510724D01*
X127835714Y-33260724D02*
X127835714Y-32510724D01*
X127835714Y-32510724D02*
X128264285Y-33260724D01*
X128264285Y-33260724D02*
X128264285Y-32510724D01*
X128621428Y-33260724D02*
X128621428Y-32510724D01*
X128621428Y-32510724D02*
X129049999Y-33260724D01*
X129049999Y-33260724D02*
X129049999Y-32510724D01*
X129371428Y-33046438D02*
X129728571Y-33046438D01*
X129299999Y-33260724D02*
X129549999Y-32510724D01*
X129549999Y-32510724D02*
X129799999Y-33260724D01*
X131157142Y-32475010D02*
X130514285Y-33439295D01*
X131907142Y-32510724D02*
X132085714Y-33260724D01*
X132085714Y-33260724D02*
X132228571Y-32725010D01*
X132228571Y-32725010D02*
X132371428Y-33260724D01*
X132371428Y-33260724D02*
X132550000Y-32510724D01*
X133264285Y-33260724D02*
X133014285Y-32903581D01*
X132835714Y-33260724D02*
X132835714Y-32510724D01*
X132835714Y-32510724D02*
X133121428Y-32510724D01*
X133121428Y-32510724D02*
X133192857Y-32546438D01*
X133192857Y-32546438D02*
X133228571Y-32582152D01*
X133228571Y-32582152D02*
X133264285Y-32653581D01*
X133264285Y-32653581D02*
X133264285Y-32760724D01*
X133264285Y-32760724D02*
X133228571Y-32832152D01*
X133228571Y-32832152D02*
X133192857Y-32867867D01*
X133192857Y-32867867D02*
X133121428Y-32903581D01*
X133121428Y-32903581D02*
X132835714Y-32903581D01*
X133728571Y-32510724D02*
X133871428Y-32510724D01*
X133871428Y-32510724D02*
X133942857Y-32546438D01*
X133942857Y-32546438D02*
X134014285Y-32617867D01*
X134014285Y-32617867D02*
X134050000Y-32760724D01*
X134050000Y-32760724D02*
X134050000Y-33010724D01*
X134050000Y-33010724D02*
X134014285Y-33153581D01*
X134014285Y-33153581D02*
X133942857Y-33225010D01*
X133942857Y-33225010D02*
X133871428Y-33260724D01*
X133871428Y-33260724D02*
X133728571Y-33260724D01*
X133728571Y-33260724D02*
X133657143Y-33225010D01*
X133657143Y-33225010D02*
X133585714Y-33153581D01*
X133585714Y-33153581D02*
X133550000Y-33010724D01*
X133550000Y-33010724D02*
X133550000Y-32760724D01*
X133550000Y-32760724D02*
X133585714Y-32617867D01*
X133585714Y-32617867D02*
X133657143Y-32546438D01*
X133657143Y-32546438D02*
X133728571Y-32510724D01*
X134514285Y-32510724D02*
X134657142Y-32510724D01*
X134657142Y-32510724D02*
X134728571Y-32546438D01*
X134728571Y-32546438D02*
X134799999Y-32617867D01*
X134799999Y-32617867D02*
X134835714Y-32760724D01*
X134835714Y-32760724D02*
X134835714Y-33010724D01*
X134835714Y-33010724D02*
X134799999Y-33153581D01*
X134799999Y-33153581D02*
X134728571Y-33225010D01*
X134728571Y-33225010D02*
X134657142Y-33260724D01*
X134657142Y-33260724D02*
X134514285Y-33260724D01*
X134514285Y-33260724D02*
X134442857Y-33225010D01*
X134442857Y-33225010D02*
X134371428Y-33153581D01*
X134371428Y-33153581D02*
X134335714Y-33010724D01*
X134335714Y-33010724D02*
X134335714Y-32760724D01*
X134335714Y-32760724D02*
X134371428Y-32617867D01*
X134371428Y-32617867D02*
X134442857Y-32546438D01*
X134442857Y-32546438D02*
X134514285Y-32510724D01*
X135157142Y-33260724D02*
X135157142Y-32510724D01*
X135157142Y-32510724D02*
X135407142Y-33046438D01*
X135407142Y-33046438D02*
X135657142Y-32510724D01*
X135657142Y-32510724D02*
X135657142Y-33260724D01*
X136585714Y-32867867D02*
X136835714Y-32867867D01*
X136942857Y-33260724D02*
X136585714Y-33260724D01*
X136585714Y-33260724D02*
X136585714Y-32510724D01*
X136585714Y-32510724D02*
X136942857Y-32510724D01*
X137264285Y-33260724D02*
X137264285Y-32510724D01*
X137264285Y-32510724D02*
X137692856Y-33260724D01*
X137692856Y-33260724D02*
X137692856Y-32510724D01*
X138049999Y-33260724D02*
X138049999Y-32510724D01*
X138049999Y-32510724D02*
X138228570Y-32510724D01*
X138228570Y-32510724D02*
X138335713Y-32546438D01*
X138335713Y-32546438D02*
X138407142Y-32617867D01*
X138407142Y-32617867D02*
X138442856Y-32689295D01*
X138442856Y-32689295D02*
X138478570Y-32832152D01*
X138478570Y-32832152D02*
X138478570Y-32939295D01*
X138478570Y-32939295D02*
X138442856Y-33082152D01*
X138442856Y-33082152D02*
X138407142Y-33153581D01*
X138407142Y-33153581D02*
X138335713Y-33225010D01*
X138335713Y-33225010D02*
X138228570Y-33260724D01*
X138228570Y-33260724D02*
X138049999Y-33260724D01*
X126942857Y-91260724D02*
X126942857Y-90510724D01*
X126942857Y-90510724D02*
X127121428Y-90510724D01*
X127121428Y-90510724D02*
X127228571Y-90546438D01*
X127228571Y-90546438D02*
X127300000Y-90617867D01*
X127300000Y-90617867D02*
X127335714Y-90689295D01*
X127335714Y-90689295D02*
X127371428Y-90832152D01*
X127371428Y-90832152D02*
X127371428Y-90939295D01*
X127371428Y-90939295D02*
X127335714Y-91082152D01*
X127335714Y-91082152D02*
X127300000Y-91153581D01*
X127300000Y-91153581D02*
X127228571Y-91225010D01*
X127228571Y-91225010D02*
X127121428Y-91260724D01*
X127121428Y-91260724D02*
X126942857Y-91260724D01*
X127692857Y-90510724D02*
X127692857Y-91117867D01*
X127692857Y-91117867D02*
X127728571Y-91189295D01*
X127728571Y-91189295D02*
X127764286Y-91225010D01*
X127764286Y-91225010D02*
X127835714Y-91260724D01*
X127835714Y-91260724D02*
X127978571Y-91260724D01*
X127978571Y-91260724D02*
X128050000Y-91225010D01*
X128050000Y-91225010D02*
X128085714Y-91189295D01*
X128085714Y-91189295D02*
X128121428Y-91117867D01*
X128121428Y-91117867D02*
X128121428Y-90510724D01*
X128442857Y-91046438D02*
X128800000Y-91046438D01*
X128371428Y-91260724D02*
X128621428Y-90510724D01*
X128621428Y-90510724D02*
X128871428Y-91260724D01*
X129478571Y-91260724D02*
X129121428Y-91260724D01*
X129121428Y-91260724D02*
X129121428Y-90510724D01*
X130300000Y-90510724D02*
X130300000Y-91117867D01*
X130300000Y-91117867D02*
X130335714Y-91189295D01*
X130335714Y-91189295D02*
X130371429Y-91225010D01*
X130371429Y-91225010D02*
X130442857Y-91260724D01*
X130442857Y-91260724D02*
X130585714Y-91260724D01*
X130585714Y-91260724D02*
X130657143Y-91225010D01*
X130657143Y-91225010D02*
X130692857Y-91189295D01*
X130692857Y-91189295D02*
X130728571Y-91117867D01*
X130728571Y-91117867D02*
X130728571Y-90510724D01*
X131050000Y-91225010D02*
X131157143Y-91260724D01*
X131157143Y-91260724D02*
X131335714Y-91260724D01*
X131335714Y-91260724D02*
X131407143Y-91225010D01*
X131407143Y-91225010D02*
X131442857Y-91189295D01*
X131442857Y-91189295D02*
X131478571Y-91117867D01*
X131478571Y-91117867D02*
X131478571Y-91046438D01*
X131478571Y-91046438D02*
X131442857Y-90975010D01*
X131442857Y-90975010D02*
X131407143Y-90939295D01*
X131407143Y-90939295D02*
X131335714Y-90903581D01*
X131335714Y-90903581D02*
X131192857Y-90867867D01*
X131192857Y-90867867D02*
X131121428Y-90832152D01*
X131121428Y-90832152D02*
X131085714Y-90796438D01*
X131085714Y-90796438D02*
X131050000Y-90725010D01*
X131050000Y-90725010D02*
X131050000Y-90653581D01*
X131050000Y-90653581D02*
X131085714Y-90582152D01*
X131085714Y-90582152D02*
X131121428Y-90546438D01*
X131121428Y-90546438D02*
X131192857Y-90510724D01*
X131192857Y-90510724D02*
X131371428Y-90510724D01*
X131371428Y-90510724D02*
X131478571Y-90546438D01*
X132050000Y-90867867D02*
X132157143Y-90903581D01*
X132157143Y-90903581D02*
X132192857Y-90939295D01*
X132192857Y-90939295D02*
X132228571Y-91010724D01*
X132228571Y-91010724D02*
X132228571Y-91117867D01*
X132228571Y-91117867D02*
X132192857Y-91189295D01*
X132192857Y-91189295D02*
X132157143Y-91225010D01*
X132157143Y-91225010D02*
X132085714Y-91260724D01*
X132085714Y-91260724D02*
X131800000Y-91260724D01*
X131800000Y-91260724D02*
X131800000Y-90510724D01*
X131800000Y-90510724D02*
X132050000Y-90510724D01*
X132050000Y-90510724D02*
X132121429Y-90546438D01*
X132121429Y-90546438D02*
X132157143Y-90582152D01*
X132157143Y-90582152D02*
X132192857Y-90653581D01*
X132192857Y-90653581D02*
X132192857Y-90725010D01*
X132192857Y-90725010D02*
X132157143Y-90796438D01*
X132157143Y-90796438D02*
X132121429Y-90832152D01*
X132121429Y-90832152D02*
X132050000Y-90867867D01*
X132050000Y-90867867D02*
X131800000Y-90867867D01*
X132550000Y-90975010D02*
X133121429Y-90975010D01*
X133907142Y-91189295D02*
X133871428Y-91225010D01*
X133871428Y-91225010D02*
X133764285Y-91260724D01*
X133764285Y-91260724D02*
X133692857Y-91260724D01*
X133692857Y-91260724D02*
X133585714Y-91225010D01*
X133585714Y-91225010D02*
X133514285Y-91153581D01*
X133514285Y-91153581D02*
X133478571Y-91082152D01*
X133478571Y-91082152D02*
X133442857Y-90939295D01*
X133442857Y-90939295D02*
X133442857Y-90832152D01*
X133442857Y-90832152D02*
X133478571Y-90689295D01*
X133478571Y-90689295D02*
X133514285Y-90617867D01*
X133514285Y-90617867D02*
X133585714Y-90546438D01*
X133585714Y-90546438D02*
X133692857Y-90510724D01*
X133692857Y-90510724D02*
X133764285Y-90510724D01*
X133764285Y-90510724D02*
X133871428Y-90546438D01*
X133871428Y-90546438D02*
X133907142Y-90582152D01*
X134800000Y-90867867D02*
X135050000Y-90867867D01*
X135157143Y-91260724D02*
X134800000Y-91260724D01*
X134800000Y-91260724D02*
X134800000Y-90510724D01*
X134800000Y-90510724D02*
X135157143Y-90510724D01*
X135478571Y-91260724D02*
X135478571Y-90510724D01*
X135478571Y-90510724D02*
X135907142Y-91260724D01*
X135907142Y-91260724D02*
X135907142Y-90510724D01*
X136264285Y-91260724D02*
X136264285Y-90510724D01*
X136264285Y-90510724D02*
X136442856Y-90510724D01*
X136442856Y-90510724D02*
X136549999Y-90546438D01*
X136549999Y-90546438D02*
X136621428Y-90617867D01*
X136621428Y-90617867D02*
X136657142Y-90689295D01*
X136657142Y-90689295D02*
X136692856Y-90832152D01*
X136692856Y-90832152D02*
X136692856Y-90939295D01*
X136692856Y-90939295D02*
X136657142Y-91082152D01*
X136657142Y-91082152D02*
X136621428Y-91153581D01*
X136621428Y-91153581D02*
X136549999Y-91225010D01*
X136549999Y-91225010D02*
X136442856Y-91260724D01*
X136442856Y-91260724D02*
X136264285Y-91260724D01*
D16*
X145085714Y-32592371D02*
X145085714Y-33020942D01*
X145085714Y-33020942D02*
X145057143Y-33106657D01*
X145057143Y-33106657D02*
X145000000Y-33163800D01*
X145000000Y-33163800D02*
X144914286Y-33192371D01*
X144914286Y-33192371D02*
X144857143Y-33192371D01*
X145314286Y-32592371D02*
X145685714Y-32592371D01*
X145685714Y-32592371D02*
X145485714Y-32820942D01*
X145485714Y-32820942D02*
X145571429Y-32820942D01*
X145571429Y-32820942D02*
X145628572Y-32849514D01*
X145628572Y-32849514D02*
X145657143Y-32878085D01*
X145657143Y-32878085D02*
X145685714Y-32935228D01*
X145685714Y-32935228D02*
X145685714Y-33078085D01*
X145685714Y-33078085D02*
X145657143Y-33135228D01*
X145657143Y-33135228D02*
X145628572Y-33163800D01*
X145628572Y-33163800D02*
X145571429Y-33192371D01*
X145571429Y-33192371D02*
X145400000Y-33192371D01*
X145400000Y-33192371D02*
X145342857Y-33163800D01*
X145342857Y-33163800D02*
X145314286Y-33135228D01*
X146742858Y-33192371D02*
X146542858Y-32906657D01*
X146400001Y-33192371D02*
X146400001Y-32592371D01*
X146400001Y-32592371D02*
X146628572Y-32592371D01*
X146628572Y-32592371D02*
X146685715Y-32620942D01*
X146685715Y-32620942D02*
X146714286Y-32649514D01*
X146714286Y-32649514D02*
X146742858Y-32706657D01*
X146742858Y-32706657D02*
X146742858Y-32792371D01*
X146742858Y-32792371D02*
X146714286Y-32849514D01*
X146714286Y-32849514D02*
X146685715Y-32878085D01*
X146685715Y-32878085D02*
X146628572Y-32906657D01*
X146628572Y-32906657D02*
X146400001Y-32906657D01*
X147000001Y-33192371D02*
X147000001Y-32592371D01*
X147600000Y-32620942D02*
X147542858Y-32592371D01*
X147542858Y-32592371D02*
X147457143Y-32592371D01*
X147457143Y-32592371D02*
X147371429Y-32620942D01*
X147371429Y-32620942D02*
X147314286Y-32678085D01*
X147314286Y-32678085D02*
X147285715Y-32735228D01*
X147285715Y-32735228D02*
X147257143Y-32849514D01*
X147257143Y-32849514D02*
X147257143Y-32935228D01*
X147257143Y-32935228D02*
X147285715Y-33049514D01*
X147285715Y-33049514D02*
X147314286Y-33106657D01*
X147314286Y-33106657D02*
X147371429Y-33163800D01*
X147371429Y-33163800D02*
X147457143Y-33192371D01*
X147457143Y-33192371D02*
X147514286Y-33192371D01*
X147514286Y-33192371D02*
X147600000Y-33163800D01*
X147600000Y-33163800D02*
X147628572Y-33135228D01*
X147628572Y-33135228D02*
X147628572Y-32935228D01*
X147628572Y-32935228D02*
X147514286Y-32935228D01*
X147885715Y-33192371D02*
X147885715Y-32592371D01*
X147885715Y-32878085D02*
X148228572Y-32878085D01*
X148228572Y-33192371D02*
X148228572Y-32592371D01*
X148428571Y-32592371D02*
X148771429Y-32592371D01*
X148600000Y-33192371D02*
X148600000Y-32592371D01*
X146580952Y-35645430D02*
X146528571Y-35619240D01*
X146528571Y-35619240D02*
X146450000Y-35619240D01*
X146450000Y-35619240D02*
X146371428Y-35645430D01*
X146371428Y-35645430D02*
X146319047Y-35697811D01*
X146319047Y-35697811D02*
X146292857Y-35750192D01*
X146292857Y-35750192D02*
X146266666Y-35854954D01*
X146266666Y-35854954D02*
X146266666Y-35933526D01*
X146266666Y-35933526D02*
X146292857Y-36038288D01*
X146292857Y-36038288D02*
X146319047Y-36090669D01*
X146319047Y-36090669D02*
X146371428Y-36143050D01*
X146371428Y-36143050D02*
X146450000Y-36169240D01*
X146450000Y-36169240D02*
X146502381Y-36169240D01*
X146502381Y-36169240D02*
X146580952Y-36143050D01*
X146580952Y-36143050D02*
X146607143Y-36116859D01*
X146607143Y-36116859D02*
X146607143Y-35933526D01*
X146607143Y-35933526D02*
X146502381Y-35933526D01*
X146842857Y-36169240D02*
X146842857Y-35619240D01*
X146842857Y-35619240D02*
X147157143Y-36169240D01*
X147157143Y-36169240D02*
X147157143Y-35619240D01*
X147419047Y-36169240D02*
X147419047Y-35619240D01*
X147419047Y-35619240D02*
X147549999Y-35619240D01*
X147549999Y-35619240D02*
X147628571Y-35645430D01*
X147628571Y-35645430D02*
X147680952Y-35697811D01*
X147680952Y-35697811D02*
X147707142Y-35750192D01*
X147707142Y-35750192D02*
X147733333Y-35854954D01*
X147733333Y-35854954D02*
X147733333Y-35933526D01*
X147733333Y-35933526D02*
X147707142Y-36038288D01*
X147707142Y-36038288D02*
X147680952Y-36090669D01*
X147680952Y-36090669D02*
X147628571Y-36143050D01*
X147628571Y-36143050D02*
X147549999Y-36169240D01*
X147549999Y-36169240D02*
X147419047Y-36169240D01*
D13*
X42076667Y-31809271D02*
X42076667Y-32716414D01*
X42076667Y-32716414D02*
X42016190Y-32897842D01*
X42016190Y-32897842D02*
X41895238Y-33018795D01*
X41895238Y-33018795D02*
X41713809Y-33079271D01*
X41713809Y-33079271D02*
X41592857Y-33079271D01*
X43346667Y-33079271D02*
X42620952Y-33079271D01*
X42983809Y-33079271D02*
X42983809Y-31809271D01*
X42983809Y-31809271D02*
X42862857Y-31990699D01*
X42862857Y-31990699D02*
X42741905Y-32111652D01*
X42741905Y-32111652D02*
X42620952Y-32172128D01*
D15*
X172654819Y-85333333D02*
X172178628Y-85666666D01*
X172654819Y-85904761D02*
X171654819Y-85904761D01*
X171654819Y-85904761D02*
X171654819Y-85523809D01*
X171654819Y-85523809D02*
X171702438Y-85428571D01*
X171702438Y-85428571D02*
X171750057Y-85380952D01*
X171750057Y-85380952D02*
X171845295Y-85333333D01*
X171845295Y-85333333D02*
X171988152Y-85333333D01*
X171988152Y-85333333D02*
X172083390Y-85380952D01*
X172083390Y-85380952D02*
X172131009Y-85428571D01*
X172131009Y-85428571D02*
X172178628Y-85523809D01*
X172178628Y-85523809D02*
X172178628Y-85904761D01*
X172131009Y-84904761D02*
X172131009Y-84571428D01*
X172654819Y-84428571D02*
X172654819Y-84904761D01*
X172654819Y-84904761D02*
X171654819Y-84904761D01*
X171654819Y-84904761D02*
X171654819Y-84428571D01*
X172131009Y-83666666D02*
X172131009Y-83999999D01*
X172654819Y-83999999D02*
X171654819Y-83999999D01*
X171654819Y-83999999D02*
X171654819Y-83523809D01*
X171654819Y-82999999D02*
X171892914Y-82999999D01*
X171797676Y-83238094D02*
X171892914Y-82999999D01*
X171892914Y-82999999D02*
X171797676Y-82761904D01*
X172083390Y-83142856D02*
X171892914Y-82999999D01*
X171892914Y-82999999D02*
X172083390Y-82857142D01*
X171654819Y-82238094D02*
X171892914Y-82238094D01*
X171797676Y-82476189D02*
X171892914Y-82238094D01*
X171892914Y-82238094D02*
X171797676Y-81999999D01*
X172083390Y-82380951D02*
X171892914Y-82238094D01*
X171892914Y-82238094D02*
X172083390Y-82095237D01*
D13*
X74478333Y-41079271D02*
X74054999Y-40474509D01*
X73752618Y-41079271D02*
X73752618Y-39809271D01*
X73752618Y-39809271D02*
X74236428Y-39809271D01*
X74236428Y-39809271D02*
X74357380Y-39869747D01*
X74357380Y-39869747D02*
X74417857Y-39930223D01*
X74417857Y-39930223D02*
X74478333Y-40051175D01*
X74478333Y-40051175D02*
X74478333Y-40232604D01*
X74478333Y-40232604D02*
X74417857Y-40353556D01*
X74417857Y-40353556D02*
X74357380Y-40414033D01*
X74357380Y-40414033D02*
X74236428Y-40474509D01*
X74236428Y-40474509D02*
X73752618Y-40474509D01*
X74962142Y-39930223D02*
X75022618Y-39869747D01*
X75022618Y-39869747D02*
X75143571Y-39809271D01*
X75143571Y-39809271D02*
X75445952Y-39809271D01*
X75445952Y-39809271D02*
X75566904Y-39869747D01*
X75566904Y-39869747D02*
X75627380Y-39930223D01*
X75627380Y-39930223D02*
X75687857Y-40051175D01*
X75687857Y-40051175D02*
X75687857Y-40172128D01*
X75687857Y-40172128D02*
X75627380Y-40353556D01*
X75627380Y-40353556D02*
X74901666Y-41079271D01*
X74901666Y-41079271D02*
X75687857Y-41079271D01*
%TO.C,J3*%
D11*
X116500000Y-107500000D02*
X126500000Y-107500000D01*
X126500000Y-115500000D01*
X116500000Y-115500000D01*
X116500000Y-107500000D01*
%TO.C,C1*%
X37500000Y-44500000D02*
X47500000Y-44500000D01*
X47500000Y-56500000D01*
X37500000Y-56500000D01*
X37500000Y-44500000D01*
%TO.C,C7*%
D17*
X142500000Y-108000000D02*
G75*
G02*
X136500000Y-108000000I-3000000J0D01*
G01*
X136500000Y-108000000D02*
G75*
G02*
X142500000Y-108000000I3000000J0D01*
G01*
%TO.C,C8*%
X106000000Y-85500000D02*
X109000000Y-85500000D01*
X109000000Y-90500000D01*
X106000000Y-90500000D01*
X106000000Y-85500000D01*
%TO.C,U3 - LEFT DFPlayer*%
D11*
X162310000Y-56120000D02*
X182310000Y-56120000D01*
X182310000Y-76120000D01*
X162310000Y-76120000D01*
X162310000Y-56120000D01*
%TO.C,J5*%
X78460000Y-107500000D02*
X88460000Y-107500000D01*
X88460000Y-115500000D01*
X78460000Y-115500000D01*
X78460000Y-107500000D01*
%TO.C,J2*%
X92810000Y-52500000D02*
X106810000Y-52500000D01*
X106810000Y-60500000D01*
X92810000Y-60500000D01*
X92810000Y-52500000D01*
%TO.C,J10*%
X39500000Y-69750000D02*
X47500000Y-69750000D01*
X47500000Y-93750000D01*
X39500000Y-93750000D01*
X39500000Y-69750000D01*
%TO.C,U2 - R DFPlayer*%
X162150000Y-91380000D02*
X182150000Y-91380000D01*
X182150000Y-111380000D01*
X162150000Y-111380000D01*
X162150000Y-91380000D01*
%TO.C,SW1*%
X65960000Y-56960000D02*
X83960000Y-56960000D01*
X83960000Y-68960000D01*
X65960000Y-68960000D01*
X65960000Y-56960000D01*
%TO.C,J4*%
X97500000Y-108000000D02*
X107500000Y-108000000D01*
X107500000Y-116000000D01*
X97500000Y-116000000D01*
X97500000Y-108000000D01*
%TO.C,U1*%
X114800000Y-29920000D02*
X148800000Y-29920000D01*
X148800000Y-93920000D01*
X114800000Y-93920000D01*
X114800000Y-29920000D01*
%TO.C,J1*%
X35500000Y-34500000D02*
X49500000Y-34500000D01*
X49500000Y-44500000D01*
X35500000Y-44500000D01*
X35500000Y-34500000D01*
%TO.C,REF\u002A\u002A*%
D14*
X173300000Y-78000000D02*
X184300000Y-78000000D01*
X173300000Y-90000000D02*
X173300000Y-78000000D01*
X184300000Y-78000000D02*
X184300000Y-79500000D01*
X184300000Y-79500000D02*
X185500000Y-79500000D01*
X184300000Y-82000000D02*
X184300000Y-86000000D01*
X184300000Y-86000000D02*
X187300000Y-86000000D01*
X184300000Y-88500000D02*
X184300000Y-90000000D01*
X184300000Y-90000000D02*
X173300000Y-90000000D01*
X185500000Y-79500000D02*
X185500000Y-81000000D01*
X185500000Y-81000000D02*
X187300000Y-81000000D01*
X185500000Y-87000000D02*
X185500000Y-88500000D01*
X185500000Y-88500000D02*
X184300000Y-88500000D01*
X187300000Y-81000000D02*
X187300000Y-87000000D01*
X187300000Y-82000000D02*
X184300000Y-82000000D01*
X187300000Y-87000000D02*
X185500000Y-87000000D01*
%TD*%
M02*
