M48
; DRILL file KiCad 10.0.4 date 2026-08-16T11:32:20
; FORMAT={-:-/ absolute / metric / decimal}
; #@! TF.CreationDate,2026-08-16T11:32:20-05:00
; #@! TF.GenerationSoftware,Kicad,Pcbnew,10.0.4
; #@! TF.FileFunction,NonPlated,1,4,NPTH
FMAT,2
METRIC
; #@! TA.AperFunction,NonPlated,NPTH,ComponentDrill
T1C2.500
; #@! TA.AperFunction,NonPlated,NPTH,ComponentDrill
T2C3.200
%
G90
G05
T1
X52.56Y-37.975
X52.56Y-57.025
X108.44Y-37.975
T2
X20.0Y-113.0
X23.0Y-22.0
X30.96Y-114.89
X42.39Y-114.89
X57.0Y-115.0
X68.43Y-115.0
X83.0Y-115.0
X94.43Y-115.0
X101.894Y-116.483
X109.0Y-115.0
X120.43Y-115.0
X135.0Y-115.0
X146.43Y-115.0
X154.0Y-116.5
X161.0Y-115.0
X170.0Y-66.0
X172.43Y-115.0
X185.07Y-115.0
X196.5Y-115.0
X207.0Y-94.5
X207.5Y-115.0
X218.93Y-115.0
X223.5Y-20.5
X227.0Y-113.0
M30
