%TF.GenerationSoftware,KiCad,Pcbnew,10.0.4*%
%TF.CreationDate,2026-08-16T11:32:16-05:00*%
%TF.ProjectId,Cluster_Servo_Board,436c7573-7465-4725-9f53-6572766f5f42,rev?*%
%TF.SameCoordinates,Original*%
%TF.FileFunction,Copper,L1,Top*%
%TF.FilePolarity,Positive*%
%FSLAX46Y46*%
G04 Gerber Fmt 4.6, Leading zero omitted, Abs format (unit mm)*
G04 Created by KiCad (PCBNEW 10.0.4) date 2026-08-16 11:32:16*
%MOMM*%
%LPD*%
G01*
G04 APERTURE LIST*
%TA.AperFunction,ComponentPad*%
%ADD10C,2.100000*%
%TD*%
%TA.AperFunction,ComponentPad*%
%ADD11R,2.100000X2.100000*%
%TD*%
%TA.AperFunction,ComponentPad*%
%ADD12R,2.200000X2.200000*%
%TD*%
%TA.AperFunction,ComponentPad*%
%ADD13C,2.200000*%
%TD*%
%TA.AperFunction,ComponentPad*%
%ADD14R,1.500000X1.500000*%
%TD*%
%TA.AperFunction,ComponentPad*%
%ADD15C,1.500000*%
%TD*%
%TA.AperFunction,ComponentPad*%
%ADD16R,2.500000X2.500000*%
%TD*%
%TA.AperFunction,ComponentPad*%
%ADD17C,2.500000*%
%TD*%
%TA.AperFunction,ComponentPad*%
%ADD18R,5.500000X5.500000*%
%TD*%
%TA.AperFunction,ComponentPad*%
%ADD19C,5.500000*%
%TD*%
%TA.AperFunction,ViaPad*%
%ADD20C,0.800000*%
%TD*%
%TA.AperFunction,Conductor*%
%ADD21C,0.400000*%
%TD*%
G04 APERTURE END LIST*
D10*
%TO.P,U1,G4*%
%TO.N,GND*%
X69880000Y-58930000D03*
%TO.P,U1,G2*%
X62260000Y-58930000D03*
%TO.P,U1,S6*%
%TO.N,PWM6*%
X74960000Y-53850000D03*
%TO.P,U1,G3*%
%TO.N,GND*%
X64800000Y-58930000D03*
%TO.P,U1,G5*%
X72420000Y-58930000D03*
%TO.P,U1,G7*%
X77500000Y-58930000D03*
%TO.P,U1,S2*%
%TO.N,PWM2*%
X62260000Y-53850000D03*
%TO.P,U1,G1*%
%TO.N,GND*%
X59720000Y-58930000D03*
%TO.P,U1,G6*%
X74960000Y-58930000D03*
%TO.P,U1,S1*%
%TO.N,PWM1*%
X59720000Y-53850000D03*
%TO.P,U1,S3*%
%TO.N,PWM3*%
X64800000Y-53850000D03*
%TO.P,U1,G0*%
%TO.N,GND*%
X57180000Y-58930000D03*
%TO.P,U1,S0*%
%TO.N,PWM0*%
X57180000Y-53850000D03*
%TO.P,U1,S4*%
%TO.N,PWM4*%
X69880000Y-53850000D03*
%TO.P,U1,S5*%
%TO.N,PWM5*%
X72420000Y-53850000D03*
%TO.P,U1,S7*%
%TO.N,PWM7*%
X77500000Y-53850000D03*
%TO.P,U1,V0*%
%TO.N,+5V_SERVO*%
X57180000Y-56390000D03*
%TO.P,U1,V2*%
X62260000Y-56390000D03*
%TO.P,U1,V1*%
X59720000Y-56390000D03*
%TO.P,U1,V3*%
X64800000Y-56390000D03*
%TO.P,U1,V4*%
X69880000Y-56390000D03*
%TO.P,U1,V5*%
X72420000Y-56390000D03*
%TO.P,U1,V6*%
X74960000Y-56390000D03*
%TO.P,U1,V7*%
X77500000Y-56390000D03*
%TO.P,U1,G8*%
%TO.N,GND*%
X85000000Y-58930000D03*
%TO.P,U1,G9*%
X87540000Y-58930000D03*
%TO.P,U1,G10*%
X90080000Y-58930000D03*
%TO.P,U1,G11*%
X92620000Y-58930000D03*
%TO.P,U1,G12*%
X97700000Y-58930000D03*
%TO.P,U1,G13*%
X100240000Y-58930000D03*
%TO.P,U1,G14*%
X102780000Y-58930000D03*
%TO.P,U1,G15*%
X105320000Y-58930000D03*
D11*
%TO.P,U1,L1*%
X51500000Y-41150000D03*
D10*
%TO.P,U1,L2*%
%TO.N,PCA_OE_N*%
X51500000Y-43690000D03*
%TO.P,U1,L3*%
%TO.N,I2C_SCL*%
X51500000Y-46230000D03*
%TO.P,U1,L4*%
%TO.N,I2C_SDA*%
X51500000Y-48770000D03*
%TO.P,U1,L5*%
%TO.N,+3V3_LOGIC*%
X51500000Y-51310000D03*
%TO.P,U1,L6*%
%TO.N,+5V_SERVO*%
X51500000Y-53850000D03*
%TO.P,U1,R1*%
%TO.N,GND*%
X109500000Y-41150000D03*
%TO.P,U1,R2*%
%TO.N,PCA_OE_N*%
X109500000Y-43690000D03*
%TO.P,U1,R3*%
%TO.N,I2C_SCL*%
X109500000Y-46230000D03*
%TO.P,U1,R4*%
%TO.N,I2C_SDA*%
X109500000Y-48770000D03*
%TO.P,U1,R5*%
%TO.N,+3V3_LOGIC*%
X109500000Y-51310000D03*
%TO.P,U1,R6*%
%TO.N,+5V_SERVO*%
X109500000Y-53850000D03*
%TO.P,U1,S8*%
%TO.N,PWM8*%
X85000000Y-53850000D03*
%TO.P,U1,S9*%
%TO.N,PWM9*%
X87540000Y-53850000D03*
%TO.P,U1,S10*%
%TO.N,PWM10*%
X90080000Y-53850000D03*
%TO.P,U1,S11*%
%TO.N,PWM11*%
X92620000Y-53850000D03*
%TO.P,U1,S12*%
%TO.N,PWM12*%
X97700000Y-53850000D03*
%TO.P,U1,S13*%
%TO.N,PWM13*%
X100240000Y-53850000D03*
%TO.P,U1,S14*%
%TO.N,PWM14*%
X102780000Y-53850000D03*
%TO.P,U1,S15*%
%TO.N,PWM15*%
X105320000Y-53850000D03*
%TO.P,U1,V8*%
%TO.N,+5V_SERVO*%
X85000000Y-56390000D03*
%TO.P,U1,V9*%
X87540000Y-56390000D03*
%TO.P,U1,V10*%
X90080000Y-56390000D03*
%TO.P,U1,V11*%
X92620000Y-56390000D03*
%TO.P,U1,V12*%
X97700000Y-56390000D03*
%TO.P,U1,V13*%
X100240000Y-56390000D03*
%TO.P,U1,V14*%
X102780000Y-56390000D03*
%TO.P,U1,V15*%
X105320000Y-56390000D03*
%TD*%
D12*
%TO.P,JP7,1*%
%TO.N,LED_OUT7*%
X198960000Y-80500000D03*
D13*
%TO.P,JP7,2*%
%TO.N,LED_IN8*%
X201500000Y-80500000D03*
%TO.P,JP7,3*%
%TO.N,LED_IN7*%
X204040000Y-80500000D03*
%TD*%
D12*
%TO.P,C6,1*%
%TO.N,+5V_SERVO*%
X57460000Y-99000000D03*
D13*
%TO.P,C6,2*%
%TO.N,GND*%
X60000000Y-99000000D03*
%TD*%
D12*
%TO.P,C9,1*%
%TO.N,+5V_SERVO*%
X134460000Y-99500000D03*
D13*
%TO.P,C9,2*%
%TO.N,GND*%
X137000000Y-99500000D03*
%TD*%
D12*
%TO.P,JP4,1*%
%TO.N,LED_OUT4*%
X120960000Y-80500000D03*
D13*
%TO.P,JP4,2*%
%TO.N,LED_IN5*%
X123500000Y-80500000D03*
%TO.P,JP4,3*%
%TO.N,LED_IN4*%
X126040000Y-80500000D03*
%TD*%
D12*
%TO.P,C11,1*%
%TO.N,+5V_SERVO*%
X186960000Y-99000000D03*
D13*
%TO.P,C11,2*%
%TO.N,GND*%
X189500000Y-99000000D03*
%TD*%
D12*
%TO.P,C5,1*%
%TO.N,+5V_SERVO*%
X32000000Y-99500000D03*
D13*
%TO.P,C5,2*%
%TO.N,GND*%
X34540000Y-99500000D03*
%TD*%
D14*
%TO.P,J3,1*%
%TO.N,+5V_SERVO*%
X58270000Y-108650000D03*
D15*
%TO.P,J3,2*%
X59540000Y-106110000D03*
%TO.P,J3,3*%
%TO.N,GND*%
X60810000Y-108650000D03*
%TO.P,J3,4*%
X62080000Y-106110000D03*
%TO.P,J3,5*%
%TO.N,PWM2*%
X63350000Y-108650000D03*
%TO.P,J3,6*%
%TO.N,PWM3*%
X64620000Y-106110000D03*
%TO.P,J3,7*%
%TO.N,LED_IN2*%
X65890000Y-108650000D03*
%TO.P,J3,8*%
%TO.N,LED_OUT2*%
X67160000Y-106110000D03*
%TD*%
D12*
%TO.P,JP5,1*%
%TO.N,LED_OUT5*%
X146960000Y-80500000D03*
D13*
%TO.P,JP5,2*%
%TO.N,LED_IN6*%
X149500000Y-80500000D03*
%TO.P,JP5,3*%
%TO.N,LED_IN5*%
X152040000Y-80500000D03*
%TD*%
D12*
%TO.P,C13,1*%
%TO.N,+5V_SERVO*%
X149230000Y-36500000D03*
D13*
%TO.P,C13,2*%
%TO.N,GND*%
X151770000Y-36500000D03*
%TD*%
D16*
%TO.P,C1,1*%
%TO.N,+5V_SERVO*%
X32500000Y-67500000D03*
D17*
%TO.P,C1,2*%
%TO.N,GND*%
X37500000Y-67500000D03*
%TD*%
D14*
%TO.P,J7,1*%
%TO.N,+5V_SERVO*%
X162270000Y-108650000D03*
D15*
%TO.P,J7,2*%
X163540000Y-106110000D03*
%TO.P,J7,3*%
%TO.N,GND*%
X164810000Y-108650000D03*
%TO.P,J7,4*%
X166080000Y-106110000D03*
%TO.P,J7,5*%
%TO.N,PWM10*%
X167350000Y-108650000D03*
%TO.P,J7,6*%
%TO.N,PWM11*%
X168620000Y-106110000D03*
%TO.P,J7,7*%
%TO.N,LED_IN6*%
X169890000Y-108650000D03*
%TO.P,J7,8*%
%TO.N,LED_OUT6*%
X171160000Y-106110000D03*
%TD*%
D18*
%TO.P,J11,1*%
%TO.N,+5V_SERVO*%
X210690000Y-32500000D03*
D19*
%TO.P,J11,2*%
%TO.N,GND*%
X218310000Y-32500000D03*
%TD*%
D12*
%TO.P,C8,1*%
%TO.N,+5V_SERVO*%
X109500000Y-98500000D03*
D13*
%TO.P,C8,2*%
%TO.N,GND*%
X112040000Y-98500000D03*
%TD*%
D14*
%TO.P,J4,1*%
%TO.N,+5V_SERVO*%
X84270000Y-108650000D03*
D15*
%TO.P,J4,2*%
X85540000Y-106110000D03*
%TO.P,J4,3*%
%TO.N,GND*%
X86810000Y-108650000D03*
%TO.P,J4,4*%
X88080000Y-106110000D03*
%TO.P,J4,5*%
%TO.N,PWM4*%
X89350000Y-108650000D03*
%TO.P,J4,6*%
%TO.N,PWM5*%
X90620000Y-106110000D03*
%TO.P,J4,7*%
%TO.N,LED_IN3*%
X91890000Y-108650000D03*
%TO.P,J4,8*%
%TO.N,LED_OUT3*%
X93160000Y-106110000D03*
%TD*%
D12*
%TO.P,JP3,1*%
%TO.N,LED_OUT3*%
X94960000Y-80500000D03*
D13*
%TO.P,JP3,2*%
%TO.N,LED_IN4*%
X97500000Y-80500000D03*
%TO.P,JP3,3*%
%TO.N,LED_IN3*%
X100040000Y-80500000D03*
%TD*%
D16*
%TO.P,C2,1*%
%TO.N,+5V_SERVO*%
X87000000Y-67500000D03*
D17*
%TO.P,C2,2*%
%TO.N,GND*%
X92000000Y-67500000D03*
%TD*%
D14*
%TO.P,J8,1*%
%TO.N,+5V_SERVO*%
X186340000Y-108650000D03*
D15*
%TO.P,J8,2*%
X187610000Y-106110000D03*
%TO.P,J8,3*%
%TO.N,GND*%
X188880000Y-108650000D03*
%TO.P,J8,4*%
X190150000Y-106110000D03*
%TO.P,J8,5*%
%TO.N,PWM12*%
X191420000Y-108650000D03*
%TO.P,J8,6*%
%TO.N,PWM13*%
X192690000Y-106110000D03*
%TO.P,J8,7*%
%TO.N,LED_IN7*%
X193960000Y-108650000D03*
%TO.P,J8,8*%
%TO.N,LED_OUT7*%
X195230000Y-106110000D03*
%TD*%
D12*
%TO.P,J1,1*%
%TO.N,GND*%
X31750000Y-32500000D03*
D13*
%TO.P,J1,2*%
X34250000Y-32500000D03*
%TO.P,J1,3*%
%TO.N,+3V3_LOGIC*%
X36750000Y-32500000D03*
%TO.P,J1,4*%
%TO.N,I2C_SDA*%
X39250000Y-32500000D03*
%TO.P,J1,5*%
%TO.N,I2C_SCL*%
X41750000Y-32500000D03*
%TO.P,J1,6*%
%TO.N,LED_DATA_3V3*%
X44250000Y-32500000D03*
%TO.P,J1,7*%
%TO.N,PCA_OE_N*%
X46750000Y-32500000D03*
%TO.P,J1,8*%
%TO.N,SPARE*%
X49250000Y-32500000D03*
%TD*%
D12*
%TO.P,C14,1*%
%TO.N,+5V_SERVO*%
X156230000Y-44500000D03*
D13*
%TO.P,C14,2*%
%TO.N,GND*%
X158770000Y-44500000D03*
%TD*%
D12*
%TO.P,C12,1*%
%TO.N,+5V_SERVO*%
X215000000Y-100000000D03*
D13*
%TO.P,C12,2*%
%TO.N,GND*%
X217540000Y-100000000D03*
%TD*%
D16*
%TO.P,C3,1*%
%TO.N,+5V_SERVO*%
X147000000Y-65500000D03*
D17*
%TO.P,C3,2*%
%TO.N,GND*%
X152000000Y-65500000D03*
%TD*%
D14*
%TO.P,J5,1*%
%TO.N,+5V_SERVO*%
X110270000Y-108650000D03*
D15*
%TO.P,J5,2*%
X111540000Y-106110000D03*
%TO.P,J5,3*%
%TO.N,GND*%
X112810000Y-108650000D03*
%TO.P,J5,4*%
X114080000Y-106110000D03*
%TO.P,J5,5*%
%TO.N,PWM6*%
X115350000Y-108650000D03*
%TO.P,J5,6*%
%TO.N,PWM7*%
X116620000Y-106110000D03*
%TO.P,J5,7*%
%TO.N,LED_IN4*%
X117890000Y-108650000D03*
%TO.P,J5,8*%
%TO.N,LED_OUT4*%
X119160000Y-106110000D03*
%TD*%
D12*
%TO.P,C10,1*%
%TO.N,+5V_SERVO*%
X163960000Y-99500000D03*
D13*
%TO.P,C10,2*%
%TO.N,GND*%
X166500000Y-99500000D03*
%TD*%
D16*
%TO.P,C4,1*%
%TO.N,+5V_SERVO*%
X199000000Y-65500000D03*
D17*
%TO.P,C4,2*%
%TO.N,GND*%
X204000000Y-65500000D03*
%TD*%
D14*
%TO.P,J6,1*%
%TO.N,+5V_SERVO*%
X136270000Y-108650000D03*
D15*
%TO.P,J6,2*%
X137540000Y-106110000D03*
%TO.P,J6,3*%
%TO.N,GND*%
X138810000Y-108650000D03*
%TO.P,J6,4*%
X140080000Y-106110000D03*
%TO.P,J6,5*%
%TO.N,PWM8*%
X141350000Y-108650000D03*
%TO.P,J6,6*%
%TO.N,PWM9*%
X142620000Y-106110000D03*
%TO.P,J6,7*%
%TO.N,LED_IN5*%
X143890000Y-108650000D03*
%TO.P,J6,8*%
%TO.N,LED_OUT5*%
X145160000Y-106110000D03*
%TD*%
D12*
%TO.P,C7,1*%
%TO.N,+5V_SERVO*%
X83960000Y-99000000D03*
D13*
%TO.P,C7,2*%
%TO.N,GND*%
X86500000Y-99000000D03*
%TD*%
D18*
%TO.P,J10,1*%
%TO.N,+5V_SERVO*%
X183690000Y-32500000D03*
D19*
%TO.P,J10,2*%
%TO.N,GND*%
X191310000Y-32500000D03*
%TD*%
D12*
%TO.P,JP2,1*%
%TO.N,LED_OUT2*%
X68960000Y-80500000D03*
D13*
%TO.P,JP2,2*%
%TO.N,LED_IN3*%
X71500000Y-80500000D03*
%TO.P,JP2,3*%
%TO.N,LED_IN2*%
X74040000Y-80500000D03*
%TD*%
D14*
%TO.P,J9,1*%
%TO.N,+5V_SERVO*%
X208770000Y-108650000D03*
D15*
%TO.P,J9,2*%
X210040000Y-106110000D03*
%TO.P,J9,3*%
%TO.N,GND*%
X211310000Y-108650000D03*
%TO.P,J9,4*%
X212580000Y-106110000D03*
%TO.P,J9,5*%
%TO.N,PWM14*%
X213850000Y-108650000D03*
%TO.P,J9,6*%
%TO.N,PWM15*%
X215120000Y-106110000D03*
%TO.P,J9,7*%
%TO.N,LED_IN8*%
X216390000Y-108650000D03*
%TO.P,J9,8*%
%TO.N,LED_OUT8*%
X217660000Y-106110000D03*
%TD*%
D12*
%TO.P,JP6,1*%
%TO.N,LED_OUT6*%
X172960000Y-80500000D03*
D13*
%TO.P,JP6,2*%
%TO.N,LED_IN7*%
X175500000Y-80500000D03*
%TO.P,JP6,3*%
%TO.N,LED_IN6*%
X178040000Y-80500000D03*
%TD*%
D14*
%TO.P,J2,1*%
%TO.N,+5V_SERVO*%
X32230000Y-108540000D03*
D15*
%TO.P,J2,2*%
X33500000Y-106000000D03*
%TO.P,J2,3*%
%TO.N,GND*%
X34770000Y-108540000D03*
%TO.P,J2,4*%
X36040000Y-106000000D03*
%TO.P,J2,5*%
%TO.N,PWM0*%
X37310000Y-108540000D03*
%TO.P,J2,6*%
%TO.N,PWM1*%
X38580000Y-106000000D03*
%TO.P,J2,7*%
%TO.N,LED_IN1*%
X39850000Y-108540000D03*
%TO.P,J2,8*%
%TO.N,LED_OUT1*%
X41120000Y-106000000D03*
%TD*%
D12*
%TO.P,JP1,1*%
%TO.N,LED_OUT1*%
X42960000Y-80500000D03*
D13*
%TO.P,JP1,2*%
%TO.N,LED_IN2*%
X45500000Y-80500000D03*
%TO.P,JP1,3*%
%TO.N,LED_IN1*%
X48040000Y-80500000D03*
%TD*%
D20*
%TO.N,PWM14*%
X105969669Y-52030331D03*
%TO.N,LED_IN7*%
X197500000Y-87000000D03*
%TO.N,LED_OUT4*%
X127000000Y-86500000D03*
%TO.N,LED_IN5*%
X131000000Y-85500000D03*
%TO.N,PWM2*%
X63600000Y-85000000D03*
%TO.N,PWM3*%
X64500000Y-102000000D03*
%TO.N,LED_IN2*%
X62000000Y-85500000D03*
%TO.N,LED_OUT5*%
X152600000Y-86100000D03*
%TO.N,PWM11*%
X158000000Y-103500000D03*
%TO.N,LED_OUT6*%
X179500000Y-87000000D03*
%TO.N,PWM5*%
X81000000Y-72500000D03*
%TO.N,PWM12*%
X194500000Y-76500000D03*
%TO.N,PWM13*%
X109500000Y-56500000D03*
X176330759Y-87430759D03*
X180950000Y-92050000D03*
%TO.N,PWM7*%
X80000000Y-69100000D03*
%TO.N,PWM8*%
X96100000Y-62500000D03*
%TO.N,PWM14*%
X195500000Y-96500000D03*
X151769238Y-102850000D03*
X172000000Y-99077301D03*
X146000000Y-97000000D03*
X183000000Y-94000000D03*
%TO.N,PWM15*%
X188500000Y-73500000D03*
%TO.N,PWM9*%
X95500000Y-52000000D03*
%TD*%
%TO.N,PWM15*%
D21*
X134500000Y-56500000D02*
X171500000Y-56500000D01*
X112500000Y-34500000D02*
X134500000Y-56500000D01*
X171500000Y-56500000D02*
X188500000Y-73500000D01*
X105000000Y-36500000D02*
X107000000Y-34500000D01*
X105000000Y-53530000D02*
X105000000Y-36500000D01*
X107000000Y-34500000D02*
X112500000Y-34500000D01*
X105320000Y-53850000D02*
X105000000Y-53530000D01*
%TO.N,PWM14*%
X144000000Y-97000000D02*
X146000000Y-97000000D01*
X132500000Y-85500000D02*
X144000000Y-97000000D01*
X132500000Y-72000000D02*
X132500000Y-85500000D01*
X124500000Y-64000000D02*
X132500000Y-72000000D01*
X110500000Y-64000000D02*
X124500000Y-64000000D01*
X107000000Y-60500000D02*
X110500000Y-64000000D01*
X106000000Y-52000000D02*
X107000000Y-53000000D01*
X105969669Y-52030331D02*
X106000000Y-52000000D01*
X107000000Y-53000000D02*
X107000000Y-60500000D01*
%TO.N,PWM13*%
X112000000Y-59000000D02*
X109500000Y-56500000D01*
X152500000Y-59000000D02*
X112000000Y-59000000D01*
X165450000Y-71950000D02*
X152500000Y-59000000D01*
X165450000Y-76550000D02*
X165450000Y-71950000D01*
X176330759Y-87430759D02*
X165450000Y-76550000D01*
%TO.N,PWM9*%
X91390000Y-50000000D02*
X87540000Y-53850000D01*
X95500000Y-52000000D02*
X93499999Y-50000000D01*
X93499999Y-50000000D02*
X91390000Y-50000000D01*
%TO.N,PWM8*%
X82000000Y-61000000D02*
X82000000Y-56850000D01*
X83500000Y-62500000D02*
X82000000Y-61000000D01*
X82000000Y-56850000D02*
X85000000Y-53850000D01*
X96100000Y-62500000D02*
X83500000Y-62500000D01*
%TO.N,PWM12*%
X97700000Y-39300000D02*
X97700000Y-53850000D01*
X105000000Y-32000000D02*
X97700000Y-39300000D01*
X171000000Y-53000000D02*
X140500000Y-53000000D01*
X140500000Y-53000000D02*
X119500000Y-32000000D01*
X194500000Y-76500000D02*
X171000000Y-53000000D01*
X119500000Y-32000000D02*
X105000000Y-32000000D01*
%TO.N,PWM0*%
X55500000Y-55530000D02*
X57180000Y-53850000D01*
X55500000Y-56000000D02*
X55500000Y-55530000D01*
X53500000Y-81250000D02*
X55500000Y-79250000D01*
X53500000Y-100500000D02*
X53500000Y-81250000D01*
X42500000Y-111500000D02*
X53500000Y-100500000D01*
X40000000Y-111500000D02*
X42500000Y-111500000D01*
X37310000Y-108810000D02*
X40000000Y-111500000D01*
X55500000Y-79250000D02*
X55500000Y-56000000D01*
X37310000Y-108540000D02*
X37310000Y-108810000D01*
%TO.N,PWM2*%
X64110000Y-52000000D02*
X62260000Y-53850000D01*
X67000000Y-53000000D02*
X66000000Y-52000000D01*
X67000000Y-81450000D02*
X67000000Y-53000000D01*
X63600000Y-85000000D02*
X63600000Y-84850000D01*
X63600000Y-84850000D02*
X67000000Y-81450000D01*
X66000000Y-52000000D02*
X64110000Y-52000000D01*
%TO.N,PWM1*%
X59700000Y-53300000D02*
X59700000Y-53900000D01*
X58400000Y-52000000D02*
X59700000Y-53300000D01*
X56500000Y-52000000D02*
X58400000Y-52000000D01*
X54500000Y-54000000D02*
X56500000Y-52000000D01*
X41500000Y-78000000D02*
X51963604Y-78000000D01*
X38460000Y-81040000D02*
X41500000Y-78000000D01*
X38460000Y-105880000D02*
X38460000Y-81040000D01*
X51963604Y-78000000D02*
X54500000Y-75463604D01*
X38580000Y-106000000D02*
X38460000Y-105880000D01*
X54500000Y-75463604D02*
X54500000Y-54000000D01*
%TO.N,LED_OUT7*%
X197290000Y-106110000D02*
X199000000Y-104400000D01*
X195230000Y-106110000D02*
X197290000Y-106110000D01*
X199000000Y-104400000D02*
X199000000Y-80500000D01*
%TO.N,LED_IN8*%
X221000000Y-106500000D02*
X221000000Y-82000000D01*
X221000000Y-82000000D02*
X216500000Y-77500000D01*
X216500000Y-77500000D02*
X204000000Y-77500000D01*
X218850000Y-108650000D02*
X221000000Y-106500000D01*
X216390000Y-108650000D02*
X218850000Y-108650000D01*
X201500000Y-80000000D02*
X201500000Y-80500000D01*
X204000000Y-77500000D02*
X201500000Y-80000000D01*
%TO.N,LED_IN7*%
X193960000Y-105640000D02*
X193960000Y-108650000D01*
X192800000Y-80500000D02*
X181500000Y-80500000D01*
X181500000Y-80500000D02*
X179500000Y-78500000D01*
X197500000Y-85200000D02*
X192800000Y-80500000D01*
X177500000Y-78500000D02*
X175500000Y-80500000D01*
X197500000Y-87000000D02*
X197500000Y-102100000D01*
X197500000Y-87000000D02*
X197500000Y-85200000D01*
X179500000Y-78500000D02*
X177500000Y-78500000D01*
X197500000Y-102100000D02*
X193960000Y-105640000D01*
%TO.N,LED_OUT4*%
X127000000Y-98400000D02*
X119400000Y-106000000D01*
X127000000Y-86500000D02*
X127000000Y-98400000D01*
%TO.N,LED_IN5*%
X145399145Y-100100000D02*
X147500000Y-100100000D01*
X131000000Y-85500000D02*
X131000000Y-85700855D01*
X151500000Y-96100000D02*
X151500000Y-81000000D01*
X131000000Y-85700855D02*
X145399145Y-100100000D01*
X151500000Y-81000000D02*
X152000000Y-80500000D01*
X143890000Y-108650000D02*
X143890000Y-103710000D01*
X143890000Y-103710000D02*
X151500000Y-96100000D01*
%TO.N,LED_IN4*%
X99000000Y-82500000D02*
X97500000Y-81000000D01*
X125600000Y-80500000D02*
X125600000Y-80060000D01*
X119000000Y-77000000D02*
X117000000Y-79000000D01*
X97500000Y-81000000D02*
X97500000Y-80500000D01*
X117890000Y-105610000D02*
X126000000Y-97500000D01*
X122540000Y-77000000D02*
X119000000Y-77000000D01*
X101500000Y-82500000D02*
X99000000Y-82500000D01*
X125600000Y-80060000D02*
X122540000Y-77000000D01*
X117890000Y-108650000D02*
X117890000Y-105610000D01*
X105000000Y-79000000D02*
X101500000Y-82500000D01*
X126000000Y-97500000D02*
X126000000Y-80500000D01*
X117000000Y-79000000D02*
X105000000Y-79000000D01*
%TO.N,PWM3*%
X64500000Y-105990000D02*
X64620000Y-106110000D01*
X64500000Y-102000000D02*
X64500000Y-105990000D01*
%TO.N,LED_IN2*%
X62000000Y-85500000D02*
X67000000Y-90500000D01*
X67000000Y-90500000D02*
X67000000Y-87500000D01*
X67000000Y-104000000D02*
X67000000Y-90500000D01*
X67000000Y-87500000D02*
X74000000Y-80500000D01*
X65890000Y-105110000D02*
X67000000Y-104000000D01*
X65890000Y-108650000D02*
X65890000Y-105110000D01*
%TO.N,LED_OUT5*%
X152550000Y-98950000D02*
X152550000Y-86150000D01*
X145500000Y-106000000D02*
X152550000Y-98950000D01*
X145400000Y-106000000D02*
X145500000Y-106000000D01*
X152550000Y-86150000D02*
X152600000Y-86100000D01*
%TO.N,LED_IN6*%
X178000000Y-90500000D02*
X177955025Y-90500000D01*
X153500000Y-76000000D02*
X149900000Y-79600000D01*
X178000000Y-95600000D02*
X178000000Y-80500000D01*
X169890000Y-103710000D02*
X178000000Y-95600000D01*
X163455025Y-76000000D02*
X153500000Y-76000000D01*
X149900000Y-79600000D02*
X149900000Y-80500000D01*
X169890000Y-108650000D02*
X169890000Y-103710000D01*
X177955025Y-90500000D02*
X163455025Y-76000000D01*
%TO.N,PWM11*%
X166010000Y-103500000D02*
X158000000Y-103500000D01*
X168620000Y-106110000D02*
X166010000Y-103500000D01*
%TO.N,LED_OUT6*%
X179500000Y-95500000D02*
X173000000Y-102000000D01*
X179500000Y-87000000D02*
X179500000Y-95500000D01*
X173000000Y-104400000D02*
X171400000Y-106000000D01*
X173000000Y-102000000D02*
X173000000Y-104400000D01*
%TO.N,PWM5*%
X74500000Y-52000000D02*
X73300000Y-53200000D01*
X81000000Y-54490405D02*
X78509595Y-52000000D01*
X81000000Y-72500000D02*
X81000000Y-54490405D01*
X73300000Y-53200000D02*
X73300000Y-53900000D01*
X78509595Y-52000000D02*
X74500000Y-52000000D01*
%TO.N,LED_IN3*%
X91890000Y-108650000D02*
X92000000Y-108540000D01*
X92000000Y-105572943D02*
X92000000Y-79000000D01*
X91600000Y-78500000D02*
X73800000Y-78500000D01*
X98000000Y-78500000D02*
X100000000Y-80500000D01*
X91960000Y-105612943D02*
X92000000Y-105572943D01*
X92000000Y-108540000D02*
X92000000Y-106647057D01*
X91960000Y-106607057D02*
X91960000Y-105612943D01*
X92000000Y-78900000D02*
X91600000Y-78500000D01*
X73800000Y-78500000D02*
X71800000Y-80500000D01*
X92000000Y-106647057D02*
X91960000Y-106607057D01*
X92500000Y-78500000D02*
X98000000Y-78500000D01*
X92000000Y-79000000D02*
X92000000Y-78900000D01*
X92000000Y-79000000D02*
X92500000Y-78500000D01*
%TO.N,LED_OUT3*%
X95000000Y-104400000D02*
X95000000Y-80500000D01*
X93400000Y-106000000D02*
X95000000Y-104400000D01*
%TO.N,PWM13*%
X191510000Y-103000000D02*
X192690000Y-104180000D01*
X180950000Y-92050000D02*
X181000000Y-92100000D01*
X192690000Y-104180000D02*
X192690000Y-106110000D01*
X184000000Y-103000000D02*
X191510000Y-103000000D01*
X181000000Y-92100000D02*
X181000000Y-100000000D01*
X181000000Y-100000000D02*
X184000000Y-103000000D01*
%TO.N,+3V3_LOGIC*%
X108700000Y-50500000D02*
X109500000Y-51300000D01*
X36700000Y-32500000D02*
X36700000Y-36500000D01*
X36700000Y-36500000D02*
X50700000Y-50500000D01*
%TO.N,I2C_SDA*%
X39300000Y-36600000D02*
X39300000Y-32500000D01*
X51500000Y-48800000D02*
X39300000Y-36600000D01*
%TO.N,I2C_SCL*%
X51500000Y-46200000D02*
X41700000Y-36400000D01*
X41700000Y-36400000D02*
X41700000Y-32500000D01*
%TO.N,PCA_OE_N*%
X51240000Y-43690000D02*
X51500000Y-43690000D01*
X46750000Y-32500000D02*
X46750000Y-39200000D01*
X46750000Y-39200000D02*
X51240000Y-43690000D01*
%TO.N,PWM7*%
X80000000Y-55900000D02*
X78000000Y-53900000D01*
X80000000Y-69100000D02*
X80000000Y-55900000D01*
%TO.N,PWM1*%
X38460000Y-106120000D02*
X38580000Y-106000000D01*
%TO.N,PWM14*%
X172000000Y-99077301D02*
X167922699Y-95000000D01*
X159619238Y-95000000D02*
X151769238Y-102850000D01*
X167922699Y-95000000D02*
X159619238Y-95000000D01*
X195500000Y-96500000D02*
X193000000Y-94000000D01*
X193000000Y-94000000D02*
X183000000Y-94000000D01*
%TO.N,LED_IN1*%
X48000000Y-80540000D02*
X48000000Y-103500000D01*
X48040000Y-80500000D02*
X48000000Y-80540000D01*
X42960000Y-108540000D02*
X39850000Y-108540000D01*
X48000000Y-103500000D02*
X42960000Y-108540000D01*
%TO.N,LED_OUT1*%
X43000000Y-104000000D02*
X43000000Y-80500000D01*
X41120000Y-105880000D02*
X43000000Y-104000000D01*
X41120000Y-106000000D02*
X41120000Y-105880000D01*
%TD*%
M02*
