%TF.GenerationSoftware,KiCad,Pcbnew,10.0.4*%
%TF.CreationDate,2026-08-16T11:32:17-05:00*%
%TF.ProjectId,Cluster_Servo_Board,436c7573-7465-4725-9f53-6572766f5f42,rev?*%
%TF.SameCoordinates,Original*%
%TF.FileFunction,Copper,L4,Bot*%
%TF.FilePolarity,Positive*%
%FSLAX46Y46*%
G04 Gerber Fmt 4.6, Leading zero omitted, Abs format (unit mm)*
G04 Created by KiCad (PCBNEW 10.0.4) date 2026-08-16 11:32:17*
%MOMM*%
%LPD*%
G01*
G04 APERTURE LIST*
%TA.AperFunction,ComponentPad*%
%ADD10C,2.100000*%
%TD*%
%TA.AperFunction,ComponentPad*%
%ADD11R,2.100000X2.100000*%
%TD*%
%TA.AperFunction,ComponentPad*%
%ADD12R,2.200000X2.200000*%
%TD*%
%TA.AperFunction,ComponentPad*%
%ADD13C,2.200000*%
%TD*%
%TA.AperFunction,ComponentPad*%
%ADD14R,1.500000X1.500000*%
%TD*%
%TA.AperFunction,ComponentPad*%
%ADD15C,1.500000*%
%TD*%
%TA.AperFunction,ComponentPad*%
%ADD16R,2.500000X2.500000*%
%TD*%
%TA.AperFunction,ComponentPad*%
%ADD17C,2.500000*%
%TD*%
%TA.AperFunction,ComponentPad*%
%ADD18R,5.500000X5.500000*%
%TD*%
%TA.AperFunction,ComponentPad*%
%ADD19C,5.500000*%
%TD*%
%TA.AperFunction,ViaPad*%
%ADD20C,0.800000*%
%TD*%
%TA.AperFunction,Conductor*%
%ADD21C,0.400000*%
%TD*%
G04 APERTURE END LIST*
D10*
%TO.P,U1,G4*%
%TO.N,GND*%
X69880000Y-58930000D03*
%TO.P,U1,G2*%
X62260000Y-58930000D03*
%TO.P,U1,S6*%
%TO.N,PWM6*%
X74960000Y-53850000D03*
%TO.P,U1,G3*%
%TO.N,GND*%
X64800000Y-58930000D03*
%TO.P,U1,G5*%
X72420000Y-58930000D03*
%TO.P,U1,G7*%
X77500000Y-58930000D03*
%TO.P,U1,S2*%
%TO.N,PWM2*%
X62260000Y-53850000D03*
%TO.P,U1,G1*%
%TO.N,GND*%
X59720000Y-58930000D03*
%TO.P,U1,G6*%
X74960000Y-58930000D03*
%TO.P,U1,S1*%
%TO.N,PWM1*%
X59720000Y-53850000D03*
%TO.P,U1,S3*%
%TO.N,PWM3*%
X64800000Y-53850000D03*
%TO.P,U1,G0*%
%TO.N,GND*%
X57180000Y-58930000D03*
%TO.P,U1,S0*%
%TO.N,PWM0*%
X57180000Y-53850000D03*
%TO.P,U1,S4*%
%TO.N,PWM4*%
X69880000Y-53850000D03*
%TO.P,U1,S5*%
%TO.N,PWM5*%
X72420000Y-53850000D03*
%TO.P,U1,S7*%
%TO.N,PWM7*%
X77500000Y-53850000D03*
%TO.P,U1,V0*%
%TO.N,+5V_SERVO*%
X57180000Y-56390000D03*
%TO.P,U1,V2*%
X62260000Y-56390000D03*
%TO.P,U1,V1*%
X59720000Y-56390000D03*
%TO.P,U1,V3*%
X64800000Y-56390000D03*
%TO.P,U1,V4*%
X69880000Y-56390000D03*
%TO.P,U1,V5*%
X72420000Y-56390000D03*
%TO.P,U1,V6*%
X74960000Y-56390000D03*
%TO.P,U1,V7*%
X77500000Y-56390000D03*
%TO.P,U1,G8*%
%TO.N,GND*%
X85000000Y-58930000D03*
%TO.P,U1,G9*%
X87540000Y-58930000D03*
%TO.P,U1,G10*%
X90080000Y-58930000D03*
%TO.P,U1,G11*%
X92620000Y-58930000D03*
%TO.P,U1,G12*%
X97700000Y-58930000D03*
%TO.P,U1,G13*%
X100240000Y-58930000D03*
%TO.P,U1,G14*%
X102780000Y-58930000D03*
%TO.P,U1,G15*%
X105320000Y-58930000D03*
D11*
%TO.P,U1,L1*%
X51500000Y-41150000D03*
D10*
%TO.P,U1,L2*%
%TO.N,PCA_OE_N*%
X51500000Y-43690000D03*
%TO.P,U1,L3*%
%TO.N,I2C_SCL*%
X51500000Y-46230000D03*
%TO.P,U1,L4*%
%TO.N,I2C_SDA*%
X51500000Y-48770000D03*
%TO.P,U1,L5*%
%TO.N,+3V3_LOGIC*%
X51500000Y-51310000D03*
%TO.P,U1,L6*%
%TO.N,+5V_SERVO*%
X51500000Y-53850000D03*
%TO.P,U1,R1*%
%TO.N,GND*%
X109500000Y-41150000D03*
%TO.P,U1,R2*%
%TO.N,PCA_OE_N*%
X109500000Y-43690000D03*
%TO.P,U1,R3*%
%TO.N,I2C_SCL*%
X109500000Y-46230000D03*
%TO.P,U1,R4*%
%TO.N,I2C_SDA*%
X109500000Y-48770000D03*
%TO.P,U1,R5*%
%TO.N,+3V3_LOGIC*%
X109500000Y-51310000D03*
%TO.P,U1,R6*%
%TO.N,+5V_SERVO*%
X109500000Y-53850000D03*
%TO.P,U1,S8*%
%TO.N,PWM8*%
X85000000Y-53850000D03*
%TO.P,U1,S9*%
%TO.N,PWM9*%
X87540000Y-53850000D03*
%TO.P,U1,S10*%
%TO.N,PWM10*%
X90080000Y-53850000D03*
%TO.P,U1,S11*%
%TO.N,PWM11*%
X92620000Y-53850000D03*
%TO.P,U1,S12*%
%TO.N,PWM12*%
X97700000Y-53850000D03*
%TO.P,U1,S13*%
%TO.N,PWM13*%
X100240000Y-53850000D03*
%TO.P,U1,S14*%
%TO.N,PWM14*%
X102780000Y-53850000D03*
%TO.P,U1,S15*%
%TO.N,PWM15*%
X105320000Y-53850000D03*
%TO.P,U1,V8*%
%TO.N,+5V_SERVO*%
X85000000Y-56390000D03*
%TO.P,U1,V9*%
X87540000Y-56390000D03*
%TO.P,U1,V10*%
X90080000Y-56390000D03*
%TO.P,U1,V11*%
X92620000Y-56390000D03*
%TO.P,U1,V12*%
X97700000Y-56390000D03*
%TO.P,U1,V13*%
X100240000Y-56390000D03*
%TO.P,U1,V14*%
X102780000Y-56390000D03*
%TO.P,U1,V15*%
X105320000Y-56390000D03*
%TD*%
D12*
%TO.P,JP7,1*%
%TO.N,LED_OUT7*%
X198960000Y-80500000D03*
D13*
%TO.P,JP7,2*%
%TO.N,LED_IN8*%
X201500000Y-80500000D03*
%TO.P,JP7,3*%
%TO.N,LED_IN7*%
X204040000Y-80500000D03*
%TD*%
D12*
%TO.P,C6,1*%
%TO.N,+5V_SERVO*%
X57460000Y-99000000D03*
D13*
%TO.P,C6,2*%
%TO.N,GND*%
X60000000Y-99000000D03*
%TD*%
D12*
%TO.P,C9,1*%
%TO.N,+5V_SERVO*%
X134460000Y-99500000D03*
D13*
%TO.P,C9,2*%
%TO.N,GND*%
X137000000Y-99500000D03*
%TD*%
D12*
%TO.P,JP4,1*%
%TO.N,LED_OUT4*%
X120960000Y-80500000D03*
D13*
%TO.P,JP4,2*%
%TO.N,LED_IN5*%
X123500000Y-80500000D03*
%TO.P,JP4,3*%
%TO.N,LED_IN4*%
X126040000Y-80500000D03*
%TD*%
D12*
%TO.P,C11,1*%
%TO.N,+5V_SERVO*%
X186960000Y-99000000D03*
D13*
%TO.P,C11,2*%
%TO.N,GND*%
X189500000Y-99000000D03*
%TD*%
D12*
%TO.P,C5,1*%
%TO.N,+5V_SERVO*%
X32000000Y-99500000D03*
D13*
%TO.P,C5,2*%
%TO.N,GND*%
X34540000Y-99500000D03*
%TD*%
D14*
%TO.P,J3,1*%
%TO.N,+5V_SERVO*%
X58270000Y-108650000D03*
D15*
%TO.P,J3,2*%
X59540000Y-106110000D03*
%TO.P,J3,3*%
%TO.N,GND*%
X60810000Y-108650000D03*
%TO.P,J3,4*%
X62080000Y-106110000D03*
%TO.P,J3,5*%
%TO.N,PWM2*%
X63350000Y-108650000D03*
%TO.P,J3,6*%
%TO.N,PWM3*%
X64620000Y-106110000D03*
%TO.P,J3,7*%
%TO.N,LED_IN2*%
X65890000Y-108650000D03*
%TO.P,J3,8*%
%TO.N,LED_OUT2*%
X67160000Y-106110000D03*
%TD*%
D12*
%TO.P,JP5,1*%
%TO.N,LED_OUT5*%
X146960000Y-80500000D03*
D13*
%TO.P,JP5,2*%
%TO.N,LED_IN6*%
X149500000Y-80500000D03*
%TO.P,JP5,3*%
%TO.N,LED_IN5*%
X152040000Y-80500000D03*
%TD*%
D12*
%TO.P,C13,1*%
%TO.N,+5V_SERVO*%
X149230000Y-36500000D03*
D13*
%TO.P,C13,2*%
%TO.N,GND*%
X151770000Y-36500000D03*
%TD*%
D16*
%TO.P,C1,1*%
%TO.N,+5V_SERVO*%
X32500000Y-67500000D03*
D17*
%TO.P,C1,2*%
%TO.N,GND*%
X37500000Y-67500000D03*
%TD*%
D14*
%TO.P,J7,1*%
%TO.N,+5V_SERVO*%
X162270000Y-108650000D03*
D15*
%TO.P,J7,2*%
X163540000Y-106110000D03*
%TO.P,J7,3*%
%TO.N,GND*%
X164810000Y-108650000D03*
%TO.P,J7,4*%
X166080000Y-106110000D03*
%TO.P,J7,5*%
%TO.N,PWM10*%
X167350000Y-108650000D03*
%TO.P,J7,6*%
%TO.N,PWM11*%
X168620000Y-106110000D03*
%TO.P,J7,7*%
%TO.N,LED_IN6*%
X169890000Y-108650000D03*
%TO.P,J7,8*%
%TO.N,LED_OUT6*%
X171160000Y-106110000D03*
%TD*%
D18*
%TO.P,J11,1*%
%TO.N,+5V_SERVO*%
X210690000Y-32500000D03*
D19*
%TO.P,J11,2*%
%TO.N,GND*%
X218310000Y-32500000D03*
%TD*%
D12*
%TO.P,C8,1*%
%TO.N,+5V_SERVO*%
X109500000Y-98500000D03*
D13*
%TO.P,C8,2*%
%TO.N,GND*%
X112040000Y-98500000D03*
%TD*%
D14*
%TO.P,J4,1*%
%TO.N,+5V_SERVO*%
X84270000Y-108650000D03*
D15*
%TO.P,J4,2*%
X85540000Y-106110000D03*
%TO.P,J4,3*%
%TO.N,GND*%
X86810000Y-108650000D03*
%TO.P,J4,4*%
X88080000Y-106110000D03*
%TO.P,J4,5*%
%TO.N,PWM4*%
X89350000Y-108650000D03*
%TO.P,J4,6*%
%TO.N,PWM5*%
X90620000Y-106110000D03*
%TO.P,J4,7*%
%TO.N,LED_IN3*%
X91890000Y-108650000D03*
%TO.P,J4,8*%
%TO.N,LED_OUT3*%
X93160000Y-106110000D03*
%TD*%
D12*
%TO.P,JP3,1*%
%TO.N,LED_OUT3*%
X94960000Y-80500000D03*
D13*
%TO.P,JP3,2*%
%TO.N,LED_IN4*%
X97500000Y-80500000D03*
%TO.P,JP3,3*%
%TO.N,LED_IN3*%
X100040000Y-80500000D03*
%TD*%
D16*
%TO.P,C2,1*%
%TO.N,+5V_SERVO*%
X87000000Y-67500000D03*
D17*
%TO.P,C2,2*%
%TO.N,GND*%
X92000000Y-67500000D03*
%TD*%
D14*
%TO.P,J8,1*%
%TO.N,+5V_SERVO*%
X186340000Y-108650000D03*
D15*
%TO.P,J8,2*%
X187610000Y-106110000D03*
%TO.P,J8,3*%
%TO.N,GND*%
X188880000Y-108650000D03*
%TO.P,J8,4*%
X190150000Y-106110000D03*
%TO.P,J8,5*%
%TO.N,PWM12*%
X191420000Y-108650000D03*
%TO.P,J8,6*%
%TO.N,PWM13*%
X192690000Y-106110000D03*
%TO.P,J8,7*%
%TO.N,LED_IN7*%
X193960000Y-108650000D03*
%TO.P,J8,8*%
%TO.N,LED_OUT7*%
X195230000Y-106110000D03*
%TD*%
D12*
%TO.P,J1,1*%
%TO.N,GND*%
X31750000Y-32500000D03*
D13*
%TO.P,J1,2*%
X34250000Y-32500000D03*
%TO.P,J1,3*%
%TO.N,+3V3_LOGIC*%
X36750000Y-32500000D03*
%TO.P,J1,4*%
%TO.N,I2C_SDA*%
X39250000Y-32500000D03*
%TO.P,J1,5*%
%TO.N,I2C_SCL*%
X41750000Y-32500000D03*
%TO.P,J1,6*%
%TO.N,LED_DATA_3V3*%
X44250000Y-32500000D03*
%TO.P,J1,7*%
%TO.N,PCA_OE_N*%
X46750000Y-32500000D03*
%TO.P,J1,8*%
%TO.N,SPARE*%
X49250000Y-32500000D03*
%TD*%
D12*
%TO.P,C14,1*%
%TO.N,+5V_SERVO*%
X156230000Y-44500000D03*
D13*
%TO.P,C14,2*%
%TO.N,GND*%
X158770000Y-44500000D03*
%TD*%
D12*
%TO.P,C12,1*%
%TO.N,+5V_SERVO*%
X215000000Y-100000000D03*
D13*
%TO.P,C12,2*%
%TO.N,GND*%
X217540000Y-100000000D03*
%TD*%
D16*
%TO.P,C3,1*%
%TO.N,+5V_SERVO*%
X147000000Y-65500000D03*
D17*
%TO.P,C3,2*%
%TO.N,GND*%
X152000000Y-65500000D03*
%TD*%
D14*
%TO.P,J5,1*%
%TO.N,+5V_SERVO*%
X110270000Y-108650000D03*
D15*
%TO.P,J5,2*%
X111540000Y-106110000D03*
%TO.P,J5,3*%
%TO.N,GND*%
X112810000Y-108650000D03*
%TO.P,J5,4*%
X114080000Y-106110000D03*
%TO.P,J5,5*%
%TO.N,PWM6*%
X115350000Y-108650000D03*
%TO.P,J5,6*%
%TO.N,PWM7*%
X116620000Y-106110000D03*
%TO.P,J5,7*%
%TO.N,LED_IN4*%
X117890000Y-108650000D03*
%TO.P,J5,8*%
%TO.N,LED_OUT4*%
X119160000Y-106110000D03*
%TD*%
D12*
%TO.P,C10,1*%
%TO.N,+5V_SERVO*%
X163960000Y-99500000D03*
D13*
%TO.P,C10,2*%
%TO.N,GND*%
X166500000Y-99500000D03*
%TD*%
D16*
%TO.P,C4,1*%
%TO.N,+5V_SERVO*%
X199000000Y-65500000D03*
D17*
%TO.P,C4,2*%
%TO.N,GND*%
X204000000Y-65500000D03*
%TD*%
D14*
%TO.P,J6,1*%
%TO.N,+5V_SERVO*%
X136270000Y-108650000D03*
D15*
%TO.P,J6,2*%
X137540000Y-106110000D03*
%TO.P,J6,3*%
%TO.N,GND*%
X138810000Y-108650000D03*
%TO.P,J6,4*%
X140080000Y-106110000D03*
%TO.P,J6,5*%
%TO.N,PWM8*%
X141350000Y-108650000D03*
%TO.P,J6,6*%
%TO.N,PWM9*%
X142620000Y-106110000D03*
%TO.P,J6,7*%
%TO.N,LED_IN5*%
X143890000Y-108650000D03*
%TO.P,J6,8*%
%TO.N,LED_OUT5*%
X145160000Y-106110000D03*
%TD*%
D12*
%TO.P,C7,1*%
%TO.N,+5V_SERVO*%
X83960000Y-99000000D03*
D13*
%TO.P,C7,2*%
%TO.N,GND*%
X86500000Y-99000000D03*
%TD*%
D18*
%TO.P,J10,1*%
%TO.N,+5V_SERVO*%
X183690000Y-32500000D03*
D19*
%TO.P,J10,2*%
%TO.N,GND*%
X191310000Y-32500000D03*
%TD*%
D12*
%TO.P,JP2,1*%
%TO.N,LED_OUT2*%
X68960000Y-80500000D03*
D13*
%TO.P,JP2,2*%
%TO.N,LED_IN3*%
X71500000Y-80500000D03*
%TO.P,JP2,3*%
%TO.N,LED_IN2*%
X74040000Y-80500000D03*
%TD*%
D14*
%TO.P,J9,1*%
%TO.N,+5V_SERVO*%
X208770000Y-108650000D03*
D15*
%TO.P,J9,2*%
X210040000Y-106110000D03*
%TO.P,J9,3*%
%TO.N,GND*%
X211310000Y-108650000D03*
%TO.P,J9,4*%
X212580000Y-106110000D03*
%TO.P,J9,5*%
%TO.N,PWM14*%
X213850000Y-108650000D03*
%TO.P,J9,6*%
%TO.N,PWM15*%
X215120000Y-106110000D03*
%TO.P,J9,7*%
%TO.N,LED_IN8*%
X216390000Y-108650000D03*
%TO.P,J9,8*%
%TO.N,LED_OUT8*%
X217660000Y-106110000D03*
%TD*%
D12*
%TO.P,JP6,1*%
%TO.N,LED_OUT6*%
X172960000Y-80500000D03*
D13*
%TO.P,JP6,2*%
%TO.N,LED_IN7*%
X175500000Y-80500000D03*
%TO.P,JP6,3*%
%TO.N,LED_IN6*%
X178040000Y-80500000D03*
%TD*%
D14*
%TO.P,J2,1*%
%TO.N,+5V_SERVO*%
X32230000Y-108540000D03*
D15*
%TO.P,J2,2*%
X33500000Y-106000000D03*
%TO.P,J2,3*%
%TO.N,GND*%
X34770000Y-108540000D03*
%TO.P,J2,4*%
X36040000Y-106000000D03*
%TO.P,J2,5*%
%TO.N,PWM0*%
X37310000Y-108540000D03*
%TO.P,J2,6*%
%TO.N,PWM1*%
X38580000Y-106000000D03*
%TO.P,J2,7*%
%TO.N,LED_IN1*%
X39850000Y-108540000D03*
%TO.P,J2,8*%
%TO.N,LED_OUT1*%
X41120000Y-106000000D03*
%TD*%
D12*
%TO.P,JP1,1*%
%TO.N,LED_OUT1*%
X42960000Y-80500000D03*
D13*
%TO.P,JP1,2*%
%TO.N,LED_IN2*%
X45500000Y-80500000D03*
%TO.P,JP1,3*%
%TO.N,LED_IN1*%
X48040000Y-80500000D03*
%TD*%
D20*
%TO.N,PWM14*%
X105969669Y-52030331D03*
%TO.N,LED_IN7*%
X197500000Y-87000000D03*
%TO.N,LED_OUT4*%
X127000000Y-86500000D03*
%TO.N,LED_IN5*%
X131000000Y-85500000D03*
%TO.N,PWM2*%
X63600000Y-85000000D03*
%TO.N,PWM3*%
X64500000Y-102000000D03*
%TO.N,LED_IN2*%
X62000000Y-85500000D03*
%TO.N,LED_OUT5*%
X152600000Y-86100000D03*
%TO.N,PWM11*%
X158000000Y-103500000D03*
%TO.N,LED_OUT6*%
X179500000Y-87000000D03*
%TO.N,PWM5*%
X81000000Y-72500000D03*
%TO.N,PWM12*%
X194500000Y-76500000D03*
%TO.N,PWM13*%
X109500000Y-56500000D03*
X176330759Y-87430759D03*
X180950000Y-92050000D03*
%TO.N,PWM7*%
X80000000Y-69100000D03*
%TO.N,PWM8*%
X96100000Y-62500000D03*
%TO.N,PWM14*%
X195500000Y-96500000D03*
X151769238Y-102850000D03*
X172000000Y-99077301D03*
X146000000Y-97000000D03*
X183000000Y-94000000D03*
%TO.N,PWM15*%
X188500000Y-73500000D03*
%TO.N,PWM9*%
X95500000Y-52000000D03*
%TD*%
%TO.N,PWM14*%
D21*
X105969669Y-52030331D02*
X105939338Y-52000000D01*
X105939338Y-52000000D02*
X104630000Y-52000000D01*
X104630000Y-52000000D02*
X102780000Y-53850000D01*
%TD*%
M02*
