M48
; DRILL file KiCad 10.0.4 date 2026-08-16T11:32:20
; FORMAT={-:-/ absolute / metric / decimal}
; #@! TF.CreationDate,2026-08-16T11:32:20-05:00
; #@! TF.GenerationSoftware,Kicad,Pcbnew,10.0.4
; #@! TF.FileFunction,Plated,1,4,PTH
FMAT,2
METRIC
; #@! TA.AperFunction,Plated,PTH,ViaDrill
T1C0.400
; #@! TA.AperFunction,Plated,PTH,ViaDrill
T2C0.500
; #@! TA.AperFunction,Plated,PTH,ComponentDrill
T3C0.760
; #@! TA.AperFunction,Plated,PTH,ComponentDrill
T4C1.000
; #@! TA.AperFunction,Plated,PTH,ComponentDrill
T5C2.200
%
G90
G05
T1
X62.0Y-85.5
X63.6Y-85.0
X64.5Y-102.0
X80.0Y-69.1
X81.0Y-72.5
X96.1Y-62.5
X105.97Y-52.03
X109.5Y-56.5
X127.0Y-86.5
X131.0Y-85.5
X146.0Y-97.0
X151.769Y-102.85
X152.6Y-86.1
X158.0Y-103.5
X172.0Y-99.077
X176.331Y-87.431
X179.5Y-87.0
X180.95Y-92.05
X183.0Y-94.0
X188.5Y-73.5
X194.5Y-76.5
X195.5Y-96.5
X197.5Y-87.0
T2
X95.5Y-52.0
T3
X32.23Y-108.54
X33.5Y-106.0
X34.77Y-108.54
X36.04Y-106.0
X37.31Y-108.54
X38.58Y-106.0
X39.85Y-108.54
X41.12Y-106.0
X58.27Y-108.65
X59.54Y-106.11
X60.81Y-108.65
X62.08Y-106.11
X63.35Y-108.65
X64.62Y-106.11
X65.89Y-108.65
X67.16Y-106.11
X84.27Y-108.65
X85.54Y-106.11
X86.81Y-108.65
X88.08Y-106.11
X89.35Y-108.65
X90.62Y-106.11
X91.89Y-108.65
X93.16Y-106.11
X110.27Y-108.65
X111.54Y-106.11
X112.81Y-108.65
X114.08Y-106.11
X115.35Y-108.65
X116.62Y-106.11
X117.89Y-108.65
X119.16Y-106.11
X136.27Y-108.65
X137.54Y-106.11
X138.81Y-108.65
X140.08Y-106.11
X141.35Y-108.65
X142.62Y-106.11
X143.89Y-108.65
X145.16Y-106.11
X162.27Y-108.65
X163.54Y-106.11
X164.81Y-108.65
X166.08Y-106.11
X167.35Y-108.65
X168.62Y-106.11
X169.89Y-108.65
X171.16Y-106.11
X186.34Y-108.65
X187.61Y-106.11
X188.88Y-108.65
X190.15Y-106.11
X191.42Y-108.65
X192.69Y-106.11
X193.96Y-108.65
X195.23Y-106.11
X208.77Y-108.65
X210.04Y-106.11
X211.31Y-108.65
X212.58Y-106.11
X213.85Y-108.65
X215.12Y-106.11
X216.39Y-108.65
X217.66Y-106.11
T4
X31.75Y-32.5
X32.0Y-99.5
X32.5Y-67.5
X34.25Y-32.5
X34.54Y-99.5
X36.75Y-32.5
X37.5Y-67.5
X39.25Y-32.5
X41.75Y-32.5
X42.96Y-80.5
X44.25Y-32.5
X45.5Y-80.5
X46.75Y-32.5
X48.04Y-80.5
X49.25Y-32.5
X51.5Y-41.15
X51.5Y-43.69
X51.5Y-46.23
X51.5Y-48.77
X51.5Y-51.31
X51.5Y-53.85
X57.18Y-53.85
X57.18Y-56.39
X57.18Y-58.93
X57.46Y-99.0
X59.72Y-53.85
X59.72Y-56.39
X59.72Y-58.93
X60.0Y-99.0
X62.26Y-53.85
X62.26Y-56.39
X62.26Y-58.93
X64.8Y-53.85
X64.8Y-56.39
X64.8Y-58.93
X68.96Y-80.5
X69.88Y-53.85
X69.88Y-56.39
X69.88Y-58.93
X71.5Y-80.5
X72.42Y-53.85
X72.42Y-56.39
X72.42Y-58.93
X74.04Y-80.5
X74.96Y-53.85
X74.96Y-56.39
X74.96Y-58.93
X77.5Y-53.85
X77.5Y-56.39
X77.5Y-58.93
X83.96Y-99.0
X85.0Y-53.85
X85.0Y-56.39
X85.0Y-58.93
X86.5Y-99.0
X87.0Y-67.5
X87.54Y-53.85
X87.54Y-56.39
X87.54Y-58.93
X90.08Y-53.85
X90.08Y-56.39
X90.08Y-58.93
X92.0Y-67.5
X92.62Y-53.85
X92.62Y-56.39
X92.62Y-58.93
X94.96Y-80.5
X97.5Y-80.5
X97.7Y-53.85
X97.7Y-56.39
X97.7Y-58.93
X100.04Y-80.5
X100.24Y-53.85
X100.24Y-56.39
X100.24Y-58.93
X102.78Y-53.85
X102.78Y-56.39
X102.78Y-58.93
X105.32Y-53.85
X105.32Y-56.39
X105.32Y-58.93
X109.5Y-41.15
X109.5Y-43.69
X109.5Y-46.23
X109.5Y-48.77
X109.5Y-51.31
X109.5Y-53.85
X109.5Y-98.5
X112.04Y-98.5
X120.96Y-80.5
X123.5Y-80.5
X126.04Y-80.5
X134.46Y-99.5
X137.0Y-99.5
X146.96Y-80.5
X147.0Y-65.5
X149.23Y-36.5
X149.5Y-80.5
X151.77Y-36.5
X152.0Y-65.5
X152.04Y-80.5
X156.23Y-44.5
X158.77Y-44.5
X163.96Y-99.5
X166.5Y-99.5
X172.96Y-80.5
X175.5Y-80.5
X178.04Y-80.5
X186.96Y-99.0
X189.5Y-99.0
X198.96Y-80.5
X199.0Y-65.5
X201.5Y-80.5
X204.0Y-65.5
X204.04Y-80.5
X215.0Y-100.0
X217.54Y-100.0
T5
X183.69Y-32.5
X191.31Y-32.5
X210.69Y-32.5
X218.31Y-32.5
M30
