# Project Derek - Derek Unit static base
# Wavefront OBJ, units are relative fixture units. Y is up, front is negative Z.
# Static tin can body with rim and a front pinspot lens housing.

o Derek_Base_Static_Tin_Can
g can_body
v 0.000 0.000 -0.550
v 0.210 0.000 -0.508
v 0.389 0.000 -0.389
v 0.508 0.000 -0.210
v 0.550 0.000 0.000
v 0.508 0.000 0.210
v 0.389 0.000 0.389
v 0.210 0.000 0.508
v 0.000 0.000 0.550
v -0.210 0.000 0.508
v -0.389 0.000 0.389
v -0.508 0.000 0.210
v -0.550 0.000 0.000
v -0.508 0.000 -0.210
v -0.389 0.000 -0.389
v -0.210 0.000 -0.508
v 0.000 1.180 -0.550
v 0.210 1.180 -0.508
v 0.389 1.180 -0.389
v 0.508 1.180 -0.210
v 0.550 1.180 0.000
v 0.508 1.180 0.210
v 0.389 1.180 0.389
v 0.210 1.180 0.508
v 0.000 1.180 0.550
v -0.210 1.180 0.508
v -0.389 1.180 0.389
v -0.508 1.180 0.210
v -0.550 1.180 0.000
v -0.508 1.180 -0.210
v -0.389 1.180 -0.389
v -0.210 1.180 -0.508
f 1 2 18 17
f 2 3 19 18
f 3 4 20 19
f 4 5 21 20
f 5 6 22 21
f 6 7 23 22
f 7 8 24 23
f 8 9 25 24
f 9 10 26 25
f 10 11 27 26
f 11 12 28 27
f 12 13 29 28
f 13 14 30 29
f 14 15 31 30
f 15 16 32 31
f 16 1 17 32

g can_bottom
v 0.000 0.000 0.000
f 33 2 1
f 33 3 2
f 33 4 3
f 33 5 4
f 33 6 5
f 33 7 6
f 33 8 7
f 33 9 8
f 33 10 9
f 33 11 10
f 33 12 11
f 33 13 12
f 33 14 13
f 33 15 14
f 33 16 15
f 33 1 16

g rolled_top_rim
v 0.000 1.230 -0.620
v 0.237 1.230 -0.573
v 0.438 1.230 -0.438
v 0.573 1.230 -0.237
v 0.620 1.230 0.000
v 0.573 1.230 0.237
v 0.438 1.230 0.438
v 0.237 1.230 0.573
v 0.000 1.230 0.620
v -0.237 1.230 0.573
v -0.438 1.230 0.438
v -0.573 1.230 0.237
v -0.620 1.230 0.000
v -0.573 1.230 -0.237
v -0.438 1.230 -0.438
v -0.237 1.230 -0.573
f 17 18 35 34
f 18 19 36 35
f 19 20 37 36
f 20 21 38 37
f 21 22 39 38
f 22 23 40 39
f 23 24 41 40
f 24 25 42 41
f 25 26 43 42
f 26 27 44 43
f 27 28 45 44
f 28 29 46 45
f 29 30 47 46
f 30 31 48 47
f 31 32 49 48
f 32 17 34 49

g front_pinspot_body
v -0.180 0.360 -0.600
v 0.180 0.360 -0.600
v 0.180 0.620 -0.600
v -0.180 0.620 -0.600
v -0.150 0.390 -0.690
v 0.150 0.390 -0.690
v 0.150 0.590 -0.690
v -0.150 0.590 -0.690
f 50 51 52 53
f 54 57 56 55
f 50 54 55 51
f 51 55 56 52
f 52 56 57 53
f 53 57 54 50

g front_pinspot_lens
v 0.000 0.490 -0.705
v 0.000 0.600 -0.705
v 0.078 0.568 -0.705
v 0.110 0.490 -0.705
v 0.078 0.412 -0.705
v 0.000 0.380 -0.705
v -0.078 0.412 -0.705
v -0.110 0.490 -0.705
v -0.078 0.568 -0.705
f 58 59 60
f 58 60 61
f 58 61 62
f 58 62 63
f 58 63 64
f 58 64 65
f 58 65 66
f 58 66 59
