# Project Derek - Derek Unit head
# Wavefront OBJ, units are relative fixture units. Y is up, front is negative Z.
# Paired eyeballs with forward LED lenses. This part should be attached to the pan axis.

o Derek_Head_Eyeballs

g left_eyeball
v -0.240 1.650 -0.120
v -0.240 1.250 -0.120
v -0.040 1.450 -0.120
v -0.099 1.450 -0.261
v -0.240 1.450 -0.320
v -0.381 1.450 -0.261
v -0.440 1.450 -0.120
v -0.381 1.450 0.021
v -0.240 1.450 0.080
v -0.099 1.450 0.021
f 1 3 4
f 1 4 5
f 1 5 6
f 1 6 7
f 1 7 8
f 1 8 9
f 1 9 10
f 1 10 3
f 2 4 3
f 2 5 4
f 2 6 5
f 2 7 6
f 2 8 7
f 2 9 8
f 2 10 9
f 2 3 10

g right_eyeball
v 0.240 1.650 -0.120
v 0.240 1.250 -0.120
v 0.440 1.450 -0.120
v 0.381 1.450 -0.261
v 0.240 1.450 -0.320
v 0.099 1.450 -0.261
v 0.040 1.450 -0.120
v 0.099 1.450 0.021
v 0.240 1.450 0.080
v 0.381 1.450 0.021
f 11 13 14
f 11 14 15
f 11 15 16
f 11 16 17
f 11 17 18
f 11 18 19
f 11 19 20
f 11 20 13
f 12 14 13
f 12 15 14
f 12 16 15
f 12 17 16
f 12 18 17
f 12 19 18
f 12 20 19
f 12 13 20

g left_eye_led_lens
v -0.240 1.450 -0.335
v -0.240 1.540 -0.345
v -0.176 1.514 -0.345
v -0.150 1.450 -0.345
v -0.176 1.386 -0.345
v -0.240 1.360 -0.345
v -0.304 1.386 -0.345
v -0.330 1.450 -0.345
v -0.304 1.514 -0.345
f 21 22 23
f 21 23 24
f 21 24 25
f 21 25 26
f 21 26 27
f 21 27 28
f 21 28 29
f 21 29 22

g right_eye_led_lens
v 0.240 1.450 -0.335
v 0.240 1.540 -0.345
v 0.304 1.514 -0.345
v 0.330 1.450 -0.345
v 0.304 1.386 -0.345
v 0.240 1.360 -0.345
v 0.176 1.386 -0.345
v 0.150 1.450 -0.345
v 0.176 1.514 -0.345
f 30 31 32
f 30 32 33
f 30 33 34
f 30 34 35
f 30 35 36
f 30 36 37
f 30 37 38
f 30 38 31

g eyeball_pan_bar
v -0.520 1.410 -0.030
v 0.520 1.410 -0.030
v 0.520 1.490 -0.030
v -0.520 1.490 -0.030
v -0.520 1.410 0.030
v 0.520 1.410 0.030
v 0.520 1.490 0.030
v -0.520 1.490 0.030
f 39 40 41 42
f 43 46 45 44
f 39 43 44 40
f 40 44 45 41
f 41 45 46 42
f 42 46 43 39

g light_projection_reference
v -0.240 1.450 -0.345
v -0.310 1.520 -0.700
v -0.170 1.520 -0.700
v -0.170 1.380 -0.700
v -0.310 1.380 -0.700
v 0.240 1.450 -0.345
v 0.170 1.520 -0.700
v 0.310 1.520 -0.700
v 0.310 1.380 -0.700
v 0.170 1.380 -0.700
f 47 48 49
f 47 49 50
f 47 50 51
f 47 51 48
f 52 53 54
f 52 54 55
f 52 55 56
f 52 56 53
